  0
SECTION
  2
HEADER
  9
$ANGBASE
  50
0.0
  9
$ANGDIR
  70
1
  9
$MEASUREMENT
  70
1
  0
ENDSEC
  0
SECTION
  2
TABLES
  0
TABLE
  2
LTYPE
  70
4
  0
LTYPE
  5
40F
  2
CONTINUOUS
  70
0
  3
Solid line
  72
65
  73
0
  40
0.0
  0
LTYPE
  5
410
  2
DASHDOT
 70
0
  3
Dash Dot ____ _ ____ _
 72
65
 73
4
 40
2.0
 49
1.25
 49
-0.25
 49
0.25
 49
-0.25
  0
LTYPE
  5
411
  2
DASHED
 70
0
  3
Dashed __ __ __ __ __
 72
65
 73
2
 40
0.75
 49
0.5
 49
-0.25
  0
LTYPE
  5
43B
  2
DOTTED
 70
0
  3
Dotted .  .  .  .
 72
65
 73
2
 40
0.2
 49
0.0
 49
-0.2
  0
ENDTAB
  0
TABLE
  2
STYLE
  70
4
  0
STYLE
  2
KICAD
  70
0
  40
0
  41
1
  42
1
  50
0
  71
0
  3
isocp.shx
  0
STYLE
  2
KICADB
  70
0
  40
0
  41
1
  42
1
  50
0
  71
0
  3
isocp.shx
  0
STYLE
  2
KICADI
  70
0
  40
0
  41
1
  42
1
  50
15
  71
0
  3
isocp.shx
  0
STYLE
  2
KICADBI
  70
0
  40
0
  41
1
  42
1
  50
15
  71
0
  3
isocp.shx
  0
ENDTAB
  0
TABLE
  2
LAYER
  70
1
  0
LAYER
  2
BLACK
  70
0
  62
7
  6
CONTINUOUS
  0
ENDTAB
  0
ENDSEC
  0
SECTION
  2
ENTITIES
0
LINE
8
BLACK
6
CONTINUOUS
10
190.4499999999999886
20
-127.5749999999999886
11
188.8999999999999773
21
-127.5749999999999886
0
LINE
8
BLACK
6
CONTINUOUS
10
188.8999999999999773
20
-127.5749999999999886
11
188.8999999999999773
21
-126.5749999999999886
0
LINE
8
BLACK
6
CONTINUOUS
10
188.8999999999999773
20
-126.5749999999999886
11
190.4499999999999886
21
-126.5749999999999886
0
LINE
8
BLACK
6
CONTINUOUS
10
190.4499999999999886
20
-126.5749999999999886
11
190.4499999999999886
21
-127.5749999999999886
0
LINE
8
BLACK
6
CONTINUOUS
10
195.6999999999999886
20
-127.5749999999999886
11
194.1499999999999773
21
-127.5749999999999886
0
LINE
8
BLACK
6
CONTINUOUS
10
194.1499999999999773
20
-127.5749999999999886
11
194.1499999999999773
21
-126.5749999999999886
0
LINE
8
BLACK
6
CONTINUOUS
10
194.1499999999999773
20
-126.5749999999999886
11
195.6999999999999886
21
-126.5749999999999886
0
LINE
8
BLACK
6
CONTINUOUS
10
195.6999999999999886
20
-126.5749999999999886
11
195.6999999999999886
21
-127.5749999999999886
0
LINE
8
BLACK
6
CONTINUOUS
10
207.4749999999999943
20
-127.5749999999999886
11
205.9249999999999829
21
-127.5749999999999886
0
LINE
8
BLACK
6
CONTINUOUS
10
205.9249999999999829
20
-127.5749999999999886
11
205.9249999999999829
21
-126.5749999999999886
0
LINE
8
BLACK
6
CONTINUOUS
10
205.9249999999999829
20
-126.5749999999999886
11
207.4749999999999943
21
-126.5749999999999886
0
LINE
8
BLACK
6
CONTINUOUS
10
207.4749999999999943
20
-126.5749999999999886
11
207.4749999999999943
21
-127.5749999999999886
0
LINE
8
BLACK
6
CONTINUOUS
10
212.7249999999999943
20
-127.5749999999999886
11
211.1749999999999829
21
-127.5749999999999886
0
LINE
8
BLACK
6
CONTINUOUS
10
211.1749999999999829
20
-127.5749999999999886
11
211.1749999999999829
21
-126.5749999999999886
0
LINE
8
BLACK
6
CONTINUOUS
10
211.1749999999999829
20
-126.5749999999999886
11
212.7249999999999943
21
-126.5749999999999886
0
LINE
8
BLACK
6
CONTINUOUS
10
212.7249999999999943
20
-126.5749999999999886
11
212.7249999999999943
21
-127.5749999999999886
0
LINE
8
BLACK
6
CONTINUOUS
10
229.5
20
-127.5249999999999915
11
227.9499999999999886
21
-127.5249999999999915
0
LINE
8
BLACK
6
CONTINUOUS
10
227.9499999999999886
20
-127.5249999999999915
11
227.9499999999999886
21
-126.5249999999999915
0
LINE
8
BLACK
6
CONTINUOUS
10
227.9499999999999886
20
-126.5249999999999915
11
229.5
21
-126.5249999999999915
0
LINE
8
BLACK
6
CONTINUOUS
10
229.5
20
-126.5249999999999915
11
229.5
21
-127.5249999999999915
0
LINE
8
BLACK
6
CONTINUOUS
10
234.75
20
-127.5249999999999915
11
233.1999999999999886
21
-127.5249999999999915
0
LINE
8
BLACK
6
CONTINUOUS
10
233.1999999999999886
20
-127.5249999999999915
11
233.1999999999999886
21
-126.5249999999999915
0
LINE
8
BLACK
6
CONTINUOUS
10
233.1999999999999886
20
-126.5249999999999915
11
234.75
21
-126.5249999999999915
0
LINE
8
BLACK
6
CONTINUOUS
10
234.75
20
-126.5249999999999915
11
234.75
21
-127.5249999999999915
0
LINE
8
BLACK
6
CONTINUOUS
10
243.
20
-127.5249999999999915
11
241.4499999999999886
21
-127.5249999999999915
0
LINE
8
BLACK
6
CONTINUOUS
10
241.4499999999999886
20
-127.5249999999999915
11
241.4499999999999886
21
-126.5249999999999915
0
LINE
8
BLACK
6
CONTINUOUS
10
241.4499999999999886
20
-126.5249999999999915
11
243.
21
-126.5249999999999915
0
LINE
8
BLACK
6
CONTINUOUS
10
243.
20
-126.5249999999999915
11
243.
21
-127.5249999999999915
0
LINE
8
BLACK
6
CONTINUOUS
10
248.25
20
-127.5249999999999915
11
246.6999999999999886
21
-127.5249999999999915
0
LINE
8
BLACK
6
CONTINUOUS
10
246.6999999999999886
20
-127.5249999999999915
11
246.6999999999999886
21
-126.5249999999999915
0
LINE
8
BLACK
6
CONTINUOUS
10
246.6999999999999886
20
-126.5249999999999915
11
248.25
21
-126.5249999999999915
0
LINE
8
BLACK
6
CONTINUOUS
10
248.25
20
-126.5249999999999915
11
248.25
21
-127.5249999999999915
0
LINE
8
BLACK
6
CONTINUOUS
10
190.4499999999999886
20
-125.875
11
188.8999999999999773
21
-125.875
0
LINE
8
BLACK
6
CONTINUOUS
10
188.8999999999999773
20
-125.875
11
188.8999999999999773
21
-124.875
0
LINE
8
BLACK
6
CONTINUOUS
10
188.8999999999999773
20
-124.875
11
190.4499999999999886
21
-124.875
0
LINE
8
BLACK
6
CONTINUOUS
10
190.4499999999999886
20
-124.875
11
190.4499999999999886
21
-125.875
0
LINE
8
BLACK
6
CONTINUOUS
10
195.6999999999999886
20
-125.875
11
194.1499999999999773
21
-125.875
0
LINE
8
BLACK
6
CONTINUOUS
10
194.1499999999999773
20
-125.875
11
194.1499999999999773
21
-124.875
0
LINE
8
BLACK
6
CONTINUOUS
10
194.1499999999999773
20
-124.875
11
195.6999999999999886
21
-124.875
0
LINE
8
BLACK
6
CONTINUOUS
10
195.6999999999999886
20
-124.875
11
195.6999999999999886
21
-125.875
0
LINE
8
BLACK
6
CONTINUOUS
10
207.4749999999999943
20
-125.875
11
205.9249999999999829
21
-125.875
0
LINE
8
BLACK
6
CONTINUOUS
10
205.9249999999999829
20
-125.875
11
205.9249999999999829
21
-124.875
0
LINE
8
BLACK
6
CONTINUOUS
10
205.9249999999999829
20
-124.875
11
207.4749999999999943
21
-124.875
0
LINE
8
BLACK
6
CONTINUOUS
10
207.4749999999999943
20
-124.875
11
207.4749999999999943
21
-125.875
0
LINE
8
BLACK
6
CONTINUOUS
10
212.7249999999999943
20
-125.875
11
211.1749999999999829
21
-125.875
0
LINE
8
BLACK
6
CONTINUOUS
10
211.1749999999999829
20
-125.875
11
211.1749999999999829
21
-124.875
0
LINE
8
BLACK
6
CONTINUOUS
10
211.1749999999999829
20
-124.875
11
212.7249999999999943
21
-124.875
0
LINE
8
BLACK
6
CONTINUOUS
10
212.7249999999999943
20
-124.875
11
212.7249999999999943
21
-125.875
0
LINE
8
BLACK
6
CONTINUOUS
10
229.5
20
-125.8249999999999886
11
227.9499999999999886
21
-125.8249999999999886
0
LINE
8
BLACK
6
CONTINUOUS
10
227.9499999999999886
20
-125.8249999999999886
11
227.9499999999999886
21
-124.8249999999999886
0
LINE
8
BLACK
6
CONTINUOUS
10
227.9499999999999886
20
-124.8249999999999886
11
229.5
21
-124.8249999999999886
0
LINE
8
BLACK
6
CONTINUOUS
10
229.5
20
-124.8249999999999886
11
229.5
21
-125.8249999999999886
0
LINE
8
BLACK
6
CONTINUOUS
10
234.75
20
-125.8249999999999886
11
233.1999999999999886
21
-125.8249999999999886
0
LINE
8
BLACK
6
CONTINUOUS
10
233.1999999999999886
20
-125.8249999999999886
11
233.1999999999999886
21
-124.8249999999999886
0
LINE
8
BLACK
6
CONTINUOUS
10
233.1999999999999886
20
-124.8249999999999886
11
234.75
21
-124.8249999999999886
0
LINE
8
BLACK
6
CONTINUOUS
10
234.75
20
-124.8249999999999886
11
234.75
21
-125.8249999999999886
0
LINE
8
BLACK
6
CONTINUOUS
10
243.
20
-125.8249999999999886
11
241.4499999999999886
21
-125.8249999999999886
0
LINE
8
BLACK
6
CONTINUOUS
10
241.4499999999999886
20
-125.8249999999999886
11
241.4499999999999886
21
-124.8249999999999886
0
LINE
8
BLACK
6
CONTINUOUS
10
241.4499999999999886
20
-124.8249999999999886
11
243.
21
-124.8249999999999886
0
LINE
8
BLACK
6
CONTINUOUS
10
243.
20
-124.8249999999999886
11
243.
21
-125.8249999999999886
0
LINE
8
BLACK
6
CONTINUOUS
10
248.25
20
-125.8249999999999886
11
246.6999999999999886
21
-125.8249999999999886
0
LINE
8
BLACK
6
CONTINUOUS
10
246.6999999999999886
20
-125.8249999999999886
11
246.6999999999999886
21
-124.8249999999999886
0
LINE
8
BLACK
6
CONTINUOUS
10
246.6999999999999886
20
-124.8249999999999886
11
248.25
21
-124.8249999999999886
0
LINE
8
BLACK
6
CONTINUOUS
10
248.25
20
-124.8249999999999886
11
248.25
21
-125.8249999999999886
0
LINE
8
BLACK
6
CONTINUOUS
10
193.0300000000000011
20
-120.1099999999999994
11
192.7099999999999795
21
-120.1099999999999994
0
LINE
8
BLACK
6
CONTINUOUS
10
192.7099999999999795
20
-120.1099999999999994
11
192.7099999999999795
21
-121.0499999999999972
0
LINE
8
BLACK
6
CONTINUOUS
10
192.7099999999999795
20
-121.0499999999999972
11
191.2099999999999795
21
-121.0499999999999972
0
LINE
8
BLACK
6
CONTINUOUS
10
191.2099999999999795
20
-121.0499999999999972
11
191.2099999999999795
21
-120.1099999999999994
0
LINE
8
BLACK
6
CONTINUOUS
10
191.2099999999999795
20
-120.1099999999999994
11
190.8299999999999841
21
-120.1099999999999994
0
LINE
8
BLACK
6
CONTINUOUS
10
190.8299999999999841
20
-120.1099999999999994
11
190.8299999999999841
21
-116.3099999999999881
0
LINE
8
BLACK
6
CONTINUOUS
10
190.8299999999999841
20
-116.3099999999999881
11
193.0300000000000011
21
-116.3099999999999881
0
LINE
8
BLACK
6
CONTINUOUS
10
193.0300000000000011
20
-116.3099999999999881
11
193.0300000000000011
21
-120.1099999999999994
0
LINE
8
BLACK
6
CONTINUOUS
10
198.1099999999999852
20
-120.1099999999999994
11
197.789999999999992
21
-120.1099999999999994
0
LINE
8
BLACK
6
CONTINUOUS
10
197.789999999999992
20
-120.1099999999999994
11
197.789999999999992
21
-121.0499999999999972
0
LINE
8
BLACK
6
CONTINUOUS
10
197.789999999999992
20
-121.0499999999999972
11
196.289999999999992
21
-121.0499999999999972
0
LINE
8
BLACK
6
CONTINUOUS
10
196.289999999999992
20
-121.0499999999999972
11
196.289999999999992
21
-120.1099999999999994
0
LINE
8
BLACK
6
CONTINUOUS
10
196.289999999999992
20
-120.1099999999999994
11
195.9099999999999966
21
-120.1099999999999994
0
LINE
8
BLACK
6
CONTINUOUS
10
195.9099999999999966
20
-120.1099999999999994
11
195.9099999999999966
21
-116.3099999999999881
0
LINE
8
BLACK
6
CONTINUOUS
10
195.9099999999999966
20
-116.3099999999999881
11
198.1099999999999852
21
-116.3099999999999881
0
LINE
8
BLACK
6
CONTINUOUS
10
198.1099999999999852
20
-116.3099999999999881
11
198.1099999999999852
21
-120.1099999999999994
0
LINE
8
BLACK
6
CONTINUOUS
10
203.1899999999999977
20
-120.1099999999999994
11
202.8700000000000045
21
-120.1099999999999994
0
LINE
8
BLACK
6
CONTINUOUS
10
202.8700000000000045
20
-120.1099999999999994
11
202.8700000000000045
21
-121.0499999999999972
0
LINE
8
BLACK
6
CONTINUOUS
10
202.8700000000000045
20
-121.0499999999999972
11
201.3700000000000045
21
-121.0499999999999972
0
LINE
8
BLACK
6
CONTINUOUS
10
201.3700000000000045
20
-121.0499999999999972
11
201.3700000000000045
21
-120.1099999999999994
0
LINE
8
BLACK
6
CONTINUOUS
10
201.3700000000000045
20
-120.1099999999999994
11
200.9899999999999807
21
-120.1099999999999994
0
LINE
8
BLACK
6
CONTINUOUS
10
200.9899999999999807
20
-120.1099999999999994
11
200.9899999999999807
21
-116.3099999999999881
0
LINE
8
BLACK
6
CONTINUOUS
10
200.9899999999999807
20
-116.3099999999999881
11
203.1899999999999977
21
-116.3099999999999881
0
LINE
8
BLACK
6
CONTINUOUS
10
203.1899999999999977
20
-116.3099999999999881
11
203.1899999999999977
21
-120.1099999999999994
0
LINE
8
BLACK
6
CONTINUOUS
10
208.2699999999999818
20
-120.1099999999999994
11
207.9499999999999886
21
-120.1099999999999994
0
LINE
8
BLACK
6
CONTINUOUS
10
207.9499999999999886
20
-120.1099999999999994
11
207.9499999999999886
21
-121.0499999999999972
0
LINE
8
BLACK
6
CONTINUOUS
10
207.9499999999999886
20
-121.0499999999999972
11
206.4499999999999886
21
-121.0499999999999972
0
LINE
8
BLACK
6
CONTINUOUS
10
206.4499999999999886
20
-121.0499999999999972
11
206.4499999999999886
21
-120.1099999999999994
0
LINE
8
BLACK
6
CONTINUOUS
10
206.4499999999999886
20
-120.1099999999999994
11
206.0699999999999932
21
-120.1099999999999994
0
LINE
8
BLACK
6
CONTINUOUS
10
206.0699999999999932
20
-120.1099999999999994
11
206.0699999999999932
21
-116.3099999999999881
0
LINE
8
BLACK
6
CONTINUOUS
10
206.0699999999999932
20
-116.3099999999999881
11
208.2699999999999818
21
-116.3099999999999881
0
LINE
8
BLACK
6
CONTINUOUS
10
208.2699999999999818
20
-116.3099999999999881
11
208.2699999999999818
21
-120.1099999999999994
0
LINE
8
BLACK
6
CONTINUOUS
10
213.3499999999999943
20
-120.1099999999999994
11
213.0300000000000011
21
-120.1099999999999994
0
LINE
8
BLACK
6
CONTINUOUS
10
213.0300000000000011
20
-120.1099999999999994
11
213.0300000000000011
21
-121.0499999999999972
0
LINE
8
BLACK
6
CONTINUOUS
10
213.0300000000000011
20
-121.0499999999999972
11
211.5300000000000011
21
-121.0499999999999972
0
LINE
8
BLACK
6
CONTINUOUS
10
211.5300000000000011
20
-121.0499999999999972
11
211.5300000000000011
21
-120.1099999999999994
0
LINE
8
BLACK
6
CONTINUOUS
10
211.5300000000000011
20
-120.1099999999999994
11
211.1499999999999773
21
-120.1099999999999994
0
LINE
8
BLACK
6
CONTINUOUS
10
211.1499999999999773
20
-120.1099999999999994
11
211.1499999999999773
21
-116.3099999999999881
0
LINE
8
BLACK
6
CONTINUOUS
10
211.1499999999999773
20
-116.3099999999999881
11
213.3499999999999943
21
-116.3099999999999881
0
LINE
8
BLACK
6
CONTINUOUS
10
213.3499999999999943
20
-116.3099999999999881
11
213.3499999999999943
21
-120.1099999999999994
0
LINE
8
BLACK
6
CONTINUOUS
10
218.4299999999999784
20
-120.1099999999999994
11
218.1099999999999852
21
-120.1099999999999994
0
LINE
8
BLACK
6
CONTINUOUS
10
218.1099999999999852
20
-120.1099999999999994
11
218.1099999999999852
21
-121.0499999999999972
0
LINE
8
BLACK
6
CONTINUOUS
10
218.1099999999999852
20
-121.0499999999999972
11
216.6099999999999852
21
-121.0499999999999972
0
LINE
8
BLACK
6
CONTINUOUS
10
216.6099999999999852
20
-121.0499999999999972
11
216.6099999999999852
21
-120.1099999999999994
0
LINE
8
BLACK
6
CONTINUOUS
10
216.6099999999999852
20
-120.1099999999999994
11
216.2299999999999898
21
-120.1099999999999994
0
LINE
8
BLACK
6
CONTINUOUS
10
216.2299999999999898
20
-120.1099999999999994
11
216.2299999999999898
21
-116.3099999999999881
0
LINE
8
BLACK
6
CONTINUOUS
10
216.2299999999999898
20
-116.3099999999999881
11
218.4299999999999784
21
-116.3099999999999881
0
LINE
8
BLACK
6
CONTINUOUS
10
218.4299999999999784
20
-116.3099999999999881
11
218.4299999999999784
21
-120.1099999999999994
0
LINE
8
BLACK
6
CONTINUOUS
10
223.5099999999999909
20
-120.1099999999999994
11
223.1899999999999977
21
-120.1099999999999994
0
LINE
8
BLACK
6
CONTINUOUS
10
223.1899999999999977
20
-120.1099999999999994
11
223.1899999999999977
21
-121.0499999999999972
0
LINE
8
BLACK
6
CONTINUOUS
10
223.1899999999999977
20
-121.0499999999999972
11
221.6899999999999977
21
-121.0499999999999972
0
LINE
8
BLACK
6
CONTINUOUS
10
221.6899999999999977
20
-121.0499999999999972
11
221.6899999999999977
21
-120.1099999999999994
0
LINE
8
BLACK
6
CONTINUOUS
10
221.6899999999999977
20
-120.1099999999999994
11
221.3100000000000023
21
-120.1099999999999994
0
LINE
8
BLACK
6
CONTINUOUS
10
221.3100000000000023
20
-120.1099999999999994
11
221.3100000000000023
21
-116.3099999999999881
0
LINE
8
BLACK
6
CONTINUOUS
10
221.3100000000000023
20
-116.3099999999999881
11
223.5099999999999909
21
-116.3099999999999881
0
LINE
8
BLACK
6
CONTINUOUS
10
223.5099999999999909
20
-116.3099999999999881
11
223.5099999999999909
21
-120.1099999999999994
0
LINE
8
BLACK
6
CONTINUOUS
10
228.5900000000000034
20
-120.1099999999999994
11
228.2699999999999818
21
-120.1099999999999994
0
LINE
8
BLACK
6
CONTINUOUS
10
228.2699999999999818
20
-120.1099999999999994
11
228.2699999999999818
21
-121.0499999999999972
0
LINE
8
BLACK
6
CONTINUOUS
10
228.2699999999999818
20
-121.0499999999999972
11
226.7699999999999818
21
-121.0499999999999972
0
LINE
8
BLACK
6
CONTINUOUS
10
226.7699999999999818
20
-121.0499999999999972
11
226.7699999999999818
21
-120.1099999999999994
0
LINE
8
BLACK
6
CONTINUOUS
10
226.7699999999999818
20
-120.1099999999999994
11
226.3899999999999864
21
-120.1099999999999994
0
LINE
8
BLACK
6
CONTINUOUS
10
226.3899999999999864
20
-120.1099999999999994
11
226.3899999999999864
21
-116.3099999999999881
0
LINE
8
BLACK
6
CONTINUOUS
10
226.3899999999999864
20
-116.3099999999999881
11
228.5900000000000034
21
-116.3099999999999881
0
LINE
8
BLACK
6
CONTINUOUS
10
228.5900000000000034
20
-116.3099999999999881
11
228.5900000000000034
21
-120.1099999999999994
0
LINE
8
BLACK
6
CONTINUOUS
10
233.6699999999999875
20
-120.1099999999999994
11
233.3499999999999943
21
-120.1099999999999994
0
LINE
8
BLACK
6
CONTINUOUS
10
233.3499999999999943
20
-120.1099999999999994
11
233.3499999999999943
21
-121.0499999999999972
0
LINE
8
BLACK
6
CONTINUOUS
10
233.3499999999999943
20
-121.0499999999999972
11
231.8499999999999943
21
-121.0499999999999972
0
LINE
8
BLACK
6
CONTINUOUS
10
231.8499999999999943
20
-121.0499999999999972
11
231.8499999999999943
21
-120.1099999999999994
0
LINE
8
BLACK
6
CONTINUOUS
10
231.8499999999999943
20
-120.1099999999999994
11
231.4699999999999989
21
-120.1099999999999994
0
LINE
8
BLACK
6
CONTINUOUS
10
231.4699999999999989
20
-120.1099999999999994
11
231.4699999999999989
21
-116.3099999999999881
0
LINE
8
BLACK
6
CONTINUOUS
10
231.4699999999999989
20
-116.3099999999999881
11
233.6699999999999875
21
-116.3099999999999881
0
LINE
8
BLACK
6
CONTINUOUS
10
233.6699999999999875
20
-116.3099999999999881
11
233.6699999999999875
21
-120.1099999999999994
0
LINE
8
BLACK
6
CONTINUOUS
10
238.75
20
-120.1099999999999994
11
238.4299999999999784
21
-120.1099999999999994
0
LINE
8
BLACK
6
CONTINUOUS
10
238.4299999999999784
20
-120.1099999999999994
11
238.4299999999999784
21
-121.0499999999999972
0
LINE
8
BLACK
6
CONTINUOUS
10
238.4299999999999784
20
-121.0499999999999972
11
236.9299999999999784
21
-121.0499999999999972
0
LINE
8
BLACK
6
CONTINUOUS
10
236.9299999999999784
20
-121.0499999999999972
11
236.9299999999999784
21
-120.1099999999999994
0
LINE
8
BLACK
6
CONTINUOUS
10
236.9299999999999784
20
-120.1099999999999994
11
236.5499999999999829
21
-120.1099999999999994
0
LINE
8
BLACK
6
CONTINUOUS
10
236.5499999999999829
20
-120.1099999999999994
11
236.5499999999999829
21
-116.3099999999999881
0
LINE
8
BLACK
6
CONTINUOUS
10
236.5499999999999829
20
-116.3099999999999881
11
238.75
21
-116.3099999999999881
0
LINE
8
BLACK
6
CONTINUOUS
10
238.75
20
-116.3099999999999881
11
238.75
21
-120.1099999999999994
0
LINE
8
BLACK
6
CONTINUOUS
10
190.1699999999999875
20
-116.3099999999999881
11
190.4899999999999807
21
-116.3099999999999881
0
LINE
8
BLACK
6
CONTINUOUS
10
190.4899999999999807
20
-116.3099999999999881
11
190.4899999999999807
21
-120.1099999999999994
0
LINE
8
BLACK
6
CONTINUOUS
10
190.4899999999999807
20
-120.1099999999999994
11
188.289999999999992
21
-120.1099999999999994
0
LINE
8
BLACK
6
CONTINUOUS
10
188.289999999999992
20
-120.1099999999999994
11
188.289999999999992
21
-116.3099999999999881
0
LINE
8
BLACK
6
CONTINUOUS
10
188.289999999999992
20
-116.3099999999999881
11
188.6699999999999875
21
-116.3099999999999881
0
LINE
8
BLACK
6
CONTINUOUS
10
188.6699999999999875
20
-116.3099999999999881
11
188.6699999999999875
21
-115.25
0
LINE
8
BLACK
6
CONTINUOUS
10
188.6699999999999875
20
-115.25
11
190.1699999999999875
21
-115.25
0
LINE
8
BLACK
6
CONTINUOUS
10
190.1699999999999875
20
-115.25
11
190.1699999999999875
21
-116.3099999999999881
0
LINE
8
BLACK
6
CONTINUOUS
10
195.25
20
-116.3099999999999881
11
195.5699999999999932
21
-116.3099999999999881
0
LINE
8
BLACK
6
CONTINUOUS
10
195.5699999999999932
20
-116.3099999999999881
11
195.5699999999999932
21
-120.1099999999999994
0
LINE
8
BLACK
6
CONTINUOUS
10
195.5699999999999932
20
-120.1099999999999994
11
193.3700000000000045
21
-120.1099999999999994
0
LINE
8
BLACK
6
CONTINUOUS
10
193.3700000000000045
20
-120.1099999999999994
11
193.3700000000000045
21
-116.3099999999999881
0
LINE
8
BLACK
6
CONTINUOUS
10
193.3700000000000045
20
-116.3099999999999881
11
193.75
21
-116.3099999999999881
0
LINE
8
BLACK
6
CONTINUOUS
10
193.75
20
-116.3099999999999881
11
193.75
21
-115.25
0
LINE
8
BLACK
6
CONTINUOUS
10
193.75
20
-115.25
11
195.25
21
-115.25
0
LINE
8
BLACK
6
CONTINUOUS
10
195.25
20
-115.25
11
195.25
21
-116.3099999999999881
0
LINE
8
BLACK
6
CONTINUOUS
10
200.3299999999999841
20
-116.3099999999999881
11
200.6499999999999773
21
-116.3099999999999881
0
LINE
8
BLACK
6
CONTINUOUS
10
200.6499999999999773
20
-116.3099999999999881
11
200.6499999999999773
21
-120.1099999999999994
0
LINE
8
BLACK
6
CONTINUOUS
10
200.6499999999999773
20
-120.1099999999999994
11
198.4499999999999886
21
-120.1099999999999994
0
LINE
8
BLACK
6
CONTINUOUS
10
198.4499999999999886
20
-120.1099999999999994
11
198.4499999999999886
21
-116.3099999999999881
0
LINE
8
BLACK
6
CONTINUOUS
10
198.4499999999999886
20
-116.3099999999999881
11
198.8299999999999841
21
-116.3099999999999881
0
LINE
8
BLACK
6
CONTINUOUS
10
198.8299999999999841
20
-116.3099999999999881
11
198.8299999999999841
21
-115.25
0
LINE
8
BLACK
6
CONTINUOUS
10
198.8299999999999841
20
-115.25
11
200.3299999999999841
21
-115.25
0
LINE
8
BLACK
6
CONTINUOUS
10
200.3299999999999841
20
-115.25
11
200.3299999999999841
21
-116.3099999999999881
0
LINE
8
BLACK
6
CONTINUOUS
10
205.4099999999999966
20
-116.3099999999999881
11
205.7299999999999898
21
-116.3099999999999881
0
LINE
8
BLACK
6
CONTINUOUS
10
205.7299999999999898
20
-116.3099999999999881
11
205.7299999999999898
21
-120.1099999999999994
0
LINE
8
BLACK
6
CONTINUOUS
10
205.7299999999999898
20
-120.1099999999999994
11
203.5300000000000011
21
-120.1099999999999994
0
LINE
8
BLACK
6
CONTINUOUS
10
203.5300000000000011
20
-120.1099999999999994
11
203.5300000000000011
21
-116.3099999999999881
0
LINE
8
BLACK
6
CONTINUOUS
10
203.5300000000000011
20
-116.3099999999999881
11
203.9099999999999966
21
-116.3099999999999881
0
LINE
8
BLACK
6
CONTINUOUS
10
203.9099999999999966
20
-116.3099999999999881
11
203.9099999999999966
21
-115.25
0
LINE
8
BLACK
6
CONTINUOUS
10
203.9099999999999966
20
-115.25
11
205.4099999999999966
21
-115.25
0
LINE
8
BLACK
6
CONTINUOUS
10
205.4099999999999966
20
-115.25
11
205.4099999999999966
21
-116.3099999999999881
0
LINE
8
BLACK
6
CONTINUOUS
10
210.4899999999999807
20
-116.3099999999999881
11
210.8100000000000023
21
-116.3099999999999881
0
LINE
8
BLACK
6
CONTINUOUS
10
210.8100000000000023
20
-116.3099999999999881
11
210.8100000000000023
21
-120.1099999999999994
0
LINE
8
BLACK
6
CONTINUOUS
10
210.8100000000000023
20
-120.1099999999999994
11
208.6099999999999852
21
-120.1099999999999994
0
LINE
8
BLACK
6
CONTINUOUS
10
208.6099999999999852
20
-120.1099999999999994
11
208.6099999999999852
21
-116.3099999999999881
0
LINE
8
BLACK
6
CONTINUOUS
10
208.6099999999999852
20
-116.3099999999999881
11
208.9899999999999807
21
-116.3099999999999881
0
LINE
8
BLACK
6
CONTINUOUS
10
208.9899999999999807
20
-116.3099999999999881
11
208.9899999999999807
21
-115.25
0
LINE
8
BLACK
6
CONTINUOUS
10
208.9899999999999807
20
-115.25
11
210.4899999999999807
21
-115.25
0
LINE
8
BLACK
6
CONTINUOUS
10
210.4899999999999807
20
-115.25
11
210.4899999999999807
21
-116.3099999999999881
0
LINE
8
BLACK
6
CONTINUOUS
10
215.5699999999999932
20
-116.3099999999999881
11
215.8899999999999864
21
-116.3099999999999881
0
LINE
8
BLACK
6
CONTINUOUS
10
215.8899999999999864
20
-116.3099999999999881
11
215.8899999999999864
21
-120.1099999999999994
0
LINE
8
BLACK
6
CONTINUOUS
10
215.8899999999999864
20
-120.1099999999999994
11
213.6899999999999977
21
-120.1099999999999994
0
LINE
8
BLACK
6
CONTINUOUS
10
213.6899999999999977
20
-120.1099999999999994
11
213.6899999999999977
21
-116.3099999999999881
0
LINE
8
BLACK
6
CONTINUOUS
10
213.6899999999999977
20
-116.3099999999999881
11
214.0699999999999932
21
-116.3099999999999881
0
LINE
8
BLACK
6
CONTINUOUS
10
214.0699999999999932
20
-116.3099999999999881
11
214.0699999999999932
21
-115.25
0
LINE
8
BLACK
6
CONTINUOUS
10
214.0699999999999932
20
-115.25
11
215.5699999999999932
21
-115.25
0
LINE
8
BLACK
6
CONTINUOUS
10
215.5699999999999932
20
-115.25
11
215.5699999999999932
21
-116.3099999999999881
0
LINE
8
BLACK
6
CONTINUOUS
10
220.6499999999999773
20
-116.3099999999999881
11
220.9699999999999989
21
-116.3099999999999881
0
LINE
8
BLACK
6
CONTINUOUS
10
220.9699999999999989
20
-116.3099999999999881
11
220.9699999999999989
21
-120.1099999999999994
0
LINE
8
BLACK
6
CONTINUOUS
10
220.9699999999999989
20
-120.1099999999999994
11
218.7699999999999818
21
-120.1099999999999994
0
LINE
8
BLACK
6
CONTINUOUS
10
218.7699999999999818
20
-120.1099999999999994
11
218.7699999999999818
21
-116.3099999999999881
0
LINE
8
BLACK
6
CONTINUOUS
10
218.7699999999999818
20
-116.3099999999999881
11
219.1499999999999773
21
-116.3099999999999881
0
LINE
8
BLACK
6
CONTINUOUS
10
219.1499999999999773
20
-116.3099999999999881
11
219.1499999999999773
21
-115.25
0
LINE
8
BLACK
6
CONTINUOUS
10
219.1499999999999773
20
-115.25
11
220.6499999999999773
21
-115.25
0
LINE
8
BLACK
6
CONTINUOUS
10
220.6499999999999773
20
-115.25
11
220.6499999999999773
21
-116.3099999999999881
0
LINE
8
BLACK
6
CONTINUOUS
10
225.7299999999999898
20
-116.3099999999999881
11
226.0499999999999829
21
-116.3099999999999881
0
LINE
8
BLACK
6
CONTINUOUS
10
226.0499999999999829
20
-116.3099999999999881
11
226.0499999999999829
21
-120.1099999999999994
0
LINE
8
BLACK
6
CONTINUOUS
10
226.0499999999999829
20
-120.1099999999999994
11
223.8499999999999943
21
-120.1099999999999994
0
LINE
8
BLACK
6
CONTINUOUS
10
223.8499999999999943
20
-120.1099999999999994
11
223.8499999999999943
21
-116.3099999999999881
0
LINE
8
BLACK
6
CONTINUOUS
10
223.8499999999999943
20
-116.3099999999999881
11
224.2299999999999898
21
-116.3099999999999881
0
LINE
8
BLACK
6
CONTINUOUS
10
224.2299999999999898
20
-116.3099999999999881
11
224.2299999999999898
21
-115.25
0
LINE
8
BLACK
6
CONTINUOUS
10
224.2299999999999898
20
-115.25
11
225.7299999999999898
21
-115.25
0
LINE
8
BLACK
6
CONTINUOUS
10
225.7299999999999898
20
-115.25
11
225.7299999999999898
21
-116.3099999999999881
0
LINE
8
BLACK
6
CONTINUOUS
10
230.8100000000000023
20
-116.3099999999999881
11
231.1299999999999955
21
-116.3099999999999881
0
LINE
8
BLACK
6
CONTINUOUS
10
231.1299999999999955
20
-116.3099999999999881
11
231.1299999999999955
21
-120.1099999999999994
0
LINE
8
BLACK
6
CONTINUOUS
10
231.1299999999999955
20
-120.1099999999999994
11
228.9299999999999784
21
-120.1099999999999994
0
LINE
8
BLACK
6
CONTINUOUS
10
228.9299999999999784
20
-120.1099999999999994
11
228.9299999999999784
21
-116.3099999999999881
0
LINE
8
BLACK
6
CONTINUOUS
10
228.9299999999999784
20
-116.3099999999999881
11
229.3100000000000023
21
-116.3099999999999881
0
LINE
8
BLACK
6
CONTINUOUS
10
229.3100000000000023
20
-116.3099999999999881
11
229.3100000000000023
21
-115.25
0
LINE
8
BLACK
6
CONTINUOUS
10
229.3100000000000023
20
-115.25
11
230.8100000000000023
21
-115.25
0
LINE
8
BLACK
6
CONTINUOUS
10
230.8100000000000023
20
-115.25
11
230.8100000000000023
21
-116.3099999999999881
0
LINE
8
BLACK
6
CONTINUOUS
10
235.8899999999999864
20
-116.3099999999999881
11
236.2099999999999795
21
-116.3099999999999881
0
LINE
8
BLACK
6
CONTINUOUS
10
236.2099999999999795
20
-116.3099999999999881
11
236.2099999999999795
21
-120.1099999999999994
0
LINE
8
BLACK
6
CONTINUOUS
10
236.2099999999999795
20
-120.1099999999999994
11
234.0099999999999909
21
-120.1099999999999994
0
LINE
8
BLACK
6
CONTINUOUS
10
234.0099999999999909
20
-120.1099999999999994
11
234.0099999999999909
21
-116.3099999999999881
0
LINE
8
BLACK
6
CONTINUOUS
10
234.0099999999999909
20
-116.3099999999999881
11
234.3899999999999864
21
-116.3099999999999881
0
LINE
8
BLACK
6
CONTINUOUS
10
234.3899999999999864
20
-116.3099999999999881
11
234.3899999999999864
21
-115.25
0
LINE
8
BLACK
6
CONTINUOUS
10
234.3899999999999864
20
-115.25
11
235.8899999999999864
21
-115.25
0
LINE
8
BLACK
6
CONTINUOUS
10
235.8899999999999864
20
-115.25
11
235.8899999999999864
21
-116.3099999999999881
0
LINE
8
BLACK
6
CONTINUOUS
10
248.3249999999999886
20
-118.0749999999999886
11
247.3249999999999886
21
-118.0749999999999886
0
LINE
8
BLACK
6
CONTINUOUS
10
247.3249999999999886
20
-118.0749999999999886
11
247.3249999999999886
21
-116.5249999999999915
0
LINE
8
BLACK
6
CONTINUOUS
10
247.3249999999999886
20
-116.5249999999999915
11
248.3249999999999886
21
-116.5249999999999915
0
LINE
8
BLACK
6
CONTINUOUS
10
248.3249999999999886
20
-116.5249999999999915
11
248.3249999999999886
21
-118.0749999999999886
0
LINE
8
BLACK
6
CONTINUOUS
10
250.0249999999999773
20
-118.0749999999999886
11
249.0249999999999773
21
-118.0749999999999886
0
LINE
8
BLACK
6
CONTINUOUS
10
249.0249999999999773
20
-118.0749999999999886
11
249.0249999999999773
21
-116.5249999999999915
0
LINE
8
BLACK
6
CONTINUOUS
10
249.0249999999999773
20
-116.5249999999999915
11
250.0249999999999773
21
-116.5249999999999915
0
LINE
8
BLACK
6
CONTINUOUS
10
250.0249999999999773
20
-116.5249999999999915
11
250.0249999999999773
21
-118.0749999999999886
0
LINE
8
BLACK
6
CONTINUOUS
10
248.3249999999999886
20
-112.8249999999999886
11
247.3249999999999886
21
-112.8249999999999886
0
LINE
8
BLACK
6
CONTINUOUS
10
247.3249999999999886
20
-112.8249999999999886
11
247.3249999999999886
21
-111.2749999999999915
0
LINE
8
BLACK
6
CONTINUOUS
10
247.3249999999999886
20
-111.2749999999999915
11
248.3249999999999886
21
-111.2749999999999915
0
LINE
8
BLACK
6
CONTINUOUS
10
248.3249999999999886
20
-111.2749999999999915
11
248.3249999999999886
21
-112.8249999999999886
0
LINE
8
BLACK
6
CONTINUOUS
10
250.0249999999999773
20
-112.8249999999999886
11
249.0249999999999773
21
-112.8249999999999886
0
LINE
8
BLACK
6
CONTINUOUS
10
249.0249999999999773
20
-112.8249999999999886
11
249.0249999999999773
21
-111.2749999999999915
0
LINE
8
BLACK
6
CONTINUOUS
10
249.0249999999999773
20
-111.2749999999999915
11
250.0249999999999773
21
-111.2749999999999915
0
LINE
8
BLACK
6
CONTINUOUS
10
250.0249999999999773
20
-111.2749999999999915
11
250.0249999999999773
21
-112.8249999999999886
0
LINE
8
BLACK
6
CONTINUOUS
10
247.0706709999999759
20
-105.4940299999999951
11
247.1517769999999814
21
-105.548222999999993
0
LINE
8
BLACK
6
CONTINUOUS
10
247.1517769999999814
20
-105.548222999999993
11
247.2059699999999793
21
-105.6293289999999985
0
LINE
8
BLACK
6
CONTINUOUS
10
247.2059699999999793
20
-105.6293289999999985
11
247.2249999999999943
21
-105.7249999999999943
0
LINE
8
BLACK
6
CONTINUOUS
10
247.2249999999999943
20
-105.7249999999999943
11
247.2249999999999943
21
-106.4749999999999943
0
LINE
8
BLACK
6
CONTINUOUS
10
247.2249999999999943
20
-106.4749999999999943
11
247.2059699999999793
21
-106.5706709999999902
0
LINE
8
BLACK
6
CONTINUOUS
10
247.2059699999999793
20
-106.5706709999999902
11
247.1517769999999814
21
-106.6517769999999956
0
LINE
8
BLACK
6
CONTINUOUS
10
247.1517769999999814
20
-106.6517769999999956
11
247.0706709999999759
21
-106.7059699999999935
0
LINE
8
BLACK
6
CONTINUOUS
10
247.0706709999999759
20
-106.7059699999999935
11
246.9749999999999943
21
-106.7249999999999943
0
LINE
8
BLACK
6
CONTINUOUS
10
246.9749999999999943
20
-106.7249999999999943
11
244.9749999999999943
21
-106.7249999999999943
0
LINE
8
BLACK
6
CONTINUOUS
10
244.9749999999999943
20
-106.7249999999999943
11
244.8793289999999843
21
-106.7059699999999935
0
LINE
8
BLACK
6
CONTINUOUS
10
244.8793289999999843
20
-106.7059699999999935
11
244.7982229999999788
21
-106.6517769999999956
0
LINE
8
BLACK
6
CONTINUOUS
10
244.7982229999999788
20
-106.6517769999999956
11
244.7440299999999809
21
-106.5706709999999902
0
LINE
8
BLACK
6
CONTINUOUS
10
244.7440299999999809
20
-106.5706709999999902
11
244.7249999999999943
21
-106.4749999999999943
0
LINE
8
BLACK
6
CONTINUOUS
10
244.7249999999999943
20
-106.4749999999999943
11
244.7249999999999943
21
-105.7249999999999943
0
LINE
8
BLACK
6
CONTINUOUS
10
244.7249999999999943
20
-105.7249999999999943
11
244.7440299999999809
21
-105.6293289999999985
0
LINE
8
BLACK
6
CONTINUOUS
10
244.7440299999999809
20
-105.6293289999999985
11
244.7982229999999788
21
-105.548222999999993
0
LINE
8
BLACK
6
CONTINUOUS
10
244.7982229999999788
20
-105.548222999999993
11
244.8793289999999843
21
-105.4940299999999951
0
LINE
8
BLACK
6
CONTINUOUS
10
244.8793289999999843
20
-105.4940299999999951
11
244.9749999999999943
21
-105.4749999999999943
0
LINE
8
BLACK
6
CONTINUOUS
10
244.9749999999999943
20
-105.4749999999999943
11
246.9749999999999943
21
-105.4749999999999943
0
LINE
8
BLACK
6
CONTINUOUS
10
246.9749999999999943
20
-105.4749999999999943
11
247.0706709999999759
21
-105.4940299999999951
0
LINE
8
BLACK
6
CONTINUOUS
10
247.0706709999999759
20
-102.9940299999999951
11
247.1517769999999814
21
-103.048222999999993
0
LINE
8
BLACK
6
CONTINUOUS
10
247.1517769999999814
20
-103.048222999999993
11
247.2059699999999793
21
-103.1293289999999985
0
LINE
8
BLACK
6
CONTINUOUS
10
247.2059699999999793
20
-103.1293289999999985
11
247.2249999999999943
21
-103.2249999999999943
0
LINE
8
BLACK
6
CONTINUOUS
10
247.2249999999999943
20
-103.2249999999999943
11
247.2249999999999943
21
-103.9749999999999943
0
LINE
8
BLACK
6
CONTINUOUS
10
247.2249999999999943
20
-103.9749999999999943
11
247.2059699999999793
21
-104.0706709999999902
0
LINE
8
BLACK
6
CONTINUOUS
10
247.2059699999999793
20
-104.0706709999999902
11
247.1517769999999814
21
-104.1517769999999956
0
LINE
8
BLACK
6
CONTINUOUS
10
247.1517769999999814
20
-104.1517769999999956
11
247.0706709999999759
21
-104.2059699999999935
0
LINE
8
BLACK
6
CONTINUOUS
10
247.0706709999999759
20
-104.2059699999999935
11
246.9749999999999943
21
-104.2249999999999943
0
LINE
8
BLACK
6
CONTINUOUS
10
246.9749999999999943
20
-104.2249999999999943
11
244.9749999999999943
21
-104.2249999999999943
0
LINE
8
BLACK
6
CONTINUOUS
10
244.9749999999999943
20
-104.2249999999999943
11
244.8793289999999843
21
-104.2059699999999935
0
LINE
8
BLACK
6
CONTINUOUS
10
244.8793289999999843
20
-104.2059699999999935
11
244.7982229999999788
21
-104.1517769999999956
0
LINE
8
BLACK
6
CONTINUOUS
10
244.7982229999999788
20
-104.1517769999999956
11
244.7440299999999809
21
-104.0706709999999902
0
LINE
8
BLACK
6
CONTINUOUS
10
244.7440299999999809
20
-104.0706709999999902
11
244.7249999999999943
21
-103.9749999999999943
0
LINE
8
BLACK
6
CONTINUOUS
10
244.7249999999999943
20
-103.9749999999999943
11
244.7249999999999943
21
-103.2249999999999943
0
LINE
8
BLACK
6
CONTINUOUS
10
244.7249999999999943
20
-103.2249999999999943
11
244.7440299999999809
21
-103.1293289999999985
0
LINE
8
BLACK
6
CONTINUOUS
10
244.7440299999999809
20
-103.1293289999999985
11
244.7982229999999788
21
-103.048222999999993
0
LINE
8
BLACK
6
CONTINUOUS
10
244.7982229999999788
20
-103.048222999999993
11
244.8793289999999843
21
-102.9940299999999951
0
LINE
8
BLACK
6
CONTINUOUS
10
244.8793289999999843
20
-102.9940299999999951
11
244.9749999999999943
21
-102.9749999999999943
0
LINE
8
BLACK
6
CONTINUOUS
10
244.9749999999999943
20
-102.9749999999999943
11
246.9749999999999943
21
-102.9749999999999943
0
LINE
8
BLACK
6
CONTINUOUS
10
246.9749999999999943
20
-102.9749999999999943
11
247.0706709999999759
21
-102.9940299999999951
0
LINE
8
BLACK
6
CONTINUOUS
10
193.0300000000000011
20
-100.7299999999999898
11
192.6799999999999784
21
-100.7299999999999898
0
LINE
8
BLACK
6
CONTINUOUS
10
192.6799999999999784
20
-100.7299999999999898
11
192.6799999999999784
21
-101.8199999999999932
0
LINE
8
BLACK
6
CONTINUOUS
10
192.6799999999999784
20
-101.8199999999999932
11
191.1799999999999784
21
-101.8199999999999932
0
LINE
8
BLACK
6
CONTINUOUS
10
191.1799999999999784
20
-101.8199999999999932
11
191.1799999999999784
21
-100.7299999999999898
0
LINE
8
BLACK
6
CONTINUOUS
10
191.1799999999999784
20
-100.7299999999999898
11
190.8299999999999841
21
-100.7299999999999898
0
LINE
8
BLACK
6
CONTINUOUS
10
190.8299999999999841
20
-100.7299999999999898
11
190.8299999999999841
21
-96.9299999999999926
0
LINE
8
BLACK
6
CONTINUOUS
10
190.8299999999999841
20
-96.9299999999999926
11
193.0300000000000011
21
-96.9299999999999926
0
LINE
8
BLACK
6
CONTINUOUS
10
193.0300000000000011
20
-96.9299999999999926
11
193.0300000000000011
21
-100.7299999999999898
0
LINE
8
BLACK
6
CONTINUOUS
10
198.1099999999999852
20
-100.7299999999999898
11
197.7599999999999909
21
-100.7299999999999898
0
LINE
8
BLACK
6
CONTINUOUS
10
197.7599999999999909
20
-100.7299999999999898
11
197.7599999999999909
21
-101.8199999999999932
0
LINE
8
BLACK
6
CONTINUOUS
10
197.7599999999999909
20
-101.8199999999999932
11
196.2599999999999909
21
-101.8199999999999932
0
LINE
8
BLACK
6
CONTINUOUS
10
196.2599999999999909
20
-101.8199999999999932
11
196.2599999999999909
21
-100.7299999999999898
0
LINE
8
BLACK
6
CONTINUOUS
10
196.2599999999999909
20
-100.7299999999999898
11
195.9099999999999966
21
-100.7299999999999898
0
LINE
8
BLACK
6
CONTINUOUS
10
195.9099999999999966
20
-100.7299999999999898
11
195.9099999999999966
21
-96.9299999999999926
0
LINE
8
BLACK
6
CONTINUOUS
10
195.9099999999999966
20
-96.9299999999999926
11
198.1099999999999852
21
-96.9299999999999926
0
LINE
8
BLACK
6
CONTINUOUS
10
198.1099999999999852
20
-96.9299999999999926
11
198.1099999999999852
21
-100.7299999999999898
0
LINE
8
BLACK
6
CONTINUOUS
10
203.1899999999999977
20
-100.7299999999999898
11
202.8400000000000034
21
-100.7299999999999898
0
LINE
8
BLACK
6
CONTINUOUS
10
202.8400000000000034
20
-100.7299999999999898
11
202.8400000000000034
21
-101.8199999999999932
0
LINE
8
BLACK
6
CONTINUOUS
10
202.8400000000000034
20
-101.8199999999999932
11
201.3400000000000034
21
-101.8199999999999932
0
LINE
8
BLACK
6
CONTINUOUS
10
201.3400000000000034
20
-101.8199999999999932
11
201.3400000000000034
21
-100.7299999999999898
0
LINE
8
BLACK
6
CONTINUOUS
10
201.3400000000000034
20
-100.7299999999999898
11
200.9899999999999807
21
-100.7299999999999898
0
LINE
8
BLACK
6
CONTINUOUS
10
200.9899999999999807
20
-100.7299999999999898
11
200.9899999999999807
21
-96.9299999999999926
0
LINE
8
BLACK
6
CONTINUOUS
10
200.9899999999999807
20
-96.9299999999999926
11
203.1899999999999977
21
-96.9299999999999926
0
LINE
8
BLACK
6
CONTINUOUS
10
203.1899999999999977
20
-96.9299999999999926
11
203.1899999999999977
21
-100.7299999999999898
0
LINE
8
BLACK
6
CONTINUOUS
10
208.2699999999999818
20
-100.7299999999999898
11
207.9199999999999875
21
-100.7299999999999898
0
LINE
8
BLACK
6
CONTINUOUS
10
207.9199999999999875
20
-100.7299999999999898
11
207.9199999999999875
21
-101.8199999999999932
0
LINE
8
BLACK
6
CONTINUOUS
10
207.9199999999999875
20
-101.8199999999999932
11
206.4199999999999875
21
-101.8199999999999932
0
LINE
8
BLACK
6
CONTINUOUS
10
206.4199999999999875
20
-101.8199999999999932
11
206.4199999999999875
21
-100.7299999999999898
0
LINE
8
BLACK
6
CONTINUOUS
10
206.4199999999999875
20
-100.7299999999999898
11
206.0699999999999932
21
-100.7299999999999898
0
LINE
8
BLACK
6
CONTINUOUS
10
206.0699999999999932
20
-100.7299999999999898
11
206.0699999999999932
21
-96.9299999999999926
0
LINE
8
BLACK
6
CONTINUOUS
10
206.0699999999999932
20
-96.9299999999999926
11
208.2699999999999818
21
-96.9299999999999926
0
LINE
8
BLACK
6
CONTINUOUS
10
208.2699999999999818
20
-96.9299999999999926
11
208.2699999999999818
21
-100.7299999999999898
0
LINE
8
BLACK
6
CONTINUOUS
10
213.3499999999999943
20
-100.7299999999999898
11
213.
21
-100.7299999999999898
0
LINE
8
BLACK
6
CONTINUOUS
10
213.
20
-100.7299999999999898
11
213.
21
-101.8199999999999932
0
LINE
8
BLACK
6
CONTINUOUS
10
213.
20
-101.8199999999999932
11
211.5
21
-101.8199999999999932
0
LINE
8
BLACK
6
CONTINUOUS
10
211.5
20
-101.8199999999999932
11
211.5
21
-100.7299999999999898
0
LINE
8
BLACK
6
CONTINUOUS
10
211.5
20
-100.7299999999999898
11
211.1499999999999773
21
-100.7299999999999898
0
LINE
8
BLACK
6
CONTINUOUS
10
211.1499999999999773
20
-100.7299999999999898
11
211.1499999999999773
21
-96.9299999999999926
0
LINE
8
BLACK
6
CONTINUOUS
10
211.1499999999999773
20
-96.9299999999999926
11
213.3499999999999943
21
-96.9299999999999926
0
LINE
8
BLACK
6
CONTINUOUS
10
213.3499999999999943
20
-96.9299999999999926
11
213.3499999999999943
21
-100.7299999999999898
0
LINE
8
BLACK
6
CONTINUOUS
10
218.4299999999999784
20
-100.7299999999999898
11
218.0799999999999841
21
-100.7299999999999898
0
LINE
8
BLACK
6
CONTINUOUS
10
218.0799999999999841
20
-100.7299999999999898
11
218.0799999999999841
21
-101.8199999999999932
0
LINE
8
BLACK
6
CONTINUOUS
10
218.0799999999999841
20
-101.8199999999999932
11
216.5799999999999841
21
-101.8199999999999932
0
LINE
8
BLACK
6
CONTINUOUS
10
216.5799999999999841
20
-101.8199999999999932
11
216.5799999999999841
21
-100.7299999999999898
0
LINE
8
BLACK
6
CONTINUOUS
10
216.5799999999999841
20
-100.7299999999999898
11
216.2299999999999898
21
-100.7299999999999898
0
LINE
8
BLACK
6
CONTINUOUS
10
216.2299999999999898
20
-100.7299999999999898
11
216.2299999999999898
21
-96.9299999999999926
0
LINE
8
BLACK
6
CONTINUOUS
10
216.2299999999999898
20
-96.9299999999999926
11
218.4299999999999784
21
-96.9299999999999926
0
LINE
8
BLACK
6
CONTINUOUS
10
218.4299999999999784
20
-96.9299999999999926
11
218.4299999999999784
21
-100.7299999999999898
0
LINE
8
BLACK
6
CONTINUOUS
10
223.5099999999999909
20
-100.7299999999999898
11
223.1599999999999966
21
-100.7299999999999898
0
LINE
8
BLACK
6
CONTINUOUS
10
223.1599999999999966
20
-100.7299999999999898
11
223.1599999999999966
21
-101.8199999999999932
0
LINE
8
BLACK
6
CONTINUOUS
10
223.1599999999999966
20
-101.8199999999999932
11
221.6599999999999966
21
-101.8199999999999932
0
LINE
8
BLACK
6
CONTINUOUS
10
221.6599999999999966
20
-101.8199999999999932
11
221.6599999999999966
21
-100.7299999999999898
0
LINE
8
BLACK
6
CONTINUOUS
10
221.6599999999999966
20
-100.7299999999999898
11
221.3100000000000023
21
-100.7299999999999898
0
LINE
8
BLACK
6
CONTINUOUS
10
221.3100000000000023
20
-100.7299999999999898
11
221.3100000000000023
21
-96.9299999999999926
0
LINE
8
BLACK
6
CONTINUOUS
10
221.3100000000000023
20
-96.9299999999999926
11
223.5099999999999909
21
-96.9299999999999926
0
LINE
8
BLACK
6
CONTINUOUS
10
223.5099999999999909
20
-96.9299999999999926
11
223.5099999999999909
21
-100.7299999999999898
0
LINE
8
BLACK
6
CONTINUOUS
10
228.5900000000000034
20
-100.7299999999999898
11
228.2399999999999807
21
-100.7299999999999898
0
LINE
8
BLACK
6
CONTINUOUS
10
228.2399999999999807
20
-100.7299999999999898
11
228.2399999999999807
21
-101.8199999999999932
0
LINE
8
BLACK
6
CONTINUOUS
10
228.2399999999999807
20
-101.8199999999999932
11
226.7399999999999807
21
-101.8199999999999932
0
LINE
8
BLACK
6
CONTINUOUS
10
226.7399999999999807
20
-101.8199999999999932
11
226.7399999999999807
21
-100.7299999999999898
0
LINE
8
BLACK
6
CONTINUOUS
10
226.7399999999999807
20
-100.7299999999999898
11
226.3899999999999864
21
-100.7299999999999898
0
LINE
8
BLACK
6
CONTINUOUS
10
226.3899999999999864
20
-100.7299999999999898
11
226.3899999999999864
21
-96.9299999999999926
0
LINE
8
BLACK
6
CONTINUOUS
10
226.3899999999999864
20
-96.9299999999999926
11
228.5900000000000034
21
-96.9299999999999926
0
LINE
8
BLACK
6
CONTINUOUS
10
228.5900000000000034
20
-96.9299999999999926
11
228.5900000000000034
21
-100.7299999999999898
0
LINE
8
BLACK
6
CONTINUOUS
10
233.6699999999999875
20
-100.7299999999999898
11
233.3199999999999932
21
-100.7299999999999898
0
LINE
8
BLACK
6
CONTINUOUS
10
233.3199999999999932
20
-100.7299999999999898
11
233.3199999999999932
21
-101.8199999999999932
0
LINE
8
BLACK
6
CONTINUOUS
10
233.3199999999999932
20
-101.8199999999999932
11
231.8199999999999932
21
-101.8199999999999932
0
LINE
8
BLACK
6
CONTINUOUS
10
231.8199999999999932
20
-101.8199999999999932
11
231.8199999999999932
21
-100.7299999999999898
0
LINE
8
BLACK
6
CONTINUOUS
10
231.8199999999999932
20
-100.7299999999999898
11
231.4699999999999989
21
-100.7299999999999898
0
LINE
8
BLACK
6
CONTINUOUS
10
231.4699999999999989
20
-100.7299999999999898
11
231.4699999999999989
21
-96.9299999999999926
0
LINE
8
BLACK
6
CONTINUOUS
10
231.4699999999999989
20
-96.9299999999999926
11
233.6699999999999875
21
-96.9299999999999926
0
LINE
8
BLACK
6
CONTINUOUS
10
233.6699999999999875
20
-96.9299999999999926
11
233.6699999999999875
21
-100.7299999999999898
0
LINE
8
BLACK
6
CONTINUOUS
10
238.75
20
-100.7299999999999898
11
238.3999999999999773
21
-100.7299999999999898
0
LINE
8
BLACK
6
CONTINUOUS
10
238.3999999999999773
20
-100.7299999999999898
11
238.3999999999999773
21
-101.8199999999999932
0
LINE
8
BLACK
6
CONTINUOUS
10
238.3999999999999773
20
-101.8199999999999932
11
236.8999999999999773
21
-101.8199999999999932
0
LINE
8
BLACK
6
CONTINUOUS
10
236.8999999999999773
20
-101.8199999999999932
11
236.8999999999999773
21
-100.7299999999999898
0
LINE
8
BLACK
6
CONTINUOUS
10
236.8999999999999773
20
-100.7299999999999898
11
236.5499999999999829
21
-100.7299999999999898
0
LINE
8
BLACK
6
CONTINUOUS
10
236.5499999999999829
20
-100.7299999999999898
11
236.5499999999999829
21
-96.9299999999999926
0
LINE
8
BLACK
6
CONTINUOUS
10
236.5499999999999829
20
-96.9299999999999926
11
238.75
21
-96.9299999999999926
0
LINE
8
BLACK
6
CONTINUOUS
10
238.75
20
-96.9299999999999926
11
238.75
21
-100.7299999999999898
0
LINE
8
BLACK
6
CONTINUOUS
10
247.0706709999999759
20
-100.4940299999999951
11
247.1517769999999814
21
-100.548222999999993
0
LINE
8
BLACK
6
CONTINUOUS
10
247.1517769999999814
20
-100.548222999999993
11
247.2059699999999793
21
-100.6293289999999985
0
LINE
8
BLACK
6
CONTINUOUS
10
247.2059699999999793
20
-100.6293289999999985
11
247.2249999999999943
21
-100.7249999999999943
0
LINE
8
BLACK
6
CONTINUOUS
10
247.2249999999999943
20
-100.7249999999999943
11
247.2249999999999943
21
-101.4749999999999943
0
LINE
8
BLACK
6
CONTINUOUS
10
247.2249999999999943
20
-101.4749999999999943
11
247.2059699999999793
21
-101.5706709999999902
0
LINE
8
BLACK
6
CONTINUOUS
10
247.2059699999999793
20
-101.5706709999999902
11
247.1517769999999814
21
-101.6517769999999956
0
LINE
8
BLACK
6
CONTINUOUS
10
247.1517769999999814
20
-101.6517769999999956
11
247.0706709999999759
21
-101.7059699999999935
0
LINE
8
BLACK
6
CONTINUOUS
10
247.0706709999999759
20
-101.7059699999999935
11
246.9749999999999943
21
-101.7249999999999943
0
LINE
8
BLACK
6
CONTINUOUS
10
246.9749999999999943
20
-101.7249999999999943
11
244.9749999999999943
21
-101.7249999999999943
0
LINE
8
BLACK
6
CONTINUOUS
10
244.9749999999999943
20
-101.7249999999999943
11
244.8793289999999843
21
-101.7059699999999935
0
LINE
8
BLACK
6
CONTINUOUS
10
244.8793289999999843
20
-101.7059699999999935
11
244.7982229999999788
21
-101.6517769999999956
0
LINE
8
BLACK
6
CONTINUOUS
10
244.7982229999999788
20
-101.6517769999999956
11
244.7440299999999809
21
-101.5706709999999902
0
LINE
8
BLACK
6
CONTINUOUS
10
244.7440299999999809
20
-101.5706709999999902
11
244.7249999999999943
21
-101.4749999999999943
0
LINE
8
BLACK
6
CONTINUOUS
10
244.7249999999999943
20
-101.4749999999999943
11
244.7249999999999943
21
-100.7249999999999943
0
LINE
8
BLACK
6
CONTINUOUS
10
244.7249999999999943
20
-100.7249999999999943
11
244.7440299999999809
21
-100.6293289999999985
0
LINE
8
BLACK
6
CONTINUOUS
10
244.7440299999999809
20
-100.6293289999999985
11
244.7982229999999788
21
-100.548222999999993
0
LINE
8
BLACK
6
CONTINUOUS
10
244.7982229999999788
20
-100.548222999999993
11
244.8793289999999843
21
-100.4940299999999951
0
LINE
8
BLACK
6
CONTINUOUS
10
244.8793289999999843
20
-100.4940299999999951
11
244.9749999999999943
21
-100.4749999999999943
0
LINE
8
BLACK
6
CONTINUOUS
10
244.9749999999999943
20
-100.4749999999999943
11
246.9749999999999943
21
-100.4749999999999943
0
LINE
8
BLACK
6
CONTINUOUS
10
246.9749999999999943
20
-100.4749999999999943
11
247.0706709999999759
21
-100.4940299999999951
0
LINE
8
BLACK
6
CONTINUOUS
10
190.1399999999999864
20
-96.9299999999999926
11
190.4899999999999807
21
-96.9299999999999926
0
LINE
8
BLACK
6
CONTINUOUS
10
190.4899999999999807
20
-96.9299999999999926
11
190.4899999999999807
21
-100.7299999999999898
0
LINE
8
BLACK
6
CONTINUOUS
10
190.4899999999999807
20
-100.7299999999999898
11
188.289999999999992
21
-100.7299999999999898
0
LINE
8
BLACK
6
CONTINUOUS
10
188.289999999999992
20
-100.7299999999999898
11
188.289999999999992
21
-96.9299999999999926
0
LINE
8
BLACK
6
CONTINUOUS
10
188.289999999999992
20
-96.9299999999999926
11
188.6399999999999864
21
-96.9299999999999926
0
LINE
8
BLACK
6
CONTINUOUS
10
188.6399999999999864
20
-96.9299999999999926
11
188.6399999999999864
21
-96.019999999999996
0
LINE
8
BLACK
6
CONTINUOUS
10
188.6399999999999864
20
-96.019999999999996
11
190.1399999999999864
21
-96.019999999999996
0
LINE
8
BLACK
6
CONTINUOUS
10
190.1399999999999864
20
-96.019999999999996
11
190.1399999999999864
21
-96.9299999999999926
0
LINE
8
BLACK
6
CONTINUOUS
10
195.2199999999999989
20
-96.9299999999999926
11
195.5699999999999932
21
-96.9299999999999926
0
LINE
8
BLACK
6
CONTINUOUS
10
195.5699999999999932
20
-96.9299999999999926
11
195.5699999999999932
21
-100.7299999999999898
0
LINE
8
BLACK
6
CONTINUOUS
10
195.5699999999999932
20
-100.7299999999999898
11
193.3700000000000045
21
-100.7299999999999898
0
LINE
8
BLACK
6
CONTINUOUS
10
193.3700000000000045
20
-100.7299999999999898
11
193.3700000000000045
21
-96.9299999999999926
0
LINE
8
BLACK
6
CONTINUOUS
10
193.3700000000000045
20
-96.9299999999999926
11
193.7199999999999989
21
-96.9299999999999926
0
LINE
8
BLACK
6
CONTINUOUS
10
193.7199999999999989
20
-96.9299999999999926
11
193.7199999999999989
21
-96.019999999999996
0
LINE
8
BLACK
6
CONTINUOUS
10
193.7199999999999989
20
-96.019999999999996
11
195.2199999999999989
21
-96.019999999999996
0
LINE
8
BLACK
6
CONTINUOUS
10
195.2199999999999989
20
-96.019999999999996
11
195.2199999999999989
21
-96.9299999999999926
0
LINE
8
BLACK
6
CONTINUOUS
10
200.2999999999999829
20
-96.9299999999999926
11
200.6499999999999773
21
-96.9299999999999926
0
LINE
8
BLACK
6
CONTINUOUS
10
200.6499999999999773
20
-96.9299999999999926
11
200.6499999999999773
21
-100.7299999999999898
0
LINE
8
BLACK
6
CONTINUOUS
10
200.6499999999999773
20
-100.7299999999999898
11
198.4499999999999886
21
-100.7299999999999898
0
LINE
8
BLACK
6
CONTINUOUS
10
198.4499999999999886
20
-100.7299999999999898
11
198.4499999999999886
21
-96.9299999999999926
0
LINE
8
BLACK
6
CONTINUOUS
10
198.4499999999999886
20
-96.9299999999999926
11
198.7999999999999829
21
-96.9299999999999926
0
LINE
8
BLACK
6
CONTINUOUS
10
198.7999999999999829
20
-96.9299999999999926
11
198.7999999999999829
21
-96.019999999999996
0
LINE
8
BLACK
6
CONTINUOUS
10
198.7999999999999829
20
-96.019999999999996
11
200.2999999999999829
21
-96.019999999999996
0
LINE
8
BLACK
6
CONTINUOUS
10
200.2999999999999829
20
-96.019999999999996
11
200.2999999999999829
21
-96.9299999999999926
0
LINE
8
BLACK
6
CONTINUOUS
10
205.3799999999999955
20
-96.9299999999999926
11
205.7299999999999898
21
-96.9299999999999926
0
LINE
8
BLACK
6
CONTINUOUS
10
205.7299999999999898
20
-96.9299999999999926
11
205.7299999999999898
21
-100.7299999999999898
0
LINE
8
BLACK
6
CONTINUOUS
10
205.7299999999999898
20
-100.7299999999999898
11
203.5300000000000011
21
-100.7299999999999898
0
LINE
8
BLACK
6
CONTINUOUS
10
203.5300000000000011
20
-100.7299999999999898
11
203.5300000000000011
21
-96.9299999999999926
0
LINE
8
BLACK
6
CONTINUOUS
10
203.5300000000000011
20
-96.9299999999999926
11
203.8799999999999955
21
-96.9299999999999926
0
LINE
8
BLACK
6
CONTINUOUS
10
203.8799999999999955
20
-96.9299999999999926
11
203.8799999999999955
21
-96.019999999999996
0
LINE
8
BLACK
6
CONTINUOUS
10
203.8799999999999955
20
-96.019999999999996
11
205.3799999999999955
21
-96.019999999999996
0
LINE
8
BLACK
6
CONTINUOUS
10
205.3799999999999955
20
-96.019999999999996
11
205.3799999999999955
21
-96.9299999999999926
0
LINE
8
BLACK
6
CONTINUOUS
10
210.4599999999999795
20
-96.9299999999999926
11
210.8100000000000023
21
-96.9299999999999926
0
LINE
8
BLACK
6
CONTINUOUS
10
210.8100000000000023
20
-96.9299999999999926
11
210.8100000000000023
21
-100.7299999999999898
0
LINE
8
BLACK
6
CONTINUOUS
10
210.8100000000000023
20
-100.7299999999999898
11
208.6099999999999852
21
-100.7299999999999898
0
LINE
8
BLACK
6
CONTINUOUS
10
208.6099999999999852
20
-100.7299999999999898
11
208.6099999999999852
21
-96.9299999999999926
0
LINE
8
BLACK
6
CONTINUOUS
10
208.6099999999999852
20
-96.9299999999999926
11
208.9599999999999795
21
-96.9299999999999926
0
LINE
8
BLACK
6
CONTINUOUS
10
208.9599999999999795
20
-96.9299999999999926
11
208.9599999999999795
21
-96.019999999999996
0
LINE
8
BLACK
6
CONTINUOUS
10
208.9599999999999795
20
-96.019999999999996
11
210.4599999999999795
21
-96.019999999999996
0
LINE
8
BLACK
6
CONTINUOUS
10
210.4599999999999795
20
-96.019999999999996
11
210.4599999999999795
21
-96.9299999999999926
0
LINE
8
BLACK
6
CONTINUOUS
10
215.539999999999992
20
-96.9299999999999926
11
215.8899999999999864
21
-96.9299999999999926
0
LINE
8
BLACK
6
CONTINUOUS
10
215.8899999999999864
20
-96.9299999999999926
11
215.8899999999999864
21
-100.7299999999999898
0
LINE
8
BLACK
6
CONTINUOUS
10
215.8899999999999864
20
-100.7299999999999898
11
213.6899999999999977
21
-100.7299999999999898
0
LINE
8
BLACK
6
CONTINUOUS
10
213.6899999999999977
20
-100.7299999999999898
11
213.6899999999999977
21
-96.9299999999999926
0
LINE
8
BLACK
6
CONTINUOUS
10
213.6899999999999977
20
-96.9299999999999926
11
214.039999999999992
21
-96.9299999999999926
0
LINE
8
BLACK
6
CONTINUOUS
10
214.039999999999992
20
-96.9299999999999926
11
214.039999999999992
21
-96.019999999999996
0
LINE
8
BLACK
6
CONTINUOUS
10
214.039999999999992
20
-96.019999999999996
11
215.539999999999992
21
-96.019999999999996
0
LINE
8
BLACK
6
CONTINUOUS
10
215.539999999999992
20
-96.019999999999996
11
215.539999999999992
21
-96.9299999999999926
0
LINE
8
BLACK
6
CONTINUOUS
10
220.6199999999999761
20
-96.9299999999999926
11
220.9699999999999989
21
-96.9299999999999926
0
LINE
8
BLACK
6
CONTINUOUS
10
220.9699999999999989
20
-96.9299999999999926
11
220.9699999999999989
21
-100.7299999999999898
0
LINE
8
BLACK
6
CONTINUOUS
10
220.9699999999999989
20
-100.7299999999999898
11
218.7699999999999818
21
-100.7299999999999898
0
LINE
8
BLACK
6
CONTINUOUS
10
218.7699999999999818
20
-100.7299999999999898
11
218.7699999999999818
21
-96.9299999999999926
0
LINE
8
BLACK
6
CONTINUOUS
10
218.7699999999999818
20
-96.9299999999999926
11
219.1199999999999761
21
-96.9299999999999926
0
LINE
8
BLACK
6
CONTINUOUS
10
219.1199999999999761
20
-96.9299999999999926
11
219.1199999999999761
21
-96.019999999999996
0
LINE
8
BLACK
6
CONTINUOUS
10
219.1199999999999761
20
-96.019999999999996
11
220.6199999999999761
21
-96.019999999999996
0
LINE
8
BLACK
6
CONTINUOUS
10
220.6199999999999761
20
-96.019999999999996
11
220.6199999999999761
21
-96.9299999999999926
0
LINE
8
BLACK
6
CONTINUOUS
10
225.6999999999999886
20
-96.9299999999999926
11
226.0499999999999829
21
-96.9299999999999926
0
LINE
8
BLACK
6
CONTINUOUS
10
226.0499999999999829
20
-96.9299999999999926
11
226.0499999999999829
21
-100.7299999999999898
0
LINE
8
BLACK
6
CONTINUOUS
10
226.0499999999999829
20
-100.7299999999999898
11
223.8499999999999943
21
-100.7299999999999898
0
LINE
8
BLACK
6
CONTINUOUS
10
223.8499999999999943
20
-100.7299999999999898
11
223.8499999999999943
21
-96.9299999999999926
0
LINE
8
BLACK
6
CONTINUOUS
10
223.8499999999999943
20
-96.9299999999999926
11
224.1999999999999886
21
-96.9299999999999926
0
LINE
8
BLACK
6
CONTINUOUS
10
224.1999999999999886
20
-96.9299999999999926
11
224.1999999999999886
21
-96.019999999999996
0
LINE
8
BLACK
6
CONTINUOUS
10
224.1999999999999886
20
-96.019999999999996
11
225.6999999999999886
21
-96.019999999999996
0
LINE
8
BLACK
6
CONTINUOUS
10
225.6999999999999886
20
-96.019999999999996
11
225.6999999999999886
21
-96.9299999999999926
0
LINE
8
BLACK
6
CONTINUOUS
10
230.7800000000000011
20
-96.9299999999999926
11
231.1299999999999955
21
-96.9299999999999926
0
LINE
8
BLACK
6
CONTINUOUS
10
231.1299999999999955
20
-96.9299999999999926
11
231.1299999999999955
21
-100.7299999999999898
0
LINE
8
BLACK
6
CONTINUOUS
10
231.1299999999999955
20
-100.7299999999999898
11
228.9299999999999784
21
-100.7299999999999898
0
LINE
8
BLACK
6
CONTINUOUS
10
228.9299999999999784
20
-100.7299999999999898
11
228.9299999999999784
21
-96.9299999999999926
0
LINE
8
BLACK
6
CONTINUOUS
10
228.9299999999999784
20
-96.9299999999999926
11
229.2800000000000011
21
-96.9299999999999926
0
LINE
8
BLACK
6
CONTINUOUS
10
229.2800000000000011
20
-96.9299999999999926
11
229.2800000000000011
21
-96.019999999999996
0
LINE
8
BLACK
6
CONTINUOUS
10
229.2800000000000011
20
-96.019999999999996
11
230.7800000000000011
21
-96.019999999999996
0
LINE
8
BLACK
6
CONTINUOUS
10
230.7800000000000011
20
-96.019999999999996
11
230.7800000000000011
21
-96.9299999999999926
0
LINE
8
BLACK
6
CONTINUOUS
10
235.8599999999999852
20
-96.9299999999999926
11
236.2099999999999795
21
-96.9299999999999926
0
LINE
8
BLACK
6
CONTINUOUS
10
236.2099999999999795
20
-96.9299999999999926
11
236.2099999999999795
21
-100.7299999999999898
0
LINE
8
BLACK
6
CONTINUOUS
10
236.2099999999999795
20
-100.7299999999999898
11
234.0099999999999909
21
-100.7299999999999898
0
LINE
8
BLACK
6
CONTINUOUS
10
234.0099999999999909
20
-100.7299999999999898
11
234.0099999999999909
21
-96.9299999999999926
0
LINE
8
BLACK
6
CONTINUOUS
10
234.0099999999999909
20
-96.9299999999999926
11
234.3599999999999852
21
-96.9299999999999926
0
LINE
8
BLACK
6
CONTINUOUS
10
234.3599999999999852
20
-96.9299999999999926
11
234.3599999999999852
21
-96.019999999999996
0
LINE
8
BLACK
6
CONTINUOUS
10
234.3599999999999852
20
-96.019999999999996
11
235.8599999999999852
21
-96.019999999999996
0
LINE
8
BLACK
6
CONTINUOUS
10
235.8599999999999852
20
-96.019999999999996
11
235.8599999999999852
21
-96.9299999999999926
  0
ENDSEC
  0
EOF
