  0
SECTION
  2
HEADER
  9
$ANGBASE
  50
0.0
  9
$ANGDIR
  70
1
  9
$MEASUREMENT
  70
1
  0
ENDSEC
  0
SECTION
  2
TABLES
  0
TABLE
  2
LTYPE
  70
4
  0
LTYPE
  5
40F
  2
CONTINUOUS
  70
0
  3
Solid line
  72
65
  73
0
  40
0.0
  0
LTYPE
  5
410
  2
DASHDOT
 70
0
  3
Dash Dot ____ _ ____ _
 72
65
 73
4
 40
2.0
 49
1.25
 49
-0.25
 49
0.25
 49
-0.25
  0
LTYPE
  5
411
  2
DASHED
 70
0
  3
Dashed __ __ __ __ __
 72
65
 73
2
 40
0.75
 49
0.5
 49
-0.25
  0
LTYPE
  5
43B
  2
DOTTED
 70
0
  3
Dotted .  .  .  .
 72
65
 73
2
 40
0.2
 49
0.0
 49
-0.2
  0
ENDTAB
  0
TABLE
  2
STYLE
  70
4
  0
STYLE
  2
KICAD
  70
0
  40
0
  41
1
  42
1
  50
0
  71
0
  3
isocp.shx
  0
STYLE
  2
KICADB
  70
0
  40
0
  41
1
  42
1
  50
0
  71
0
  3
isocp.shx
  0
STYLE
  2
KICADI
  70
0
  40
0
  41
1
  42
1
  50
15
  71
0
  3
isocp.shx
  0
STYLE
  2
KICADBI
  70
0
  40
0
  41
1
  42
1
  50
15
  71
0
  3
isocp.shx
  0
ENDTAB
  0
TABLE
  2
LAYER
  70
1
  0
LAYER
  2
BLACK
  70
0
  62
7
  6
CONTINUOUS
  0
ENDTAB
  0
ENDSEC
  0
SECTION
  2
ENTITIES
0
LINE
8
BLACK
6
CONTINUOUS
10
192.4722079999999949
20
-127.1842539999999957
11
192.5739429999999857
21
-127.2429909999999893
0
LINE
8
BLACK
6
CONTINUOUS
10
192.5739429999999857
20
-127.2429909999999893
11
192.657008999999988
21
-127.3260569999999916
0
LINE
8
BLACK
6
CONTINUOUS
10
192.657008999999988
20
-127.3260569999999916
11
192.7157459999999958
21
-127.4277919999999966
0
LINE
8
BLACK
6
CONTINUOUS
10
192.7157459999999958
20
-127.4277919999999966
11
192.7461500000000001
21
-127.5412630000000007
0
LINE
8
BLACK
6
CONTINUOUS
10
192.7461500000000001
20
-127.5412630000000007
11
192.7461500000000001
21
-127.6587369999999879
0
LINE
8
BLACK
6
CONTINUOUS
10
192.7461500000000001
20
-127.6587369999999879
11
192.7157459999999958
21
-127.772207999999992
0
LINE
8
BLACK
6
CONTINUOUS
10
192.7157459999999958
20
-127.772207999999992
11
192.657008999999988
21
-127.873942999999997
0
LINE
8
BLACK
6
CONTINUOUS
10
192.657008999999988
20
-127.873942999999997
11
192.5739429999999857
21
-127.9570089999999993
0
LINE
8
BLACK
6
CONTINUOUS
10
192.5739429999999857
20
-127.9570089999999993
11
192.4722079999999949
21
-128.0157460000000071
0
LINE
8
BLACK
6
CONTINUOUS
10
192.4722079999999949
20
-128.0157460000000071
11
192.3587369999999908
21
-128.046149999999983
0
LINE
8
BLACK
6
CONTINUOUS
10
192.3587369999999908
20
-128.046149999999983
11
192.2412630000000036
21
-128.046149999999983
0
LINE
8
BLACK
6
CONTINUOUS
10
192.2412630000000036
20
-128.046149999999983
11
192.1277919999999995
21
-128.0157460000000071
0
LINE
8
BLACK
6
CONTINUOUS
10
192.1277919999999995
20
-128.0157460000000071
11
192.0260569999999802
21
-127.9570089999999993
0
LINE
8
BLACK
6
CONTINUOUS
10
192.0260569999999802
20
-127.9570089999999993
11
191.9429909999999779
21
-127.873942999999997
0
LINE
8
BLACK
6
CONTINUOUS
10
191.9429909999999779
20
-127.873942999999997
11
191.8842539999999985
21
-127.772207999999992
0
LINE
8
BLACK
6
CONTINUOUS
10
191.8842539999999985
20
-127.772207999999992
11
191.8538499999999942
21
-127.6587369999999879
0
LINE
8
BLACK
6
CONTINUOUS
10
191.8538499999999942
20
-127.6587369999999879
11
191.8538499999999942
21
-127.5412630000000007
0
LINE
8
BLACK
6
CONTINUOUS
10
191.8538499999999942
20
-127.5412630000000007
11
191.8842539999999985
21
-127.4277919999999966
0
LINE
8
BLACK
6
CONTINUOUS
10
191.8842539999999985
20
-127.4277919999999966
11
191.9429909999999779
21
-127.3260569999999916
0
LINE
8
BLACK
6
CONTINUOUS
10
191.9429909999999779
20
-127.3260569999999916
11
192.0260569999999802
21
-127.2429909999999893
0
LINE
8
BLACK
6
CONTINUOUS
10
192.0260569999999802
20
-127.2429909999999893
11
192.1277919999999995
21
-127.1842539999999957
0
LINE
8
BLACK
6
CONTINUOUS
10
192.1277919999999995
20
-127.1842539999999957
11
192.2412630000000036
21
-127.1538499999999914
0
LINE
8
BLACK
6
CONTINUOUS
10
192.2412630000000036
20
-127.1538499999999914
11
192.3587369999999908
21
-127.1538499999999914
0
LINE
8
BLACK
6
CONTINUOUS
10
192.3587369999999908
20
-127.1538499999999914
11
192.4722079999999949
21
-127.1842539999999957
0
LINE
8
BLACK
6
CONTINUOUS
10
209.4972080000000005
20
-127.1842539999999957
11
209.5989429999999913
21
-127.2429909999999893
0
LINE
8
BLACK
6
CONTINUOUS
10
209.5989429999999913
20
-127.2429909999999893
11
209.6820089999999936
21
-127.3260569999999916
0
LINE
8
BLACK
6
CONTINUOUS
10
209.6820089999999936
20
-127.3260569999999916
11
209.7407460000000015
21
-127.4277919999999966
0
LINE
8
BLACK
6
CONTINUOUS
10
209.7407460000000015
20
-127.4277919999999966
11
209.7711499999999774
21
-127.5412630000000007
0
LINE
8
BLACK
6
CONTINUOUS
10
209.7711499999999774
20
-127.5412630000000007
11
209.7711499999999774
21
-127.6587369999999879
0
LINE
8
BLACK
6
CONTINUOUS
10
209.7711499999999774
20
-127.6587369999999879
11
209.7407460000000015
21
-127.772207999999992
0
LINE
8
BLACK
6
CONTINUOUS
10
209.7407460000000015
20
-127.772207999999992
11
209.6820089999999936
21
-127.873942999999997
0
LINE
8
BLACK
6
CONTINUOUS
10
209.6820089999999936
20
-127.873942999999997
11
209.5989429999999913
21
-127.9570089999999993
0
LINE
8
BLACK
6
CONTINUOUS
10
209.5989429999999913
20
-127.9570089999999993
11
209.4972080000000005
21
-128.0157460000000071
0
LINE
8
BLACK
6
CONTINUOUS
10
209.4972080000000005
20
-128.0157460000000071
11
209.3837369999999964
21
-128.046149999999983
0
LINE
8
BLACK
6
CONTINUOUS
10
209.3837369999999964
20
-128.046149999999983
11
209.2662629999999808
21
-128.046149999999983
0
LINE
8
BLACK
6
CONTINUOUS
10
209.2662629999999808
20
-128.046149999999983
11
209.1527919999999767
21
-128.0157460000000071
0
LINE
8
BLACK
6
CONTINUOUS
10
209.1527919999999767
20
-128.0157460000000071
11
209.0510569999999859
21
-127.9570089999999993
0
LINE
8
BLACK
6
CONTINUOUS
10
209.0510569999999859
20
-127.9570089999999993
11
208.9679909999999836
21
-127.873942999999997
0
LINE
8
BLACK
6
CONTINUOUS
10
208.9679909999999836
20
-127.873942999999997
11
208.9092540000000042
21
-127.772207999999992
0
LINE
8
BLACK
6
CONTINUOUS
10
208.9092540000000042
20
-127.772207999999992
11
208.8788499999999999
21
-127.6587369999999879
0
LINE
8
BLACK
6
CONTINUOUS
10
208.8788499999999999
20
-127.6587369999999879
11
208.8788499999999999
21
-127.5412630000000007
0
LINE
8
BLACK
6
CONTINUOUS
10
208.8788499999999999
20
-127.5412630000000007
11
208.9092540000000042
21
-127.4277919999999966
0
LINE
8
BLACK
6
CONTINUOUS
10
208.9092540000000042
20
-127.4277919999999966
11
208.9679909999999836
21
-127.3260569999999916
0
LINE
8
BLACK
6
CONTINUOUS
10
208.9679909999999836
20
-127.3260569999999916
11
209.0510569999999859
21
-127.2429909999999893
0
LINE
8
BLACK
6
CONTINUOUS
10
209.0510569999999859
20
-127.2429909999999893
11
209.1527919999999767
21
-127.1842539999999957
0
LINE
8
BLACK
6
CONTINUOUS
10
209.1527919999999767
20
-127.1842539999999957
11
209.2662629999999808
21
-127.1538499999999914
0
LINE
8
BLACK
6
CONTINUOUS
10
209.2662629999999808
20
-127.1538499999999914
11
209.3837369999999964
21
-127.1538499999999914
0
LINE
8
BLACK
6
CONTINUOUS
10
209.3837369999999964
20
-127.1538499999999914
11
209.4972080000000005
21
-127.1842539999999957
0
LINE
8
BLACK
6
CONTINUOUS
10
231.5222079999999778
20
-127.1342539999999985
11
231.623942999999997
21
-127.1929909999999921
0
LINE
8
BLACK
6
CONTINUOUS
10
231.623942999999997
20
-127.1929909999999921
11
231.7070089999999993
21
-127.2760569999999944
0
LINE
8
BLACK
6
CONTINUOUS
10
231.7070089999999993
20
-127.2760569999999944
11
231.7657459999999787
21
-127.3777919999999995
0
LINE
8
BLACK
6
CONTINUOUS
10
231.7657459999999787
20
-127.3777919999999995
11
231.796149999999983
21
-127.4912629999999893
0
LINE
8
BLACK
6
CONTINUOUS
10
231.796149999999983
20
-127.4912629999999893
11
231.796149999999983
21
-127.6087369999999908
0
LINE
8
BLACK
6
CONTINUOUS
10
231.796149999999983
20
-127.6087369999999908
11
231.7657459999999787
21
-127.7222079999999949
0
LINE
8
BLACK
6
CONTINUOUS
10
231.7657459999999787
20
-127.7222079999999949
11
231.7070089999999993
21
-127.8239429999999999
0
LINE
8
BLACK
6
CONTINUOUS
10
231.7070089999999993
20
-127.8239429999999999
11
231.623942999999997
21
-127.907008999999988
0
LINE
8
BLACK
6
CONTINUOUS
10
231.623942999999997
20
-127.907008999999988
11
231.5222079999999778
21
-127.9657459999999958
0
LINE
8
BLACK
6
CONTINUOUS
10
231.5222079999999778
20
-127.9657459999999958
11
231.4087370000000021
21
-127.9961500000000001
0
LINE
8
BLACK
6
CONTINUOUS
10
231.4087370000000021
20
-127.9961500000000001
11
231.2912629999999865
21
-127.9961500000000001
0
LINE
8
BLACK
6
CONTINUOUS
10
231.2912629999999865
20
-127.9961500000000001
11
231.1777919999999824
21
-127.9657459999999958
0
LINE
8
BLACK
6
CONTINUOUS
10
231.1777919999999824
20
-127.9657459999999958
11
231.0760569999999916
21
-127.907008999999988
0
LINE
8
BLACK
6
CONTINUOUS
10
231.0760569999999916
20
-127.907008999999988
11
230.9929909999999893
21
-127.8239429999999999
0
LINE
8
BLACK
6
CONTINUOUS
10
230.9929909999999893
20
-127.8239429999999999
11
230.9342539999999815
21
-127.7222079999999949
0
LINE
8
BLACK
6
CONTINUOUS
10
230.9342539999999815
20
-127.7222079999999949
11
230.9038499999999772
21
-127.6087369999999908
0
LINE
8
BLACK
6
CONTINUOUS
10
230.9038499999999772
20
-127.6087369999999908
11
230.9038499999999772
21
-127.4912629999999893
0
LINE
8
BLACK
6
CONTINUOUS
10
230.9038499999999772
20
-127.4912629999999893
11
230.9342539999999815
21
-127.3777919999999995
0
LINE
8
BLACK
6
CONTINUOUS
10
230.9342539999999815
20
-127.3777919999999995
11
230.9929909999999893
21
-127.2760569999999944
0
LINE
8
BLACK
6
CONTINUOUS
10
230.9929909999999893
20
-127.2760569999999944
11
231.0760569999999916
21
-127.1929909999999921
0
LINE
8
BLACK
6
CONTINUOUS
10
231.0760569999999916
20
-127.1929909999999921
11
231.1777919999999824
21
-127.1342539999999985
0
LINE
8
BLACK
6
CONTINUOUS
10
231.1777919999999824
20
-127.1342539999999985
11
231.2912629999999865
21
-127.1038499999999942
0
LINE
8
BLACK
6
CONTINUOUS
10
231.2912629999999865
20
-127.1038499999999942
11
231.4087370000000021
21
-127.1038499999999942
0
LINE
8
BLACK
6
CONTINUOUS
10
231.4087370000000021
20
-127.1038499999999942
11
231.5222079999999778
21
-127.1342539999999985
0
LINE
8
BLACK
6
CONTINUOUS
10
245.0222079999999778
20
-127.1342539999999985
11
245.123942999999997
21
-127.1929909999999921
0
LINE
8
BLACK
6
CONTINUOUS
10
245.123942999999997
20
-127.1929909999999921
11
245.2070089999999993
21
-127.2760569999999944
0
LINE
8
BLACK
6
CONTINUOUS
10
245.2070089999999993
20
-127.2760569999999944
11
245.2657459999999787
21
-127.3777919999999995
0
LINE
8
BLACK
6
CONTINUOUS
10
245.2657459999999787
20
-127.3777919999999995
11
245.296149999999983
21
-127.4912629999999893
0
LINE
8
BLACK
6
CONTINUOUS
10
245.296149999999983
20
-127.4912629999999893
11
245.296149999999983
21
-127.6087369999999908
0
LINE
8
BLACK
6
CONTINUOUS
10
245.296149999999983
20
-127.6087369999999908
11
245.2657459999999787
21
-127.7222079999999949
0
LINE
8
BLACK
6
CONTINUOUS
10
245.2657459999999787
20
-127.7222079999999949
11
245.2070089999999993
21
-127.8239429999999999
0
LINE
8
BLACK
6
CONTINUOUS
10
245.2070089999999993
20
-127.8239429999999999
11
245.123942999999997
21
-127.907008999999988
0
LINE
8
BLACK
6
CONTINUOUS
10
245.123942999999997
20
-127.907008999999988
11
245.0222079999999778
21
-127.9657459999999958
0
LINE
8
BLACK
6
CONTINUOUS
10
245.0222079999999778
20
-127.9657459999999958
11
244.9087370000000021
21
-127.9961500000000001
0
LINE
8
BLACK
6
CONTINUOUS
10
244.9087370000000021
20
-127.9961500000000001
11
244.7912629999999865
21
-127.9961500000000001
0
LINE
8
BLACK
6
CONTINUOUS
10
244.7912629999999865
20
-127.9961500000000001
11
244.6777919999999824
21
-127.9657459999999958
0
LINE
8
BLACK
6
CONTINUOUS
10
244.6777919999999824
20
-127.9657459999999958
11
244.5760569999999916
21
-127.907008999999988
0
LINE
8
BLACK
6
CONTINUOUS
10
244.5760569999999916
20
-127.907008999999988
11
244.4929909999999893
21
-127.8239429999999999
0
LINE
8
BLACK
6
CONTINUOUS
10
244.4929909999999893
20
-127.8239429999999999
11
244.4342539999999815
21
-127.7222079999999949
0
LINE
8
BLACK
6
CONTINUOUS
10
244.4342539999999815
20
-127.7222079999999949
11
244.4038499999999772
21
-127.6087369999999908
0
LINE
8
BLACK
6
CONTINUOUS
10
244.4038499999999772
20
-127.6087369999999908
11
244.4038499999999772
21
-127.4912629999999893
0
LINE
8
BLACK
6
CONTINUOUS
10
244.4038499999999772
20
-127.4912629999999893
11
244.4342539999999815
21
-127.3777919999999995
0
LINE
8
BLACK
6
CONTINUOUS
10
244.4342539999999815
20
-127.3777919999999995
11
244.4929909999999893
21
-127.2760569999999944
0
LINE
8
BLACK
6
CONTINUOUS
10
244.4929909999999893
20
-127.2760569999999944
11
244.5760569999999916
21
-127.1929909999999921
0
LINE
8
BLACK
6
CONTINUOUS
10
244.5760569999999916
20
-127.1929909999999921
11
244.6777919999999824
21
-127.1342539999999985
0
LINE
8
BLACK
6
CONTINUOUS
10
244.6777919999999824
20
-127.1342539999999985
11
244.7912629999999865
21
-127.1038499999999942
0
LINE
8
BLACK
6
CONTINUOUS
10
244.7912629999999865
20
-127.1038499999999942
11
244.9087370000000021
21
-127.1038499999999942
0
LINE
8
BLACK
6
CONTINUOUS
10
244.9087370000000021
20
-127.1038499999999942
11
245.0222079999999778
21
-127.1342539999999985
0
LINE
8
BLACK
6
CONTINUOUS
10
190.4499999999999886
20
-127.5749999999999886
11
188.8999999999999773
21
-127.5749999999999886
0
LINE
8
BLACK
6
CONTINUOUS
10
188.8999999999999773
20
-127.5749999999999886
11
188.8999999999999773
21
-126.5749999999999886
0
LINE
8
BLACK
6
CONTINUOUS
10
188.8999999999999773
20
-126.5749999999999886
11
190.4499999999999886
21
-126.5749999999999886
0
LINE
8
BLACK
6
CONTINUOUS
10
190.4499999999999886
20
-126.5749999999999886
11
190.4499999999999886
21
-127.5749999999999886
0
LINE
8
BLACK
6
CONTINUOUS
10
195.6999999999999886
20
-127.5749999999999886
11
194.1499999999999773
21
-127.5749999999999886
0
LINE
8
BLACK
6
CONTINUOUS
10
194.1499999999999773
20
-127.5749999999999886
11
194.1499999999999773
21
-126.5749999999999886
0
LINE
8
BLACK
6
CONTINUOUS
10
194.1499999999999773
20
-126.5749999999999886
11
195.6999999999999886
21
-126.5749999999999886
0
LINE
8
BLACK
6
CONTINUOUS
10
195.6999999999999886
20
-126.5749999999999886
11
195.6999999999999886
21
-127.5749999999999886
0
LINE
8
BLACK
6
CONTINUOUS
10
207.4749999999999943
20
-127.5749999999999886
11
205.9249999999999829
21
-127.5749999999999886
0
LINE
8
BLACK
6
CONTINUOUS
10
205.9249999999999829
20
-127.5749999999999886
11
205.9249999999999829
21
-126.5749999999999886
0
LINE
8
BLACK
6
CONTINUOUS
10
205.9249999999999829
20
-126.5749999999999886
11
207.4749999999999943
21
-126.5749999999999886
0
LINE
8
BLACK
6
CONTINUOUS
10
207.4749999999999943
20
-126.5749999999999886
11
207.4749999999999943
21
-127.5749999999999886
0
LINE
8
BLACK
6
CONTINUOUS
10
212.7249999999999943
20
-127.5749999999999886
11
211.1749999999999829
21
-127.5749999999999886
0
LINE
8
BLACK
6
CONTINUOUS
10
211.1749999999999829
20
-127.5749999999999886
11
211.1749999999999829
21
-126.5749999999999886
0
LINE
8
BLACK
6
CONTINUOUS
10
211.1749999999999829
20
-126.5749999999999886
11
212.7249999999999943
21
-126.5749999999999886
0
LINE
8
BLACK
6
CONTINUOUS
10
212.7249999999999943
20
-126.5749999999999886
11
212.7249999999999943
21
-127.5749999999999886
0
LINE
8
BLACK
6
CONTINUOUS
10
229.5
20
-127.5249999999999915
11
227.9499999999999886
21
-127.5249999999999915
0
LINE
8
BLACK
6
CONTINUOUS
10
227.9499999999999886
20
-127.5249999999999915
11
227.9499999999999886
21
-126.5249999999999915
0
LINE
8
BLACK
6
CONTINUOUS
10
227.9499999999999886
20
-126.5249999999999915
11
229.5
21
-126.5249999999999915
0
LINE
8
BLACK
6
CONTINUOUS
10
229.5
20
-126.5249999999999915
11
229.5
21
-127.5249999999999915
0
LINE
8
BLACK
6
CONTINUOUS
10
234.75
20
-127.5249999999999915
11
233.1999999999999886
21
-127.5249999999999915
0
LINE
8
BLACK
6
CONTINUOUS
10
233.1999999999999886
20
-127.5249999999999915
11
233.1999999999999886
21
-126.5249999999999915
0
LINE
8
BLACK
6
CONTINUOUS
10
233.1999999999999886
20
-126.5249999999999915
11
234.75
21
-126.5249999999999915
0
LINE
8
BLACK
6
CONTINUOUS
10
234.75
20
-126.5249999999999915
11
234.75
21
-127.5249999999999915
0
LINE
8
BLACK
6
CONTINUOUS
10
243.
20
-127.5249999999999915
11
241.4499999999999886
21
-127.5249999999999915
0
LINE
8
BLACK
6
CONTINUOUS
10
241.4499999999999886
20
-127.5249999999999915
11
241.4499999999999886
21
-126.5249999999999915
0
LINE
8
BLACK
6
CONTINUOUS
10
241.4499999999999886
20
-126.5249999999999915
11
243.
21
-126.5249999999999915
0
LINE
8
BLACK
6
CONTINUOUS
10
243.
20
-126.5249999999999915
11
243.
21
-127.5249999999999915
0
LINE
8
BLACK
6
CONTINUOUS
10
248.25
20
-127.5249999999999915
11
246.6999999999999886
21
-127.5249999999999915
0
LINE
8
BLACK
6
CONTINUOUS
10
246.6999999999999886
20
-127.5249999999999915
11
246.6999999999999886
21
-126.5249999999999915
0
LINE
8
BLACK
6
CONTINUOUS
10
246.6999999999999886
20
-126.5249999999999915
11
248.25
21
-126.5249999999999915
0
LINE
8
BLACK
6
CONTINUOUS
10
248.25
20
-126.5249999999999915
11
248.25
21
-127.5249999999999915
0
LINE
8
BLACK
6
CONTINUOUS
10
190.4499999999999886
20
-125.875
11
188.8999999999999773
21
-125.875
0
LINE
8
BLACK
6
CONTINUOUS
10
188.8999999999999773
20
-125.875
11
188.8999999999999773
21
-124.875
0
LINE
8
BLACK
6
CONTINUOUS
10
188.8999999999999773
20
-124.875
11
190.4499999999999886
21
-124.875
0
LINE
8
BLACK
6
CONTINUOUS
10
190.4499999999999886
20
-124.875
11
190.4499999999999886
21
-125.875
0
LINE
8
BLACK
6
CONTINUOUS
10
195.6999999999999886
20
-125.875
11
194.1499999999999773
21
-125.875
0
LINE
8
BLACK
6
CONTINUOUS
10
194.1499999999999773
20
-125.875
11
194.1499999999999773
21
-124.875
0
LINE
8
BLACK
6
CONTINUOUS
10
194.1499999999999773
20
-124.875
11
195.6999999999999886
21
-124.875
0
LINE
8
BLACK
6
CONTINUOUS
10
195.6999999999999886
20
-124.875
11
195.6999999999999886
21
-125.875
0
LINE
8
BLACK
6
CONTINUOUS
10
207.4749999999999943
20
-125.875
11
205.9249999999999829
21
-125.875
0
LINE
8
BLACK
6
CONTINUOUS
10
205.9249999999999829
20
-125.875
11
205.9249999999999829
21
-124.875
0
LINE
8
BLACK
6
CONTINUOUS
10
205.9249999999999829
20
-124.875
11
207.4749999999999943
21
-124.875
0
LINE
8
BLACK
6
CONTINUOUS
10
207.4749999999999943
20
-124.875
11
207.4749999999999943
21
-125.875
0
LINE
8
BLACK
6
CONTINUOUS
10
212.7249999999999943
20
-125.875
11
211.1749999999999829
21
-125.875
0
LINE
8
BLACK
6
CONTINUOUS
10
211.1749999999999829
20
-125.875
11
211.1749999999999829
21
-124.875
0
LINE
8
BLACK
6
CONTINUOUS
10
211.1749999999999829
20
-124.875
11
212.7249999999999943
21
-124.875
0
LINE
8
BLACK
6
CONTINUOUS
10
212.7249999999999943
20
-124.875
11
212.7249999999999943
21
-125.875
0
LINE
8
BLACK
6
CONTINUOUS
10
229.5
20
-125.8249999999999886
11
227.9499999999999886
21
-125.8249999999999886
0
LINE
8
BLACK
6
CONTINUOUS
10
227.9499999999999886
20
-125.8249999999999886
11
227.9499999999999886
21
-124.8249999999999886
0
LINE
8
BLACK
6
CONTINUOUS
10
227.9499999999999886
20
-124.8249999999999886
11
229.5
21
-124.8249999999999886
0
LINE
8
BLACK
6
CONTINUOUS
10
229.5
20
-124.8249999999999886
11
229.5
21
-125.8249999999999886
0
LINE
8
BLACK
6
CONTINUOUS
10
234.75
20
-125.8249999999999886
11
233.1999999999999886
21
-125.8249999999999886
0
LINE
8
BLACK
6
CONTINUOUS
10
233.1999999999999886
20
-125.8249999999999886
11
233.1999999999999886
21
-124.8249999999999886
0
LINE
8
BLACK
6
CONTINUOUS
10
233.1999999999999886
20
-124.8249999999999886
11
234.75
21
-124.8249999999999886
0
LINE
8
BLACK
6
CONTINUOUS
10
234.75
20
-124.8249999999999886
11
234.75
21
-125.8249999999999886
0
LINE
8
BLACK
6
CONTINUOUS
10
243.
20
-125.8249999999999886
11
241.4499999999999886
21
-125.8249999999999886
0
LINE
8
BLACK
6
CONTINUOUS
10
241.4499999999999886
20
-125.8249999999999886
11
241.4499999999999886
21
-124.8249999999999886
0
LINE
8
BLACK
6
CONTINUOUS
10
241.4499999999999886
20
-124.8249999999999886
11
243.
21
-124.8249999999999886
0
LINE
8
BLACK
6
CONTINUOUS
10
243.
20
-124.8249999999999886
11
243.
21
-125.8249999999999886
0
LINE
8
BLACK
6
CONTINUOUS
10
248.25
20
-125.8249999999999886
11
246.6999999999999886
21
-125.8249999999999886
0
LINE
8
BLACK
6
CONTINUOUS
10
246.6999999999999886
20
-125.8249999999999886
11
246.6999999999999886
21
-124.8249999999999886
0
LINE
8
BLACK
6
CONTINUOUS
10
246.6999999999999886
20
-124.8249999999999886
11
248.25
21
-124.8249999999999886
0
LINE
8
BLACK
6
CONTINUOUS
10
248.25
20
-124.8249999999999886
11
248.25
21
-125.8249999999999886
0
LINE
8
BLACK
6
CONTINUOUS
10
192.4722079999999949
20
-124.4342539999999957
11
192.5739429999999857
21
-124.4929909999999893
0
LINE
8
BLACK
6
CONTINUOUS
10
192.5739429999999857
20
-124.4929909999999893
11
192.657008999999988
21
-124.5760569999999916
0
LINE
8
BLACK
6
CONTINUOUS
10
192.657008999999988
20
-124.5760569999999916
11
192.7157459999999958
21
-124.6777919999999966
0
LINE
8
BLACK
6
CONTINUOUS
10
192.7157459999999958
20
-124.6777919999999966
11
192.7461500000000001
21
-124.7912630000000007
0
LINE
8
BLACK
6
CONTINUOUS
10
192.7461500000000001
20
-124.7912630000000007
11
192.7461500000000001
21
-124.9087369999999879
0
LINE
8
BLACK
6
CONTINUOUS
10
192.7461500000000001
20
-124.9087369999999879
11
192.7157459999999958
21
-125.022207999999992
0
LINE
8
BLACK
6
CONTINUOUS
10
192.7157459999999958
20
-125.022207999999992
11
192.657008999999988
21
-125.123942999999997
0
LINE
8
BLACK
6
CONTINUOUS
10
192.657008999999988
20
-125.123942999999997
11
192.5739429999999857
21
-125.2070089999999993
0
LINE
8
BLACK
6
CONTINUOUS
10
192.5739429999999857
20
-125.2070089999999993
11
192.4722079999999949
21
-125.2657459999999929
0
LINE
8
BLACK
6
CONTINUOUS
10
192.4722079999999949
20
-125.2657459999999929
11
192.3587369999999908
21
-125.2961499999999972
0
LINE
8
BLACK
6
CONTINUOUS
10
192.3587369999999908
20
-125.2961499999999972
11
192.2412630000000036
21
-125.2961499999999972
0
LINE
8
BLACK
6
CONTINUOUS
10
192.2412630000000036
20
-125.2961499999999972
11
192.1277919999999995
21
-125.2657459999999929
0
LINE
8
BLACK
6
CONTINUOUS
10
192.1277919999999995
20
-125.2657459999999929
11
192.0260569999999802
21
-125.2070089999999993
0
LINE
8
BLACK
6
CONTINUOUS
10
192.0260569999999802
20
-125.2070089999999993
11
191.9429909999999779
21
-125.123942999999997
0
LINE
8
BLACK
6
CONTINUOUS
10
191.9429909999999779
20
-125.123942999999997
11
191.8842539999999985
21
-125.022207999999992
0
LINE
8
BLACK
6
CONTINUOUS
10
191.8842539999999985
20
-125.022207999999992
11
191.8538499999999942
21
-124.9087369999999879
0
LINE
8
BLACK
6
CONTINUOUS
10
191.8538499999999942
20
-124.9087369999999879
11
191.8538499999999942
21
-124.7912630000000007
0
LINE
8
BLACK
6
CONTINUOUS
10
191.8538499999999942
20
-124.7912630000000007
11
191.8842539999999985
21
-124.6777919999999966
0
LINE
8
BLACK
6
CONTINUOUS
10
191.8842539999999985
20
-124.6777919999999966
11
191.9429909999999779
21
-124.5760569999999916
0
LINE
8
BLACK
6
CONTINUOUS
10
191.9429909999999779
20
-124.5760569999999916
11
192.0260569999999802
21
-124.4929909999999893
0
LINE
8
BLACK
6
CONTINUOUS
10
192.0260569999999802
20
-124.4929909999999893
11
192.1277919999999995
21
-124.4342539999999957
0
LINE
8
BLACK
6
CONTINUOUS
10
192.1277919999999995
20
-124.4342539999999957
11
192.2412630000000036
21
-124.4038499999999914
0
LINE
8
BLACK
6
CONTINUOUS
10
192.2412630000000036
20
-124.4038499999999914
11
192.3587369999999908
21
-124.4038499999999914
0
LINE
8
BLACK
6
CONTINUOUS
10
192.3587369999999908
20
-124.4038499999999914
11
192.4722079999999949
21
-124.4342539999999957
0
LINE
8
BLACK
6
CONTINUOUS
10
209.4972080000000005
20
-124.4342539999999957
11
209.5989429999999913
21
-124.4929909999999893
0
LINE
8
BLACK
6
CONTINUOUS
10
209.5989429999999913
20
-124.4929909999999893
11
209.6820089999999936
21
-124.5760569999999916
0
LINE
8
BLACK
6
CONTINUOUS
10
209.6820089999999936
20
-124.5760569999999916
11
209.7407460000000015
21
-124.6777919999999966
0
LINE
8
BLACK
6
CONTINUOUS
10
209.7407460000000015
20
-124.6777919999999966
11
209.7711499999999774
21
-124.7912630000000007
0
LINE
8
BLACK
6
CONTINUOUS
10
209.7711499999999774
20
-124.7912630000000007
11
209.7711499999999774
21
-124.9087369999999879
0
LINE
8
BLACK
6
CONTINUOUS
10
209.7711499999999774
20
-124.9087369999999879
11
209.7407460000000015
21
-125.022207999999992
0
LINE
8
BLACK
6
CONTINUOUS
10
209.7407460000000015
20
-125.022207999999992
11
209.6820089999999936
21
-125.123942999999997
0
LINE
8
BLACK
6
CONTINUOUS
10
209.6820089999999936
20
-125.123942999999997
11
209.5989429999999913
21
-125.2070089999999993
0
LINE
8
BLACK
6
CONTINUOUS
10
209.5989429999999913
20
-125.2070089999999993
11
209.4972080000000005
21
-125.2657459999999929
0
LINE
8
BLACK
6
CONTINUOUS
10
209.4972080000000005
20
-125.2657459999999929
11
209.3837369999999964
21
-125.2961499999999972
0
LINE
8
BLACK
6
CONTINUOUS
10
209.3837369999999964
20
-125.2961499999999972
11
209.2662629999999808
21
-125.2961499999999972
0
LINE
8
BLACK
6
CONTINUOUS
10
209.2662629999999808
20
-125.2961499999999972
11
209.1527919999999767
21
-125.2657459999999929
0
LINE
8
BLACK
6
CONTINUOUS
10
209.1527919999999767
20
-125.2657459999999929
11
209.0510569999999859
21
-125.2070089999999993
0
LINE
8
BLACK
6
CONTINUOUS
10
209.0510569999999859
20
-125.2070089999999993
11
208.9679909999999836
21
-125.123942999999997
0
LINE
8
BLACK
6
CONTINUOUS
10
208.9679909999999836
20
-125.123942999999997
11
208.9092540000000042
21
-125.022207999999992
0
LINE
8
BLACK
6
CONTINUOUS
10
208.9092540000000042
20
-125.022207999999992
11
208.8788499999999999
21
-124.9087369999999879
0
LINE
8
BLACK
6
CONTINUOUS
10
208.8788499999999999
20
-124.9087369999999879
11
208.8788499999999999
21
-124.7912630000000007
0
LINE
8
BLACK
6
CONTINUOUS
10
208.8788499999999999
20
-124.7912630000000007
11
208.9092540000000042
21
-124.6777919999999966
0
LINE
8
BLACK
6
CONTINUOUS
10
208.9092540000000042
20
-124.6777919999999966
11
208.9679909999999836
21
-124.5760569999999916
0
LINE
8
BLACK
6
CONTINUOUS
10
208.9679909999999836
20
-124.5760569999999916
11
209.0510569999999859
21
-124.4929909999999893
0
LINE
8
BLACK
6
CONTINUOUS
10
209.0510569999999859
20
-124.4929909999999893
11
209.1527919999999767
21
-124.4342539999999957
0
LINE
8
BLACK
6
CONTINUOUS
10
209.1527919999999767
20
-124.4342539999999957
11
209.2662629999999808
21
-124.4038499999999914
0
LINE
8
BLACK
6
CONTINUOUS
10
209.2662629999999808
20
-124.4038499999999914
11
209.3837369999999964
21
-124.4038499999999914
0
LINE
8
BLACK
6
CONTINUOUS
10
209.3837369999999964
20
-124.4038499999999914
11
209.4972080000000005
21
-124.4342539999999957
0
LINE
8
BLACK
6
CONTINUOUS
10
231.5222079999999778
20
-124.3842539999999985
11
231.623942999999997
21
-124.4429909999999921
0
LINE
8
BLACK
6
CONTINUOUS
10
231.623942999999997
20
-124.4429909999999921
11
231.7070089999999993
21
-124.5260569999999944
0
LINE
8
BLACK
6
CONTINUOUS
10
231.7070089999999993
20
-124.5260569999999944
11
231.7657459999999787
21
-124.6277919999999995
0
LINE
8
BLACK
6
CONTINUOUS
10
231.7657459999999787
20
-124.6277919999999995
11
231.796149999999983
21
-124.7412629999999893
0
LINE
8
BLACK
6
CONTINUOUS
10
231.796149999999983
20
-124.7412629999999893
11
231.796149999999983
21
-124.8587369999999908
0
LINE
8
BLACK
6
CONTINUOUS
10
231.796149999999983
20
-124.8587369999999908
11
231.7657459999999787
21
-124.9722079999999949
0
LINE
8
BLACK
6
CONTINUOUS
10
231.7657459999999787
20
-124.9722079999999949
11
231.7070089999999993
21
-125.0739429999999999
0
LINE
8
BLACK
6
CONTINUOUS
10
231.7070089999999993
20
-125.0739429999999999
11
231.623942999999997
21
-125.157008999999988
0
LINE
8
BLACK
6
CONTINUOUS
10
231.623942999999997
20
-125.157008999999988
11
231.5222079999999778
21
-125.2157459999999958
0
LINE
8
BLACK
6
CONTINUOUS
10
231.5222079999999778
20
-125.2157459999999958
11
231.4087370000000021
21
-125.2461500000000001
0
LINE
8
BLACK
6
CONTINUOUS
10
231.4087370000000021
20
-125.2461500000000001
11
231.2912629999999865
21
-125.2461500000000001
0
LINE
8
BLACK
6
CONTINUOUS
10
231.2912629999999865
20
-125.2461500000000001
11
231.1777919999999824
21
-125.2157459999999958
0
LINE
8
BLACK
6
CONTINUOUS
10
231.1777919999999824
20
-125.2157459999999958
11
231.0760569999999916
21
-125.157008999999988
0
LINE
8
BLACK
6
CONTINUOUS
10
231.0760569999999916
20
-125.157008999999988
11
230.9929909999999893
21
-125.0739429999999999
0
LINE
8
BLACK
6
CONTINUOUS
10
230.9929909999999893
20
-125.0739429999999999
11
230.9342539999999815
21
-124.9722079999999949
0
LINE
8
BLACK
6
CONTINUOUS
10
230.9342539999999815
20
-124.9722079999999949
11
230.9038499999999772
21
-124.8587369999999908
0
LINE
8
BLACK
6
CONTINUOUS
10
230.9038499999999772
20
-124.8587369999999908
11
230.9038499999999772
21
-124.7412629999999893
0
LINE
8
BLACK
6
CONTINUOUS
10
230.9038499999999772
20
-124.7412629999999893
11
230.9342539999999815
21
-124.6277919999999995
0
LINE
8
BLACK
6
CONTINUOUS
10
230.9342539999999815
20
-124.6277919999999995
11
230.9929909999999893
21
-124.5260569999999944
0
LINE
8
BLACK
6
CONTINUOUS
10
230.9929909999999893
20
-124.5260569999999944
11
231.0760569999999916
21
-124.4429909999999921
0
LINE
8
BLACK
6
CONTINUOUS
10
231.0760569999999916
20
-124.4429909999999921
11
231.1777919999999824
21
-124.3842539999999985
0
LINE
8
BLACK
6
CONTINUOUS
10
231.1777919999999824
20
-124.3842539999999985
11
231.2912629999999865
21
-124.3538499999999942
0
LINE
8
BLACK
6
CONTINUOUS
10
231.2912629999999865
20
-124.3538499999999942
11
231.4087370000000021
21
-124.3538499999999942
0
LINE
8
BLACK
6
CONTINUOUS
10
231.4087370000000021
20
-124.3538499999999942
11
231.5222079999999778
21
-124.3842539999999985
0
LINE
8
BLACK
6
CONTINUOUS
10
245.0222079999999778
20
-124.3842539999999985
11
245.123942999999997
21
-124.4429909999999921
0
LINE
8
BLACK
6
CONTINUOUS
10
245.123942999999997
20
-124.4429909999999921
11
245.2070089999999993
21
-124.5260569999999944
0
LINE
8
BLACK
6
CONTINUOUS
10
245.2070089999999993
20
-124.5260569999999944
11
245.2657459999999787
21
-124.6277919999999995
0
LINE
8
BLACK
6
CONTINUOUS
10
245.2657459999999787
20
-124.6277919999999995
11
245.296149999999983
21
-124.7412629999999893
0
LINE
8
BLACK
6
CONTINUOUS
10
245.296149999999983
20
-124.7412629999999893
11
245.296149999999983
21
-124.8587369999999908
0
LINE
8
BLACK
6
CONTINUOUS
10
245.296149999999983
20
-124.8587369999999908
11
245.2657459999999787
21
-124.9722079999999949
0
LINE
8
BLACK
6
CONTINUOUS
10
245.2657459999999787
20
-124.9722079999999949
11
245.2070089999999993
21
-125.0739429999999999
0
LINE
8
BLACK
6
CONTINUOUS
10
245.2070089999999993
20
-125.0739429999999999
11
245.123942999999997
21
-125.157008999999988
0
LINE
8
BLACK
6
CONTINUOUS
10
245.123942999999997
20
-125.157008999999988
11
245.0222079999999778
21
-125.2157459999999958
0
LINE
8
BLACK
6
CONTINUOUS
10
245.0222079999999778
20
-125.2157459999999958
11
244.9087370000000021
21
-125.2461500000000001
0
LINE
8
BLACK
6
CONTINUOUS
10
244.9087370000000021
20
-125.2461500000000001
11
244.7912629999999865
21
-125.2461500000000001
0
LINE
8
BLACK
6
CONTINUOUS
10
244.7912629999999865
20
-125.2461500000000001
11
244.6777919999999824
21
-125.2157459999999958
0
LINE
8
BLACK
6
CONTINUOUS
10
244.6777919999999824
20
-125.2157459999999958
11
244.5760569999999916
21
-125.157008999999988
0
LINE
8
BLACK
6
CONTINUOUS
10
244.5760569999999916
20
-125.157008999999988
11
244.4929909999999893
21
-125.0739429999999999
0
LINE
8
BLACK
6
CONTINUOUS
10
244.4929909999999893
20
-125.0739429999999999
11
244.4342539999999815
21
-124.9722079999999949
0
LINE
8
BLACK
6
CONTINUOUS
10
244.4342539999999815
20
-124.9722079999999949
11
244.4038499999999772
21
-124.8587369999999908
0
LINE
8
BLACK
6
CONTINUOUS
10
244.4038499999999772
20
-124.8587369999999908
11
244.4038499999999772
21
-124.7412629999999893
0
LINE
8
BLACK
6
CONTINUOUS
10
244.4038499999999772
20
-124.7412629999999893
11
244.4342539999999815
21
-124.6277919999999995
0
LINE
8
BLACK
6
CONTINUOUS
10
244.4342539999999815
20
-124.6277919999999995
11
244.4929909999999893
21
-124.5260569999999944
0
LINE
8
BLACK
6
CONTINUOUS
10
244.4929909999999893
20
-124.5260569999999944
11
244.5760569999999916
21
-124.4429909999999921
0
LINE
8
BLACK
6
CONTINUOUS
10
244.5760569999999916
20
-124.4429909999999921
11
244.6777919999999824
21
-124.3842539999999985
0
LINE
8
BLACK
6
CONTINUOUS
10
244.6777919999999824
20
-124.3842539999999985
11
244.7912629999999865
21
-124.3538499999999942
0
LINE
8
BLACK
6
CONTINUOUS
10
244.7912629999999865
20
-124.3538499999999942
11
244.9087370000000021
21
-124.3538499999999942
0
LINE
8
BLACK
6
CONTINUOUS
10
244.9087370000000021
20
-124.3538499999999942
11
245.0222079999999778
21
-124.3842539999999985
0
LINE
8
BLACK
6
CONTINUOUS
10
192.7099999999999795
20
-121.0499999999999972
11
191.2099999999999795
21
-121.0499999999999972
0
LINE
8
BLACK
6
CONTINUOUS
10
191.2099999999999795
20
-121.0499999999999972
11
191.2099999999999795
21
-118.5499999999999972
0
LINE
8
BLACK
6
CONTINUOUS
10
191.2099999999999795
20
-118.5499999999999972
11
192.7099999999999795
21
-118.5499999999999972
0
LINE
8
BLACK
6
CONTINUOUS
10
192.7099999999999795
20
-118.5499999999999972
11
192.7099999999999795
21
-121.0499999999999972
0
LINE
8
BLACK
6
CONTINUOUS
10
197.789999999999992
20
-121.0499999999999972
11
196.289999999999992
21
-121.0499999999999972
0
LINE
8
BLACK
6
CONTINUOUS
10
196.289999999999992
20
-121.0499999999999972
11
196.289999999999992
21
-118.5499999999999972
0
LINE
8
BLACK
6
CONTINUOUS
10
196.289999999999992
20
-118.5499999999999972
11
197.789999999999992
21
-118.5499999999999972
0
LINE
8
BLACK
6
CONTINUOUS
10
197.789999999999992
20
-118.5499999999999972
11
197.789999999999992
21
-121.0499999999999972
0
LINE
8
BLACK
6
CONTINUOUS
10
202.8700000000000045
20
-121.0499999999999972
11
201.3700000000000045
21
-121.0499999999999972
0
LINE
8
BLACK
6
CONTINUOUS
10
201.3700000000000045
20
-121.0499999999999972
11
201.3700000000000045
21
-118.5499999999999972
0
LINE
8
BLACK
6
CONTINUOUS
10
201.3700000000000045
20
-118.5499999999999972
11
202.8700000000000045
21
-118.5499999999999972
0
LINE
8
BLACK
6
CONTINUOUS
10
202.8700000000000045
20
-118.5499999999999972
11
202.8700000000000045
21
-121.0499999999999972
0
LINE
8
BLACK
6
CONTINUOUS
10
207.9499999999999886
20
-121.0499999999999972
11
206.4499999999999886
21
-121.0499999999999972
0
LINE
8
BLACK
6
CONTINUOUS
10
206.4499999999999886
20
-121.0499999999999972
11
206.4499999999999886
21
-118.5499999999999972
0
LINE
8
BLACK
6
CONTINUOUS
10
206.4499999999999886
20
-118.5499999999999972
11
207.9499999999999886
21
-118.5499999999999972
0
LINE
8
BLACK
6
CONTINUOUS
10
207.9499999999999886
20
-118.5499999999999972
11
207.9499999999999886
21
-121.0499999999999972
0
LINE
8
BLACK
6
CONTINUOUS
10
213.0300000000000011
20
-121.0499999999999972
11
211.5300000000000011
21
-121.0499999999999972
0
LINE
8
BLACK
6
CONTINUOUS
10
211.5300000000000011
20
-121.0499999999999972
11
211.5300000000000011
21
-118.5499999999999972
0
LINE
8
BLACK
6
CONTINUOUS
10
211.5300000000000011
20
-118.5499999999999972
11
213.0300000000000011
21
-118.5499999999999972
0
LINE
8
BLACK
6
CONTINUOUS
10
213.0300000000000011
20
-118.5499999999999972
11
213.0300000000000011
21
-121.0499999999999972
0
LINE
8
BLACK
6
CONTINUOUS
10
218.1099999999999852
20
-121.0499999999999972
11
216.6099999999999852
21
-121.0499999999999972
0
LINE
8
BLACK
6
CONTINUOUS
10
216.6099999999999852
20
-121.0499999999999972
11
216.6099999999999852
21
-118.5499999999999972
0
LINE
8
BLACK
6
CONTINUOUS
10
216.6099999999999852
20
-118.5499999999999972
11
218.1099999999999852
21
-118.5499999999999972
0
LINE
8
BLACK
6
CONTINUOUS
10
218.1099999999999852
20
-118.5499999999999972
11
218.1099999999999852
21
-121.0499999999999972
0
LINE
8
BLACK
6
CONTINUOUS
10
223.1899999999999977
20
-121.0499999999999972
11
221.6899999999999977
21
-121.0499999999999972
0
LINE
8
BLACK
6
CONTINUOUS
10
221.6899999999999977
20
-121.0499999999999972
11
221.6899999999999977
21
-118.5499999999999972
0
LINE
8
BLACK
6
CONTINUOUS
10
221.6899999999999977
20
-118.5499999999999972
11
223.1899999999999977
21
-118.5499999999999972
0
LINE
8
BLACK
6
CONTINUOUS
10
223.1899999999999977
20
-118.5499999999999972
11
223.1899999999999977
21
-121.0499999999999972
0
LINE
8
BLACK
6
CONTINUOUS
10
228.2699999999999818
20
-121.0499999999999972
11
226.7699999999999818
21
-121.0499999999999972
0
LINE
8
BLACK
6
CONTINUOUS
10
226.7699999999999818
20
-121.0499999999999972
11
226.7699999999999818
21
-118.5499999999999972
0
LINE
8
BLACK
6
CONTINUOUS
10
226.7699999999999818
20
-118.5499999999999972
11
228.2699999999999818
21
-118.5499999999999972
0
LINE
8
BLACK
6
CONTINUOUS
10
228.2699999999999818
20
-118.5499999999999972
11
228.2699999999999818
21
-121.0499999999999972
0
LINE
8
BLACK
6
CONTINUOUS
10
233.3499999999999943
20
-121.0499999999999972
11
231.8499999999999943
21
-121.0499999999999972
0
LINE
8
BLACK
6
CONTINUOUS
10
231.8499999999999943
20
-121.0499999999999972
11
231.8499999999999943
21
-118.5499999999999972
0
LINE
8
BLACK
6
CONTINUOUS
10
231.8499999999999943
20
-118.5499999999999972
11
233.3499999999999943
21
-118.5499999999999972
0
LINE
8
BLACK
6
CONTINUOUS
10
233.3499999999999943
20
-118.5499999999999972
11
233.3499999999999943
21
-121.0499999999999972
0
LINE
8
BLACK
6
CONTINUOUS
10
238.4299999999999784
20
-121.0499999999999972
11
236.9299999999999784
21
-121.0499999999999972
0
LINE
8
BLACK
6
CONTINUOUS
10
236.9299999999999784
20
-121.0499999999999972
11
236.9299999999999784
21
-118.5499999999999972
0
LINE
8
BLACK
6
CONTINUOUS
10
236.9299999999999784
20
-118.5499999999999972
11
238.4299999999999784
21
-118.5499999999999972
0
LINE
8
BLACK
6
CONTINUOUS
10
238.4299999999999784
20
-118.5499999999999972
11
238.4299999999999784
21
-121.0499999999999972
0
LINE
8
BLACK
6
CONTINUOUS
10
248.3249999999999886
20
-118.0749999999999886
11
247.3249999999999886
21
-118.0749999999999886
0
LINE
8
BLACK
6
CONTINUOUS
10
247.3249999999999886
20
-118.0749999999999886
11
247.3249999999999886
21
-116.5249999999999915
0
LINE
8
BLACK
6
CONTINUOUS
10
247.3249999999999886
20
-116.5249999999999915
11
248.3249999999999886
21
-116.5249999999999915
0
LINE
8
BLACK
6
CONTINUOUS
10
248.3249999999999886
20
-116.5249999999999915
11
248.3249999999999886
21
-118.0749999999999886
0
LINE
8
BLACK
6
CONTINUOUS
10
250.0249999999999773
20
-118.0749999999999886
11
249.0249999999999773
21
-118.0749999999999886
0
LINE
8
BLACK
6
CONTINUOUS
10
249.0249999999999773
20
-118.0749999999999886
11
249.0249999999999773
21
-116.5249999999999915
0
LINE
8
BLACK
6
CONTINUOUS
10
249.0249999999999773
20
-116.5249999999999915
11
250.0249999999999773
21
-116.5249999999999915
0
LINE
8
BLACK
6
CONTINUOUS
10
250.0249999999999773
20
-116.5249999999999915
11
250.0249999999999773
21
-118.0749999999999886
0
LINE
8
BLACK
6
CONTINUOUS
10
190.1699999999999875
20
-117.75
11
188.6699999999999875
21
-117.75
0
LINE
8
BLACK
6
CONTINUOUS
10
188.6699999999999875
20
-117.75
11
188.6699999999999875
21
-115.25
0
LINE
8
BLACK
6
CONTINUOUS
10
188.6699999999999875
20
-115.25
11
190.1699999999999875
21
-115.25
0
LINE
8
BLACK
6
CONTINUOUS
10
190.1699999999999875
20
-115.25
11
190.1699999999999875
21
-117.75
0
LINE
8
BLACK
6
CONTINUOUS
10
195.25
20
-117.75
11
193.75
21
-117.75
0
LINE
8
BLACK
6
CONTINUOUS
10
193.75
20
-117.75
11
193.75
21
-115.25
0
LINE
8
BLACK
6
CONTINUOUS
10
193.75
20
-115.25
11
195.25
21
-115.25
0
LINE
8
BLACK
6
CONTINUOUS
10
195.25
20
-115.25
11
195.25
21
-117.75
0
LINE
8
BLACK
6
CONTINUOUS
10
200.3299999999999841
20
-117.75
11
198.8299999999999841
21
-117.75
0
LINE
8
BLACK
6
CONTINUOUS
10
198.8299999999999841
20
-117.75
11
198.8299999999999841
21
-115.25
0
LINE
8
BLACK
6
CONTINUOUS
10
198.8299999999999841
20
-115.25
11
200.3299999999999841
21
-115.25
0
LINE
8
BLACK
6
CONTINUOUS
10
200.3299999999999841
20
-115.25
11
200.3299999999999841
21
-117.75
0
LINE
8
BLACK
6
CONTINUOUS
10
205.4099999999999966
20
-117.75
11
203.9099999999999966
21
-117.75
0
LINE
8
BLACK
6
CONTINUOUS
10
203.9099999999999966
20
-117.75
11
203.9099999999999966
21
-115.25
0
LINE
8
BLACK
6
CONTINUOUS
10
203.9099999999999966
20
-115.25
11
205.4099999999999966
21
-115.25
0
LINE
8
BLACK
6
CONTINUOUS
10
205.4099999999999966
20
-115.25
11
205.4099999999999966
21
-117.75
0
LINE
8
BLACK
6
CONTINUOUS
10
210.4899999999999807
20
-117.75
11
208.9899999999999807
21
-117.75
0
LINE
8
BLACK
6
CONTINUOUS
10
208.9899999999999807
20
-117.75
11
208.9899999999999807
21
-115.25
0
LINE
8
BLACK
6
CONTINUOUS
10
208.9899999999999807
20
-115.25
11
210.4899999999999807
21
-115.25
0
LINE
8
BLACK
6
CONTINUOUS
10
210.4899999999999807
20
-115.25
11
210.4899999999999807
21
-117.75
0
LINE
8
BLACK
6
CONTINUOUS
10
215.5699999999999932
20
-117.75
11
214.0699999999999932
21
-117.75
0
LINE
8
BLACK
6
CONTINUOUS
10
214.0699999999999932
20
-117.75
11
214.0699999999999932
21
-115.25
0
LINE
8
BLACK
6
CONTINUOUS
10
214.0699999999999932
20
-115.25
11
215.5699999999999932
21
-115.25
0
LINE
8
BLACK
6
CONTINUOUS
10
215.5699999999999932
20
-115.25
11
215.5699999999999932
21
-117.75
0
LINE
8
BLACK
6
CONTINUOUS
10
220.6499999999999773
20
-117.75
11
219.1499999999999773
21
-117.75
0
LINE
8
BLACK
6
CONTINUOUS
10
219.1499999999999773
20
-117.75
11
219.1499999999999773
21
-115.25
0
LINE
8
BLACK
6
CONTINUOUS
10
219.1499999999999773
20
-115.25
11
220.6499999999999773
21
-115.25
0
LINE
8
BLACK
6
CONTINUOUS
10
220.6499999999999773
20
-115.25
11
220.6499999999999773
21
-117.75
0
LINE
8
BLACK
6
CONTINUOUS
10
225.7299999999999898
20
-117.75
11
224.2299999999999898
21
-117.75
0
LINE
8
BLACK
6
CONTINUOUS
10
224.2299999999999898
20
-117.75
11
224.2299999999999898
21
-115.25
0
LINE
8
BLACK
6
CONTINUOUS
10
224.2299999999999898
20
-115.25
11
225.7299999999999898
21
-115.25
0
LINE
8
BLACK
6
CONTINUOUS
10
225.7299999999999898
20
-115.25
11
225.7299999999999898
21
-117.75
0
LINE
8
BLACK
6
CONTINUOUS
10
230.8100000000000023
20
-117.75
11
229.3100000000000023
21
-117.75
0
LINE
8
BLACK
6
CONTINUOUS
10
229.3100000000000023
20
-117.75
11
229.3100000000000023
21
-115.25
0
LINE
8
BLACK
6
CONTINUOUS
10
229.3100000000000023
20
-115.25
11
230.8100000000000023
21
-115.25
0
LINE
8
BLACK
6
CONTINUOUS
10
230.8100000000000023
20
-115.25
11
230.8100000000000023
21
-117.75
0
LINE
8
BLACK
6
CONTINUOUS
10
235.8899999999999864
20
-117.75
11
234.3899999999999864
21
-117.75
0
LINE
8
BLACK
6
CONTINUOUS
10
234.3899999999999864
20
-117.75
11
234.3899999999999864
21
-115.25
0
LINE
8
BLACK
6
CONTINUOUS
10
234.3899999999999864
20
-115.25
11
235.8899999999999864
21
-115.25
0
LINE
8
BLACK
6
CONTINUOUS
10
235.8899999999999864
20
-115.25
11
235.8899999999999864
21
-117.75
0
LINE
8
BLACK
6
CONTINUOUS
10
247.4722079999999949
20
-114.2592539999999985
11
247.5739429999999857
21
-114.3179909999999921
0
LINE
8
BLACK
6
CONTINUOUS
10
247.5739429999999857
20
-114.3179909999999921
11
247.657008999999988
21
-114.4010569999999944
0
LINE
8
BLACK
6
CONTINUOUS
10
247.657008999999988
20
-114.4010569999999944
11
247.7157459999999958
21
-114.5027919999999995
0
LINE
8
BLACK
6
CONTINUOUS
10
247.7157459999999958
20
-114.5027919999999995
11
247.7461500000000001
21
-114.6162629999999893
0
LINE
8
BLACK
6
CONTINUOUS
10
247.7461500000000001
20
-114.6162629999999893
11
247.7461500000000001
21
-114.7337369999999908
0
LINE
8
BLACK
6
CONTINUOUS
10
247.7461500000000001
20
-114.7337369999999908
11
247.7157459999999958
21
-114.8472079999999949
0
LINE
8
BLACK
6
CONTINUOUS
10
247.7157459999999958
20
-114.8472079999999949
11
247.657008999999988
21
-114.9489429999999999
0
LINE
8
BLACK
6
CONTINUOUS
10
247.657008999999988
20
-114.9489429999999999
11
247.5739429999999857
21
-115.032008999999988
0
LINE
8
BLACK
6
CONTINUOUS
10
247.5739429999999857
20
-115.032008999999988
11
247.4722079999999949
21
-115.0907459999999958
0
LINE
8
BLACK
6
CONTINUOUS
10
247.4722079999999949
20
-115.0907459999999958
11
247.3587369999999908
21
-115.1211500000000001
0
LINE
8
BLACK
6
CONTINUOUS
10
247.3587369999999908
20
-115.1211500000000001
11
247.2412629999999751
21
-115.1211500000000001
0
LINE
8
BLACK
6
CONTINUOUS
10
247.2412629999999751
20
-115.1211500000000001
11
247.1277919999999995
21
-115.0907459999999958
0
LINE
8
BLACK
6
CONTINUOUS
10
247.1277919999999995
20
-115.0907459999999958
11
247.0260569999999802
21
-115.032008999999988
0
LINE
8
BLACK
6
CONTINUOUS
10
247.0260569999999802
20
-115.032008999999988
11
246.9429909999999779
21
-114.9489429999999999
0
LINE
8
BLACK
6
CONTINUOUS
10
246.9429909999999779
20
-114.9489429999999999
11
246.8842539999999985
21
-114.8472079999999949
0
LINE
8
BLACK
6
CONTINUOUS
10
246.8842539999999985
20
-114.8472079999999949
11
246.8538499999999942
21
-114.7337369999999908
0
LINE
8
BLACK
6
CONTINUOUS
10
246.8538499999999942
20
-114.7337369999999908
11
246.8538499999999942
21
-114.6162629999999893
0
LINE
8
BLACK
6
CONTINUOUS
10
246.8538499999999942
20
-114.6162629999999893
11
246.8842539999999985
21
-114.5027919999999995
0
LINE
8
BLACK
6
CONTINUOUS
10
246.8842539999999985
20
-114.5027919999999995
11
246.9429909999999779
21
-114.4010569999999944
0
LINE
8
BLACK
6
CONTINUOUS
10
246.9429909999999779
20
-114.4010569999999944
11
247.0260569999999802
21
-114.3179909999999921
0
LINE
8
BLACK
6
CONTINUOUS
10
247.0260569999999802
20
-114.3179909999999921
11
247.1277919999999995
21
-114.2592539999999985
0
LINE
8
BLACK
6
CONTINUOUS
10
247.1277919999999995
20
-114.2592539999999985
11
247.2412629999999751
21
-114.2288499999999942
0
LINE
8
BLACK
6
CONTINUOUS
10
247.2412629999999751
20
-114.2288499999999942
11
247.3587369999999908
21
-114.2288499999999942
0
LINE
8
BLACK
6
CONTINUOUS
10
247.3587369999999908
20
-114.2288499999999942
11
247.4722079999999949
21
-114.2592539999999985
0
LINE
8
BLACK
6
CONTINUOUS
10
250.2222079999999949
20
-114.2592539999999985
11
250.3239429999999857
21
-114.3179909999999921
0
LINE
8
BLACK
6
CONTINUOUS
10
250.3239429999999857
20
-114.3179909999999921
11
250.407008999999988
21
-114.4010569999999944
0
LINE
8
BLACK
6
CONTINUOUS
10
250.407008999999988
20
-114.4010569999999944
11
250.4657459999999958
21
-114.5027919999999995
0
LINE
8
BLACK
6
CONTINUOUS
10
250.4657459999999958
20
-114.5027919999999995
11
250.4961500000000001
21
-114.6162629999999893
0
LINE
8
BLACK
6
CONTINUOUS
10
250.4961500000000001
20
-114.6162629999999893
11
250.4961500000000001
21
-114.7337369999999908
0
LINE
8
BLACK
6
CONTINUOUS
10
250.4961500000000001
20
-114.7337369999999908
11
250.4657459999999958
21
-114.8472079999999949
0
LINE
8
BLACK
6
CONTINUOUS
10
250.4657459999999958
20
-114.8472079999999949
11
250.407008999999988
21
-114.9489429999999999
0
LINE
8
BLACK
6
CONTINUOUS
10
250.407008999999988
20
-114.9489429999999999
11
250.3239429999999857
21
-115.032008999999988
0
LINE
8
BLACK
6
CONTINUOUS
10
250.3239429999999857
20
-115.032008999999988
11
250.2222079999999949
21
-115.0907459999999958
0
LINE
8
BLACK
6
CONTINUOUS
10
250.2222079999999949
20
-115.0907459999999958
11
250.1087369999999908
21
-115.1211500000000001
0
LINE
8
BLACK
6
CONTINUOUS
10
250.1087369999999908
20
-115.1211500000000001
11
249.9912629999999751
21
-115.1211500000000001
0
LINE
8
BLACK
6
CONTINUOUS
10
249.9912629999999751
20
-115.1211500000000001
11
249.8777919999999995
21
-115.0907459999999958
0
LINE
8
BLACK
6
CONTINUOUS
10
249.8777919999999995
20
-115.0907459999999958
11
249.7760569999999802
21
-115.032008999999988
0
LINE
8
BLACK
6
CONTINUOUS
10
249.7760569999999802
20
-115.032008999999988
11
249.6929909999999779
21
-114.9489429999999999
0
LINE
8
BLACK
6
CONTINUOUS
10
249.6929909999999779
20
-114.9489429999999999
11
249.6342539999999985
21
-114.8472079999999949
0
LINE
8
BLACK
6
CONTINUOUS
10
249.6342539999999985
20
-114.8472079999999949
11
249.6038499999999942
21
-114.7337369999999908
0
LINE
8
BLACK
6
CONTINUOUS
10
249.6038499999999942
20
-114.7337369999999908
11
249.6038499999999942
21
-114.6162629999999893
0
LINE
8
BLACK
6
CONTINUOUS
10
249.6038499999999942
20
-114.6162629999999893
11
249.6342539999999985
21
-114.5027919999999995
0
LINE
8
BLACK
6
CONTINUOUS
10
249.6342539999999985
20
-114.5027919999999995
11
249.6929909999999779
21
-114.4010569999999944
0
LINE
8
BLACK
6
CONTINUOUS
10
249.6929909999999779
20
-114.4010569999999944
11
249.7760569999999802
21
-114.3179909999999921
0
LINE
8
BLACK
6
CONTINUOUS
10
249.7760569999999802
20
-114.3179909999999921
11
249.8777919999999995
21
-114.2592539999999985
0
LINE
8
BLACK
6
CONTINUOUS
10
249.8777919999999995
20
-114.2592539999999985
11
249.9912629999999751
21
-114.2288499999999942
0
LINE
8
BLACK
6
CONTINUOUS
10
249.9912629999999751
20
-114.2288499999999942
11
250.1087369999999908
21
-114.2288499999999942
0
LINE
8
BLACK
6
CONTINUOUS
10
250.1087369999999908
20
-114.2288499999999942
11
250.2222079999999949
21
-114.2592539999999985
0
LINE
8
BLACK
6
CONTINUOUS
10
248.3249999999999886
20
-112.8249999999999886
11
247.3249999999999886
21
-112.8249999999999886
0
LINE
8
BLACK
6
CONTINUOUS
10
247.3249999999999886
20
-112.8249999999999886
11
247.3249999999999886
21
-111.2749999999999915
0
LINE
8
BLACK
6
CONTINUOUS
10
247.3249999999999886
20
-111.2749999999999915
11
248.3249999999999886
21
-111.2749999999999915
0
LINE
8
BLACK
6
CONTINUOUS
10
248.3249999999999886
20
-111.2749999999999915
11
248.3249999999999886
21
-112.8249999999999886
0
LINE
8
BLACK
6
CONTINUOUS
10
250.0249999999999773
20
-112.8249999999999886
11
249.0249999999999773
21
-112.8249999999999886
0
LINE
8
BLACK
6
CONTINUOUS
10
249.0249999999999773
20
-112.8249999999999886
11
249.0249999999999773
21
-111.2749999999999915
0
LINE
8
BLACK
6
CONTINUOUS
10
249.0249999999999773
20
-111.2749999999999915
11
250.0249999999999773
21
-111.2749999999999915
0
LINE
8
BLACK
6
CONTINUOUS
10
250.0249999999999773
20
-111.2749999999999915
11
250.0249999999999773
21
-112.8249999999999886
0
LINE
8
BLACK
6
CONTINUOUS
10
248.8972079999999778
20
-106.5842540000000014
11
248.998942999999997
21
-106.642990999999995
0
LINE
8
BLACK
6
CONTINUOUS
10
248.998942999999997
20
-106.642990999999995
11
249.0820089999999993
21
-106.7260569999999973
0
LINE
8
BLACK
6
CONTINUOUS
10
249.0820089999999993
20
-106.7260569999999973
11
249.1407459999999787
21
-106.8277919999999881
0
LINE
8
BLACK
6
CONTINUOUS
10
249.1407459999999787
20
-106.8277919999999881
11
249.171149999999983
21
-106.9412629999999922
0
LINE
8
BLACK
6
CONTINUOUS
10
249.171149999999983
20
-106.9412629999999922
11
249.171149999999983
21
-107.0587369999999936
0
LINE
8
BLACK
6
CONTINUOUS
10
249.171149999999983
20
-107.0587369999999936
11
249.1407459999999787
21
-107.1722079999999977
0
LINE
8
BLACK
6
CONTINUOUS
10
249.1407459999999787
20
-107.1722079999999977
11
249.0820089999999993
21
-107.2739429999999885
0
LINE
8
BLACK
6
CONTINUOUS
10
249.0820089999999993
20
-107.2739429999999885
11
248.998942999999997
21
-107.3570089999999908
0
LINE
8
BLACK
6
CONTINUOUS
10
248.998942999999997
20
-107.3570089999999908
11
248.8972079999999778
21
-107.4157459999999986
0
LINE
8
BLACK
6
CONTINUOUS
10
248.8972079999999778
20
-107.4157459999999986
11
248.7837370000000021
21
-107.4461499999999887
0
LINE
8
BLACK
6
CONTINUOUS
10
248.7837370000000021
20
-107.4461499999999887
11
248.6662629999999865
21
-107.4461499999999887
0
LINE
8
BLACK
6
CONTINUOUS
10
248.6662629999999865
20
-107.4461499999999887
11
248.5527919999999824
21
-107.4157459999999986
0
LINE
8
BLACK
6
CONTINUOUS
10
248.5527919999999824
20
-107.4157459999999986
11
248.4510569999999916
21
-107.3570089999999908
0
LINE
8
BLACK
6
CONTINUOUS
10
248.4510569999999916
20
-107.3570089999999908
11
248.3679909999999893
21
-107.2739429999999885
0
LINE
8
BLACK
6
CONTINUOUS
10
248.3679909999999893
20
-107.2739429999999885
11
248.3092539999999815
21
-107.1722079999999977
0
LINE
8
BLACK
6
CONTINUOUS
10
248.3092539999999815
20
-107.1722079999999977
11
248.2788499999999772
21
-107.0587369999999936
0
LINE
8
BLACK
6
CONTINUOUS
10
248.2788499999999772
20
-107.0587369999999936
11
248.2788499999999772
21
-106.9412629999999922
0
LINE
8
BLACK
6
CONTINUOUS
10
248.2788499999999772
20
-106.9412629999999922
11
248.3092539999999815
21
-106.8277919999999881
0
LINE
8
BLACK
6
CONTINUOUS
10
248.3092539999999815
20
-106.8277919999999881
11
248.3679909999999893
21
-106.7260569999999973
0
LINE
8
BLACK
6
CONTINUOUS
10
248.3679909999999893
20
-106.7260569999999973
11
248.4510569999999916
21
-106.642990999999995
0
LINE
8
BLACK
6
CONTINUOUS
10
248.4510569999999916
20
-106.642990999999995
11
248.5527919999999824
21
-106.5842540000000014
0
LINE
8
BLACK
6
CONTINUOUS
10
248.5527919999999824
20
-106.5842540000000014
11
248.6662629999999865
21
-106.5538499999999971
0
LINE
8
BLACK
6
CONTINUOUS
10
248.6662629999999865
20
-106.5538499999999971
11
248.7837370000000021
21
-106.5538499999999971
0
LINE
8
BLACK
6
CONTINUOUS
10
248.7837370000000021
20
-106.5538499999999971
11
248.8972079999999778
21
-106.5842540000000014
0
LINE
8
BLACK
6
CONTINUOUS
10
247.0706709999999759
20
-105.4940299999999951
11
247.1517769999999814
21
-105.548222999999993
0
LINE
8
BLACK
6
CONTINUOUS
10
247.1517769999999814
20
-105.548222999999993
11
247.2059699999999793
21
-105.6293289999999985
0
LINE
8
BLACK
6
CONTINUOUS
10
247.2059699999999793
20
-105.6293289999999985
11
247.2249999999999943
21
-105.7249999999999943
0
LINE
8
BLACK
6
CONTINUOUS
10
247.2249999999999943
20
-105.7249999999999943
11
247.2249999999999943
21
-106.4749999999999943
0
LINE
8
BLACK
6
CONTINUOUS
10
247.2249999999999943
20
-106.4749999999999943
11
247.2059699999999793
21
-106.5706709999999902
0
LINE
8
BLACK
6
CONTINUOUS
10
247.2059699999999793
20
-106.5706709999999902
11
247.1517769999999814
21
-106.6517769999999956
0
LINE
8
BLACK
6
CONTINUOUS
10
247.1517769999999814
20
-106.6517769999999956
11
247.0706709999999759
21
-106.7059699999999935
0
LINE
8
BLACK
6
CONTINUOUS
10
247.0706709999999759
20
-106.7059699999999935
11
246.9749999999999943
21
-106.7249999999999943
0
LINE
8
BLACK
6
CONTINUOUS
10
246.9749999999999943
20
-106.7249999999999943
11
244.9749999999999943
21
-106.7249999999999943
0
LINE
8
BLACK
6
CONTINUOUS
10
244.9749999999999943
20
-106.7249999999999943
11
244.8793289999999843
21
-106.7059699999999935
0
LINE
8
BLACK
6
CONTINUOUS
10
244.8793289999999843
20
-106.7059699999999935
11
244.7982229999999788
21
-106.6517769999999956
0
LINE
8
BLACK
6
CONTINUOUS
10
244.7982229999999788
20
-106.6517769999999956
11
244.7440299999999809
21
-106.5706709999999902
0
LINE
8
BLACK
6
CONTINUOUS
10
244.7440299999999809
20
-106.5706709999999902
11
244.7249999999999943
21
-106.4749999999999943
0
LINE
8
BLACK
6
CONTINUOUS
10
244.7249999999999943
20
-106.4749999999999943
11
244.7249999999999943
21
-105.7249999999999943
0
LINE
8
BLACK
6
CONTINUOUS
10
244.7249999999999943
20
-105.7249999999999943
11
244.7440299999999809
21
-105.6293289999999985
0
LINE
8
BLACK
6
CONTINUOUS
10
244.7440299999999809
20
-105.6293289999999985
11
244.7982229999999788
21
-105.548222999999993
0
LINE
8
BLACK
6
CONTINUOUS
10
244.7982229999999788
20
-105.548222999999993
11
244.8793289999999843
21
-105.4940299999999951
0
LINE
8
BLACK
6
CONTINUOUS
10
244.8793289999999843
20
-105.4940299999999951
11
244.9749999999999943
21
-105.4749999999999943
0
LINE
8
BLACK
6
CONTINUOUS
10
244.9749999999999943
20
-105.4749999999999943
11
246.9749999999999943
21
-105.4749999999999943
0
LINE
8
BLACK
6
CONTINUOUS
10
246.9749999999999943
20
-105.4749999999999943
11
247.0706709999999759
21
-105.4940299999999951
0
LINE
8
BLACK
6
CONTINUOUS
10
247.0706709999999759
20
-102.9940299999999951
11
247.1517769999999814
21
-103.048222999999993
0
LINE
8
BLACK
6
CONTINUOUS
10
247.1517769999999814
20
-103.048222999999993
11
247.2059699999999793
21
-103.1293289999999985
0
LINE
8
BLACK
6
CONTINUOUS
10
247.2059699999999793
20
-103.1293289999999985
11
247.2249999999999943
21
-103.2249999999999943
0
LINE
8
BLACK
6
CONTINUOUS
10
247.2249999999999943
20
-103.2249999999999943
11
247.2249999999999943
21
-103.9749999999999943
0
LINE
8
BLACK
6
CONTINUOUS
10
247.2249999999999943
20
-103.9749999999999943
11
247.2059699999999793
21
-104.0706709999999902
0
LINE
8
BLACK
6
CONTINUOUS
10
247.2059699999999793
20
-104.0706709999999902
11
247.1517769999999814
21
-104.1517769999999956
0
LINE
8
BLACK
6
CONTINUOUS
10
247.1517769999999814
20
-104.1517769999999956
11
247.0706709999999759
21
-104.2059699999999935
0
LINE
8
BLACK
6
CONTINUOUS
10
247.0706709999999759
20
-104.2059699999999935
11
246.9749999999999943
21
-104.2249999999999943
0
LINE
8
BLACK
6
CONTINUOUS
10
246.9749999999999943
20
-104.2249999999999943
11
244.9749999999999943
21
-104.2249999999999943
0
LINE
8
BLACK
6
CONTINUOUS
10
244.9749999999999943
20
-104.2249999999999943
11
244.8793289999999843
21
-104.2059699999999935
0
LINE
8
BLACK
6
CONTINUOUS
10
244.8793289999999843
20
-104.2059699999999935
11
244.7982229999999788
21
-104.1517769999999956
0
LINE
8
BLACK
6
CONTINUOUS
10
244.7982229999999788
20
-104.1517769999999956
11
244.7440299999999809
21
-104.0706709999999902
0
LINE
8
BLACK
6
CONTINUOUS
10
244.7440299999999809
20
-104.0706709999999902
11
244.7249999999999943
21
-103.9749999999999943
0
LINE
8
BLACK
6
CONTINUOUS
10
244.7249999999999943
20
-103.9749999999999943
11
244.7249999999999943
21
-103.2249999999999943
0
LINE
8
BLACK
6
CONTINUOUS
10
244.7249999999999943
20
-103.2249999999999943
11
244.7440299999999809
21
-103.1293289999999985
0
LINE
8
BLACK
6
CONTINUOUS
10
244.7440299999999809
20
-103.1293289999999985
11
244.7982229999999788
21
-103.048222999999993
0
LINE
8
BLACK
6
CONTINUOUS
10
244.7982229999999788
20
-103.048222999999993
11
244.8793289999999843
21
-102.9940299999999951
0
LINE
8
BLACK
6
CONTINUOUS
10
244.8793289999999843
20
-102.9940299999999951
11
244.9749999999999943
21
-102.9749999999999943
0
LINE
8
BLACK
6
CONTINUOUS
10
244.9749999999999943
20
-102.9749999999999943
11
246.9749999999999943
21
-102.9749999999999943
0
LINE
8
BLACK
6
CONTINUOUS
10
246.9749999999999943
20
-102.9749999999999943
11
247.0706709999999759
21
-102.9940299999999951
0
LINE
8
BLACK
6
CONTINUOUS
10
192.6799999999999784
20
-101.8199999999999932
11
191.1799999999999784
21
-101.8199999999999932
0
LINE
8
BLACK
6
CONTINUOUS
10
191.1799999999999784
20
-101.8199999999999932
11
191.1799999999999784
21
-99.3199999999999932
0
LINE
8
BLACK
6
CONTINUOUS
10
191.1799999999999784
20
-99.3199999999999932
11
192.6799999999999784
21
-99.3199999999999932
0
LINE
8
BLACK
6
CONTINUOUS
10
192.6799999999999784
20
-99.3199999999999932
11
192.6799999999999784
21
-101.8199999999999932
0
LINE
8
BLACK
6
CONTINUOUS
10
197.7599999999999909
20
-101.8199999999999932
11
196.2599999999999909
21
-101.8199999999999932
0
LINE
8
BLACK
6
CONTINUOUS
10
196.2599999999999909
20
-101.8199999999999932
11
196.2599999999999909
21
-99.3199999999999932
0
LINE
8
BLACK
6
CONTINUOUS
10
196.2599999999999909
20
-99.3199999999999932
11
197.7599999999999909
21
-99.3199999999999932
0
LINE
8
BLACK
6
CONTINUOUS
10
197.7599999999999909
20
-99.3199999999999932
11
197.7599999999999909
21
-101.8199999999999932
0
LINE
8
BLACK
6
CONTINUOUS
10
202.8400000000000034
20
-101.8199999999999932
11
201.3400000000000034
21
-101.8199999999999932
0
LINE
8
BLACK
6
CONTINUOUS
10
201.3400000000000034
20
-101.8199999999999932
11
201.3400000000000034
21
-99.3199999999999932
0
LINE
8
BLACK
6
CONTINUOUS
10
201.3400000000000034
20
-99.3199999999999932
11
202.8400000000000034
21
-99.3199999999999932
0
LINE
8
BLACK
6
CONTINUOUS
10
202.8400000000000034
20
-99.3199999999999932
11
202.8400000000000034
21
-101.8199999999999932
0
LINE
8
BLACK
6
CONTINUOUS
10
207.9199999999999875
20
-101.8199999999999932
11
206.4199999999999875
21
-101.8199999999999932
0
LINE
8
BLACK
6
CONTINUOUS
10
206.4199999999999875
20
-101.8199999999999932
11
206.4199999999999875
21
-99.3199999999999932
0
LINE
8
BLACK
6
CONTINUOUS
10
206.4199999999999875
20
-99.3199999999999932
11
207.9199999999999875
21
-99.3199999999999932
0
LINE
8
BLACK
6
CONTINUOUS
10
207.9199999999999875
20
-99.3199999999999932
11
207.9199999999999875
21
-101.8199999999999932
0
LINE
8
BLACK
6
CONTINUOUS
10
213.
20
-101.8199999999999932
11
211.5
21
-101.8199999999999932
0
LINE
8
BLACK
6
CONTINUOUS
10
211.5
20
-101.8199999999999932
11
211.5
21
-99.3199999999999932
0
LINE
8
BLACK
6
CONTINUOUS
10
211.5
20
-99.3199999999999932
11
213.
21
-99.3199999999999932
0
LINE
8
BLACK
6
CONTINUOUS
10
213.
20
-99.3199999999999932
11
213.
21
-101.8199999999999932
0
LINE
8
BLACK
6
CONTINUOUS
10
218.0799999999999841
20
-101.8199999999999932
11
216.5799999999999841
21
-101.8199999999999932
0
LINE
8
BLACK
6
CONTINUOUS
10
216.5799999999999841
20
-101.8199999999999932
11
216.5799999999999841
21
-99.3199999999999932
0
LINE
8
BLACK
6
CONTINUOUS
10
216.5799999999999841
20
-99.3199999999999932
11
218.0799999999999841
21
-99.3199999999999932
0
LINE
8
BLACK
6
CONTINUOUS
10
218.0799999999999841
20
-99.3199999999999932
11
218.0799999999999841
21
-101.8199999999999932
0
LINE
8
BLACK
6
CONTINUOUS
10
223.1599999999999966
20
-101.8199999999999932
11
221.6599999999999966
21
-101.8199999999999932
0
LINE
8
BLACK
6
CONTINUOUS
10
221.6599999999999966
20
-101.8199999999999932
11
221.6599999999999966
21
-99.3199999999999932
0
LINE
8
BLACK
6
CONTINUOUS
10
221.6599999999999966
20
-99.3199999999999932
11
223.1599999999999966
21
-99.3199999999999932
0
LINE
8
BLACK
6
CONTINUOUS
10
223.1599999999999966
20
-99.3199999999999932
11
223.1599999999999966
21
-101.8199999999999932
0
LINE
8
BLACK
6
CONTINUOUS
10
228.2399999999999807
20
-101.8199999999999932
11
226.7399999999999807
21
-101.8199999999999932
0
LINE
8
BLACK
6
CONTINUOUS
10
226.7399999999999807
20
-101.8199999999999932
11
226.7399999999999807
21
-99.3199999999999932
0
LINE
8
BLACK
6
CONTINUOUS
10
226.7399999999999807
20
-99.3199999999999932
11
228.2399999999999807
21
-99.3199999999999932
0
LINE
8
BLACK
6
CONTINUOUS
10
228.2399999999999807
20
-99.3199999999999932
11
228.2399999999999807
21
-101.8199999999999932
0
LINE
8
BLACK
6
CONTINUOUS
10
233.3199999999999932
20
-101.8199999999999932
11
231.8199999999999932
21
-101.8199999999999932
0
LINE
8
BLACK
6
CONTINUOUS
10
231.8199999999999932
20
-101.8199999999999932
11
231.8199999999999932
21
-99.3199999999999932
0
LINE
8
BLACK
6
CONTINUOUS
10
231.8199999999999932
20
-99.3199999999999932
11
233.3199999999999932
21
-99.3199999999999932
0
LINE
8
BLACK
6
CONTINUOUS
10
233.3199999999999932
20
-99.3199999999999932
11
233.3199999999999932
21
-101.8199999999999932
0
LINE
8
BLACK
6
CONTINUOUS
10
238.3999999999999773
20
-101.8199999999999932
11
236.8999999999999773
21
-101.8199999999999932
0
LINE
8
BLACK
6
CONTINUOUS
10
236.8999999999999773
20
-101.8199999999999932
11
236.8999999999999773
21
-99.3199999999999932
0
LINE
8
BLACK
6
CONTINUOUS
10
236.8999999999999773
20
-99.3199999999999932
11
238.3999999999999773
21
-99.3199999999999932
0
LINE
8
BLACK
6
CONTINUOUS
10
238.3999999999999773
20
-99.3199999999999932
11
238.3999999999999773
21
-101.8199999999999932
0
LINE
8
BLACK
6
CONTINUOUS
10
247.0706709999999759
20
-100.4940299999999951
11
247.1517769999999814
21
-100.548222999999993
0
LINE
8
BLACK
6
CONTINUOUS
10
247.1517769999999814
20
-100.548222999999993
11
247.2059699999999793
21
-100.6293289999999985
0
LINE
8
BLACK
6
CONTINUOUS
10
247.2059699999999793
20
-100.6293289999999985
11
247.2249999999999943
21
-100.7249999999999943
0
LINE
8
BLACK
6
CONTINUOUS
10
247.2249999999999943
20
-100.7249999999999943
11
247.2249999999999943
21
-101.4749999999999943
0
LINE
8
BLACK
6
CONTINUOUS
10
247.2249999999999943
20
-101.4749999999999943
11
247.2059699999999793
21
-101.5706709999999902
0
LINE
8
BLACK
6
CONTINUOUS
10
247.2059699999999793
20
-101.5706709999999902
11
247.1517769999999814
21
-101.6517769999999956
0
LINE
8
BLACK
6
CONTINUOUS
10
247.1517769999999814
20
-101.6517769999999956
11
247.0706709999999759
21
-101.7059699999999935
0
LINE
8
BLACK
6
CONTINUOUS
10
247.0706709999999759
20
-101.7059699999999935
11
246.9749999999999943
21
-101.7249999999999943
0
LINE
8
BLACK
6
CONTINUOUS
10
246.9749999999999943
20
-101.7249999999999943
11
244.9749999999999943
21
-101.7249999999999943
0
LINE
8
BLACK
6
CONTINUOUS
10
244.9749999999999943
20
-101.7249999999999943
11
244.8793289999999843
21
-101.7059699999999935
0
LINE
8
BLACK
6
CONTINUOUS
10
244.8793289999999843
20
-101.7059699999999935
11
244.7982229999999788
21
-101.6517769999999956
0
LINE
8
BLACK
6
CONTINUOUS
10
244.7982229999999788
20
-101.6517769999999956
11
244.7440299999999809
21
-101.5706709999999902
0
LINE
8
BLACK
6
CONTINUOUS
10
244.7440299999999809
20
-101.5706709999999902
11
244.7249999999999943
21
-101.4749999999999943
0
LINE
8
BLACK
6
CONTINUOUS
10
244.7249999999999943
20
-101.4749999999999943
11
244.7249999999999943
21
-100.7249999999999943
0
LINE
8
BLACK
6
CONTINUOUS
10
244.7249999999999943
20
-100.7249999999999943
11
244.7440299999999809
21
-100.6293289999999985
0
LINE
8
BLACK
6
CONTINUOUS
10
244.7440299999999809
20
-100.6293289999999985
11
244.7982229999999788
21
-100.548222999999993
0
LINE
8
BLACK
6
CONTINUOUS
10
244.7982229999999788
20
-100.548222999999993
11
244.8793289999999843
21
-100.4940299999999951
0
LINE
8
BLACK
6
CONTINUOUS
10
244.8793289999999843
20
-100.4940299999999951
11
244.9749999999999943
21
-100.4749999999999943
0
LINE
8
BLACK
6
CONTINUOUS
10
244.9749999999999943
20
-100.4749999999999943
11
246.9749999999999943
21
-100.4749999999999943
0
LINE
8
BLACK
6
CONTINUOUS
10
246.9749999999999943
20
-100.4749999999999943
11
247.0706709999999759
21
-100.4940299999999951
0
LINE
8
BLACK
6
CONTINUOUS
10
248.8972079999999778
20
-99.78425399999999
11
248.998942999999997
21
-99.8429909999999978
0
LINE
8
BLACK
6
CONTINUOUS
10
248.998942999999997
20
-99.8429909999999978
11
249.0820089999999993
21
-99.9260570000000001
0
LINE
8
BLACK
6
CONTINUOUS
10
249.0820089999999993
20
-99.9260570000000001
11
249.1407459999999787
21
-100.0277919999999909
0
LINE
8
BLACK
6
CONTINUOUS
10
249.1407459999999787
20
-100.0277919999999909
11
249.171149999999983
21
-100.141262999999995
0
LINE
8
BLACK
6
CONTINUOUS
10
249.171149999999983
20
-100.141262999999995
11
249.171149999999983
21
-100.2587369999999964
0
LINE
8
BLACK
6
CONTINUOUS
10
249.171149999999983
20
-100.2587369999999964
11
249.1407459999999787
21
-100.3722080000000005
0
LINE
8
BLACK
6
CONTINUOUS
10
249.1407459999999787
20
-100.3722080000000005
11
249.0820089999999993
21
-100.4739429999999913
0
LINE
8
BLACK
6
CONTINUOUS
10
249.0820089999999993
20
-100.4739429999999913
11
248.998942999999997
21
-100.5570089999999936
0
LINE
8
BLACK
6
CONTINUOUS
10
248.998942999999997
20
-100.5570089999999936
11
248.8972079999999778
21
-100.6157460000000015
0
LINE
8
BLACK
6
CONTINUOUS
10
248.8972079999999778
20
-100.6157460000000015
11
248.7837370000000021
21
-100.6461499999999916
0
LINE
8
BLACK
6
CONTINUOUS
10
248.7837370000000021
20
-100.6461499999999916
11
248.6662629999999865
21
-100.6461499999999916
0
LINE
8
BLACK
6
CONTINUOUS
10
248.6662629999999865
20
-100.6461499999999916
11
248.5527919999999824
21
-100.6157460000000015
0
LINE
8
BLACK
6
CONTINUOUS
10
248.5527919999999824
20
-100.6157460000000015
11
248.4510569999999916
21
-100.5570089999999936
0
LINE
8
BLACK
6
CONTINUOUS
10
248.4510569999999916
20
-100.5570089999999936
11
248.3679909999999893
21
-100.4739429999999913
0
LINE
8
BLACK
6
CONTINUOUS
10
248.3679909999999893
20
-100.4739429999999913
11
248.3092539999999815
21
-100.3722080000000005
0
LINE
8
BLACK
6
CONTINUOUS
10
248.3092539999999815
20
-100.3722080000000005
11
248.2788499999999772
21
-100.2587369999999964
0
LINE
8
BLACK
6
CONTINUOUS
10
248.2788499999999772
20
-100.2587369999999964
11
248.2788499999999772
21
-100.141262999999995
0
LINE
8
BLACK
6
CONTINUOUS
10
248.2788499999999772
20
-100.141262999999995
11
248.3092539999999815
21
-100.0277919999999909
0
LINE
8
BLACK
6
CONTINUOUS
10
248.3092539999999815
20
-100.0277919999999909
11
248.3679909999999893
21
-99.9260570000000001
0
LINE
8
BLACK
6
CONTINUOUS
10
248.3679909999999893
20
-99.9260570000000001
11
248.4510569999999916
21
-99.8429909999999978
0
LINE
8
BLACK
6
CONTINUOUS
10
248.4510569999999916
20
-99.8429909999999978
11
248.5527919999999824
21
-99.78425399999999
0
LINE
8
BLACK
6
CONTINUOUS
10
248.5527919999999824
20
-99.78425399999999
11
248.6662629999999865
21
-99.7538499999999999
0
LINE
8
BLACK
6
CONTINUOUS
10
248.6662629999999865
20
-99.7538499999999999
11
248.7837370000000021
21
-99.7538499999999999
0
LINE
8
BLACK
6
CONTINUOUS
10
248.7837370000000021
20
-99.7538499999999999
11
248.8972079999999778
21
-99.78425399999999
0
LINE
8
BLACK
6
CONTINUOUS
10
190.1399999999999864
20
-98.519999999999996
11
188.6399999999999864
21
-98.519999999999996
0
LINE
8
BLACK
6
CONTINUOUS
10
188.6399999999999864
20
-98.519999999999996
11
188.6399999999999864
21
-96.019999999999996
0
LINE
8
BLACK
6
CONTINUOUS
10
188.6399999999999864
20
-96.019999999999996
11
190.1399999999999864
21
-96.019999999999996
0
LINE
8
BLACK
6
CONTINUOUS
10
190.1399999999999864
20
-96.019999999999996
11
190.1399999999999864
21
-98.519999999999996
0
LINE
8
BLACK
6
CONTINUOUS
10
195.2199999999999989
20
-98.519999999999996
11
193.7199999999999989
21
-98.519999999999996
0
LINE
8
BLACK
6
CONTINUOUS
10
193.7199999999999989
20
-98.519999999999996
11
193.7199999999999989
21
-96.019999999999996
0
LINE
8
BLACK
6
CONTINUOUS
10
193.7199999999999989
20
-96.019999999999996
11
195.2199999999999989
21
-96.019999999999996
0
LINE
8
BLACK
6
CONTINUOUS
10
195.2199999999999989
20
-96.019999999999996
11
195.2199999999999989
21
-98.519999999999996
0
LINE
8
BLACK
6
CONTINUOUS
10
200.2999999999999829
20
-98.519999999999996
11
198.7999999999999829
21
-98.519999999999996
0
LINE
8
BLACK
6
CONTINUOUS
10
198.7999999999999829
20
-98.519999999999996
11
198.7999999999999829
21
-96.019999999999996
0
LINE
8
BLACK
6
CONTINUOUS
10
198.7999999999999829
20
-96.019999999999996
11
200.2999999999999829
21
-96.019999999999996
0
LINE
8
BLACK
6
CONTINUOUS
10
200.2999999999999829
20
-96.019999999999996
11
200.2999999999999829
21
-98.519999999999996
0
LINE
8
BLACK
6
CONTINUOUS
10
205.3799999999999955
20
-98.519999999999996
11
203.8799999999999955
21
-98.519999999999996
0
LINE
8
BLACK
6
CONTINUOUS
10
203.8799999999999955
20
-98.519999999999996
11
203.8799999999999955
21
-96.019999999999996
0
LINE
8
BLACK
6
CONTINUOUS
10
203.8799999999999955
20
-96.019999999999996
11
205.3799999999999955
21
-96.019999999999996
0
LINE
8
BLACK
6
CONTINUOUS
10
205.3799999999999955
20
-96.019999999999996
11
205.3799999999999955
21
-98.519999999999996
0
LINE
8
BLACK
6
CONTINUOUS
10
210.4599999999999795
20
-98.519999999999996
11
208.9599999999999795
21
-98.519999999999996
0
LINE
8
BLACK
6
CONTINUOUS
10
208.9599999999999795
20
-98.519999999999996
11
208.9599999999999795
21
-96.019999999999996
0
LINE
8
BLACK
6
CONTINUOUS
10
208.9599999999999795
20
-96.019999999999996
11
210.4599999999999795
21
-96.019999999999996
0
LINE
8
BLACK
6
CONTINUOUS
10
210.4599999999999795
20
-96.019999999999996
11
210.4599999999999795
21
-98.519999999999996
0
LINE
8
BLACK
6
CONTINUOUS
10
215.539999999999992
20
-98.519999999999996
11
214.039999999999992
21
-98.519999999999996
0
LINE
8
BLACK
6
CONTINUOUS
10
214.039999999999992
20
-98.519999999999996
11
214.039999999999992
21
-96.019999999999996
0
LINE
8
BLACK
6
CONTINUOUS
10
214.039999999999992
20
-96.019999999999996
11
215.539999999999992
21
-96.019999999999996
0
LINE
8
BLACK
6
CONTINUOUS
10
215.539999999999992
20
-96.019999999999996
11
215.539999999999992
21
-98.519999999999996
0
LINE
8
BLACK
6
CONTINUOUS
10
220.6199999999999761
20
-98.519999999999996
11
219.1199999999999761
21
-98.519999999999996
0
LINE
8
BLACK
6
CONTINUOUS
10
219.1199999999999761
20
-98.519999999999996
11
219.1199999999999761
21
-96.019999999999996
0
LINE
8
BLACK
6
CONTINUOUS
10
219.1199999999999761
20
-96.019999999999996
11
220.6199999999999761
21
-96.019999999999996
0
LINE
8
BLACK
6
CONTINUOUS
10
220.6199999999999761
20
-96.019999999999996
11
220.6199999999999761
21
-98.519999999999996
0
LINE
8
BLACK
6
CONTINUOUS
10
225.6999999999999886
20
-98.519999999999996
11
224.1999999999999886
21
-98.519999999999996
0
LINE
8
BLACK
6
CONTINUOUS
10
224.1999999999999886
20
-98.519999999999996
11
224.1999999999999886
21
-96.019999999999996
0
LINE
8
BLACK
6
CONTINUOUS
10
224.1999999999999886
20
-96.019999999999996
11
225.6999999999999886
21
-96.019999999999996
0
LINE
8
BLACK
6
CONTINUOUS
10
225.6999999999999886
20
-96.019999999999996
11
225.6999999999999886
21
-98.519999999999996
0
LINE
8
BLACK
6
CONTINUOUS
10
230.7800000000000011
20
-98.519999999999996
11
229.2800000000000011
21
-98.519999999999996
0
LINE
8
BLACK
6
CONTINUOUS
10
229.2800000000000011
20
-98.519999999999996
11
229.2800000000000011
21
-96.019999999999996
0
LINE
8
BLACK
6
CONTINUOUS
10
229.2800000000000011
20
-96.019999999999996
11
230.7800000000000011
21
-96.019999999999996
0
LINE
8
BLACK
6
CONTINUOUS
10
230.7800000000000011
20
-96.019999999999996
11
230.7800000000000011
21
-98.519999999999996
0
LINE
8
BLACK
6
CONTINUOUS
10
235.8599999999999852
20
-98.519999999999996
11
234.3599999999999852
21
-98.519999999999996
0
LINE
8
BLACK
6
CONTINUOUS
10
234.3599999999999852
20
-98.519999999999996
11
234.3599999999999852
21
-96.019999999999996
0
LINE
8
BLACK
6
CONTINUOUS
10
234.3599999999999852
20
-96.019999999999996
11
235.8599999999999852
21
-96.019999999999996
0
LINE
8
BLACK
6
CONTINUOUS
10
235.8599999999999852
20
-96.019999999999996
11
235.8599999999999852
21
-98.519999999999996
  0
ENDSEC
  0
EOF
