  0
SECTION
  2
HEADER
  9
$ANGBASE
  50
0.0
  9
$ANGDIR
  70
1
  9
$MEASUREMENT
  70
1
  0
ENDSEC
  0
SECTION
  2
TABLES
  0
TABLE
  2
LTYPE
  70
4
  0
LTYPE
  5
40F
  2
CONTINUOUS
  70
0
  3
Solid line
  72
65
  73
0
  40
0.0
  0
LTYPE
  5
410
  2
DASHDOT
 70
0
  3
Dash Dot ____ _ ____ _
 72
65
 73
4
 40
2.0
 49
1.25
 49
-0.25
 49
0.25
 49
-0.25
  0
LTYPE
  5
411
  2
DASHED
 70
0
  3
Dashed __ __ __ __ __
 72
65
 73
2
 40
0.75
 49
0.5
 49
-0.25
  0
LTYPE
  5
43B
  2
DOTTED
 70
0
  3
Dotted .  .  .  .
 72
65
 73
2
 40
0.2
 49
0.0
 49
-0.2
  0
ENDTAB
  0
TABLE
  2
STYLE
  70
4
  0
STYLE
  2
KICAD
  70
0
  40
0
  41
1
  42
1
  50
0
  71
0
  3
isocp.shx
  0
STYLE
  2
KICADB
  70
0
  40
0
  41
1
  42
1
  50
0
  71
0
  3
isocp.shx
  0
STYLE
  2
KICADI
  70
0
  40
0
  41
1
  42
1
  50
15
  71
0
  3
isocp.shx
  0
STYLE
  2
KICADBI
  70
0
  40
0
  41
1
  42
1
  50
15
  71
0
  3
isocp.shx
  0
ENDTAB
  0
TABLE
  2
LAYER
  70
1
  0
LAYER
  2
BLACK
  70
0
  62
7
  6
CONTINUOUS
  0
ENDTAB
  0
ENDSEC
  0
SECTION
  2
ENTITIES
0
LINE
8
BLACK
6
CONTINUOUS
10
192.4722079999999949
20
-127.1842539999999957
11
192.5739429999999857
21
-127.2429909999999893
0
LINE
8
BLACK
6
CONTINUOUS
10
192.5739429999999857
20
-127.2429909999999893
11
192.657008999999988
21
-127.3260569999999916
0
LINE
8
BLACK
6
CONTINUOUS
10
192.657008999999988
20
-127.3260569999999916
11
192.7157459999999958
21
-127.4277919999999966
0
LINE
8
BLACK
6
CONTINUOUS
10
192.7157459999999958
20
-127.4277919999999966
11
192.7461500000000001
21
-127.5412630000000007
0
LINE
8
BLACK
6
CONTINUOUS
10
192.7461500000000001
20
-127.5412630000000007
11
192.7461500000000001
21
-127.6587369999999879
0
LINE
8
BLACK
6
CONTINUOUS
10
192.7461500000000001
20
-127.6587369999999879
11
192.7157459999999958
21
-127.772207999999992
0
LINE
8
BLACK
6
CONTINUOUS
10
192.7157459999999958
20
-127.772207999999992
11
192.657008999999988
21
-127.873942999999997
0
LINE
8
BLACK
6
CONTINUOUS
10
192.657008999999988
20
-127.873942999999997
11
192.5739429999999857
21
-127.9570089999999993
0
LINE
8
BLACK
6
CONTINUOUS
10
192.5739429999999857
20
-127.9570089999999993
11
192.4722079999999949
21
-128.0157460000000071
0
LINE
8
BLACK
6
CONTINUOUS
10
192.4722079999999949
20
-128.0157460000000071
11
192.3587369999999908
21
-128.046149999999983
0
LINE
8
BLACK
6
CONTINUOUS
10
192.3587369999999908
20
-128.046149999999983
11
192.2412630000000036
21
-128.046149999999983
0
LINE
8
BLACK
6
CONTINUOUS
10
192.2412630000000036
20
-128.046149999999983
11
192.1277919999999995
21
-128.0157460000000071
0
LINE
8
BLACK
6
CONTINUOUS
10
192.1277919999999995
20
-128.0157460000000071
11
192.0260569999999802
21
-127.9570089999999993
0
LINE
8
BLACK
6
CONTINUOUS
10
192.0260569999999802
20
-127.9570089999999993
11
191.9429909999999779
21
-127.873942999999997
0
LINE
8
BLACK
6
CONTINUOUS
10
191.9429909999999779
20
-127.873942999999997
11
191.8842539999999985
21
-127.772207999999992
0
LINE
8
BLACK
6
CONTINUOUS
10
191.8842539999999985
20
-127.772207999999992
11
191.8538499999999942
21
-127.6587369999999879
0
LINE
8
BLACK
6
CONTINUOUS
10
191.8538499999999942
20
-127.6587369999999879
11
191.8538499999999942
21
-127.5412630000000007
0
LINE
8
BLACK
6
CONTINUOUS
10
191.8538499999999942
20
-127.5412630000000007
11
191.8842539999999985
21
-127.4277919999999966
0
LINE
8
BLACK
6
CONTINUOUS
10
191.8842539999999985
20
-127.4277919999999966
11
191.9429909999999779
21
-127.3260569999999916
0
LINE
8
BLACK
6
CONTINUOUS
10
191.9429909999999779
20
-127.3260569999999916
11
192.0260569999999802
21
-127.2429909999999893
0
LINE
8
BLACK
6
CONTINUOUS
10
192.0260569999999802
20
-127.2429909999999893
11
192.1277919999999995
21
-127.1842539999999957
0
LINE
8
BLACK
6
CONTINUOUS
10
192.1277919999999995
20
-127.1842539999999957
11
192.2412630000000036
21
-127.1538499999999914
0
LINE
8
BLACK
6
CONTINUOUS
10
192.2412630000000036
20
-127.1538499999999914
11
192.3587369999999908
21
-127.1538499999999914
0
LINE
8
BLACK
6
CONTINUOUS
10
192.3587369999999908
20
-127.1538499999999914
11
192.4722079999999949
21
-127.1842539999999957
0
LINE
8
BLACK
6
CONTINUOUS
10
209.4972080000000005
20
-127.1842539999999957
11
209.5989429999999913
21
-127.2429909999999893
0
LINE
8
BLACK
6
CONTINUOUS
10
209.5989429999999913
20
-127.2429909999999893
11
209.6820089999999936
21
-127.3260569999999916
0
LINE
8
BLACK
6
CONTINUOUS
10
209.6820089999999936
20
-127.3260569999999916
11
209.7407460000000015
21
-127.4277919999999966
0
LINE
8
BLACK
6
CONTINUOUS
10
209.7407460000000015
20
-127.4277919999999966
11
209.7711499999999774
21
-127.5412630000000007
0
LINE
8
BLACK
6
CONTINUOUS
10
209.7711499999999774
20
-127.5412630000000007
11
209.7711499999999774
21
-127.6587369999999879
0
LINE
8
BLACK
6
CONTINUOUS
10
209.7711499999999774
20
-127.6587369999999879
11
209.7407460000000015
21
-127.772207999999992
0
LINE
8
BLACK
6
CONTINUOUS
10
209.7407460000000015
20
-127.772207999999992
11
209.6820089999999936
21
-127.873942999999997
0
LINE
8
BLACK
6
CONTINUOUS
10
209.6820089999999936
20
-127.873942999999997
11
209.5989429999999913
21
-127.9570089999999993
0
LINE
8
BLACK
6
CONTINUOUS
10
209.5989429999999913
20
-127.9570089999999993
11
209.4972080000000005
21
-128.0157460000000071
0
LINE
8
BLACK
6
CONTINUOUS
10
209.4972080000000005
20
-128.0157460000000071
11
209.3837369999999964
21
-128.046149999999983
0
LINE
8
BLACK
6
CONTINUOUS
10
209.3837369999999964
20
-128.046149999999983
11
209.2662629999999808
21
-128.046149999999983
0
LINE
8
BLACK
6
CONTINUOUS
10
209.2662629999999808
20
-128.046149999999983
11
209.1527919999999767
21
-128.0157460000000071
0
LINE
8
BLACK
6
CONTINUOUS
10
209.1527919999999767
20
-128.0157460000000071
11
209.0510569999999859
21
-127.9570089999999993
0
LINE
8
BLACK
6
CONTINUOUS
10
209.0510569999999859
20
-127.9570089999999993
11
208.9679909999999836
21
-127.873942999999997
0
LINE
8
BLACK
6
CONTINUOUS
10
208.9679909999999836
20
-127.873942999999997
11
208.9092540000000042
21
-127.772207999999992
0
LINE
8
BLACK
6
CONTINUOUS
10
208.9092540000000042
20
-127.772207999999992
11
208.8788499999999999
21
-127.6587369999999879
0
LINE
8
BLACK
6
CONTINUOUS
10
208.8788499999999999
20
-127.6587369999999879
11
208.8788499999999999
21
-127.5412630000000007
0
LINE
8
BLACK
6
CONTINUOUS
10
208.8788499999999999
20
-127.5412630000000007
11
208.9092540000000042
21
-127.4277919999999966
0
LINE
8
BLACK
6
CONTINUOUS
10
208.9092540000000042
20
-127.4277919999999966
11
208.9679909999999836
21
-127.3260569999999916
0
LINE
8
BLACK
6
CONTINUOUS
10
208.9679909999999836
20
-127.3260569999999916
11
209.0510569999999859
21
-127.2429909999999893
0
LINE
8
BLACK
6
CONTINUOUS
10
209.0510569999999859
20
-127.2429909999999893
11
209.1527919999999767
21
-127.1842539999999957
0
LINE
8
BLACK
6
CONTINUOUS
10
209.1527919999999767
20
-127.1842539999999957
11
209.2662629999999808
21
-127.1538499999999914
0
LINE
8
BLACK
6
CONTINUOUS
10
209.2662629999999808
20
-127.1538499999999914
11
209.3837369999999964
21
-127.1538499999999914
0
LINE
8
BLACK
6
CONTINUOUS
10
209.3837369999999964
20
-127.1538499999999914
11
209.4972080000000005
21
-127.1842539999999957
0
LINE
8
BLACK
6
CONTINUOUS
10
231.5222079999999778
20
-127.1342539999999985
11
231.623942999999997
21
-127.1929909999999921
0
LINE
8
BLACK
6
CONTINUOUS
10
231.623942999999997
20
-127.1929909999999921
11
231.7070089999999993
21
-127.2760569999999944
0
LINE
8
BLACK
6
CONTINUOUS
10
231.7070089999999993
20
-127.2760569999999944
11
231.7657459999999787
21
-127.3777919999999995
0
LINE
8
BLACK
6
CONTINUOUS
10
231.7657459999999787
20
-127.3777919999999995
11
231.796149999999983
21
-127.4912629999999893
0
LINE
8
BLACK
6
CONTINUOUS
10
231.796149999999983
20
-127.4912629999999893
11
231.796149999999983
21
-127.6087369999999908
0
LINE
8
BLACK
6
CONTINUOUS
10
231.796149999999983
20
-127.6087369999999908
11
231.7657459999999787
21
-127.7222079999999949
0
LINE
8
BLACK
6
CONTINUOUS
10
231.7657459999999787
20
-127.7222079999999949
11
231.7070089999999993
21
-127.8239429999999999
0
LINE
8
BLACK
6
CONTINUOUS
10
231.7070089999999993
20
-127.8239429999999999
11
231.623942999999997
21
-127.907008999999988
0
LINE
8
BLACK
6
CONTINUOUS
10
231.623942999999997
20
-127.907008999999988
11
231.5222079999999778
21
-127.9657459999999958
0
LINE
8
BLACK
6
CONTINUOUS
10
231.5222079999999778
20
-127.9657459999999958
11
231.4087370000000021
21
-127.9961500000000001
0
LINE
8
BLACK
6
CONTINUOUS
10
231.4087370000000021
20
-127.9961500000000001
11
231.2912629999999865
21
-127.9961500000000001
0
LINE
8
BLACK
6
CONTINUOUS
10
231.2912629999999865
20
-127.9961500000000001
11
231.1777919999999824
21
-127.9657459999999958
0
LINE
8
BLACK
6
CONTINUOUS
10
231.1777919999999824
20
-127.9657459999999958
11
231.0760569999999916
21
-127.907008999999988
0
LINE
8
BLACK
6
CONTINUOUS
10
231.0760569999999916
20
-127.907008999999988
11
230.9929909999999893
21
-127.8239429999999999
0
LINE
8
BLACK
6
CONTINUOUS
10
230.9929909999999893
20
-127.8239429999999999
11
230.9342539999999815
21
-127.7222079999999949
0
LINE
8
BLACK
6
CONTINUOUS
10
230.9342539999999815
20
-127.7222079999999949
11
230.9038499999999772
21
-127.6087369999999908
0
LINE
8
BLACK
6
CONTINUOUS
10
230.9038499999999772
20
-127.6087369999999908
11
230.9038499999999772
21
-127.4912629999999893
0
LINE
8
BLACK
6
CONTINUOUS
10
230.9038499999999772
20
-127.4912629999999893
11
230.9342539999999815
21
-127.3777919999999995
0
LINE
8
BLACK
6
CONTINUOUS
10
230.9342539999999815
20
-127.3777919999999995
11
230.9929909999999893
21
-127.2760569999999944
0
LINE
8
BLACK
6
CONTINUOUS
10
230.9929909999999893
20
-127.2760569999999944
11
231.0760569999999916
21
-127.1929909999999921
0
LINE
8
BLACK
6
CONTINUOUS
10
231.0760569999999916
20
-127.1929909999999921
11
231.1777919999999824
21
-127.1342539999999985
0
LINE
8
BLACK
6
CONTINUOUS
10
231.1777919999999824
20
-127.1342539999999985
11
231.2912629999999865
21
-127.1038499999999942
0
LINE
8
BLACK
6
CONTINUOUS
10
231.2912629999999865
20
-127.1038499999999942
11
231.4087370000000021
21
-127.1038499999999942
0
LINE
8
BLACK
6
CONTINUOUS
10
231.4087370000000021
20
-127.1038499999999942
11
231.5222079999999778
21
-127.1342539999999985
0
LINE
8
BLACK
6
CONTINUOUS
10
245.0222079999999778
20
-127.1342539999999985
11
245.123942999999997
21
-127.1929909999999921
0
LINE
8
BLACK
6
CONTINUOUS
10
245.123942999999997
20
-127.1929909999999921
11
245.2070089999999993
21
-127.2760569999999944
0
LINE
8
BLACK
6
CONTINUOUS
10
245.2070089999999993
20
-127.2760569999999944
11
245.2657459999999787
21
-127.3777919999999995
0
LINE
8
BLACK
6
CONTINUOUS
10
245.2657459999999787
20
-127.3777919999999995
11
245.296149999999983
21
-127.4912629999999893
0
LINE
8
BLACK
6
CONTINUOUS
10
245.296149999999983
20
-127.4912629999999893
11
245.296149999999983
21
-127.6087369999999908
0
LINE
8
BLACK
6
CONTINUOUS
10
245.296149999999983
20
-127.6087369999999908
11
245.2657459999999787
21
-127.7222079999999949
0
LINE
8
BLACK
6
CONTINUOUS
10
245.2657459999999787
20
-127.7222079999999949
11
245.2070089999999993
21
-127.8239429999999999
0
LINE
8
BLACK
6
CONTINUOUS
10
245.2070089999999993
20
-127.8239429999999999
11
245.123942999999997
21
-127.907008999999988
0
LINE
8
BLACK
6
CONTINUOUS
10
245.123942999999997
20
-127.907008999999988
11
245.0222079999999778
21
-127.9657459999999958
0
LINE
8
BLACK
6
CONTINUOUS
10
245.0222079999999778
20
-127.9657459999999958
11
244.9087370000000021
21
-127.9961500000000001
0
LINE
8
BLACK
6
CONTINUOUS
10
244.9087370000000021
20
-127.9961500000000001
11
244.7912629999999865
21
-127.9961500000000001
0
LINE
8
BLACK
6
CONTINUOUS
10
244.7912629999999865
20
-127.9961500000000001
11
244.6777919999999824
21
-127.9657459999999958
0
LINE
8
BLACK
6
CONTINUOUS
10
244.6777919999999824
20
-127.9657459999999958
11
244.5760569999999916
21
-127.907008999999988
0
LINE
8
BLACK
6
CONTINUOUS
10
244.5760569999999916
20
-127.907008999999988
11
244.4929909999999893
21
-127.8239429999999999
0
LINE
8
BLACK
6
CONTINUOUS
10
244.4929909999999893
20
-127.8239429999999999
11
244.4342539999999815
21
-127.7222079999999949
0
LINE
8
BLACK
6
CONTINUOUS
10
244.4342539999999815
20
-127.7222079999999949
11
244.4038499999999772
21
-127.6087369999999908
0
LINE
8
BLACK
6
CONTINUOUS
10
244.4038499999999772
20
-127.6087369999999908
11
244.4038499999999772
21
-127.4912629999999893
0
LINE
8
BLACK
6
CONTINUOUS
10
244.4038499999999772
20
-127.4912629999999893
11
244.4342539999999815
21
-127.3777919999999995
0
LINE
8
BLACK
6
CONTINUOUS
10
244.4342539999999815
20
-127.3777919999999995
11
244.4929909999999893
21
-127.2760569999999944
0
LINE
8
BLACK
6
CONTINUOUS
10
244.4929909999999893
20
-127.2760569999999944
11
244.5760569999999916
21
-127.1929909999999921
0
LINE
8
BLACK
6
CONTINUOUS
10
244.5760569999999916
20
-127.1929909999999921
11
244.6777919999999824
21
-127.1342539999999985
0
LINE
8
BLACK
6
CONTINUOUS
10
244.6777919999999824
20
-127.1342539999999985
11
244.7912629999999865
21
-127.1038499999999942
0
LINE
8
BLACK
6
CONTINUOUS
10
244.7912629999999865
20
-127.1038499999999942
11
244.9087370000000021
21
-127.1038499999999942
0
LINE
8
BLACK
6
CONTINUOUS
10
244.9087370000000021
20
-127.1038499999999942
11
245.0222079999999778
21
-127.1342539999999985
0
LINE
8
BLACK
6
CONTINUOUS
10
192.4722079999999949
20
-124.4342539999999957
11
192.5739429999999857
21
-124.4929909999999893
0
LINE
8
BLACK
6
CONTINUOUS
10
192.5739429999999857
20
-124.4929909999999893
11
192.657008999999988
21
-124.5760569999999916
0
LINE
8
BLACK
6
CONTINUOUS
10
192.657008999999988
20
-124.5760569999999916
11
192.7157459999999958
21
-124.6777919999999966
0
LINE
8
BLACK
6
CONTINUOUS
10
192.7157459999999958
20
-124.6777919999999966
11
192.7461500000000001
21
-124.7912630000000007
0
LINE
8
BLACK
6
CONTINUOUS
10
192.7461500000000001
20
-124.7912630000000007
11
192.7461500000000001
21
-124.9087369999999879
0
LINE
8
BLACK
6
CONTINUOUS
10
192.7461500000000001
20
-124.9087369999999879
11
192.7157459999999958
21
-125.022207999999992
0
LINE
8
BLACK
6
CONTINUOUS
10
192.7157459999999958
20
-125.022207999999992
11
192.657008999999988
21
-125.123942999999997
0
LINE
8
BLACK
6
CONTINUOUS
10
192.657008999999988
20
-125.123942999999997
11
192.5739429999999857
21
-125.2070089999999993
0
LINE
8
BLACK
6
CONTINUOUS
10
192.5739429999999857
20
-125.2070089999999993
11
192.4722079999999949
21
-125.2657459999999929
0
LINE
8
BLACK
6
CONTINUOUS
10
192.4722079999999949
20
-125.2657459999999929
11
192.3587369999999908
21
-125.2961499999999972
0
LINE
8
BLACK
6
CONTINUOUS
10
192.3587369999999908
20
-125.2961499999999972
11
192.2412630000000036
21
-125.2961499999999972
0
LINE
8
BLACK
6
CONTINUOUS
10
192.2412630000000036
20
-125.2961499999999972
11
192.1277919999999995
21
-125.2657459999999929
0
LINE
8
BLACK
6
CONTINUOUS
10
192.1277919999999995
20
-125.2657459999999929
11
192.0260569999999802
21
-125.2070089999999993
0
LINE
8
BLACK
6
CONTINUOUS
10
192.0260569999999802
20
-125.2070089999999993
11
191.9429909999999779
21
-125.123942999999997
0
LINE
8
BLACK
6
CONTINUOUS
10
191.9429909999999779
20
-125.123942999999997
11
191.8842539999999985
21
-125.022207999999992
0
LINE
8
BLACK
6
CONTINUOUS
10
191.8842539999999985
20
-125.022207999999992
11
191.8538499999999942
21
-124.9087369999999879
0
LINE
8
BLACK
6
CONTINUOUS
10
191.8538499999999942
20
-124.9087369999999879
11
191.8538499999999942
21
-124.7912630000000007
0
LINE
8
BLACK
6
CONTINUOUS
10
191.8538499999999942
20
-124.7912630000000007
11
191.8842539999999985
21
-124.6777919999999966
0
LINE
8
BLACK
6
CONTINUOUS
10
191.8842539999999985
20
-124.6777919999999966
11
191.9429909999999779
21
-124.5760569999999916
0
LINE
8
BLACK
6
CONTINUOUS
10
191.9429909999999779
20
-124.5760569999999916
11
192.0260569999999802
21
-124.4929909999999893
0
LINE
8
BLACK
6
CONTINUOUS
10
192.0260569999999802
20
-124.4929909999999893
11
192.1277919999999995
21
-124.4342539999999957
0
LINE
8
BLACK
6
CONTINUOUS
10
192.1277919999999995
20
-124.4342539999999957
11
192.2412630000000036
21
-124.4038499999999914
0
LINE
8
BLACK
6
CONTINUOUS
10
192.2412630000000036
20
-124.4038499999999914
11
192.3587369999999908
21
-124.4038499999999914
0
LINE
8
BLACK
6
CONTINUOUS
10
192.3587369999999908
20
-124.4038499999999914
11
192.4722079999999949
21
-124.4342539999999957
0
LINE
8
BLACK
6
CONTINUOUS
10
209.4972080000000005
20
-124.4342539999999957
11
209.5989429999999913
21
-124.4929909999999893
0
LINE
8
BLACK
6
CONTINUOUS
10
209.5989429999999913
20
-124.4929909999999893
11
209.6820089999999936
21
-124.5760569999999916
0
LINE
8
BLACK
6
CONTINUOUS
10
209.6820089999999936
20
-124.5760569999999916
11
209.7407460000000015
21
-124.6777919999999966
0
LINE
8
BLACK
6
CONTINUOUS
10
209.7407460000000015
20
-124.6777919999999966
11
209.7711499999999774
21
-124.7912630000000007
0
LINE
8
BLACK
6
CONTINUOUS
10
209.7711499999999774
20
-124.7912630000000007
11
209.7711499999999774
21
-124.9087369999999879
0
LINE
8
BLACK
6
CONTINUOUS
10
209.7711499999999774
20
-124.9087369999999879
11
209.7407460000000015
21
-125.022207999999992
0
LINE
8
BLACK
6
CONTINUOUS
10
209.7407460000000015
20
-125.022207999999992
11
209.6820089999999936
21
-125.123942999999997
0
LINE
8
BLACK
6
CONTINUOUS
10
209.6820089999999936
20
-125.123942999999997
11
209.5989429999999913
21
-125.2070089999999993
0
LINE
8
BLACK
6
CONTINUOUS
10
209.5989429999999913
20
-125.2070089999999993
11
209.4972080000000005
21
-125.2657459999999929
0
LINE
8
BLACK
6
CONTINUOUS
10
209.4972080000000005
20
-125.2657459999999929
11
209.3837369999999964
21
-125.2961499999999972
0
LINE
8
BLACK
6
CONTINUOUS
10
209.3837369999999964
20
-125.2961499999999972
11
209.2662629999999808
21
-125.2961499999999972
0
LINE
8
BLACK
6
CONTINUOUS
10
209.2662629999999808
20
-125.2961499999999972
11
209.1527919999999767
21
-125.2657459999999929
0
LINE
8
BLACK
6
CONTINUOUS
10
209.1527919999999767
20
-125.2657459999999929
11
209.0510569999999859
21
-125.2070089999999993
0
LINE
8
BLACK
6
CONTINUOUS
10
209.0510569999999859
20
-125.2070089999999993
11
208.9679909999999836
21
-125.123942999999997
0
LINE
8
BLACK
6
CONTINUOUS
10
208.9679909999999836
20
-125.123942999999997
11
208.9092540000000042
21
-125.022207999999992
0
LINE
8
BLACK
6
CONTINUOUS
10
208.9092540000000042
20
-125.022207999999992
11
208.8788499999999999
21
-124.9087369999999879
0
LINE
8
BLACK
6
CONTINUOUS
10
208.8788499999999999
20
-124.9087369999999879
11
208.8788499999999999
21
-124.7912630000000007
0
LINE
8
BLACK
6
CONTINUOUS
10
208.8788499999999999
20
-124.7912630000000007
11
208.9092540000000042
21
-124.6777919999999966
0
LINE
8
BLACK
6
CONTINUOUS
10
208.9092540000000042
20
-124.6777919999999966
11
208.9679909999999836
21
-124.5760569999999916
0
LINE
8
BLACK
6
CONTINUOUS
10
208.9679909999999836
20
-124.5760569999999916
11
209.0510569999999859
21
-124.4929909999999893
0
LINE
8
BLACK
6
CONTINUOUS
10
209.0510569999999859
20
-124.4929909999999893
11
209.1527919999999767
21
-124.4342539999999957
0
LINE
8
BLACK
6
CONTINUOUS
10
209.1527919999999767
20
-124.4342539999999957
11
209.2662629999999808
21
-124.4038499999999914
0
LINE
8
BLACK
6
CONTINUOUS
10
209.2662629999999808
20
-124.4038499999999914
11
209.3837369999999964
21
-124.4038499999999914
0
LINE
8
BLACK
6
CONTINUOUS
10
209.3837369999999964
20
-124.4038499999999914
11
209.4972080000000005
21
-124.4342539999999957
0
LINE
8
BLACK
6
CONTINUOUS
10
231.5222079999999778
20
-124.3842539999999985
11
231.623942999999997
21
-124.4429909999999921
0
LINE
8
BLACK
6
CONTINUOUS
10
231.623942999999997
20
-124.4429909999999921
11
231.7070089999999993
21
-124.5260569999999944
0
LINE
8
BLACK
6
CONTINUOUS
10
231.7070089999999993
20
-124.5260569999999944
11
231.7657459999999787
21
-124.6277919999999995
0
LINE
8
BLACK
6
CONTINUOUS
10
231.7657459999999787
20
-124.6277919999999995
11
231.796149999999983
21
-124.7412629999999893
0
LINE
8
BLACK
6
CONTINUOUS
10
231.796149999999983
20
-124.7412629999999893
11
231.796149999999983
21
-124.8587369999999908
0
LINE
8
BLACK
6
CONTINUOUS
10
231.796149999999983
20
-124.8587369999999908
11
231.7657459999999787
21
-124.9722079999999949
0
LINE
8
BLACK
6
CONTINUOUS
10
231.7657459999999787
20
-124.9722079999999949
11
231.7070089999999993
21
-125.0739429999999999
0
LINE
8
BLACK
6
CONTINUOUS
10
231.7070089999999993
20
-125.0739429999999999
11
231.623942999999997
21
-125.157008999999988
0
LINE
8
BLACK
6
CONTINUOUS
10
231.623942999999997
20
-125.157008999999988
11
231.5222079999999778
21
-125.2157459999999958
0
LINE
8
BLACK
6
CONTINUOUS
10
231.5222079999999778
20
-125.2157459999999958
11
231.4087370000000021
21
-125.2461500000000001
0
LINE
8
BLACK
6
CONTINUOUS
10
231.4087370000000021
20
-125.2461500000000001
11
231.2912629999999865
21
-125.2461500000000001
0
LINE
8
BLACK
6
CONTINUOUS
10
231.2912629999999865
20
-125.2461500000000001
11
231.1777919999999824
21
-125.2157459999999958
0
LINE
8
BLACK
6
CONTINUOUS
10
231.1777919999999824
20
-125.2157459999999958
11
231.0760569999999916
21
-125.157008999999988
0
LINE
8
BLACK
6
CONTINUOUS
10
231.0760569999999916
20
-125.157008999999988
11
230.9929909999999893
21
-125.0739429999999999
0
LINE
8
BLACK
6
CONTINUOUS
10
230.9929909999999893
20
-125.0739429999999999
11
230.9342539999999815
21
-124.9722079999999949
0
LINE
8
BLACK
6
CONTINUOUS
10
230.9342539999999815
20
-124.9722079999999949
11
230.9038499999999772
21
-124.8587369999999908
0
LINE
8
BLACK
6
CONTINUOUS
10
230.9038499999999772
20
-124.8587369999999908
11
230.9038499999999772
21
-124.7412629999999893
0
LINE
8
BLACK
6
CONTINUOUS
10
230.9038499999999772
20
-124.7412629999999893
11
230.9342539999999815
21
-124.6277919999999995
0
LINE
8
BLACK
6
CONTINUOUS
10
230.9342539999999815
20
-124.6277919999999995
11
230.9929909999999893
21
-124.5260569999999944
0
LINE
8
BLACK
6
CONTINUOUS
10
230.9929909999999893
20
-124.5260569999999944
11
231.0760569999999916
21
-124.4429909999999921
0
LINE
8
BLACK
6
CONTINUOUS
10
231.0760569999999916
20
-124.4429909999999921
11
231.1777919999999824
21
-124.3842539999999985
0
LINE
8
BLACK
6
CONTINUOUS
10
231.1777919999999824
20
-124.3842539999999985
11
231.2912629999999865
21
-124.3538499999999942
0
LINE
8
BLACK
6
CONTINUOUS
10
231.2912629999999865
20
-124.3538499999999942
11
231.4087370000000021
21
-124.3538499999999942
0
LINE
8
BLACK
6
CONTINUOUS
10
231.4087370000000021
20
-124.3538499999999942
11
231.5222079999999778
21
-124.3842539999999985
0
LINE
8
BLACK
6
CONTINUOUS
10
245.0222079999999778
20
-124.3842539999999985
11
245.123942999999997
21
-124.4429909999999921
0
LINE
8
BLACK
6
CONTINUOUS
10
245.123942999999997
20
-124.4429909999999921
11
245.2070089999999993
21
-124.5260569999999944
0
LINE
8
BLACK
6
CONTINUOUS
10
245.2070089999999993
20
-124.5260569999999944
11
245.2657459999999787
21
-124.6277919999999995
0
LINE
8
BLACK
6
CONTINUOUS
10
245.2657459999999787
20
-124.6277919999999995
11
245.296149999999983
21
-124.7412629999999893
0
LINE
8
BLACK
6
CONTINUOUS
10
245.296149999999983
20
-124.7412629999999893
11
245.296149999999983
21
-124.8587369999999908
0
LINE
8
BLACK
6
CONTINUOUS
10
245.296149999999983
20
-124.8587369999999908
11
245.2657459999999787
21
-124.9722079999999949
0
LINE
8
BLACK
6
CONTINUOUS
10
245.2657459999999787
20
-124.9722079999999949
11
245.2070089999999993
21
-125.0739429999999999
0
LINE
8
BLACK
6
CONTINUOUS
10
245.2070089999999993
20
-125.0739429999999999
11
245.123942999999997
21
-125.157008999999988
0
LINE
8
BLACK
6
CONTINUOUS
10
245.123942999999997
20
-125.157008999999988
11
245.0222079999999778
21
-125.2157459999999958
0
LINE
8
BLACK
6
CONTINUOUS
10
245.0222079999999778
20
-125.2157459999999958
11
244.9087370000000021
21
-125.2461500000000001
0
LINE
8
BLACK
6
CONTINUOUS
10
244.9087370000000021
20
-125.2461500000000001
11
244.7912629999999865
21
-125.2461500000000001
0
LINE
8
BLACK
6
CONTINUOUS
10
244.7912629999999865
20
-125.2461500000000001
11
244.6777919999999824
21
-125.2157459999999958
0
LINE
8
BLACK
6
CONTINUOUS
10
244.6777919999999824
20
-125.2157459999999958
11
244.5760569999999916
21
-125.157008999999988
0
LINE
8
BLACK
6
CONTINUOUS
10
244.5760569999999916
20
-125.157008999999988
11
244.4929909999999893
21
-125.0739429999999999
0
LINE
8
BLACK
6
CONTINUOUS
10
244.4929909999999893
20
-125.0739429999999999
11
244.4342539999999815
21
-124.9722079999999949
0
LINE
8
BLACK
6
CONTINUOUS
10
244.4342539999999815
20
-124.9722079999999949
11
244.4038499999999772
21
-124.8587369999999908
0
LINE
8
BLACK
6
CONTINUOUS
10
244.4038499999999772
20
-124.8587369999999908
11
244.4038499999999772
21
-124.7412629999999893
0
LINE
8
BLACK
6
CONTINUOUS
10
244.4038499999999772
20
-124.7412629999999893
11
244.4342539999999815
21
-124.6277919999999995
0
LINE
8
BLACK
6
CONTINUOUS
10
244.4342539999999815
20
-124.6277919999999995
11
244.4929909999999893
21
-124.5260569999999944
0
LINE
8
BLACK
6
CONTINUOUS
10
244.4929909999999893
20
-124.5260569999999944
11
244.5760569999999916
21
-124.4429909999999921
0
LINE
8
BLACK
6
CONTINUOUS
10
244.5760569999999916
20
-124.4429909999999921
11
244.6777919999999824
21
-124.3842539999999985
0
LINE
8
BLACK
6
CONTINUOUS
10
244.6777919999999824
20
-124.3842539999999985
11
244.7912629999999865
21
-124.3538499999999942
0
LINE
8
BLACK
6
CONTINUOUS
10
244.7912629999999865
20
-124.3538499999999942
11
244.9087370000000021
21
-124.3538499999999942
0
LINE
8
BLACK
6
CONTINUOUS
10
244.9087370000000021
20
-124.3538499999999942
11
245.0222079999999778
21
-124.3842539999999985
0
LINE
8
BLACK
6
CONTINUOUS
10
247.4722079999999949
20
-114.2592539999999985
11
247.5739429999999857
21
-114.3179909999999921
0
LINE
8
BLACK
6
CONTINUOUS
10
247.5739429999999857
20
-114.3179909999999921
11
247.657008999999988
21
-114.4010569999999944
0
LINE
8
BLACK
6
CONTINUOUS
10
247.657008999999988
20
-114.4010569999999944
11
247.7157459999999958
21
-114.5027919999999995
0
LINE
8
BLACK
6
CONTINUOUS
10
247.7157459999999958
20
-114.5027919999999995
11
247.7461500000000001
21
-114.6162629999999893
0
LINE
8
BLACK
6
CONTINUOUS
10
247.7461500000000001
20
-114.6162629999999893
11
247.7461500000000001
21
-114.7337369999999908
0
LINE
8
BLACK
6
CONTINUOUS
10
247.7461500000000001
20
-114.7337369999999908
11
247.7157459999999958
21
-114.8472079999999949
0
LINE
8
BLACK
6
CONTINUOUS
10
247.7157459999999958
20
-114.8472079999999949
11
247.657008999999988
21
-114.9489429999999999
0
LINE
8
BLACK
6
CONTINUOUS
10
247.657008999999988
20
-114.9489429999999999
11
247.5739429999999857
21
-115.032008999999988
0
LINE
8
BLACK
6
CONTINUOUS
10
247.5739429999999857
20
-115.032008999999988
11
247.4722079999999949
21
-115.0907459999999958
0
LINE
8
BLACK
6
CONTINUOUS
10
247.4722079999999949
20
-115.0907459999999958
11
247.3587369999999908
21
-115.1211500000000001
0
LINE
8
BLACK
6
CONTINUOUS
10
247.3587369999999908
20
-115.1211500000000001
11
247.2412629999999751
21
-115.1211500000000001
0
LINE
8
BLACK
6
CONTINUOUS
10
247.2412629999999751
20
-115.1211500000000001
11
247.1277919999999995
21
-115.0907459999999958
0
LINE
8
BLACK
6
CONTINUOUS
10
247.1277919999999995
20
-115.0907459999999958
11
247.0260569999999802
21
-115.032008999999988
0
LINE
8
BLACK
6
CONTINUOUS
10
247.0260569999999802
20
-115.032008999999988
11
246.9429909999999779
21
-114.9489429999999999
0
LINE
8
BLACK
6
CONTINUOUS
10
246.9429909999999779
20
-114.9489429999999999
11
246.8842539999999985
21
-114.8472079999999949
0
LINE
8
BLACK
6
CONTINUOUS
10
246.8842539999999985
20
-114.8472079999999949
11
246.8538499999999942
21
-114.7337369999999908
0
LINE
8
BLACK
6
CONTINUOUS
10
246.8538499999999942
20
-114.7337369999999908
11
246.8538499999999942
21
-114.6162629999999893
0
LINE
8
BLACK
6
CONTINUOUS
10
246.8538499999999942
20
-114.6162629999999893
11
246.8842539999999985
21
-114.5027919999999995
0
LINE
8
BLACK
6
CONTINUOUS
10
246.8842539999999985
20
-114.5027919999999995
11
246.9429909999999779
21
-114.4010569999999944
0
LINE
8
BLACK
6
CONTINUOUS
10
246.9429909999999779
20
-114.4010569999999944
11
247.0260569999999802
21
-114.3179909999999921
0
LINE
8
BLACK
6
CONTINUOUS
10
247.0260569999999802
20
-114.3179909999999921
11
247.1277919999999995
21
-114.2592539999999985
0
LINE
8
BLACK
6
CONTINUOUS
10
247.1277919999999995
20
-114.2592539999999985
11
247.2412629999999751
21
-114.2288499999999942
0
LINE
8
BLACK
6
CONTINUOUS
10
247.2412629999999751
20
-114.2288499999999942
11
247.3587369999999908
21
-114.2288499999999942
0
LINE
8
BLACK
6
CONTINUOUS
10
247.3587369999999908
20
-114.2288499999999942
11
247.4722079999999949
21
-114.2592539999999985
0
LINE
8
BLACK
6
CONTINUOUS
10
250.2222079999999949
20
-114.2592539999999985
11
250.3239429999999857
21
-114.3179909999999921
0
LINE
8
BLACK
6
CONTINUOUS
10
250.3239429999999857
20
-114.3179909999999921
11
250.407008999999988
21
-114.4010569999999944
0
LINE
8
BLACK
6
CONTINUOUS
10
250.407008999999988
20
-114.4010569999999944
11
250.4657459999999958
21
-114.5027919999999995
0
LINE
8
BLACK
6
CONTINUOUS
10
250.4657459999999958
20
-114.5027919999999995
11
250.4961500000000001
21
-114.6162629999999893
0
LINE
8
BLACK
6
CONTINUOUS
10
250.4961500000000001
20
-114.6162629999999893
11
250.4961500000000001
21
-114.7337369999999908
0
LINE
8
BLACK
6
CONTINUOUS
10
250.4961500000000001
20
-114.7337369999999908
11
250.4657459999999958
21
-114.8472079999999949
0
LINE
8
BLACK
6
CONTINUOUS
10
250.4657459999999958
20
-114.8472079999999949
11
250.407008999999988
21
-114.9489429999999999
0
LINE
8
BLACK
6
CONTINUOUS
10
250.407008999999988
20
-114.9489429999999999
11
250.3239429999999857
21
-115.032008999999988
0
LINE
8
BLACK
6
CONTINUOUS
10
250.3239429999999857
20
-115.032008999999988
11
250.2222079999999949
21
-115.0907459999999958
0
LINE
8
BLACK
6
CONTINUOUS
10
250.2222079999999949
20
-115.0907459999999958
11
250.1087369999999908
21
-115.1211500000000001
0
LINE
8
BLACK
6
CONTINUOUS
10
250.1087369999999908
20
-115.1211500000000001
11
249.9912629999999751
21
-115.1211500000000001
0
LINE
8
BLACK
6
CONTINUOUS
10
249.9912629999999751
20
-115.1211500000000001
11
249.8777919999999995
21
-115.0907459999999958
0
LINE
8
BLACK
6
CONTINUOUS
10
249.8777919999999995
20
-115.0907459999999958
11
249.7760569999999802
21
-115.032008999999988
0
LINE
8
BLACK
6
CONTINUOUS
10
249.7760569999999802
20
-115.032008999999988
11
249.6929909999999779
21
-114.9489429999999999
0
LINE
8
BLACK
6
CONTINUOUS
10
249.6929909999999779
20
-114.9489429999999999
11
249.6342539999999985
21
-114.8472079999999949
0
LINE
8
BLACK
6
CONTINUOUS
10
249.6342539999999985
20
-114.8472079999999949
11
249.6038499999999942
21
-114.7337369999999908
0
LINE
8
BLACK
6
CONTINUOUS
10
249.6038499999999942
20
-114.7337369999999908
11
249.6038499999999942
21
-114.6162629999999893
0
LINE
8
BLACK
6
CONTINUOUS
10
249.6038499999999942
20
-114.6162629999999893
11
249.6342539999999985
21
-114.5027919999999995
0
LINE
8
BLACK
6
CONTINUOUS
10
249.6342539999999985
20
-114.5027919999999995
11
249.6929909999999779
21
-114.4010569999999944
0
LINE
8
BLACK
6
CONTINUOUS
10
249.6929909999999779
20
-114.4010569999999944
11
249.7760569999999802
21
-114.3179909999999921
0
LINE
8
BLACK
6
CONTINUOUS
10
249.7760569999999802
20
-114.3179909999999921
11
249.8777919999999995
21
-114.2592539999999985
0
LINE
8
BLACK
6
CONTINUOUS
10
249.8777919999999995
20
-114.2592539999999985
11
249.9912629999999751
21
-114.2288499999999942
0
LINE
8
BLACK
6
CONTINUOUS
10
249.9912629999999751
20
-114.2288499999999942
11
250.1087369999999908
21
-114.2288499999999942
0
LINE
8
BLACK
6
CONTINUOUS
10
250.1087369999999908
20
-114.2288499999999942
11
250.2222079999999949
21
-114.2592539999999985
0
LINE
8
BLACK
6
CONTINUOUS
10
248.8972079999999778
20
-106.5842540000000014
11
248.998942999999997
21
-106.642990999999995
0
LINE
8
BLACK
6
CONTINUOUS
10
248.998942999999997
20
-106.642990999999995
11
249.0820089999999993
21
-106.7260569999999973
0
LINE
8
BLACK
6
CONTINUOUS
10
249.0820089999999993
20
-106.7260569999999973
11
249.1407459999999787
21
-106.8277919999999881
0
LINE
8
BLACK
6
CONTINUOUS
10
249.1407459999999787
20
-106.8277919999999881
11
249.171149999999983
21
-106.9412629999999922
0
LINE
8
BLACK
6
CONTINUOUS
10
249.171149999999983
20
-106.9412629999999922
11
249.171149999999983
21
-107.0587369999999936
0
LINE
8
BLACK
6
CONTINUOUS
10
249.171149999999983
20
-107.0587369999999936
11
249.1407459999999787
21
-107.1722079999999977
0
LINE
8
BLACK
6
CONTINUOUS
10
249.1407459999999787
20
-107.1722079999999977
11
249.0820089999999993
21
-107.2739429999999885
0
LINE
8
BLACK
6
CONTINUOUS
10
249.0820089999999993
20
-107.2739429999999885
11
248.998942999999997
21
-107.3570089999999908
0
LINE
8
BLACK
6
CONTINUOUS
10
248.998942999999997
20
-107.3570089999999908
11
248.8972079999999778
21
-107.4157459999999986
0
LINE
8
BLACK
6
CONTINUOUS
10
248.8972079999999778
20
-107.4157459999999986
11
248.7837370000000021
21
-107.4461499999999887
0
LINE
8
BLACK
6
CONTINUOUS
10
248.7837370000000021
20
-107.4461499999999887
11
248.6662629999999865
21
-107.4461499999999887
0
LINE
8
BLACK
6
CONTINUOUS
10
248.6662629999999865
20
-107.4461499999999887
11
248.5527919999999824
21
-107.4157459999999986
0
LINE
8
BLACK
6
CONTINUOUS
10
248.5527919999999824
20
-107.4157459999999986
11
248.4510569999999916
21
-107.3570089999999908
0
LINE
8
BLACK
6
CONTINUOUS
10
248.4510569999999916
20
-107.3570089999999908
11
248.3679909999999893
21
-107.2739429999999885
0
LINE
8
BLACK
6
CONTINUOUS
10
248.3679909999999893
20
-107.2739429999999885
11
248.3092539999999815
21
-107.1722079999999977
0
LINE
8
BLACK
6
CONTINUOUS
10
248.3092539999999815
20
-107.1722079999999977
11
248.2788499999999772
21
-107.0587369999999936
0
LINE
8
BLACK
6
CONTINUOUS
10
248.2788499999999772
20
-107.0587369999999936
11
248.2788499999999772
21
-106.9412629999999922
0
LINE
8
BLACK
6
CONTINUOUS
10
248.2788499999999772
20
-106.9412629999999922
11
248.3092539999999815
21
-106.8277919999999881
0
LINE
8
BLACK
6
CONTINUOUS
10
248.3092539999999815
20
-106.8277919999999881
11
248.3679909999999893
21
-106.7260569999999973
0
LINE
8
BLACK
6
CONTINUOUS
10
248.3679909999999893
20
-106.7260569999999973
11
248.4510569999999916
21
-106.642990999999995
0
LINE
8
BLACK
6
CONTINUOUS
10
248.4510569999999916
20
-106.642990999999995
11
248.5527919999999824
21
-106.5842540000000014
0
LINE
8
BLACK
6
CONTINUOUS
10
248.5527919999999824
20
-106.5842540000000014
11
248.6662629999999865
21
-106.5538499999999971
0
LINE
8
BLACK
6
CONTINUOUS
10
248.6662629999999865
20
-106.5538499999999971
11
248.7837370000000021
21
-106.5538499999999971
0
LINE
8
BLACK
6
CONTINUOUS
10
248.7837370000000021
20
-106.5538499999999971
11
248.8972079999999778
21
-106.5842540000000014
0
LINE
8
BLACK
6
CONTINUOUS
10
248.8972079999999778
20
-99.78425399999999
11
248.998942999999997
21
-99.8429909999999978
0
LINE
8
BLACK
6
CONTINUOUS
10
248.998942999999997
20
-99.8429909999999978
11
249.0820089999999993
21
-99.9260570000000001
0
LINE
8
BLACK
6
CONTINUOUS
10
249.0820089999999993
20
-99.9260570000000001
11
249.1407459999999787
21
-100.0277919999999909
0
LINE
8
BLACK
6
CONTINUOUS
10
249.1407459999999787
20
-100.0277919999999909
11
249.171149999999983
21
-100.141262999999995
0
LINE
8
BLACK
6
CONTINUOUS
10
249.171149999999983
20
-100.141262999999995
11
249.171149999999983
21
-100.2587369999999964
0
LINE
8
BLACK
6
CONTINUOUS
10
249.171149999999983
20
-100.2587369999999964
11
249.1407459999999787
21
-100.3722080000000005
0
LINE
8
BLACK
6
CONTINUOUS
10
249.1407459999999787
20
-100.3722080000000005
11
249.0820089999999993
21
-100.4739429999999913
0
LINE
8
BLACK
6
CONTINUOUS
10
249.0820089999999993
20
-100.4739429999999913
11
248.998942999999997
21
-100.5570089999999936
0
LINE
8
BLACK
6
CONTINUOUS
10
248.998942999999997
20
-100.5570089999999936
11
248.8972079999999778
21
-100.6157460000000015
0
LINE
8
BLACK
6
CONTINUOUS
10
248.8972079999999778
20
-100.6157460000000015
11
248.7837370000000021
21
-100.6461499999999916
0
LINE
8
BLACK
6
CONTINUOUS
10
248.7837370000000021
20
-100.6461499999999916
11
248.6662629999999865
21
-100.6461499999999916
0
LINE
8
BLACK
6
CONTINUOUS
10
248.6662629999999865
20
-100.6461499999999916
11
248.5527919999999824
21
-100.6157460000000015
0
LINE
8
BLACK
6
CONTINUOUS
10
248.5527919999999824
20
-100.6157460000000015
11
248.4510569999999916
21
-100.5570089999999936
0
LINE
8
BLACK
6
CONTINUOUS
10
248.4510569999999916
20
-100.5570089999999936
11
248.3679909999999893
21
-100.4739429999999913
0
LINE
8
BLACK
6
CONTINUOUS
10
248.3679909999999893
20
-100.4739429999999913
11
248.3092539999999815
21
-100.3722080000000005
0
LINE
8
BLACK
6
CONTINUOUS
10
248.3092539999999815
20
-100.3722080000000005
11
248.2788499999999772
21
-100.2587369999999964
0
LINE
8
BLACK
6
CONTINUOUS
10
248.2788499999999772
20
-100.2587369999999964
11
248.2788499999999772
21
-100.141262999999995
0
LINE
8
BLACK
6
CONTINUOUS
10
248.2788499999999772
20
-100.141262999999995
11
248.3092539999999815
21
-100.0277919999999909
0
LINE
8
BLACK
6
CONTINUOUS
10
248.3092539999999815
20
-100.0277919999999909
11
248.3679909999999893
21
-99.9260570000000001
0
LINE
8
BLACK
6
CONTINUOUS
10
248.3679909999999893
20
-99.9260570000000001
11
248.4510569999999916
21
-99.8429909999999978
0
LINE
8
BLACK
6
CONTINUOUS
10
248.4510569999999916
20
-99.8429909999999978
11
248.5527919999999824
21
-99.78425399999999
0
LINE
8
BLACK
6
CONTINUOUS
10
248.5527919999999824
20
-99.78425399999999
11
248.6662629999999865
21
-99.7538499999999999
0
LINE
8
BLACK
6
CONTINUOUS
10
248.6662629999999865
20
-99.7538499999999999
11
248.7837370000000021
21
-99.7538499999999999
0
LINE
8
BLACK
6
CONTINUOUS
10
248.7837370000000021
20
-99.7538499999999999
11
248.8972079999999778
21
-99.78425399999999
  0
ENDSEC
  0
EOF
