%TF.GenerationSoftware,KiCad,Pcbnew,9.0.0*%
%TF.CreationDate,2025-07-02T11:42:28-07:00*%
%TF.ProjectId,bubby2,62756262-7932-42e6-9b69-6361645f7063,rev?*%
%TF.SameCoordinates,Original*%
%TF.FileFunction,Paste,Top*%
%TF.FilePolarity,Positive*%
%FSLAX46Y46*%
G04 Gerber Fmt 4.6, Leading zero omitted, Abs format (unit mm)*
G04 Created by KiCad (PCBNEW 9.0.0) date 2025-07-02 11:42:28*
%MOMM*%
%LPD*%
G01*
G04 APERTURE LIST*
G04 Aperture macros list*
%AMRoundRect*
0 Rectangle with rounded corners*
0 $1 Rounding radius*
0 $2 $3 $4 $5 $6 $7 $8 $9 X,Y pos of 4 corners*
0 Add a 4 corners polygon primitive as box body*
4,1,4,$2,$3,$4,$5,$6,$7,$8,$9,$2,$3,0*
0 Add four circle primitives for the rounded corners*
1,1,$1+$1,$2,$3*
1,1,$1+$1,$4,$5*
1,1,$1+$1,$6,$7*
1,1,$1+$1,$8,$9*
0 Add four rect primitives between the rounded corners*
20,1,$1+$1,$2,$3,$4,$5,0*
20,1,$1+$1,$4,$5,$6,$7,0*
20,1,$1+$1,$6,$7,$8,$9,0*
20,1,$1+$1,$8,$9,$2,$3,0*%
G04 Aperture macros list end*
%ADD10R,1.550000X1.000000*%
%ADD11R,1.000000X1.550000*%
%ADD12RoundRect,0.250000X1.000000X-0.375000X1.000000X0.375000X-1.000000X0.375000X-1.000000X-0.375000X0*%
%ADD13R,2.200000X3.800000*%
%ADD14R,1.500000X2.500000*%
G04 APERTURE END LIST*
D10*
%TO.C,SW2*%
X211950000Y-127075000D03*
X206700000Y-127075000D03*
X211950000Y-125375000D03*
X206700000Y-125375000D03*
%TD*%
D11*
%TO.C,SW4*%
X249525000Y-112050000D03*
X249525000Y-117300000D03*
X247825000Y-112050000D03*
X247825000Y-117300000D03*
%TD*%
D10*
%TO.C,SW0*%
X247475000Y-127025000D03*
X242225000Y-127025000D03*
X247475000Y-125325000D03*
X242225000Y-125325000D03*
%TD*%
%TO.C,SW3*%
X194925000Y-127075000D03*
X189675000Y-127075000D03*
X194925000Y-125375000D03*
X189675000Y-125375000D03*
%TD*%
%TO.C,SW1*%
X233975000Y-127025000D03*
X228725000Y-127025000D03*
X233975000Y-125325000D03*
X228725000Y-125325000D03*
%TD*%
D12*
%TO.C,SW6*%
X245975000Y-106100000D03*
X245975000Y-103600000D03*
X245975000Y-101100000D03*
%TD*%
D13*
%TO.C,A1*%
X189390000Y-118210000D03*
X191930000Y-118210000D03*
X194470000Y-118210000D03*
X197010000Y-118210000D03*
X199550000Y-118210000D03*
X202090000Y-118210000D03*
X204630000Y-118210000D03*
X207170000Y-118210000D03*
X209710000Y-118210000D03*
X212250000Y-118210000D03*
X214790000Y-118210000D03*
X217330000Y-118210000D03*
X219870000Y-118210000D03*
X222410000Y-118210000D03*
X224950000Y-118210000D03*
X227490000Y-118210000D03*
X230030000Y-118210000D03*
X232570000Y-118210000D03*
X235110000Y-118210000D03*
X237650000Y-118210000D03*
X189390000Y-98830000D03*
X191930000Y-98830000D03*
X194470000Y-98830000D03*
X197010000Y-98830000D03*
X199550000Y-98830000D03*
X202090000Y-98830000D03*
X204630000Y-98830000D03*
X207170000Y-98830000D03*
X209710000Y-98830000D03*
X212250000Y-98830000D03*
X214790000Y-98830000D03*
X217330000Y-98830000D03*
X219870000Y-98830000D03*
X222410000Y-98830000D03*
X224950000Y-98830000D03*
X227490000Y-98830000D03*
X230030000Y-98830000D03*
X232570000Y-98830000D03*
X235110000Y-98830000D03*
X237650000Y-98830000D03*
D14*
X189420000Y-116500000D03*
X191960000Y-119800000D03*
X194500000Y-116500000D03*
X197040000Y-119800000D03*
X199580000Y-116500000D03*
X202120000Y-119800000D03*
X204660000Y-116500000D03*
X207200000Y-119800000D03*
X209740000Y-116500000D03*
X212280000Y-119800000D03*
X214820000Y-116500000D03*
X217360000Y-119800000D03*
X219900000Y-116500000D03*
X222440000Y-119800000D03*
X224980000Y-116500000D03*
X227520000Y-119800000D03*
X230060000Y-116500000D03*
X232600000Y-119800000D03*
X235140000Y-116500000D03*
X237680000Y-119800000D03*
X237650000Y-100570000D03*
X235110000Y-97270000D03*
X232570000Y-100570000D03*
X230030000Y-97270000D03*
X227490000Y-100570000D03*
X224950000Y-97270000D03*
X222410000Y-100570000D03*
X219870000Y-97270000D03*
X217330000Y-100570000D03*
X214790000Y-97270000D03*
X212250000Y-100570000D03*
X209710000Y-97270000D03*
X207170000Y-100570000D03*
X204630000Y-97270000D03*
X202090000Y-100570000D03*
X199550000Y-97270000D03*
X197010000Y-100570000D03*
X194470000Y-97270000D03*
X191930000Y-100570000D03*
X189390000Y-97270000D03*
%TD*%
M02*
