  0
SECTION
  2
HEADER
  9
$ANGBASE
  50
0.0
  9
$ANGDIR
  70
1
  9
$MEASUREMENT
  70
1
  0
ENDSEC
  0
SECTION
  2
TABLES
  0
TABLE
  2
LTYPE
  70
4
  0
LTYPE
  5
40F
  2
CONTINUOUS
  70
0
  3
Solid line
  72
65
  73
0
  40
0.0
  0
LTYPE
  5
410
  2
DASHDOT
 70
0
  3
Dash Dot ____ _ ____ _
 72
65
 73
4
 40
2.0
 49
1.25
 49
-0.25
 49
0.25
 49
-0.25
  0
LTYPE
  5
411
  2
DASHED
 70
0
  3
Dashed __ __ __ __ __
 72
65
 73
2
 40
0.75
 49
0.5
 49
-0.25
  0
LTYPE
  5
43B
  2
DOTTED
 70
0
  3
Dotted .  .  .  .
 72
65
 73
2
 40
0.2
 49
0.0
 49
-0.2
  0
ENDTAB
  0
TABLE
  2
STYLE
  70
4
  0
STYLE
  2
KICAD
  70
0
  40
0
  41
1
  42
1
  50
0
  71
0
  3
isocp.shx
  0
STYLE
  2
KICADB
  70
0
  40
0
  41
1
  42
1
  50
0
  71
0
  3
isocp.shx
  0
STYLE
  2
KICADI
  70
0
  40
0
  41
1
  42
1
  50
15
  71
0
  3
isocp.shx
  0
STYLE
  2
KICADBI
  70
0
  40
0
  41
1
  42
1
  50
15
  71
0
  3
isocp.shx
  0
ENDTAB
  0
TABLE
  2
LAYER
  70
1
  0
LAYER
  2
BLACK
  70
0
  62
7
  6
CONTINUOUS
  0
ENDTAB
  0
ENDSEC
  0
SECTION
  2
ENTITIES
0
LINE
8
BLACK
6
CONTINUOUS
10
220.2768239999999764
20
-124.3386819999999915
11
220.4857569999999782
21
-124.4065689999999904
0
LINE
8
BLACK
6
CONTINUOUS
10
220.4857569999999782
20
-124.4065689999999904
11
220.6814979999999764
21
-124.5063040000000001
0
LINE
8
BLACK
6
CONTINUOUS
10
220.6814979999999764
20
-124.5063040000000001
11
220.8592270000000042
21
-124.6354319999999944
0
LINE
8
BLACK
6
CONTINUOUS
10
220.8592270000000042
20
-124.6354319999999944
11
221.014567999999997
21
-124.7907729999999873
0
LINE
8
BLACK
6
CONTINUOUS
10
221.014567999999997
20
-124.7907729999999873
11
221.1436959999999772
21
-124.9685020000000009
0
LINE
8
BLACK
6
CONTINUOUS
10
221.1436959999999772
20
-124.9685020000000009
11
221.2434309999999869
21
-125.164242999999999
0
LINE
8
BLACK
6
CONTINUOUS
10
221.2434309999999869
20
-125.164242999999999
11
221.311318
21
-125.3731760000000008
0
LINE
8
BLACK
6
CONTINUOUS
10
221.311318
20
-125.3731760000000008
11
221.3456839999999772
21
-125.5901569999999907
0
LINE
8
BLACK
6
CONTINUOUS
10
221.3456839999999772
20
-125.5901569999999907
11
221.3456839999999772
21
-125.8098430000000008
0
LINE
8
BLACK
6
CONTINUOUS
10
221.3456839999999772
20
-125.8098430000000008
11
221.311318
21
-126.0268239999999906
0
LINE
8
BLACK
6
CONTINUOUS
10
221.311318
20
-126.0268239999999906
11
221.2434309999999869
21
-126.2357569999999924
0
LINE
8
BLACK
6
CONTINUOUS
10
221.2434309999999869
20
-126.2357569999999924
11
221.1436959999999772
21
-126.4314979999999906
0
LINE
8
BLACK
6
CONTINUOUS
10
221.1436959999999772
20
-126.4314979999999906
11
221.014567999999997
21
-126.60922699999999
0
LINE
8
BLACK
6
CONTINUOUS
10
221.014567999999997
20
-126.60922699999999
11
220.8592270000000042
21
-126.764567999999997
0
LINE
8
BLACK
6
CONTINUOUS
10
220.8592270000000042
20
-126.764567999999997
11
220.6814979999999764
21
-126.8936959999999914
0
LINE
8
BLACK
6
CONTINUOUS
10
220.6814979999999764
20
-126.8936959999999914
11
220.4857569999999782
21
-126.9934310000000011
0
LINE
8
BLACK
6
CONTINUOUS
10
220.4857569999999782
20
-126.9934310000000011
11
220.2768239999999764
21
-127.061318
0
LINE
8
BLACK
6
CONTINUOUS
10
220.2768239999999764
20
-127.061318
11
220.0598430000000008
21
-127.0956839999999914
0
LINE
8
BLACK
6
CONTINUOUS
10
220.0598430000000008
20
-127.0956839999999914
11
219.8401569999999765
21
-127.0956839999999914
0
LINE
8
BLACK
6
CONTINUOUS
10
219.8401569999999765
20
-127.0956839999999914
11
219.6231760000000008
21
-127.061318
0
LINE
8
BLACK
6
CONTINUOUS
10
219.6231760000000008
20
-127.061318
11
219.414242999999999
21
-126.9934310000000011
0
LINE
8
BLACK
6
CONTINUOUS
10
219.414242999999999
20
-126.9934310000000011
11
219.2185020000000009
21
-126.8936959999999914
0
LINE
8
BLACK
6
CONTINUOUS
10
219.2185020000000009
20
-126.8936959999999914
11
219.0407730000000015
21
-126.764567999999997
0
LINE
8
BLACK
6
CONTINUOUS
10
219.0407730000000015
20
-126.764567999999997
11
218.8854319999999802
21
-126.60922699999999
0
LINE
8
BLACK
6
CONTINUOUS
10
218.8854319999999802
20
-126.60922699999999
11
218.7563040000000001
21
-126.4314979999999906
0
LINE
8
BLACK
6
CONTINUOUS
10
218.7563040000000001
20
-126.4314979999999906
11
218.6565689999999904
21
-126.2357569999999924
0
LINE
8
BLACK
6
CONTINUOUS
10
218.6565689999999904
20
-126.2357569999999924
11
218.5886819999999773
21
-126.0268239999999906
0
LINE
8
BLACK
6
CONTINUOUS
10
218.5886819999999773
20
-126.0268239999999906
11
218.554316
21
-125.8098430000000008
0
LINE
8
BLACK
6
CONTINUOUS
10
218.554316
20
-125.8098430000000008
11
218.554316
21
-125.5937529999999924
0
LINE
8
BLACK
6
CONTINUOUS
10
218.554316
20
-125.5937529999999924
11
218.554316
21
-125.5901569999999907
0
LINE
8
BLACK
6
CONTINUOUS
10
218.554316
20
-125.5901569999999907
11
218.5886819999999773
21
-125.3731760000000008
0
LINE
8
BLACK
6
CONTINUOUS
10
218.5886819999999773
20
-125.3731760000000008
11
218.6565689999999904
21
-125.164242999999999
0
LINE
8
BLACK
6
CONTINUOUS
10
218.6565689999999904
20
-125.164242999999999
11
218.7563040000000001
21
-124.9685020000000009
0
LINE
8
BLACK
6
CONTINUOUS
10
218.7563040000000001
20
-124.9685020000000009
11
218.8854319999999802
21
-124.7907729999999873
0
LINE
8
BLACK
6
CONTINUOUS
10
218.8854319999999802
20
-124.7907729999999873
11
219.0407730000000015
21
-124.6354319999999944
0
LINE
8
BLACK
6
CONTINUOUS
10
219.0407730000000015
20
-124.6354319999999944
11
219.2185020000000009
21
-124.5063040000000001
0
LINE
8
BLACK
6
CONTINUOUS
10
219.2185020000000009
20
-124.5063040000000001
11
219.414242999999999
21
-124.4065689999999904
0
LINE
8
BLACK
6
CONTINUOUS
10
219.414242999999999
20
-124.4065689999999904
11
219.6231760000000008
21
-124.3386819999999915
0
LINE
8
BLACK
6
CONTINUOUS
10
219.6231760000000008
20
-124.3386819999999915
11
219.8401569999999765
21
-124.304316
0
LINE
8
BLACK
6
CONTINUOUS
10
219.8401569999999765
20
-124.304316
11
220.0598430000000008
21
-124.304316
0
LINE
8
BLACK
6
CONTINUOUS
10
220.0598430000000008
20
-124.304316
11
220.2768239999999764
21
-124.3386819999999915
0
LINE
8
BLACK
6
CONTINUOUS
10
218.5999999999999943
20
-125.806246999999999
11
218.6332419999999956
21
-126.0161259999999999
0
LINE
8
BLACK
6
CONTINUOUS
10
218.6332419999999956
20
-126.0161259999999999
11
218.6989059999999938
21
-126.2182199999999881
0
LINE
8
BLACK
6
CONTINUOUS
10
218.6989059999999938
20
-126.2182199999999881
11
218.795377000000002
21
-126.4075539999999904
0
LINE
8
BLACK
6
CONTINUOUS
10
218.795377000000002
20
-126.4075539999999904
11
218.9202779999999962
21
-126.5794659999999965
0
LINE
8
BLACK
6
CONTINUOUS
10
218.9202779999999962
20
-126.5794659999999965
11
219.0705339999999808
21
-126.7297219999999953
0
LINE
8
BLACK
6
CONTINUOUS
10
219.0705339999999808
20
-126.7297219999999953
11
219.242446000000001
21
-126.8546229999999895
0
LINE
8
BLACK
6
CONTINUOUS
10
219.242446000000001
20
-126.8546229999999895
11
219.4317800000000034
21
-126.9510939999999977
0
LINE
8
BLACK
6
CONTINUOUS
10
219.4317800000000034
20
-126.9510939999999977
11
219.6338739999999916
21
-127.0167579999999958
0
LINE
8
BLACK
6
CONTINUOUS
10
219.6338739999999916
20
-127.0167579999999958
11
219.8437529999999924
21
-127.0499999999999972
0
LINE
8
BLACK
6
CONTINUOUS
10
219.8437529999999924
20
-127.0499999999999972
11
220.0562469999999848
21
-127.0499999999999972
0
LINE
8
BLACK
6
CONTINUOUS
10
220.0562469999999848
20
-127.0499999999999972
11
220.2661259999999857
21
-127.0167579999999958
0
LINE
8
BLACK
6
CONTINUOUS
10
220.2661259999999857
20
-127.0167579999999958
11
220.4682200000000023
21
-126.9510939999999977
0
LINE
8
BLACK
6
CONTINUOUS
10
220.4682200000000023
20
-126.9510939999999977
11
220.6575539999999762
21
-126.8546229999999895
0
LINE
8
BLACK
6
CONTINUOUS
10
220.6575539999999762
20
-126.8546229999999895
11
220.8294659999999965
21
-126.7297219999999953
0
LINE
8
BLACK
6
CONTINUOUS
10
220.8294659999999965
20
-126.7297219999999953
11
220.9797219999999811
21
-126.5794659999999965
0
LINE
8
BLACK
6
CONTINUOUS
10
220.9797219999999811
20
-126.5794659999999965
11
221.1046230000000037
21
-126.4075539999999904
0
LINE
8
BLACK
6
CONTINUOUS
10
221.1046230000000037
20
-126.4075539999999904
11
221.2010939999999835
21
-126.2182199999999881
0
LINE
8
BLACK
6
CONTINUOUS
10
221.2010939999999835
20
-126.2182199999999881
11
221.2667579999999816
21
-126.0161259999999999
0
LINE
8
BLACK
6
CONTINUOUS
10
221.2667579999999816
20
-126.0161259999999999
11
221.2999999999999829
21
-125.806246999999999
0
LINE
8
BLACK
6
CONTINUOUS
10
221.2999999999999829
20
-125.806246999999999
11
221.2999999999999829
21
-125.5937529999999924
0
LINE
8
BLACK
6
CONTINUOUS
10
221.2999999999999829
20
-125.5937529999999924
11
221.2667579999999816
21
-125.3838739999999916
0
LINE
8
BLACK
6
CONTINUOUS
10
221.2667579999999816
20
-125.3838739999999916
11
221.2010939999999835
21
-125.1817799999999892
0
LINE
8
BLACK
6
CONTINUOUS
10
221.2010939999999835
20
-125.1817799999999892
11
221.1046230000000037
21
-124.992446000000001
0
LINE
8
BLACK
6
CONTINUOUS
10
221.1046230000000037
20
-124.992446000000001
11
220.9797219999999811
21
-124.820533999999995
0
LINE
8
BLACK
6
CONTINUOUS
10
220.9797219999999811
20
-124.820533999999995
11
220.8294659999999965
21
-124.6702779999999962
0
LINE
8
BLACK
6
CONTINUOUS
10
220.8294659999999965
20
-124.6702779999999962
11
220.6575539999999762
21
-124.5453769999999878
0
LINE
8
BLACK
6
CONTINUOUS
10
220.6575539999999762
20
-124.5453769999999878
11
220.4682200000000023
21
-124.4489059999999938
0
LINE
8
BLACK
6
CONTINUOUS
10
220.4682200000000023
20
-124.4489059999999938
11
220.2661259999999857
21
-124.3832419999999956
0
LINE
8
BLACK
6
CONTINUOUS
10
220.2661259999999857
20
-124.3832419999999956
11
220.0562469999999848
21
-124.3499999999999943
0
LINE
8
BLACK
6
CONTINUOUS
10
220.0562469999999848
20
-124.3499999999999943
11
219.8437529999999924
21
-124.3499999999999943
0
LINE
8
BLACK
6
CONTINUOUS
10
219.8437529999999924
20
-124.3499999999999943
11
219.6338739999999916
21
-124.3832419999999956
0
LINE
8
BLACK
6
CONTINUOUS
10
219.6338739999999916
20
-124.3832419999999956
11
219.4317800000000034
21
-124.4489059999999938
0
LINE
8
BLACK
6
CONTINUOUS
10
219.4317800000000034
20
-124.4489059999999938
11
219.242446000000001
21
-124.5453769999999878
0
LINE
8
BLACK
6
CONTINUOUS
10
219.242446000000001
20
-124.5453769999999878
11
219.0705339999999808
21
-124.6702779999999962
0
LINE
8
BLACK
6
CONTINUOUS
10
219.0705339999999808
20
-124.6702779999999962
11
218.9202779999999962
21
-124.820533999999995
0
LINE
8
BLACK
6
CONTINUOUS
10
218.9202779999999962
20
-124.820533999999995
11
218.795377000000002
21
-124.992446000000001
0
LINE
8
BLACK
6
CONTINUOUS
10
218.795377000000002
20
-124.992446000000001
11
218.6989059999999938
21
-125.1817799999999892
0
LINE
8
BLACK
6
CONTINUOUS
10
218.6989059999999938
20
-125.1817799999999892
11
218.6332419999999956
21
-125.3838739999999916
0
LINE
8
BLACK
6
CONTINUOUS
10
218.6332419999999956
20
-125.3838739999999916
11
218.5999999999999943
21
-125.5937529999999924
0
LINE
8
BLACK
6
CONTINUOUS
10
218.5999999999999943
20
-125.5937529999999924
11
218.5999999999999943
21
-125.806246999999999
0
LINE
8
BLACK
6
CONTINUOUS
10
244.1518239999999764
20
-119.2886819999999943
11
244.3607569999999782
21
-119.3565689999999933
0
LINE
8
BLACK
6
CONTINUOUS
10
244.3607569999999782
20
-119.3565689999999933
11
244.5564979999999764
21
-119.4563039999999887
0
LINE
8
BLACK
6
CONTINUOUS
10
244.5564979999999764
20
-119.4563039999999887
11
244.7342269999999758
21
-119.5854319999999973
0
LINE
8
BLACK
6
CONTINUOUS
10
244.7342269999999758
20
-119.5854319999999973
11
244.889567999999997
21
-119.7407729999999901
0
LINE
8
BLACK
6
CONTINUOUS
10
244.889567999999997
20
-119.7407729999999901
11
245.0186959999999772
21
-119.9185019999999895
0
LINE
8
BLACK
6
CONTINUOUS
10
245.0186959999999772
20
-119.9185019999999895
11
245.1184309999999869
21
-120.1142429999999877
0
LINE
8
BLACK
6
CONTINUOUS
10
245.1184309999999869
20
-120.1142429999999877
11
245.186318
21
-120.3231759999999895
0
LINE
8
BLACK
6
CONTINUOUS
10
245.186318
20
-120.3231759999999895
11
245.2206839999999772
21
-120.5401569999999936
0
LINE
8
BLACK
6
CONTINUOUS
10
245.2206839999999772
20
-120.5401569999999936
11
245.2206839999999772
21
-120.7598429999999894
0
LINE
8
BLACK
6
CONTINUOUS
10
245.2206839999999772
20
-120.7598429999999894
11
245.186318
21
-120.9768239999999935
0
LINE
8
BLACK
6
CONTINUOUS
10
245.186318
20
-120.9768239999999935
11
245.1184309999999869
21
-121.1857569999999953
0
LINE
8
BLACK
6
CONTINUOUS
10
245.1184309999999869
20
-121.1857569999999953
11
245.0186959999999772
21
-121.3814979999999935
0
LINE
8
BLACK
6
CONTINUOUS
10
245.0186959999999772
20
-121.3814979999999935
11
244.889567999999997
21
-121.5592269999999928
0
LINE
8
BLACK
6
CONTINUOUS
10
244.889567999999997
20
-121.5592269999999928
11
244.7342269999999758
21
-121.7145679999999999
0
LINE
8
BLACK
6
CONTINUOUS
10
244.7342269999999758
20
-121.7145679999999999
11
244.5564979999999764
21
-121.8436959999999942
0
LINE
8
BLACK
6
CONTINUOUS
10
244.5564979999999764
20
-121.8436959999999942
11
244.3607569999999782
21
-121.9434309999999897
0
LINE
8
BLACK
6
CONTINUOUS
10
244.3607569999999782
20
-121.9434309999999897
11
244.1518239999999764
21
-122.0113179999999886
0
LINE
8
BLACK
6
CONTINUOUS
10
244.1518239999999764
20
-122.0113179999999886
11
243.9348430000000008
21
-122.0456839999999943
0
LINE
8
BLACK
6
CONTINUOUS
10
243.9348430000000008
20
-122.0456839999999943
11
243.7151569999999765
21
-122.0456839999999943
0
LINE
8
BLACK
6
CONTINUOUS
10
243.7151569999999765
20
-122.0456839999999943
11
243.4981760000000008
21
-122.0113179999999886
0
LINE
8
BLACK
6
CONTINUOUS
10
243.4981760000000008
20
-122.0113179999999886
11
243.289242999999999
21
-121.9434309999999897
0
LINE
8
BLACK
6
CONTINUOUS
10
243.289242999999999
20
-121.9434309999999897
11
243.0935020000000009
21
-121.8436959999999942
0
LINE
8
BLACK
6
CONTINUOUS
10
243.0935020000000009
20
-121.8436959999999942
11
242.9157730000000015
21
-121.7145679999999999
0
LINE
8
BLACK
6
CONTINUOUS
10
242.9157730000000015
20
-121.7145679999999999
11
242.7604319999999802
21
-121.5592269999999928
0
LINE
8
BLACK
6
CONTINUOUS
10
242.7604319999999802
20
-121.5592269999999928
11
242.6313040000000001
21
-121.3814979999999935
0
LINE
8
BLACK
6
CONTINUOUS
10
242.6313040000000001
20
-121.3814979999999935
11
242.5315689999999904
21
-121.1857569999999953
0
LINE
8
BLACK
6
CONTINUOUS
10
242.5315689999999904
20
-121.1857569999999953
11
242.4636819999999773
21
-120.9768239999999935
0
LINE
8
BLACK
6
CONTINUOUS
10
242.4636819999999773
20
-120.9768239999999935
11
242.429316
21
-120.7598429999999894
0
LINE
8
BLACK
6
CONTINUOUS
10
242.429316
20
-120.7598429999999894
11
242.429316
21
-120.5437529999999953
0
LINE
8
BLACK
6
CONTINUOUS
10
242.429316
20
-120.5437529999999953
11
242.429316
21
-120.5401569999999936
0
LINE
8
BLACK
6
CONTINUOUS
10
242.429316
20
-120.5401569999999936
11
242.4636819999999773
21
-120.3231759999999895
0
LINE
8
BLACK
6
CONTINUOUS
10
242.4636819999999773
20
-120.3231759999999895
11
242.5315689999999904
21
-120.1142429999999877
0
LINE
8
BLACK
6
CONTINUOUS
10
242.5315689999999904
20
-120.1142429999999877
11
242.6313040000000001
21
-119.9185019999999895
0
LINE
8
BLACK
6
CONTINUOUS
10
242.6313040000000001
20
-119.9185019999999895
11
242.7604319999999802
21
-119.7407729999999901
0
LINE
8
BLACK
6
CONTINUOUS
10
242.7604319999999802
20
-119.7407729999999901
11
242.9157730000000015
21
-119.5854319999999973
0
LINE
8
BLACK
6
CONTINUOUS
10
242.9157730000000015
20
-119.5854319999999973
11
243.0935020000000009
21
-119.4563039999999887
0
LINE
8
BLACK
6
CONTINUOUS
10
243.0935020000000009
20
-119.4563039999999887
11
243.289242999999999
21
-119.3565689999999933
0
LINE
8
BLACK
6
CONTINUOUS
10
243.289242999999999
20
-119.3565689999999933
11
243.4981760000000008
21
-119.2886819999999943
0
LINE
8
BLACK
6
CONTINUOUS
10
243.4981760000000008
20
-119.2886819999999943
11
243.7151569999999765
21
-119.2543159999999887
0
LINE
8
BLACK
6
CONTINUOUS
10
243.7151569999999765
20
-119.2543159999999887
11
243.9348430000000008
21
-119.2543159999999887
0
LINE
8
BLACK
6
CONTINUOUS
10
243.9348430000000008
20
-119.2543159999999887
11
244.1518239999999764
21
-119.2886819999999943
0
LINE
8
BLACK
6
CONTINUOUS
10
242.4749999999999943
20
-120.7562469999999877
11
242.5082419999999956
21
-120.9661259999999885
0
LINE
8
BLACK
6
CONTINUOUS
10
242.5082419999999956
20
-120.9661259999999885
11
242.5739059999999938
21
-121.1682199999999909
0
LINE
8
BLACK
6
CONTINUOUS
10
242.5739059999999938
20
-121.1682199999999909
11
242.670377000000002
21
-121.3575539999999933
0
LINE
8
BLACK
6
CONTINUOUS
10
242.670377000000002
20
-121.3575539999999933
11
242.7952779999999962
21
-121.5294659999999993
0
LINE
8
BLACK
6
CONTINUOUS
10
242.7952779999999962
20
-121.5294659999999993
11
242.9455339999999808
21
-121.6797219999999982
0
LINE
8
BLACK
6
CONTINUOUS
10
242.9455339999999808
20
-121.6797219999999982
11
243.117446000000001
21
-121.8046229999999923
0
LINE
8
BLACK
6
CONTINUOUS
10
243.117446000000001
20
-121.8046229999999923
11
243.306779999999975
21
-121.9010940000000005
0
LINE
8
BLACK
6
CONTINUOUS
10
243.306779999999975
20
-121.9010940000000005
11
243.5088739999999916
21
-121.9667579999999987
0
LINE
8
BLACK
6
CONTINUOUS
10
243.5088739999999916
20
-121.9667579999999987
11
243.7187529999999924
21
-122.
0
LINE
8
BLACK
6
CONTINUOUS
10
243.7187529999999924
20
-122.
11
243.9312469999999848
21
-122.
0
LINE
8
BLACK
6
CONTINUOUS
10
243.9312469999999848
20
-122.
11
244.1411259999999857
21
-121.9667579999999987
0
LINE
8
BLACK
6
CONTINUOUS
10
244.1411259999999857
20
-121.9667579999999987
11
244.3432200000000023
21
-121.9010940000000005
0
LINE
8
BLACK
6
CONTINUOUS
10
244.3432200000000023
20
-121.9010940000000005
11
244.5325539999999762
21
-121.8046229999999923
0
LINE
8
BLACK
6
CONTINUOUS
10
244.5325539999999762
20
-121.8046229999999923
11
244.7044659999999965
21
-121.6797219999999982
0
LINE
8
BLACK
6
CONTINUOUS
10
244.7044659999999965
20
-121.6797219999999982
11
244.8547219999999811
21
-121.5294659999999993
0
LINE
8
BLACK
6
CONTINUOUS
10
244.8547219999999811
20
-121.5294659999999993
11
244.9796229999999753
21
-121.3575539999999933
0
LINE
8
BLACK
6
CONTINUOUS
10
244.9796229999999753
20
-121.3575539999999933
11
245.0760939999999835
21
-121.1682199999999909
0
LINE
8
BLACK
6
CONTINUOUS
10
245.0760939999999835
20
-121.1682199999999909
11
245.1417579999999816
21
-120.9661259999999885
0
LINE
8
BLACK
6
CONTINUOUS
10
245.1417579999999816
20
-120.9661259999999885
11
245.1749999999999829
21
-120.7562469999999877
0
LINE
8
BLACK
6
CONTINUOUS
10
245.1749999999999829
20
-120.7562469999999877
11
245.1749999999999829
21
-120.5437529999999953
0
LINE
8
BLACK
6
CONTINUOUS
10
245.1749999999999829
20
-120.5437529999999953
11
245.1417579999999816
21
-120.3338739999999945
0
LINE
8
BLACK
6
CONTINUOUS
10
245.1417579999999816
20
-120.3338739999999945
11
245.0760939999999835
21
-120.131779999999992
0
LINE
8
BLACK
6
CONTINUOUS
10
245.0760939999999835
20
-120.131779999999992
11
244.9796229999999753
21
-119.9424459999999897
0
LINE
8
BLACK
6
CONTINUOUS
10
244.9796229999999753
20
-119.9424459999999897
11
244.8547219999999811
21
-119.7705339999999978
0
LINE
8
BLACK
6
CONTINUOUS
10
244.8547219999999811
20
-119.7705339999999978
11
244.7044659999999965
21
-119.620277999999999
0
LINE
8
BLACK
6
CONTINUOUS
10
244.7044659999999965
20
-119.620277999999999
11
244.5325539999999762
21
-119.4953769999999906
0
LINE
8
BLACK
6
CONTINUOUS
10
244.5325539999999762
20
-119.4953769999999906
11
244.3432200000000023
21
-119.3989059999999967
0
LINE
8
BLACK
6
CONTINUOUS
10
244.3432200000000023
20
-119.3989059999999967
11
244.1411259999999857
21
-119.3332419999999985
0
LINE
8
BLACK
6
CONTINUOUS
10
244.1411259999999857
20
-119.3332419999999985
11
243.9312469999999848
21
-119.2999999999999972
0
LINE
8
BLACK
6
CONTINUOUS
10
243.9312469999999848
20
-119.2999999999999972
11
243.7187529999999924
21
-119.2999999999999972
0
LINE
8
BLACK
6
CONTINUOUS
10
243.7187529999999924
20
-119.2999999999999972
11
243.5088739999999916
21
-119.3332419999999985
0
LINE
8
BLACK
6
CONTINUOUS
10
243.5088739999999916
20
-119.3332419999999985
11
243.306779999999975
21
-119.3989059999999967
0
LINE
8
BLACK
6
CONTINUOUS
10
243.306779999999975
20
-119.3989059999999967
11
243.117446000000001
21
-119.4953769999999906
0
LINE
8
BLACK
6
CONTINUOUS
10
243.117446000000001
20
-119.4953769999999906
11
242.9455339999999808
21
-119.620277999999999
0
LINE
8
BLACK
6
CONTINUOUS
10
242.9455339999999808
20
-119.620277999999999
11
242.7952779999999962
21
-119.7705339999999978
0
LINE
8
BLACK
6
CONTINUOUS
10
242.7952779999999962
20
-119.7705339999999978
11
242.670377000000002
21
-119.9424459999999897
0
LINE
8
BLACK
6
CONTINUOUS
10
242.670377000000002
20
-119.9424459999999897
11
242.5739059999999938
21
-120.131779999999992
0
LINE
8
BLACK
6
CONTINUOUS
10
242.5739059999999938
20
-120.131779999999992
11
242.5082419999999956
21
-120.3338739999999945
0
LINE
8
BLACK
6
CONTINUOUS
10
242.5082419999999956
20
-120.3338739999999945
11
242.4749999999999943
21
-120.5437529999999953
0
LINE
8
BLACK
6
CONTINUOUS
10
242.4749999999999943
20
-120.5437529999999953
11
242.4749999999999943
21
-120.7562469999999877
0
LINE
8
BLACK
6
CONTINUOUS
10
244.1518239999999764
20
-95.6386819999999886
11
244.3607569999999782
21
-95.7065690000000018
0
LINE
8
BLACK
6
CONTINUOUS
10
244.3607569999999782
20
-95.7065690000000018
11
244.5564979999999764
21
-95.8063039999999972
0
LINE
8
BLACK
6
CONTINUOUS
10
244.5564979999999764
20
-95.8063039999999972
11
244.7342269999999758
21
-95.9354319999999916
0
LINE
8
BLACK
6
CONTINUOUS
10
244.7342269999999758
20
-95.9354319999999916
11
244.889567999999997
21
-96.0907729999999987
0
LINE
8
BLACK
6
CONTINUOUS
10
244.889567999999997
20
-96.0907729999999987
11
245.0186959999999772
21
-96.268501999999998
0
LINE
8
BLACK
6
CONTINUOUS
10
245.0186959999999772
20
-96.268501999999998
11
245.1184309999999869
21
-96.4642429999999962
0
LINE
8
BLACK
6
CONTINUOUS
10
245.1184309999999869
20
-96.4642429999999962
11
245.186318
21
-96.673175999999998
0
LINE
8
BLACK
6
CONTINUOUS
10
245.186318
20
-96.673175999999998
11
245.2206839999999772
21
-96.8901570000000021
0
LINE
8
BLACK
6
CONTINUOUS
10
245.2206839999999772
20
-96.8901570000000021
11
245.2206839999999772
21
-97.1098429999999979
0
LINE
8
BLACK
6
CONTINUOUS
10
245.2206839999999772
20
-97.1098429999999979
11
245.186318
21
-97.326824000000002
0
LINE
8
BLACK
6
CONTINUOUS
10
245.186318
20
-97.326824000000002
11
245.1184309999999869
21
-97.5357569999999896
0
LINE
8
BLACK
6
CONTINUOUS
10
245.1184309999999869
20
-97.5357569999999896
11
245.0186959999999772
21
-97.731498000000002
0
LINE
8
BLACK
6
CONTINUOUS
10
245.0186959999999772
20
-97.731498000000002
11
244.889567999999997
21
-97.9092270000000013
0
LINE
8
BLACK
6
CONTINUOUS
10
244.889567999999997
20
-97.9092270000000013
11
244.7342269999999758
21
-98.0645679999999942
0
LINE
8
BLACK
6
CONTINUOUS
10
244.7342269999999758
20
-98.0645679999999942
11
244.5564979999999764
21
-98.1936959999999885
0
LINE
8
BLACK
6
CONTINUOUS
10
244.5564979999999764
20
-98.1936959999999885
11
244.3607569999999782
21
-98.2934309999999982
0
LINE
8
BLACK
6
CONTINUOUS
10
244.3607569999999782
20
-98.2934309999999982
11
244.1518239999999764
21
-98.3613179999999971
0
LINE
8
BLACK
6
CONTINUOUS
10
244.1518239999999764
20
-98.3613179999999971
11
243.9348430000000008
21
-98.3956839999999886
0
LINE
8
BLACK
6
CONTINUOUS
10
243.9348430000000008
20
-98.3956839999999886
11
243.7151569999999765
21
-98.3956839999999886
0
LINE
8
BLACK
6
CONTINUOUS
10
243.7151569999999765
20
-98.3956839999999886
11
243.4981760000000008
21
-98.3613179999999971
0
LINE
8
BLACK
6
CONTINUOUS
10
243.4981760000000008
20
-98.3613179999999971
11
243.289242999999999
21
-98.2934309999999982
0
LINE
8
BLACK
6
CONTINUOUS
10
243.289242999999999
20
-98.2934309999999982
11
243.0935020000000009
21
-98.1936959999999885
0
LINE
8
BLACK
6
CONTINUOUS
10
243.0935020000000009
20
-98.1936959999999885
11
242.9157730000000015
21
-98.0645679999999942
0
LINE
8
BLACK
6
CONTINUOUS
10
242.9157730000000015
20
-98.0645679999999942
11
242.7604319999999802
21
-97.9092270000000013
0
LINE
8
BLACK
6
CONTINUOUS
10
242.7604319999999802
20
-97.9092270000000013
11
242.6313040000000001
21
-97.731498000000002
0
LINE
8
BLACK
6
CONTINUOUS
10
242.6313040000000001
20
-97.731498000000002
11
242.5315689999999904
21
-97.5357569999999896
0
LINE
8
BLACK
6
CONTINUOUS
10
242.5315689999999904
20
-97.5357569999999896
11
242.4636819999999773
21
-97.326824000000002
0
LINE
8
BLACK
6
CONTINUOUS
10
242.4636819999999773
20
-97.326824000000002
11
242.429316
21
-97.1098429999999979
0
LINE
8
BLACK
6
CONTINUOUS
10
242.429316
20
-97.1098429999999979
11
242.429316
21
-96.8937529999999896
0
LINE
8
BLACK
6
CONTINUOUS
10
242.429316
20
-96.8937529999999896
11
242.429316
21
-96.8901570000000021
0
LINE
8
BLACK
6
CONTINUOUS
10
242.429316
20
-96.8901570000000021
11
242.4636819999999773
21
-96.673175999999998
0
LINE
8
BLACK
6
CONTINUOUS
10
242.4636819999999773
20
-96.673175999999998
11
242.5315689999999904
21
-96.4642429999999962
0
LINE
8
BLACK
6
CONTINUOUS
10
242.5315689999999904
20
-96.4642429999999962
11
242.6313040000000001
21
-96.268501999999998
0
LINE
8
BLACK
6
CONTINUOUS
10
242.6313040000000001
20
-96.268501999999998
11
242.7604319999999802
21
-96.0907729999999987
0
LINE
8
BLACK
6
CONTINUOUS
10
242.7604319999999802
20
-96.0907729999999987
11
242.9157730000000015
21
-95.9354319999999916
0
LINE
8
BLACK
6
CONTINUOUS
10
242.9157730000000015
20
-95.9354319999999916
11
243.0935020000000009
21
-95.8063039999999972
0
LINE
8
BLACK
6
CONTINUOUS
10
243.0935020000000009
20
-95.8063039999999972
11
243.289242999999999
21
-95.7065690000000018
0
LINE
8
BLACK
6
CONTINUOUS
10
243.289242999999999
20
-95.7065690000000018
11
243.4981760000000008
21
-95.6386819999999886
0
LINE
8
BLACK
6
CONTINUOUS
10
243.4981760000000008
20
-95.6386819999999886
11
243.7151569999999765
21
-95.6043159999999972
0
LINE
8
BLACK
6
CONTINUOUS
10
243.7151569999999765
20
-95.6043159999999972
11
243.9348430000000008
21
-95.6043159999999972
0
LINE
8
BLACK
6
CONTINUOUS
10
243.9348430000000008
20
-95.6043159999999972
11
244.1518239999999764
21
-95.6386819999999886
0
LINE
8
BLACK
6
CONTINUOUS
10
242.4749999999999943
20
-97.1062469999999962
11
242.5082419999999956
21
-97.316125999999997
0
LINE
8
BLACK
6
CONTINUOUS
10
242.5082419999999956
20
-97.316125999999997
11
242.5739059999999938
21
-97.5182199999999995
0
LINE
8
BLACK
6
CONTINUOUS
10
242.5739059999999938
20
-97.5182199999999995
11
242.670377000000002
21
-97.7075540000000018
0
LINE
8
BLACK
6
CONTINUOUS
10
242.670377000000002
20
-97.7075540000000018
11
242.7952779999999962
21
-97.8794659999999936
0
LINE
8
BLACK
6
CONTINUOUS
10
242.7952779999999962
20
-97.8794659999999936
11
242.9455339999999808
21
-98.0297219999999925
0
LINE
8
BLACK
6
CONTINUOUS
10
242.9455339999999808
20
-98.0297219999999925
11
243.117446000000001
21
-98.1546230000000008
0
LINE
8
BLACK
6
CONTINUOUS
10
243.117446000000001
20
-98.1546230000000008
11
243.306779999999975
21
-98.2510939999999948
0
LINE
8
BLACK
6
CONTINUOUS
10
243.306779999999975
20
-98.2510939999999948
11
243.5088739999999916
21
-98.316757999999993
0
LINE
8
BLACK
6
CONTINUOUS
10
243.5088739999999916
20
-98.316757999999993
11
243.7187529999999924
21
-98.3499999999999943
0
LINE
8
BLACK
6
CONTINUOUS
10
243.7187529999999924
20
-98.3499999999999943
11
243.9312469999999848
21
-98.3499999999999943
0
LINE
8
BLACK
6
CONTINUOUS
10
243.9312469999999848
20
-98.3499999999999943
11
244.1411259999999857
21
-98.316757999999993
0
LINE
8
BLACK
6
CONTINUOUS
10
244.1411259999999857
20
-98.316757999999993
11
244.3432200000000023
21
-98.2510939999999948
0
LINE
8
BLACK
6
CONTINUOUS
10
244.3432200000000023
20
-98.2510939999999948
11
244.5325539999999762
21
-98.1546230000000008
0
LINE
8
BLACK
6
CONTINUOUS
10
244.5325539999999762
20
-98.1546230000000008
11
244.7044659999999965
21
-98.0297219999999925
0
LINE
8
BLACK
6
CONTINUOUS
10
244.7044659999999965
20
-98.0297219999999925
11
244.8547219999999811
21
-97.8794659999999936
0
LINE
8
BLACK
6
CONTINUOUS
10
244.8547219999999811
20
-97.8794659999999936
11
244.9796229999999753
21
-97.7075540000000018
0
LINE
8
BLACK
6
CONTINUOUS
10
244.9796229999999753
20
-97.7075540000000018
11
245.0760939999999835
21
-97.5182199999999995
0
LINE
8
BLACK
6
CONTINUOUS
10
245.0760939999999835
20
-97.5182199999999995
11
245.1417579999999816
21
-97.316125999999997
0
LINE
8
BLACK
6
CONTINUOUS
10
245.1417579999999816
20
-97.316125999999997
11
245.1749999999999829
21
-97.1062469999999962
0
LINE
8
BLACK
6
CONTINUOUS
10
245.1749999999999829
20
-97.1062469999999962
11
245.1749999999999829
21
-96.8937529999999896
0
LINE
8
BLACK
6
CONTINUOUS
10
245.1749999999999829
20
-96.8937529999999896
11
245.1417579999999816
21
-96.6838739999999888
0
LINE
8
BLACK
6
CONTINUOUS
10
245.1417579999999816
20
-96.6838739999999888
11
245.0760939999999835
21
-96.4817800000000005
0
LINE
8
BLACK
6
CONTINUOUS
10
245.0760939999999835
20
-96.4817800000000005
11
244.9796229999999753
21
-96.2924459999999982
0
LINE
8
BLACK
6
CONTINUOUS
10
244.9796229999999753
20
-96.2924459999999982
11
244.8547219999999811
21
-96.1205339999999921
0
LINE
8
BLACK
6
CONTINUOUS
10
244.8547219999999811
20
-96.1205339999999921
11
244.7044659999999965
21
-95.9702779999999933
0
LINE
8
BLACK
6
CONTINUOUS
10
244.7044659999999965
20
-95.9702779999999933
11
244.5325539999999762
21
-95.8453769999999992
0
LINE
8
BLACK
6
CONTINUOUS
10
244.5325539999999762
20
-95.8453769999999992
11
244.3432200000000023
21
-95.748905999999991
0
LINE
8
BLACK
6
CONTINUOUS
10
244.3432200000000023
20
-95.748905999999991
11
244.1411259999999857
21
-95.6832419999999928
0
LINE
8
BLACK
6
CONTINUOUS
10
244.1411259999999857
20
-95.6832419999999928
11
243.9312469999999848
21
-95.6499999999999915
0
LINE
8
BLACK
6
CONTINUOUS
10
243.9312469999999848
20
-95.6499999999999915
11
243.7187529999999924
21
-95.6499999999999915
0
LINE
8
BLACK
6
CONTINUOUS
10
243.7187529999999924
20
-95.6499999999999915
11
243.5088739999999916
21
-95.6832419999999928
0
LINE
8
BLACK
6
CONTINUOUS
10
243.5088739999999916
20
-95.6832419999999928
11
243.306779999999975
21
-95.748905999999991
0
LINE
8
BLACK
6
CONTINUOUS
10
243.306779999999975
20
-95.748905999999991
11
243.117446000000001
21
-95.8453769999999992
0
LINE
8
BLACK
6
CONTINUOUS
10
243.117446000000001
20
-95.8453769999999992
11
242.9455339999999808
21
-95.9702779999999933
0
LINE
8
BLACK
6
CONTINUOUS
10
242.9455339999999808
20
-95.9702779999999933
11
242.7952779999999962
21
-96.1205339999999921
0
LINE
8
BLACK
6
CONTINUOUS
10
242.7952779999999962
20
-96.1205339999999921
11
242.670377000000002
21
-96.2924459999999982
0
LINE
8
BLACK
6
CONTINUOUS
10
242.670377000000002
20
-96.2924459999999982
11
242.5739059999999938
21
-96.4817800000000005
0
LINE
8
BLACK
6
CONTINUOUS
10
242.5739059999999938
20
-96.4817800000000005
11
242.5082419999999956
21
-96.6838739999999888
0
LINE
8
BLACK
6
CONTINUOUS
10
242.5082419999999956
20
-96.6838739999999888
11
242.4749999999999943
21
-96.8937529999999896
0
LINE
8
BLACK
6
CONTINUOUS
10
242.4749999999999943
20
-96.8937529999999896
11
242.4749999999999943
21
-97.1062469999999962
0
LINE
8
BLACK
6
CONTINUOUS
10
246.888559999999984
20
-93.7215669999999932
11
247.2819689999999753
21
-93.733871999999991
0
LINE
8
BLACK
6
CONTINUOUS
10
247.2819689999999753
20
-93.733871999999991
11
247.6729869999999778
21
-93.782833999999994
0
LINE
8
BLACK
6
CONTINUOUS
10
247.6729869999999778
20
-93.782833999999994
11
248.0577429999999879
21
-93.8680140000000023
0
LINE
8
BLACK
6
CONTINUOUS
10
248.0577429999999879
20
-93.8680140000000023
11
248.4328889999999888
21
-93.9886709999999965
0
LINE
8
BLACK
6
CONTINUOUS
10
248.4328889999999888
20
-93.9886709999999965
11
248.7951619999999764
21
-94.1437549999999987
0
LINE
8
BLACK
6
CONTINUOUS
10
248.7951619999999764
20
-94.1437549999999987
11
249.1414099999999792
21
-94.33191699999999
0
LINE
8
BLACK
6
CONTINUOUS
10
249.1414099999999792
20
-94.33191699999999
11
249.4686209999999846
21
-94.5515199999999965
0
LINE
8
BLACK
6
CONTINUOUS
10
249.4686209999999846
20
-94.5515199999999965
11
249.7739489999999876
21
-94.8006539999999944
0
LINE
8
BLACK
6
CONTINUOUS
10
249.7739489999999876
20
-94.8006539999999944
11
250.0547369999999887
21
-95.0771510000000006
0
LINE
8
BLACK
6
CONTINUOUS
10
250.0547369999999887
20
-95.0771510000000006
11
250.308542999999986
21
-95.3786059999999907
0
LINE
8
BLACK
6
CONTINUOUS
10
250.308542999999986
20
-95.3786059999999907
11
250.5331589999999835
21
-95.7023969999999906
0
LINE
8
BLACK
6
CONTINUOUS
10
250.5331589999999835
20
-95.7023969999999906
11
250.7266300000000001
21
-96.0457069999999931
0
LINE
8
BLACK
6
CONTINUOUS
10
250.7266300000000001
20
-96.0457069999999931
11
250.8872739999999908
21
-96.4055489999999935
0
LINE
8
BLACK
6
CONTINUOUS
10
250.8872739999999908
20
-96.4055489999999935
11
251.0136929999999893
21
-96.7787929999999932
0
LINE
8
BLACK
6
CONTINUOUS
10
251.0136929999999893
20
-96.7787929999999932
11
251.104787999999985
21
-97.1621919999999903
0
LINE
8
BLACK
6
CONTINUOUS
10
251.104787999999985
20
-97.1621919999999903
11
251.1597649999999931
21
-97.5524099999999947
0
LINE
8
BLACK
6
CONTINUOUS
10
251.1597649999999931
20
-97.5524099999999947
11
251.1781469999999956
21
-97.946052999999992
0
LINE
8
BLACK
6
CONTINUOUS
10
251.1781469999999956
20
-97.946052999999992
11
251.1780819999999892
21
-97.946052999999992
0
LINE
8
BLACK
6
CONTINUOUS
10
251.1780819999999892
20
-97.946052999999992
11
251.1819059999999979
21
-124.6834799999999888
0
LINE
8
BLACK
6
CONTINUOUS
10
251.1819059999999979
20
-124.6834799999999888
11
251.1818789999999808
21
-124.6836099999999874
0
LINE
8
BLACK
6
CONTINUOUS
10
251.1818789999999808
20
-124.6836099999999874
11
251.1695769999999754
21
-125.0769759999999877
0
LINE
8
BLACK
6
CONTINUOUS
10
251.1695769999999754
20
-125.0769759999999877
11
251.1206129999999916
21
-125.4679919999999953
0
LINE
8
BLACK
6
CONTINUOUS
10
251.1206129999999916
20
-125.4679919999999953
11
251.0354319999999859
21
-125.8527459999999962
0
LINE
8
BLACK
6
CONTINUOUS
10
251.0354319999999859
20
-125.8527459999999962
11
250.9147749999999917
21
-126.2278889999999905
0
LINE
8
BLACK
6
CONTINUOUS
10
250.9147749999999917
20
-126.2278889999999905
11
250.7596899999999778
21
-126.5901589999999999
0
LINE
8
BLACK
6
CONTINUOUS
10
250.7596899999999778
20
-126.5901589999999999
11
250.5715269999999748
21
-126.936403999999996
0
LINE
8
BLACK
6
CONTINUOUS
10
250.5715269999999748
20
-126.936403999999996
11
250.3519229999999993
21
-127.2636119999999949
0
LINE
8
BLACK
6
CONTINUOUS
10
250.3519229999999993
20
-127.2636119999999949
11
250.1027890000000014
21
-127.5689369999999911
0
LINE
8
BLACK
6
CONTINUOUS
10
250.1027890000000014
20
-127.5689369999999911
11
249.8262909999999977
21
-127.8497209999999882
0
LINE
8
BLACK
6
CONTINUOUS
10
249.8262909999999977
20
-127.8497209999999882
11
249.5248359999999934
21
-128.1035229999999956
0
LINE
8
BLACK
6
CONTINUOUS
10
249.5248359999999934
20
-128.1035229999999956
11
249.2010449999999935
21
-128.3281350000000032
0
LINE
8
BLACK
6
CONTINUOUS
10
249.2010449999999935
20
-128.3281350000000032
11
248.857734999999991
21
-128.5216020000000015
0
LINE
8
BLACK
6
CONTINUOUS
10
248.857734999999991
20
-128.5216020000000015
11
248.4978940000000023
21
-128.6822420000000022
0
LINE
8
BLACK
6
CONTINUOUS
10
248.4978940000000023
20
-128.6822420000000022
11
248.1246510000000001
21
-128.8086559999999849
0
LINE
8
BLACK
6
CONTINUOUS
10
248.1246510000000001
20
-128.8086559999999849
11
247.7412530000000004
21
-128.8997459999999933
0
LINE
8
BLACK
6
CONTINUOUS
10
247.7412530000000004
20
-128.8997459999999933
11
247.3510369999999909
21
-128.954718999999983
0
LINE
8
BLACK
6
CONTINUOUS
10
247.3510369999999909
20
-128.954718999999983
11
246.9573959999999886
21
-128.9730959999999982
0
LINE
8
BLACK
6
CONTINUOUS
10
246.9573959999999886
20
-128.9730959999999982
11
246.9573959999999886
21
-128.9730920000000083
0
LINE
8
BLACK
6
CONTINUOUS
10
246.9573959999999886
20
-128.9730920000000083
11
190.3615279999999927
21
-128.9769079999999803
0
LINE
8
BLACK
6
CONTINUOUS
10
190.3615279999999927
20
-128.9769079999999803
11
190.3614439999999774
21
-128.9768909999999948
0
LINE
8
BLACK
6
CONTINUOUS
10
190.3614439999999774
20
-128.9768909999999948
11
189.9680329999999913
21
-128.9645869999999945
0
LINE
8
BLACK
6
CONTINUOUS
10
189.9680329999999913
20
-128.9645869999999945
11
189.5770159999999862
21
-128.9156250000000057
0
LINE
8
BLACK
6
CONTINUOUS
10
189.5770159999999862
20
-128.9156250000000057
11
189.192261000000002
21
-128.8304449999999974
0
LINE
8
BLACK
6
CONTINUOUS
10
189.192261000000002
20
-128.8304449999999974
11
188.8171169999999961
21
-128.7097880000000032
0
LINE
8
BLACK
6
CONTINUOUS
10
188.8171169999999961
20
-128.7097880000000032
11
188.4548449999999775
21
-128.5547029999999893
0
LINE
8
BLACK
6
CONTINUOUS
10
188.4548449999999775
20
-128.5547029999999893
11
188.1085989999999981
21
-128.3665409999999838
0
LINE
8
BLACK
6
CONTINUOUS
10
188.1085989999999981
20
-128.3665409999999838
11
187.7813899999999876
21
-128.1469370000000083
0
LINE
8
BLACK
6
CONTINUOUS
10
187.7813899999999876
20
-128.1469370000000083
11
187.4760639999999796
21
-127.8978029999999961
0
LINE
8
BLACK
6
CONTINUOUS
10
187.4760639999999796
20
-127.8978029999999961
11
187.1952780000000018
21
-127.6213049999999924
0
LINE
8
BLACK
6
CONTINUOUS
10
187.1952780000000018
20
-127.6213049999999924
11
186.941474999999997
21
-127.3198499999999882
0
LINE
8
BLACK
6
CONTINUOUS
10
186.941474999999997
20
-127.3198499999999882
11
186.7168619999999919
21
-126.9960579999999908
0
LINE
8
BLACK
6
CONTINUOUS
10
186.7168619999999919
20
-126.9960579999999908
11
186.5233939999999961
21
-126.652749
0
LINE
8
BLACK
6
CONTINUOUS
10
186.5233939999999961
20
-126.652749
11
186.3627529999999979
21
-126.2929069999999996
0
LINE
8
BLACK
6
CONTINUOUS
10
186.3627529999999979
20
-126.2929069999999996
11
186.2363369999999918
21
-125.9196629999999999
0
LINE
8
BLACK
6
CONTINUOUS
10
186.2363369999999918
20
-125.9196629999999999
11
186.145245999999986
21
-125.5362650000000002
0
LINE
8
BLACK
6
CONTINUOUS
10
186.145245999999986
20
-125.5362650000000002
11
186.0902719999999988
21
-125.1460479999999933
0
LINE
8
BLACK
6
CONTINUOUS
10
186.0902719999999988
20
-125.1460479999999933
11
186.0794959999999776
21
-124.9152419999999921
0
LINE
8
BLACK
6
CONTINUOUS
10
186.0794959999999776
20
-124.9152419999999921
11
186.0738199999999836
21
-124.9095639999999889
0
LINE
8
BLACK
6
CONTINUOUS
10
186.0738199999999836
20
-124.9095639999999889
11
186.0719179999999824
21
-124.899996999999999
0
LINE
8
BLACK
6
CONTINUOUS
10
186.0719179999999824
20
-124.899996999999999
11
186.0719369999999913
21
-124.7533379999999994
0
LINE
8
BLACK
6
CONTINUOUS
10
186.0719369999999913
20
-124.7533379999999994
11
186.0718939999999861
21
-124.7524059999999935
0
LINE
8
BLACK
6
CONTINUOUS
10
186.0718939999999861
20
-124.7524059999999935
11
186.0719179999999824
21
-124.7524059999999935
0
LINE
8
BLACK
6
CONTINUOUS
10
186.0719179999999824
20
-124.7524059999999935
11
186.0719369999999913
21
-124.7523449999999912
0
LINE
8
BLACK
6
CONTINUOUS
10
186.0719369999999913
20
-124.7523449999999912
11
186.0754969999999844
21
-98.0180539999999922
0
LINE
8
BLACK
6
CONTINUOUS
10
186.0754969999999844
20
-98.0180539999999922
11
186.0755159999999933
21
-98.0179569999999956
0
LINE
8
BLACK
6
CONTINUOUS
10
186.0755159999999933
20
-98.0179569999999956
11
186.0878160000000037
21
-97.6245619999999974
0
LINE
8
BLACK
6
CONTINUOUS
10
186.0878160000000037
20
-97.6245619999999974
11
186.1367759999999976
21
-97.2335429999999974
0
LINE
8
BLACK
6
CONTINUOUS
10
186.1367759999999976
20
-97.2335429999999974
11
186.2219549999999799
21
-96.8487870000000015
0
LINE
8
BLACK
6
CONTINUOUS
10
186.2219549999999799
20
-96.8487870000000015
11
186.3426099999999792
21
-96.473639999999989
0
LINE
8
BLACK
6
CONTINUOUS
10
186.3426099999999792
20
-96.473639999999989
11
186.4976929999999982
21
-96.1113659999999896
0
LINE
8
BLACK
6
CONTINUOUS
10
186.4976929999999982
20
-96.1113659999999896
11
186.6858550000000037
21
-95.7651169999999894
0
LINE
8
BLACK
6
CONTINUOUS
10
186.6858550000000037
20
-95.7651169999999894
11
186.9054579999999817
21
-95.4379059999999981
0
LINE
8
BLACK
6
CONTINUOUS
10
186.9054579999999817
20
-95.4379059999999981
11
187.1545919999999796
21
-95.1325779999999952
0
LINE
8
BLACK
6
CONTINUOUS
10
187.1545919999999796
20
-95.1325779999999952
11
187.4310899999999833
21
-94.8517899999999941
0
LINE
8
BLACK
6
CONTINUOUS
10
187.4310899999999833
20
-94.8517899999999941
11
187.7325469999999825
21
-94.5979849999999942
0
LINE
8
BLACK
6
CONTINUOUS
10
187.7325469999999825
20
-94.5979849999999942
11
188.0563389999999799
21
-94.3733709999999917
0
LINE
8
BLACK
6
CONTINUOUS
10
188.0563389999999799
20
-94.3733709999999917
11
188.3996499999999799
21
-94.179901000000001
0
LINE
8
BLACK
6
CONTINUOUS
10
188.3996499999999799
20
-94.179901000000001
11
188.759492999999992
21
-94.019258999999991
0
LINE
8
BLACK
6
CONTINUOUS
10
188.759492999999992
20
-94.019258999999991
11
189.1327379999999891
21
-93.8928429999999992
0
LINE
8
BLACK
6
CONTINUOUS
10
189.1327379999999891
20
-93.8928429999999992
11
189.5161379999999838
21
-93.8017519999999934
0
LINE
8
BLACK
6
CONTINUOUS
10
189.5161379999999838
20
-93.8017519999999934
11
189.9063569999999856
21
-93.7467779999999919
0
LINE
8
BLACK
6
CONTINUOUS
10
189.9063569999999856
20
-93.7467779999999919
11
190.2999999999999829
21
-93.7283999999999935
0
LINE
8
BLACK
6
CONTINUOUS
10
190.2999999999999829
20
-93.7283999999999935
11
190.2999999999999829
21
-93.7284489999999977
0
LINE
8
BLACK
6
CONTINUOUS
10
190.2999999999999829
20
-93.7284489999999977
11
190.3095249999999794
21
-93.7315439999999995
0
LINE
8
BLACK
6
CONTINUOUS
10
190.3095249999999794
20
-93.7315439999999995
11
190.3107169999999826
21
-93.7303529999999938
0
LINE
8
BLACK
6
CONTINUOUS
10
190.3107169999999826
20
-93.7303529999999938
11
190.3202839999999867
21
-93.7284489999999977
0
LINE
8
BLACK
6
CONTINUOUS
10
190.3202839999999867
20
-93.7284489999999977
11
246.8884709999999814
21
-93.7215499999999935
0
LINE
8
BLACK
6
CONTINUOUS
10
246.8884709999999814
20
-93.7215499999999935
11
246.888559999999984
21
-93.7215669999999932
0
LINE
8
BLACK
6
CONTINUOUS
10
246.8888589999999965
20
-93.7715469999999982
11
246.8887139999999931
21
-93.7715019999999981
0
LINE
8
BLACK
6
CONTINUOUS
10
246.8887139999999931
20
-93.7715019999999981
11
246.8884769999999946
21
-93.7715499999999906
0
LINE
8
BLACK
6
CONTINUOUS
10
246.8884769999999946
20
-93.7715499999999906
11
190.32029
21
-93.7784489999999948
0
LINE
8
BLACK
6
CONTINUOUS
10
190.32029
20
-93.7784489999999948
11
190.3107229999999959
21
-93.7765469999999937
0
LINE
8
BLACK
6
CONTINUOUS
10
190.3107229999999959
20
-93.7765469999999937
11
190.3095280000000002
21
-93.775351999999998
0
LINE
8
BLACK
6
CONTINUOUS
10
190.3095280000000002
20
-93.775351999999998
11
190.2999999999999829
21
-93.7784489999999948
0
LINE
8
BLACK
6
CONTINUOUS
10
190.2999999999999829
20
-93.7784489999999948
11
190.2999999999999829
21
-93.7783999999999907
0
LINE
8
BLACK
6
CONTINUOUS
10
190.2999999999999829
20
-93.7783999999999907
11
190.1050809999999842
21
-93.7783539999999931
0
LINE
8
BLACK
6
CONTINUOUS
10
190.1050809999999842
20
-93.7783539999999931
11
189.7169399999999939
21
-93.814674999999994
0
LINE
8
BLACK
6
CONTINUOUS
10
189.7169399999999939
20
-93.814674999999994
11
189.3338709999999878
21
-93.8870009999999979
0
LINE
8
BLACK
6
CONTINUOUS
10
189.3338709999999878
20
-93.8870009999999979
11
188.9592069999999921
21
-93.9947030000000012
0
LINE
8
BLACK
6
CONTINUOUS
10
188.9592069999999921
20
-93.9947030000000012
11
188.5962069999999926
21
-94.1368449999999939
0
LINE
8
BLACK
6
CONTINUOUS
10
188.5962069999999926
20
-94.1368449999999939
11
188.2480290000000025
21
-94.3121879999999919
0
LINE
8
BLACK
6
CONTINUOUS
10
188.2480290000000025
20
-94.3121879999999919
11
187.9177029999999888
21
-94.5192089999999894
0
LINE
8
BLACK
6
CONTINUOUS
10
187.9177029999999888
20
-94.5192089999999894
11
187.6081020000000024
21
-94.7561060000000026
0
LINE
8
BLACK
6
CONTINUOUS
10
187.6081020000000024
20
-94.7561060000000026
11
187.3219189999999799
21
-95.0208179999999913
0
LINE
8
BLACK
6
CONTINUOUS
10
187.3219189999999799
20
-95.0208179999999913
11
187.0616440000000011
21
-95.3110420000000005
0
LINE
8
BLACK
6
CONTINUOUS
10
187.0616440000000011
20
-95.3110420000000005
11
186.8295420000000036
21
-95.624252999999996
0
LINE
8
BLACK
6
CONTINUOUS
10
186.8295420000000036
20
-95.624252999999996
11
186.6276309999999796
21
-95.9577269999999913
0
LINE
8
BLACK
6
CONTINUOUS
10
186.6276309999999796
20
-95.9577269999999913
11
186.457667999999984
21
-96.3085629999999924
0
LINE
8
BLACK
6
CONTINUOUS
10
186.457667999999984
20
-96.3085629999999924
11
186.3211320000000057
21
-96.6737079999999906
0
LINE
8
BLACK
6
CONTINUOUS
10
186.3211320000000057
20
-96.6737079999999906
11
186.2192100000000039
21
-97.0499859999999899
0
LINE
8
BLACK
6
CONTINUOUS
10
186.2192100000000039
20
-97.0499859999999899
11
186.1527889999999843
21
-97.4341229999999996
0
LINE
8
BLACK
6
CONTINUOUS
10
186.1527889999999843
20
-97.4341229999999996
11
186.1224479999999915
21
-97.8227770000000021
0
LINE
8
BLACK
6
CONTINUOUS
10
186.1224479999999915
20
-97.8227770000000021
11
186.1254950000000008
21
-98.0176719999999904
0
LINE
8
BLACK
6
CONTINUOUS
10
186.1254950000000008
20
-98.0176719999999904
11
186.1254940000000033
21
-98.0176719999999904
0
LINE
8
BLACK
6
CONTINUOUS
10
186.1254940000000033
20
-98.0176719999999904
11
186.1254480000000058
21
-98.0178179999999912
0
LINE
8
BLACK
6
CONTINUOUS
10
186.1254480000000058
20
-98.0178179999999912
11
186.1254969999999958
21
-98.0180609999999888
0
LINE
8
BLACK
6
CONTINUOUS
10
186.1254969999999958
20
-98.0180609999999888
11
186.1219179999999938
21
-124.9000029999999981
0
LINE
8
BLACK
6
CONTINUOUS
10
186.1219179999999938
20
-124.9000029999999981
11
186.1218590000000006
21
-124.9002979999999923
0
LINE
8
BLACK
6
CONTINUOUS
10
186.1218590000000006
20
-124.9002979999999923
11
186.121848
21
-124.9473239999999947
0
LINE
8
BLACK
6
CONTINUOUS
10
186.121848
20
-124.9473239999999947
11
186.1581689999999867
21
-125.3354639999999875
0
LINE
8
BLACK
6
CONTINUOUS
10
186.1581689999999867
20
-125.3354639999999875
11
186.2304949999999906
21
-125.7185309999999987
0
LINE
8
BLACK
6
CONTINUOUS
10
186.2304949999999906
20
-125.7185309999999987
11
186.3381969999999797
21
-126.0931939999999969
0
LINE
8
BLACK
6
CONTINUOUS
10
186.3381969999999797
20
-126.0931939999999969
11
186.4803379999999891
21
-126.4561919999999873
0
LINE
8
BLACK
6
CONTINUOUS
10
186.4803379999999891
20
-126.4561919999999873
11
186.6556799999999896
21
-126.8043679999999966
0
LINE
8
BLACK
6
CONTINUOUS
10
186.6556799999999896
20
-126.8043679999999966
11
186.8626989999999921
21
-127.1346939999999961
0
LINE
8
BLACK
6
CONTINUOUS
10
186.8626989999999921
20
-127.1346939999999961
11
187.0995949999999937
21
-127.4442939999999993
0
LINE
8
BLACK
6
CONTINUOUS
10
187.0995949999999937
20
-127.4442939999999993
11
187.3643040000000042
21
-127.7304769999999934
0
LINE
8
BLACK
6
CONTINUOUS
10
187.3643040000000042
20
-127.7304769999999934
11
187.6545270000000016
21
-127.9907509999999888
0
LINE
8
BLACK
6
CONTINUOUS
10
187.6545270000000016
20
-127.9907509999999888
11
187.9677360000000022
21
-128.2228539999999839
0
LINE
8
BLACK
6
CONTINUOUS
10
187.9677360000000022
20
-128.2228539999999839
11
188.3012080000000026
21
-128.4247660000000053
0
LINE
8
BLACK
6
CONTINUOUS
10
188.3012080000000026
20
-128.4247660000000053
11
188.652040999999997
21
-128.594729000000001
0
LINE
8
BLACK
6
CONTINUOUS
10
188.652040999999997
20
-128.594729000000001
11
189.0171839999999861
21
-128.7312670000000026
0
LINE
8
BLACK
6
CONTINUOUS
10
189.0171839999999861
20
-128.7312670000000026
11
189.3934589999999787
21
-128.8331909999999993
0
LINE
8
BLACK
6
CONTINUOUS
10
189.3934589999999787
20
-128.8331909999999993
11
189.7775949999999909
21
-128.899612999999988
0
LINE
8
BLACK
6
CONTINUOUS
10
189.7775949999999909
20
-128.899612999999988
11
190.1662469999999985
21
-128.9299570000000017
0
LINE
8
BLACK
6
CONTINUOUS
10
190.1662469999999985
20
-128.9299570000000017
11
190.3611410000000035
21
-128.9269119999999873
0
LINE
8
BLACK
6
CONTINUOUS
10
190.3611410000000035
20
-128.9269119999999873
11
190.361282999999986
21
-128.9269549999999924
0
LINE
8
BLACK
6
CONTINUOUS
10
190.361282999999986
20
-128.9269549999999924
11
190.3615240000000028
21
-128.9269079999999974
0
LINE
8
BLACK
6
CONTINUOUS
10
190.3615240000000028
20
-128.9269079999999974
11
246.9573939999999936
21
-128.9230919999999969
0
LINE
8
BLACK
6
CONTINUOUS
10
246.9573939999999936
20
-128.9230919999999969
11
246.9573949999999911
21
-128.9230919999999969
0
LINE
8
BLACK
6
CONTINUOUS
10
246.9573949999999911
20
-128.9230919999999969
11
246.9573959999999886
21
-128.9230919999999969
0
LINE
8
BLACK
6
CONTINUOUS
10
246.9573959999999886
20
-128.9230919999999969
11
246.957414
21
-128.9230959999999868
0
LINE
8
BLACK
6
CONTINUOUS
10
246.957414
20
-128.9230959999999868
11
247.1523129999999924
21
-128.9231429999999818
0
LINE
8
BLACK
6
CONTINUOUS
10
247.1523129999999924
20
-128.9231429999999818
11
247.5404519999999877
21
-128.8868219999999951
0
LINE
8
BLACK
6
CONTINUOUS
10
247.5404519999999877
20
-128.8868219999999951
11
247.9235189999999989
21
-128.8144969999999887
0
LINE
8
BLACK
6
CONTINUOUS
10
247.9235189999999989
20
-128.8144969999999887
11
248.2981809999999996
21
-128.7067969999999946
0
LINE
8
BLACK
6
CONTINUOUS
10
248.2981809999999996
20
-128.7067969999999946
11
248.6611789999999758
21
-128.5646569999999826
0
LINE
8
BLACK
6
CONTINUOUS
10
248.6611789999999758
20
-128.5646569999999826
11
249.0093549999999993
21
-128.389316000000008
0
LINE
8
BLACK
6
CONTINUOUS
10
249.0093549999999993
20
-128.389316000000008
11
249.3396799999999871
21
-128.182298000000003
0
LINE
8
BLACK
6
CONTINUOUS
10
249.3396799999999871
20
-128.182298000000003
11
249.6492799999999761
21
-127.9454039999999964
0
LINE
8
BLACK
6
CONTINUOUS
10
249.6492799999999761
20
-127.9454039999999964
11
249.9354620000000011
21
-127.6806959999999975
0
LINE
8
BLACK
6
CONTINUOUS
10
249.9354620000000011
20
-127.6806959999999975
11
250.1957369999999798
21
-127.390474999999995
0
LINE
8
BLACK
6
CONTINUOUS
10
250.1957369999999798
20
-127.390474999999995
11
250.4278399999999749
21
-127.077266999999992
0
LINE
8
BLACK
6
CONTINUOUS
10
250.4278399999999749
20
-127.077266999999992
11
250.6297519999999963
21
-126.743795999999989
0
LINE
8
BLACK
6
CONTINUOUS
10
250.6297519999999963
20
-126.743795999999989
11
250.7997159999999894
21
-126.3929639999999921
0
LINE
8
BLACK
6
CONTINUOUS
10
250.7997159999999894
20
-126.3929639999999921
11
250.936253999999991
21
-126.0278220000000005
0
LINE
8
BLACK
6
CONTINUOUS
10
250.936253999999991
20
-126.0278220000000005
11
251.0381789999999853
21
-125.6515479999999911
0
LINE
8
BLACK
6
CONTINUOUS
10
251.0381789999999853
20
-125.6515479999999911
11
251.1046019999999999
21
-125.2674139999999881
0
LINE
8
BLACK
6
CONTINUOUS
10
251.1046019999999999
20
-125.2674139999999881
11
251.1349469999999826
21
-124.8787619999999947
0
LINE
8
BLACK
6
CONTINUOUS
10
251.1349469999999826
20
-124.8787619999999947
11
251.1319019999999966
21
-124.6838690000000014
0
LINE
8
BLACK
6
CONTINUOUS
10
251.1319019999999966
20
-124.6838690000000014
11
251.1319499999999891
21
-124.6837109999999882
0
LINE
8
BLACK
6
CONTINUOUS
10
251.1319499999999891
20
-124.6837109999999882
11
251.1319059999999865
21
-124.6834869999999995
0
LINE
8
BLACK
6
CONTINUOUS
10
251.1319059999999865
20
-124.6834869999999995
11
251.1280819999999778
21
-97.9460569999999962
0
LINE
8
BLACK
6
CONTINUOUS
10
251.1280819999999778
20
-97.9460569999999962
11
251.1280819999999778
21
-97.9460539999999895
0
LINE
8
BLACK
6
CONTINUOUS
10
251.1280819999999778
20
-97.9460539999999895
11
251.1280819999999778
21
-97.946052999999992
0
LINE
8
BLACK
6
CONTINUOUS
10
251.1280819999999778
20
-97.946052999999992
11
251.1280829999999753
21
-97.946052999999992
0
LINE
8
BLACK
6
CONTINUOUS
10
251.1280829999999753
20
-97.946052999999992
11
251.1281469999999842
21
-97.945729
0
LINE
8
BLACK
6
CONTINUOUS
10
251.1281469999999842
20
-97.945729
11
251.1281909999999868
21
-97.7511349999999908
0
LINE
8
BLACK
6
CONTINUOUS
10
251.1281909999999868
20
-97.7511349999999908
11
251.0918659999999818
21
-97.3629940000000005
0
LINE
8
BLACK
6
CONTINUOUS
10
251.0918659999999818
20
-97.3629940000000005
11
251.0195369999999855
21
-96.9799259999999919
0
LINE
8
BLACK
6
CONTINUOUS
10
251.0195369999999855
20
-96.9799259999999919
11
250.9118309999999781
21
-96.6052629999999937
0
LINE
8
BLACK
6
CONTINUOUS
10
250.9118309999999781
20
-96.6052629999999937
11
250.7696880000000021
21
-96.2422639999999916
0
LINE
8
BLACK
6
CONTINUOUS
10
250.7696880000000021
20
-96.2422639999999916
11
250.5943419999999833
21
-95.8940879999999964
0
LINE
8
BLACK
6
CONTINUOUS
10
250.5943419999999833
20
-95.8940879999999964
11
250.3873199999999883
21
-95.5637629999999945
0
LINE
8
BLACK
6
CONTINUOUS
10
250.3873199999999883
20
-95.5637629999999945
11
250.1504219999999918
21
-95.2541619999999938
0
LINE
8
BLACK
6
CONTINUOUS
10
250.1504219999999918
20
-95.2541619999999938
11
249.8857099999999889
21
-94.9679799999999972
0
LINE
8
BLACK
6
CONTINUOUS
10
249.8857099999999889
20
-94.9679799999999972
11
249.595485999999994
21
-94.7077060000000017
0
LINE
8
BLACK
6
CONTINUOUS
10
249.595485999999994
20
-94.7077060000000017
11
249.282274000000001
21
-94.4756039999999899
0
LINE
8
BLACK
6
CONTINUOUS
10
249.282274000000001
20
-94.4756039999999899
11
248.9488009999999747
21
-94.2736919999999969
0
LINE
8
BLACK
6
CONTINUOUS
10
248.9488009999999747
20
-94.2736919999999969
11
248.5979659999999853
21
-94.1037290000000013
0
LINE
8
BLACK
6
CONTINUOUS
10
248.5979659999999853
20
-94.1037290000000013
11
248.2328210000000013
21
-93.9671919999999972
0
LINE
8
BLACK
6
CONTINUOUS
10
248.2328210000000013
20
-93.9671919999999972
11
247.8565439999999853
21
-93.8652680000000004
0
LINE
8
BLACK
6
CONTINUOUS
10
247.8565439999999853
20
-93.8652680000000004
11
247.4724080000000015
21
-93.7988459999999975
0
LINE
8
BLACK
6
CONTINUOUS
10
247.4724080000000015
20
-93.7988459999999975
11
247.0837530000000015
21
-93.768501999999998
0
LINE
8
BLACK
6
CONTINUOUS
10
247.0837530000000015
20
-93.768501999999998
11
246.8888589999999965
21
-93.7715469999999982
  0
ENDSEC
  0
EOF
