%TF.GenerationSoftware,KiCad,Pcbnew,9.0.0*%
%TF.CreationDate,2025-07-04T19:45:24-07:00*%
%TF.ProjectId,bubby2,62756262-7932-42e6-9b69-6361645f7063,rev?*%
%TF.SameCoordinates,Original*%
%TF.FileFunction,Copper,L1,Top*%
%TF.FilePolarity,Positive*%
%FSLAX46Y46*%
G04 Gerber Fmt 4.6, Leading zero omitted, Abs format (unit mm)*
G04 Created by KiCad (PCBNEW 9.0.0) date 2025-07-04 19:45:24*
%MOMM*%
%LPD*%
G01*
G04 APERTURE LIST*
G04 Aperture macros list*
%AMRoundRect*
0 Rectangle with rounded corners*
0 $1 Rounding radius*
0 $2 $3 $4 $5 $6 $7 $8 $9 X,Y pos of 4 corners*
0 Add a 4 corners polygon primitive as box body*
4,1,4,$2,$3,$4,$5,$6,$7,$8,$9,$2,$3,0*
0 Add four circle primitives for the rounded corners*
1,1,$1+$1,$2,$3*
1,1,$1+$1,$4,$5*
1,1,$1+$1,$6,$7*
1,1,$1+$1,$8,$9*
0 Add four rect primitives between the rounded corners*
20,1,$1+$1,$2,$3,$4,$5,0*
20,1,$1+$1,$4,$5,$6,$7,0*
20,1,$1+$1,$6,$7,$8,$9,0*
20,1,$1+$1,$8,$9,$2,$3,0*%
G04 Aperture macros list end*
%TA.AperFunction,SMDPad,CuDef*%
%ADD10R,1.550000X1.000000*%
%TD*%
%TA.AperFunction,SMDPad,CuDef*%
%ADD11RoundRect,0.250000X1.000000X-0.375000X1.000000X0.375000X-1.000000X0.375000X-1.000000X-0.375000X0*%
%TD*%
%TA.AperFunction,SMDPad,CuDef*%
%ADD12R,1.000000X1.550000*%
%TD*%
%TA.AperFunction,SMDPad,CuDef*%
%ADD13R,1.500000X2.500000*%
%TD*%
%TA.AperFunction,Conductor*%
%ADD14C,0.500000*%
%TD*%
%TA.AperFunction,Conductor*%
%ADD15C,0.300000*%
%TD*%
G04 APERTURE END LIST*
D10*
%TO.P,SW1,1,A*%
%TO.N,Net-(A1-GPIO10)*%
X233985000Y-127045000D03*
X228735000Y-127045000D03*
%TO.P,SW1,2,B*%
%TO.N,GND*%
X233985000Y-125345000D03*
X228735000Y-125345000D03*
%TD*%
%TO.P,SW0,1,A*%
%TO.N,Net-(A1-GPIO15)*%
X247425000Y-127045000D03*
X242175000Y-127045000D03*
%TO.P,SW0,2,B*%
%TO.N,GND*%
X247425000Y-125345000D03*
X242175000Y-125345000D03*
%TD*%
%TO.P,SW2,1,A*%
%TO.N,Net-(A1-GPIO9)*%
X211960000Y-127060000D03*
X206710000Y-127060000D03*
%TO.P,SW2,2,B*%
%TO.N,GND*%
X211960000Y-125360000D03*
X206710000Y-125360000D03*
%TD*%
D11*
%TO.P,SW5,1,A*%
%TO.N,Net-(A1-3V3_EN)*%
X246210000Y-106100000D03*
%TO.P,SW5,2,B*%
%TO.N,GND*%
X246210000Y-103600000D03*
%TO.P,SW5,3,C*%
%TO.N,unconnected-(SW5A-C-Pad3)*%
X246210000Y-101100000D03*
%TD*%
D10*
%TO.P,SW3,1,A*%
%TO.N,Net-(A1-GPIO4)*%
X194925000Y-127045000D03*
X189675000Y-127045000D03*
%TO.P,SW3,2,B*%
%TO.N,GND*%
X194925000Y-125345000D03*
X189675000Y-125345000D03*
%TD*%
D12*
%TO.P,SW4,1,A*%
%TO.N,Net-(A1-GPIO14)*%
X249245000Y-115150000D03*
X249245000Y-120400000D03*
%TO.P,SW4,2,B*%
%TO.N,GND*%
X247545000Y-115150000D03*
X247545000Y-120400000D03*
%TD*%
D13*
%TO.P,A1,1,GPIO0*%
%TO.N,unconnected-(A1-GPIO0-Pad1)*%
X189420000Y-116500000D03*
%TO.P,A1,2,GPIO1*%
%TO.N,unconnected-(A1-GPIO1-Pad2)*%
X191960000Y-119800000D03*
%TO.P,A1,3,GND*%
%TO.N,GND*%
X194500000Y-116500000D03*
%TO.P,A1,4,GPIO2*%
%TO.N,unconnected-(A1-GPIO2-Pad4)*%
X197040000Y-119800000D03*
%TO.P,A1,5,GPIO3*%
%TO.N,unconnected-(A1-GPIO3-Pad5)*%
X199580000Y-116500000D03*
%TO.P,A1,6,GPIO4*%
%TO.N,Net-(A1-GPIO4)*%
X202120000Y-119800000D03*
%TO.P,A1,7,GPIO5*%
%TO.N,unconnected-(A1-GPIO5-Pad7)*%
X204660000Y-116500000D03*
%TO.P,A1,8,GND*%
%TO.N,GND*%
X207200000Y-119800000D03*
%TO.P,A1,9,GPIO6*%
%TO.N,unconnected-(A1-GPIO6-Pad9)*%
X209740000Y-116500000D03*
%TO.P,A1,10,GPIO7*%
%TO.N,unconnected-(A1-GPIO7-Pad10)*%
X212280000Y-119800000D03*
%TO.P,A1,11,GPIO8*%
%TO.N,unconnected-(A1-GPIO8-Pad11)*%
X214820000Y-116500000D03*
%TO.P,A1,12,GPIO9*%
%TO.N,Net-(A1-GPIO9)*%
X217360000Y-119800000D03*
%TO.P,A1,13,GND*%
%TO.N,GND*%
X219900000Y-116500000D03*
%TO.P,A1,14,GPIO10*%
%TO.N,Net-(A1-GPIO10)*%
X222440000Y-119800000D03*
%TO.P,A1,15,GPIO11*%
%TO.N,unconnected-(A1-GPIO11-Pad15)*%
X224980000Y-116500000D03*
%TO.P,A1,16,GPIO12*%
%TO.N,unconnected-(A1-GPIO12-Pad16)*%
X227520000Y-119800000D03*
%TO.P,A1,17,GPIO13*%
%TO.N,unconnected-(A1-GPIO13-Pad17)*%
X230060000Y-116500000D03*
%TO.P,A1,18,GND*%
%TO.N,GND*%
X232600000Y-119800000D03*
%TO.P,A1,19,GPIO14*%
%TO.N,Net-(A1-GPIO14)*%
X235140000Y-116500000D03*
%TO.P,A1,20,GPIO15*%
%TO.N,Net-(A1-GPIO15)*%
X237680000Y-119800000D03*
%TO.P,A1,21,GPIO16*%
%TO.N,unconnected-(A1-GPIO16-Pad21)*%
X237650000Y-100570000D03*
%TO.P,A1,22,GPIO17*%
%TO.N,unconnected-(A1-GPIO17-Pad22)*%
X235110000Y-97270000D03*
%TO.P,A1,23,GND*%
%TO.N,GND*%
X232570000Y-100570000D03*
%TO.P,A1,24,GPIO18*%
%TO.N,unconnected-(A1-GPIO18-Pad24)*%
X230030000Y-97270000D03*
%TO.P,A1,25,GPIO19*%
%TO.N,unconnected-(A1-GPIO19-Pad25)*%
X227490000Y-100570000D03*
%TO.P,A1,26,GPIO20*%
%TO.N,unconnected-(A1-GPIO20-Pad26)*%
X224950000Y-97270000D03*
%TO.P,A1,27,GPIO21*%
%TO.N,unconnected-(A1-GPIO21-Pad27)*%
X222410000Y-100570000D03*
%TO.P,A1,28,GND*%
%TO.N,GND*%
X219870000Y-97270000D03*
%TO.P,A1,29,GPIO22*%
%TO.N,unconnected-(A1-GPIO22-Pad29)*%
X217330000Y-100570000D03*
%TO.P,A1,30,RUN*%
%TO.N,unconnected-(A1-RUN-Pad30)*%
X214790000Y-97270000D03*
%TO.P,A1,31,GPIO26_ADC0*%
%TO.N,unconnected-(A1-GPIO26_ADC0-Pad31)*%
X212250000Y-100570000D03*
%TO.P,A1,32,GPIO27_ADC1*%
%TO.N,unconnected-(A1-GPIO27_ADC1-Pad32)*%
X209710000Y-97270000D03*
%TO.P,A1,33,AGND*%
%TO.N,unconnected-(A1-AGND-Pad33)*%
X207170000Y-100570000D03*
%TO.P,A1,34,GPIO28_ADC2*%
%TO.N,unconnected-(A1-GPIO28_ADC2-Pad34)*%
X204630000Y-97270000D03*
%TO.P,A1,35,ADC_VREF*%
%TO.N,unconnected-(A1-ADC_VREF-Pad35)*%
X202090000Y-100570000D03*
%TO.P,A1,36,3V3*%
%TO.N,unconnected-(A1-3V3-Pad36)*%
X199550000Y-97270000D03*
%TO.P,A1,37,3V3_EN*%
%TO.N,Net-(A1-3V3_EN)*%
X197010000Y-100570000D03*
%TO.P,A1,38,GND*%
%TO.N,GND*%
X194470000Y-97270000D03*
%TO.P,A1,39,VSYS*%
%TO.N,unconnected-(A1-VSYS-Pad39)*%
X191930000Y-100570000D03*
%TO.P,A1,40,VBUS*%
%TO.N,unconnected-(A1-VBUS-Pad40)*%
X189390000Y-97270000D03*
%TD*%
D14*
%TO.N,Net-(A1-3V3_EN)*%
X197010000Y-102690000D02*
X197010000Y-100570000D01*
X197000000Y-102700000D02*
X197010000Y-102690000D01*
X246600000Y-106100000D02*
X200400000Y-106100000D01*
X200400000Y-106100000D02*
X197000000Y-102700000D01*
D15*
%TO.N,Net-(A1-GPIO14)*%
X249245000Y-120400000D02*
X248700000Y-119855000D01*
D14*
X249245000Y-113445000D02*
X248500000Y-112700000D01*
D15*
X248700000Y-115695000D02*
X249245000Y-115150000D01*
D14*
X248500000Y-112700000D02*
X237050000Y-112700000D01*
X237050000Y-112700000D02*
X235140000Y-114610000D01*
D15*
X248700000Y-119855000D02*
X248700000Y-115695000D01*
D14*
X249245000Y-115150000D02*
X249245000Y-113445000D01*
X235140000Y-114610000D02*
X235140000Y-116500000D01*
%TO.N,Net-(A1-GPIO10)*%
X222440000Y-122740000D02*
X222440000Y-119800000D01*
D15*
X229280000Y-126500000D02*
X233440000Y-126500000D01*
X228735000Y-127045000D02*
X229280000Y-126500000D01*
X233440000Y-126500000D02*
X233985000Y-127045000D01*
D14*
X228735000Y-127045000D02*
X228730000Y-127050000D01*
X228730000Y-127050000D02*
X226750000Y-127050000D01*
X226750000Y-127050000D02*
X222440000Y-122740000D01*
D15*
%TO.N,Net-(A1-GPIO15)*%
X242720000Y-126500000D02*
X246880000Y-126500000D01*
D14*
X242225000Y-127025000D02*
X240225000Y-127025000D01*
D15*
X246880000Y-126500000D02*
X247425000Y-127045000D01*
X242175000Y-127045000D02*
X242720000Y-126500000D01*
D14*
X237680000Y-124480000D02*
X237680000Y-119800000D01*
X240225000Y-127025000D02*
X237680000Y-124480000D01*
D15*
%TO.N,Net-(A1-GPIO9)*%
X206710000Y-127060000D02*
X207270000Y-126500000D01*
D14*
X213700000Y-127000000D02*
X217360000Y-123340000D01*
X217360000Y-123340000D02*
X217360000Y-119800000D01*
X211950000Y-127075000D02*
X212025000Y-127000000D01*
D15*
X207270000Y-126500000D02*
X211400000Y-126500000D01*
D14*
X212025000Y-127000000D02*
X213700000Y-127000000D01*
D15*
X211400000Y-126500000D02*
X211960000Y-127060000D01*
%TO.N,Net-(A1-GPIO4)*%
X189675000Y-127045000D02*
X190220000Y-126500000D01*
D14*
X195000000Y-127000000D02*
X194925000Y-127075000D01*
X202120000Y-123680000D02*
X198800000Y-127000000D01*
D15*
X190220000Y-126500000D02*
X194380000Y-126500000D01*
X194380000Y-126500000D02*
X194925000Y-127045000D01*
D14*
X198800000Y-127000000D02*
X195000000Y-127000000D01*
X202120000Y-119800000D02*
X202120000Y-123680000D01*
%TD*%
%TA.AperFunction,Conductor*%
%TO.N,GND*%
G36*
X246899964Y-94247119D02*
G01*
X247256438Y-94259309D01*
X247268649Y-94260334D01*
X247619839Y-94307433D01*
X247631896Y-94309663D01*
X247976693Y-94391288D01*
X247988487Y-94394706D01*
X248323489Y-94510047D01*
X248334893Y-94514617D01*
X248404370Y-94546541D01*
X248656839Y-94662550D01*
X248667736Y-94668227D01*
X248973473Y-94847305D01*
X248983718Y-94854008D01*
X249270239Y-95062474D01*
X249279804Y-95070187D01*
X249544263Y-95305967D01*
X249553018Y-95314588D01*
X249792852Y-95575395D01*
X249800698Y-95584824D01*
X249991984Y-95839399D01*
X250013542Y-95868090D01*
X250020427Y-95878267D01*
X250204179Y-96181189D01*
X250210024Y-96191998D01*
X250362897Y-96511628D01*
X250367643Y-96522962D01*
X250488130Y-96856150D01*
X250491731Y-96867898D01*
X250578651Y-97211382D01*
X250581071Y-97223429D01*
X250633565Y-97573811D01*
X250634782Y-97586038D01*
X250652430Y-97941689D01*
X250652582Y-97947818D01*
X250652583Y-98011951D01*
X250652590Y-98011979D01*
X250652591Y-98019610D01*
X250652592Y-98019611D01*
X250656394Y-124609920D01*
X250655570Y-124624209D01*
X250655443Y-124625296D01*
X250655863Y-124652545D01*
X250656385Y-124686479D01*
X250656391Y-124686810D01*
X250656406Y-124688719D01*
X250656406Y-124690546D01*
X250656334Y-124694784D01*
X250644139Y-125051427D01*
X250643111Y-125063672D01*
X250596015Y-125414830D01*
X250593780Y-125426912D01*
X250512160Y-125771687D01*
X250508740Y-125783490D01*
X250393399Y-126118487D01*
X250388828Y-126129893D01*
X250240898Y-126451828D01*
X250235221Y-126462726D01*
X250056144Y-126768456D01*
X250049415Y-126778738D01*
X249840971Y-127065225D01*
X249833258Y-127074791D01*
X249597478Y-127339245D01*
X249588857Y-127348000D01*
X249328057Y-127587824D01*
X249318611Y-127595683D01*
X249035359Y-127808514D01*
X249025181Y-127815400D01*
X248722250Y-127999155D01*
X248711441Y-128004999D01*
X248391819Y-128157864D01*
X248380485Y-128162610D01*
X248047298Y-128283092D01*
X248035549Y-128286693D01*
X247692076Y-128373606D01*
X247680029Y-128376027D01*
X247329633Y-128428520D01*
X247317406Y-128429736D01*
X246960531Y-128447440D01*
X246954394Y-128447592D01*
X246891504Y-128447592D01*
X246891491Y-128447594D01*
X246885031Y-128447595D01*
X246885031Y-128447596D01*
X209450956Y-128450120D01*
X209383916Y-128430440D01*
X209338157Y-128377639D01*
X209336234Y-128364270D01*
X209336067Y-128367387D01*
X209295202Y-128424059D01*
X209230184Y-128449641D01*
X209219138Y-128450135D01*
X190435688Y-128451402D01*
X190435619Y-128451402D01*
X190423744Y-128451396D01*
X190419708Y-128450381D01*
X190355936Y-128451362D01*
X190354943Y-128451362D01*
X190354826Y-128451327D01*
X190350767Y-128451290D01*
X189993585Y-128439077D01*
X189981340Y-128438049D01*
X189630188Y-128390955D01*
X189618104Y-128388720D01*
X189273340Y-128307102D01*
X189261538Y-128303682D01*
X188926543Y-128188343D01*
X188915137Y-128183772D01*
X188593203Y-128035843D01*
X188582306Y-128030166D01*
X188276597Y-127851103D01*
X188266314Y-127844375D01*
X188199780Y-127795966D01*
X187979809Y-127635919D01*
X187970255Y-127628214D01*
X187705803Y-127392439D01*
X187697048Y-127383818D01*
X187457229Y-127123023D01*
X187449370Y-127113577D01*
X187387089Y-127030689D01*
X187236539Y-126830326D01*
X187229656Y-126820153D01*
X187208752Y-126785692D01*
X187047781Y-126520321D01*
X188649500Y-126520321D01*
X188649500Y-127569678D01*
X188664032Y-127642735D01*
X188664033Y-127642739D01*
X188682405Y-127670235D01*
X188719399Y-127725601D01*
X188782023Y-127767444D01*
X188802260Y-127780966D01*
X188802264Y-127780967D01*
X188875321Y-127795499D01*
X188875324Y-127795500D01*
X188875326Y-127795500D01*
X190474676Y-127795500D01*
X190474677Y-127795499D01*
X190547740Y-127780966D01*
X190630601Y-127725601D01*
X190685966Y-127642740D01*
X190700500Y-127569674D01*
X190700500Y-127024500D01*
X190720185Y-126957461D01*
X190772989Y-126911706D01*
X190824500Y-126900500D01*
X191785546Y-126900500D01*
X191852585Y-126920185D01*
X191898340Y-126972989D01*
X191908284Y-127042147D01*
X191879259Y-127105703D01*
X191873227Y-127112181D01*
X191814144Y-127171263D01*
X191814141Y-127171267D01*
X191745692Y-127273707D01*
X191745687Y-127273716D01*
X191698538Y-127387545D01*
X191698535Y-127387555D01*
X191674500Y-127508389D01*
X191674500Y-127631610D01*
X191698535Y-127752444D01*
X191698538Y-127752454D01*
X191745687Y-127866283D01*
X191745692Y-127866292D01*
X191814141Y-127968732D01*
X191814144Y-127968736D01*
X191901263Y-128055855D01*
X191901267Y-128055858D01*
X192003707Y-128124307D01*
X192003713Y-128124310D01*
X192003714Y-128124311D01*
X192117548Y-128171463D01*
X192238389Y-128195499D01*
X192238393Y-128195500D01*
X192238394Y-128195500D01*
X192361607Y-128195500D01*
X192361608Y-128195499D01*
X192482452Y-128171463D01*
X192596286Y-128124311D01*
X192698733Y-128055858D01*
X192785858Y-127968733D01*
X192854311Y-127866286D01*
X192901463Y-127752452D01*
X192925500Y-127631606D01*
X192925500Y-127508394D01*
X192901463Y-127387548D01*
X192854311Y-127273714D01*
X192854310Y-127273713D01*
X192854307Y-127273707D01*
X192785858Y-127171267D01*
X192785855Y-127171263D01*
X192726773Y-127112181D01*
X192693288Y-127050858D01*
X192698272Y-126981166D01*
X192740144Y-126925233D01*
X192805608Y-126900816D01*
X192814454Y-126900500D01*
X193775500Y-126900500D01*
X193842539Y-126920185D01*
X193888294Y-126972989D01*
X193899500Y-127024500D01*
X193899500Y-127569678D01*
X193914032Y-127642735D01*
X193914033Y-127642739D01*
X193932405Y-127670235D01*
X193969399Y-127725601D01*
X194032023Y-127767444D01*
X194052260Y-127780966D01*
X194052264Y-127780967D01*
X194125321Y-127795499D01*
X194125324Y-127795500D01*
X194125326Y-127795500D01*
X195724676Y-127795500D01*
X195724677Y-127795499D01*
X195797740Y-127780966D01*
X195880601Y-127725601D01*
X195935966Y-127642740D01*
X195938181Y-127631606D01*
X195944407Y-127600308D01*
X195976792Y-127538397D01*
X196037508Y-127503823D01*
X196066024Y-127500500D01*
X198865890Y-127500500D01*
X198865892Y-127500500D01*
X198993186Y-127466392D01*
X199107314Y-127400500D01*
X199972493Y-126535321D01*
X205684500Y-126535321D01*
X205684500Y-127584678D01*
X205699032Y-127657735D01*
X205699033Y-127657739D01*
X205699034Y-127657740D01*
X205754399Y-127740601D01*
X205814811Y-127780966D01*
X205837260Y-127795966D01*
X205837264Y-127795967D01*
X205910321Y-127810499D01*
X205910324Y-127810500D01*
X205910326Y-127810500D01*
X207509676Y-127810500D01*
X207509677Y-127810499D01*
X207582740Y-127795966D01*
X207665601Y-127740601D01*
X207720966Y-127657740D01*
X207735500Y-127584674D01*
X207735500Y-127024500D01*
X207755185Y-126957461D01*
X207807989Y-126911706D01*
X207859500Y-126900500D01*
X208835546Y-126900500D01*
X208902585Y-126920185D01*
X208948340Y-126972989D01*
X208958284Y-127042147D01*
X208929259Y-127105703D01*
X208923227Y-127112181D01*
X208849144Y-127186263D01*
X208849141Y-127186267D01*
X208780692Y-127288707D01*
X208780687Y-127288716D01*
X208733538Y-127402545D01*
X208733535Y-127402555D01*
X208709500Y-127523389D01*
X208709500Y-127646610D01*
X208733535Y-127767444D01*
X208733538Y-127767454D01*
X208780687Y-127881283D01*
X208780692Y-127881292D01*
X208849141Y-127983732D01*
X208849144Y-127983736D01*
X208936263Y-128070855D01*
X208936267Y-128070858D01*
X209038707Y-128139307D01*
X209038713Y-128139310D01*
X209038714Y-128139311D01*
X209152548Y-128186463D01*
X209243323Y-128204518D01*
X209305231Y-128236902D01*
X209336122Y-128291149D01*
X209357230Y-128244924D01*
X209416005Y-128207145D01*
X209426745Y-128204505D01*
X209517452Y-128186463D01*
X209631286Y-128139311D01*
X209733733Y-128070858D01*
X209820858Y-127983733D01*
X209889311Y-127881286D01*
X209936463Y-127767452D01*
X209960500Y-127646606D01*
X209960500Y-127523394D01*
X209936463Y-127402548D01*
X209889311Y-127288714D01*
X209889310Y-127288713D01*
X209889307Y-127288707D01*
X209820858Y-127186267D01*
X209820855Y-127186263D01*
X209746773Y-127112181D01*
X209713288Y-127050858D01*
X209718272Y-126981166D01*
X209760144Y-126925233D01*
X209825608Y-126900816D01*
X209834454Y-126900500D01*
X210810500Y-126900500D01*
X210877539Y-126920185D01*
X210923294Y-126972989D01*
X210934500Y-127024500D01*
X210934500Y-127584678D01*
X210949032Y-127657735D01*
X210949033Y-127657739D01*
X210949034Y-127657740D01*
X211004399Y-127740601D01*
X211064811Y-127780966D01*
X211087260Y-127795966D01*
X211087264Y-127795967D01*
X211160321Y-127810499D01*
X211160324Y-127810500D01*
X211160326Y-127810500D01*
X212759676Y-127810500D01*
X212759677Y-127810499D01*
X212832740Y-127795966D01*
X212915601Y-127740601D01*
X212970966Y-127657740D01*
X212976164Y-127631610D01*
X212982391Y-127600308D01*
X213014776Y-127538397D01*
X213075492Y-127503823D01*
X213104008Y-127500500D01*
X213765890Y-127500500D01*
X213765892Y-127500500D01*
X213893186Y-127466392D01*
X214007314Y-127400500D01*
X216430749Y-124977065D01*
X218249500Y-124977065D01*
X218249500Y-125222934D01*
X218271405Y-125389307D01*
X218281591Y-125466677D01*
X218331992Y-125654777D01*
X218345222Y-125704152D01*
X218345225Y-125704162D01*
X218419976Y-125884626D01*
X218439306Y-125931292D01*
X218562233Y-126144208D01*
X218562235Y-126144211D01*
X218562236Y-126144212D01*
X218711897Y-126339254D01*
X218711903Y-126339261D01*
X218885738Y-126513096D01*
X218885745Y-126513102D01*
X218914708Y-126535326D01*
X219080792Y-126662767D01*
X219293708Y-126785694D01*
X219520847Y-126879778D01*
X219758323Y-126943409D01*
X220002073Y-126975500D01*
X220002080Y-126975500D01*
X220247920Y-126975500D01*
X220247927Y-126975500D01*
X220491677Y-126943409D01*
X220729153Y-126879778D01*
X220956292Y-126785694D01*
X221169208Y-126662767D01*
X221364256Y-126513101D01*
X221538101Y-126339256D01*
X221687767Y-126144208D01*
X221810694Y-125931292D01*
X221904778Y-125704153D01*
X221968409Y-125466677D01*
X222000500Y-125222927D01*
X222000500Y-124977073D01*
X221968409Y-124733323D01*
X221904778Y-124495847D01*
X221810694Y-124268708D01*
X221687767Y-124055792D01*
X221538101Y-123860744D01*
X221538096Y-123860738D01*
X221364261Y-123686903D01*
X221364254Y-123686897D01*
X221169212Y-123537236D01*
X221169211Y-123537235D01*
X221169208Y-123537233D01*
X220956292Y-123414306D01*
X220935979Y-123405892D01*
X220729162Y-123320225D01*
X220729155Y-123320223D01*
X220729153Y-123320222D01*
X220491677Y-123256591D01*
X220450939Y-123251227D01*
X220247934Y-123224500D01*
X220247927Y-123224500D01*
X220002073Y-123224500D01*
X220002065Y-123224500D01*
X219770059Y-123255045D01*
X219758323Y-123256591D01*
X219692952Y-123274107D01*
X219520847Y-123320222D01*
X219520837Y-123320225D01*
X219293714Y-123414303D01*
X219293705Y-123414307D01*
X219080787Y-123537236D01*
X218885745Y-123686897D01*
X218885738Y-123686903D01*
X218711903Y-123860738D01*
X218711897Y-123860745D01*
X218562236Y-124055787D01*
X218439307Y-124268705D01*
X218439303Y-124268714D01*
X218345225Y-124495837D01*
X218345222Y-124495847D01*
X218291918Y-124694784D01*
X218281592Y-124733320D01*
X218281590Y-124733331D01*
X218249500Y-124977065D01*
X216430749Y-124977065D01*
X217760500Y-123647314D01*
X217826392Y-123533186D01*
X217860500Y-123405892D01*
X217860500Y-123274107D01*
X217860500Y-121424500D01*
X217880185Y-121357461D01*
X217932989Y-121311706D01*
X217984500Y-121300500D01*
X218134676Y-121300500D01*
X218134677Y-121300499D01*
X218207740Y-121285966D01*
X218290601Y-121230601D01*
X218345966Y-121147740D01*
X218360500Y-121074674D01*
X218360500Y-118525326D01*
X218360500Y-118525323D01*
X218360499Y-118525321D01*
X221439500Y-118525321D01*
X221439500Y-121074678D01*
X221454032Y-121147735D01*
X221454033Y-121147739D01*
X221454034Y-121147740D01*
X221509399Y-121230601D01*
X221572277Y-121272614D01*
X221592260Y-121285966D01*
X221592264Y-121285967D01*
X221665321Y-121300499D01*
X221665324Y-121300500D01*
X221665326Y-121300500D01*
X221815500Y-121300500D01*
X221882539Y-121320185D01*
X221928294Y-121372989D01*
X221939500Y-121424500D01*
X221939500Y-122805891D01*
X221973608Y-122933187D01*
X222006554Y-122990250D01*
X222039500Y-123047314D01*
X226349500Y-127357314D01*
X226442686Y-127450500D01*
X226513511Y-127491391D01*
X226513513Y-127491392D01*
X226513514Y-127491393D01*
X226556808Y-127516389D01*
X226556809Y-127516389D01*
X226556814Y-127516392D01*
X226684107Y-127550500D01*
X226684108Y-127550500D01*
X227603922Y-127550500D01*
X227670961Y-127570185D01*
X227716716Y-127622989D01*
X227719769Y-127632444D01*
X227724033Y-127642739D01*
X227742405Y-127670235D01*
X227779399Y-127725601D01*
X227842023Y-127767444D01*
X227862260Y-127780966D01*
X227862264Y-127780967D01*
X227935321Y-127795499D01*
X227935324Y-127795500D01*
X227935326Y-127795500D01*
X229534676Y-127795500D01*
X229534677Y-127795499D01*
X229607740Y-127780966D01*
X229690601Y-127725601D01*
X229745966Y-127642740D01*
X229760500Y-127569674D01*
X229760500Y-127024500D01*
X229780185Y-126957461D01*
X229832989Y-126911706D01*
X229884500Y-126900500D01*
X230845546Y-126900500D01*
X230912585Y-126920185D01*
X230958340Y-126972989D01*
X230968284Y-127042147D01*
X230939259Y-127105703D01*
X230933227Y-127112181D01*
X230874144Y-127171263D01*
X230874141Y-127171267D01*
X230805692Y-127273707D01*
X230805687Y-127273716D01*
X230758538Y-127387545D01*
X230758535Y-127387555D01*
X230734500Y-127508389D01*
X230734500Y-127631610D01*
X230758535Y-127752444D01*
X230758538Y-127752454D01*
X230805687Y-127866283D01*
X230805692Y-127866292D01*
X230874141Y-127968732D01*
X230874144Y-127968736D01*
X230961263Y-128055855D01*
X230961267Y-128055858D01*
X231063707Y-128124307D01*
X231063713Y-128124310D01*
X231063714Y-128124311D01*
X231177548Y-128171463D01*
X231298389Y-128195499D01*
X231298393Y-128195500D01*
X231298394Y-128195500D01*
X231421607Y-128195500D01*
X231421608Y-128195499D01*
X231542452Y-128171463D01*
X231656286Y-128124311D01*
X231758733Y-128055858D01*
X231845858Y-127968733D01*
X231914311Y-127866286D01*
X231961463Y-127752452D01*
X231985500Y-127631606D01*
X231985500Y-127508394D01*
X231961463Y-127387548D01*
X231914311Y-127273714D01*
X231914310Y-127273713D01*
X231914307Y-127273707D01*
X231845858Y-127171267D01*
X231845855Y-127171263D01*
X231786773Y-127112181D01*
X231753288Y-127050858D01*
X231758272Y-126981166D01*
X231800144Y-126925233D01*
X231865608Y-126900816D01*
X231874454Y-126900500D01*
X232835500Y-126900500D01*
X232902539Y-126920185D01*
X232948294Y-126972989D01*
X232959500Y-127024500D01*
X232959500Y-127569678D01*
X232974032Y-127642735D01*
X232974033Y-127642739D01*
X232992405Y-127670235D01*
X233029399Y-127725601D01*
X233092023Y-127767444D01*
X233112260Y-127780966D01*
X233112264Y-127780967D01*
X233185321Y-127795499D01*
X233185324Y-127795500D01*
X233185326Y-127795500D01*
X234784676Y-127795500D01*
X234784677Y-127795499D01*
X234857740Y-127780966D01*
X234940601Y-127725601D01*
X234995966Y-127642740D01*
X235010500Y-127569674D01*
X235010500Y-126520326D01*
X235010500Y-126520323D01*
X235010499Y-126520321D01*
X234995967Y-126447264D01*
X234995966Y-126447260D01*
X234994048Y-126444390D01*
X234940601Y-126364399D01*
X234857740Y-126309034D01*
X234857739Y-126309033D01*
X234847585Y-126302249D01*
X234848294Y-126301186D01*
X234803938Y-126265436D01*
X234781878Y-126199140D01*
X234799162Y-126131442D01*
X234850302Y-126083835D01*
X234857385Y-126080600D01*
X234940239Y-126025239D01*
X234995494Y-125942544D01*
X234995496Y-125942540D01*
X235009999Y-125869628D01*
X235010000Y-125869626D01*
X235010000Y-125845000D01*
X232960000Y-125845000D01*
X232960000Y-125869628D01*
X232976247Y-125951309D01*
X232970020Y-126020901D01*
X232927156Y-126076078D01*
X232861266Y-126099322D01*
X232854630Y-126099500D01*
X229865370Y-126099500D01*
X229798331Y-126079815D01*
X229752576Y-126027011D01*
X229742632Y-125957853D01*
X229743753Y-125951309D01*
X229759999Y-125869628D01*
X229760000Y-125869626D01*
X229760000Y-125845000D01*
X227710000Y-125845000D01*
X227710000Y-125869628D01*
X227724503Y-125942540D01*
X227724505Y-125942544D01*
X227779760Y-126025239D01*
X227872610Y-126087280D01*
X227871866Y-126088393D01*
X227916054Y-126124000D01*
X227938121Y-126190293D01*
X227920844Y-126257993D01*
X227869708Y-126305605D01*
X227862390Y-126308947D01*
X227779399Y-126364399D01*
X227724034Y-126447260D01*
X227723551Y-126449689D01*
X227721037Y-126454494D01*
X227719360Y-126458544D01*
X227718997Y-126458393D01*
X227691167Y-126511600D01*
X227630452Y-126546176D01*
X227601933Y-126549500D01*
X227008676Y-126549500D01*
X226941637Y-126529815D01*
X226920995Y-126513181D01*
X225228185Y-124820371D01*
X227710000Y-124820371D01*
X227710000Y-124845000D01*
X228235000Y-124845000D01*
X229235000Y-124845000D01*
X229760000Y-124845000D01*
X229760000Y-124820373D01*
X229759999Y-124820371D01*
X229751272Y-124776493D01*
X229747670Y-124758389D01*
X230734500Y-124758389D01*
X230734500Y-124881610D01*
X230758535Y-125002444D01*
X230758538Y-125002454D01*
X230805687Y-125116283D01*
X230805692Y-125116292D01*
X230874141Y-125218732D01*
X230874144Y-125218736D01*
X230961263Y-125305855D01*
X230961267Y-125305858D01*
X231063707Y-125374307D01*
X231063713Y-125374310D01*
X231063714Y-125374311D01*
X231177548Y-125421463D01*
X231252966Y-125436464D01*
X231298389Y-125445499D01*
X231298393Y-125445500D01*
X231298394Y-125445500D01*
X231421607Y-125445500D01*
X231421608Y-125445499D01*
X231542452Y-125421463D01*
X231656286Y-125374311D01*
X231758733Y-125305858D01*
X231845858Y-125218733D01*
X231914311Y-125116286D01*
X231961463Y-125002452D01*
X231985500Y-124881606D01*
X231985500Y-124820371D01*
X232960000Y-124820371D01*
X232960000Y-124845000D01*
X233485000Y-124845000D01*
X234485000Y-124845000D01*
X235010000Y-124845000D01*
X235010000Y-124820373D01*
X235009999Y-124820371D01*
X234995496Y-124747459D01*
X234995494Y-124747455D01*
X234940239Y-124664760D01*
X234857544Y-124609505D01*
X234857540Y-124609503D01*
X234784627Y-124595000D01*
X234485000Y-124595000D01*
X234485000Y-124845000D01*
X233485000Y-124845000D01*
X233485000Y-124595000D01*
X233185373Y-124595000D01*
X233112459Y-124609503D01*
X233112455Y-124609505D01*
X233029760Y-124664760D01*
X232974505Y-124747455D01*
X232974503Y-124747459D01*
X232960000Y-124820371D01*
X231985500Y-124820371D01*
X231985500Y-124758394D01*
X231961463Y-124637548D01*
X231914311Y-124523714D01*
X231914310Y-124523713D01*
X231914307Y-124523707D01*
X231845858Y-124421267D01*
X231845855Y-124421263D01*
X231758736Y-124334144D01*
X231758732Y-124334141D01*
X231656292Y-124265692D01*
X231656283Y-124265687D01*
X231542454Y-124218538D01*
X231542455Y-124218538D01*
X231542452Y-124218537D01*
X231542448Y-124218536D01*
X231542444Y-124218535D01*
X231421610Y-124194500D01*
X231421606Y-124194500D01*
X231298394Y-124194500D01*
X231298389Y-124194500D01*
X231177555Y-124218535D01*
X231177545Y-124218538D01*
X231063716Y-124265687D01*
X231063707Y-124265692D01*
X230961267Y-124334141D01*
X230961263Y-124334144D01*
X230874144Y-124421263D01*
X230874141Y-124421267D01*
X230805692Y-124523707D01*
X230805687Y-124523716D01*
X230758538Y-124637545D01*
X230758535Y-124637555D01*
X230734500Y-124758389D01*
X229747670Y-124758389D01*
X229745496Y-124747459D01*
X229745494Y-124747455D01*
X229690239Y-124664760D01*
X229607544Y-124609505D01*
X229607540Y-124609503D01*
X229534627Y-124595000D01*
X229235000Y-124595000D01*
X229235000Y-124845000D01*
X228235000Y-124845000D01*
X228235000Y-124595000D01*
X227935373Y-124595000D01*
X227862459Y-124609503D01*
X227862455Y-124609505D01*
X227779760Y-124664760D01*
X227724505Y-124747455D01*
X227724503Y-124747459D01*
X227710000Y-124820371D01*
X225228185Y-124820371D01*
X222976819Y-122569005D01*
X222943334Y-122507682D01*
X222940500Y-122481324D01*
X222940500Y-121424500D01*
X222960185Y-121357461D01*
X223012989Y-121311706D01*
X223064500Y-121300500D01*
X223214676Y-121300500D01*
X223214677Y-121300499D01*
X223287740Y-121285966D01*
X223370601Y-121230601D01*
X223425966Y-121147740D01*
X223440500Y-121074674D01*
X223440500Y-118525326D01*
X223440500Y-118525323D01*
X223440499Y-118525321D01*
X226519500Y-118525321D01*
X226519500Y-121074678D01*
X226534032Y-121147735D01*
X226534033Y-121147739D01*
X226534034Y-121147740D01*
X226589399Y-121230601D01*
X226652277Y-121272614D01*
X226672260Y-121285966D01*
X226672264Y-121285967D01*
X226745321Y-121300499D01*
X226745324Y-121300500D01*
X226745326Y-121300500D01*
X228294676Y-121300500D01*
X228294677Y-121300499D01*
X228367740Y-121285966D01*
X228450601Y-121230601D01*
X228505966Y-121147740D01*
X228520500Y-121074674D01*
X228520500Y-121074628D01*
X231600000Y-121074628D01*
X231614503Y-121147540D01*
X231614505Y-121147544D01*
X231669760Y-121230239D01*
X231752455Y-121285494D01*
X231752459Y-121285496D01*
X231825371Y-121299999D01*
X231825374Y-121300000D01*
X232100000Y-121300000D01*
X233100000Y-121300000D01*
X233374626Y-121300000D01*
X233374628Y-121299999D01*
X233447540Y-121285496D01*
X233447544Y-121285494D01*
X233530239Y-121230239D01*
X233585494Y-121147544D01*
X233585496Y-121147540D01*
X233599999Y-121074628D01*
X233600000Y-121074626D01*
X233600000Y-120300000D01*
X233100000Y-120300000D01*
X233100000Y-121300000D01*
X232100000Y-121300000D01*
X232100000Y-120300000D01*
X231600000Y-120300000D01*
X231600000Y-121074628D01*
X228520500Y-121074628D01*
X228520500Y-118525371D01*
X231600000Y-118525371D01*
X231600000Y-119300000D01*
X232100000Y-119300000D01*
X233100000Y-119300000D01*
X233600000Y-119300000D01*
X233600000Y-118525372D01*
X233599990Y-118525321D01*
X236679500Y-118525321D01*
X236679500Y-121074678D01*
X236694032Y-121147735D01*
X236694033Y-121147739D01*
X236694034Y-121147740D01*
X236749399Y-121230601D01*
X236812277Y-121272614D01*
X236832260Y-121285966D01*
X236832264Y-121285967D01*
X236905321Y-121300499D01*
X236905324Y-121300500D01*
X236905326Y-121300500D01*
X237055500Y-121300500D01*
X237122539Y-121320185D01*
X237168294Y-121372989D01*
X237179500Y-121424500D01*
X237179500Y-124545891D01*
X237213608Y-124673187D01*
X237246554Y-124730250D01*
X237279500Y-124787314D01*
X239824500Y-127332314D01*
X239917686Y-127425500D01*
X240031814Y-127491392D01*
X240159108Y-127525500D01*
X240290893Y-127525500D01*
X241038949Y-127525500D01*
X241105988Y-127545185D01*
X241151743Y-127597989D01*
X241160566Y-127625309D01*
X241164032Y-127642735D01*
X241164033Y-127642739D01*
X241182405Y-127670235D01*
X241219399Y-127725601D01*
X241282023Y-127767444D01*
X241302260Y-127780966D01*
X241302264Y-127780967D01*
X241375321Y-127795499D01*
X241375324Y-127795500D01*
X241375326Y-127795500D01*
X242974676Y-127795500D01*
X242974677Y-127795499D01*
X243047740Y-127780966D01*
X243130601Y-127725601D01*
X243185966Y-127642740D01*
X243200500Y-127569674D01*
X243200500Y-127024500D01*
X243220185Y-126957461D01*
X243272989Y-126911706D01*
X243324500Y-126900500D01*
X244285546Y-126900500D01*
X244352585Y-126920185D01*
X244398340Y-126972989D01*
X244408284Y-127042147D01*
X244379259Y-127105703D01*
X244373227Y-127112181D01*
X244314144Y-127171263D01*
X244314141Y-127171267D01*
X244245692Y-127273707D01*
X244245687Y-127273716D01*
X244198538Y-127387545D01*
X244198535Y-127387555D01*
X244174500Y-127508389D01*
X244174500Y-127631610D01*
X244198535Y-127752444D01*
X244198538Y-127752454D01*
X244245687Y-127866283D01*
X244245692Y-127866292D01*
X244314141Y-127968732D01*
X244314144Y-127968736D01*
X244401263Y-128055855D01*
X244401267Y-128055858D01*
X244503707Y-128124307D01*
X244503713Y-128124310D01*
X244503714Y-128124311D01*
X244617548Y-128171463D01*
X244738389Y-128195499D01*
X244738393Y-128195500D01*
X244738394Y-128195500D01*
X244861607Y-128195500D01*
X244861608Y-128195499D01*
X244982452Y-128171463D01*
X245096286Y-128124311D01*
X245198733Y-128055858D01*
X245285858Y-127968733D01*
X245354311Y-127866286D01*
X245401463Y-127752452D01*
X245425500Y-127631606D01*
X245425500Y-127508394D01*
X245401463Y-127387548D01*
X245354311Y-127273714D01*
X245354310Y-127273713D01*
X245354307Y-127273707D01*
X245285858Y-127171267D01*
X245285855Y-127171263D01*
X245226773Y-127112181D01*
X245193288Y-127050858D01*
X245198272Y-126981166D01*
X245240144Y-126925233D01*
X245305608Y-126900816D01*
X245314454Y-126900500D01*
X246275500Y-126900500D01*
X246342539Y-126920185D01*
X246388294Y-126972989D01*
X246399500Y-127024500D01*
X246399500Y-127569678D01*
X246414032Y-127642735D01*
X246414033Y-127642739D01*
X246432405Y-127670235D01*
X246469399Y-127725601D01*
X246532023Y-127767444D01*
X246552260Y-127780966D01*
X246552264Y-127780967D01*
X246625321Y-127795499D01*
X246625324Y-127795500D01*
X246625326Y-127795500D01*
X248224676Y-127795500D01*
X248224677Y-127795499D01*
X248297740Y-127780966D01*
X248380601Y-127725601D01*
X248435966Y-127642740D01*
X248450500Y-127569674D01*
X248450500Y-126520326D01*
X248450500Y-126520323D01*
X248450499Y-126520321D01*
X248435967Y-126447264D01*
X248435966Y-126447260D01*
X248434048Y-126444390D01*
X248380601Y-126364399D01*
X248297740Y-126309034D01*
X248297739Y-126309033D01*
X248287585Y-126302249D01*
X248288294Y-126301186D01*
X248243938Y-126265436D01*
X248221878Y-126199140D01*
X248239162Y-126131442D01*
X248290302Y-126083835D01*
X248297385Y-126080600D01*
X248380239Y-126025239D01*
X248435494Y-125942544D01*
X248435496Y-125942540D01*
X248449999Y-125869628D01*
X248450000Y-125869626D01*
X248450000Y-125845000D01*
X246400000Y-125845000D01*
X246400000Y-125869628D01*
X246416247Y-125951309D01*
X246410020Y-126020901D01*
X246367156Y-126076078D01*
X246301266Y-126099322D01*
X246294630Y-126099500D01*
X243305370Y-126099500D01*
X243238331Y-126079815D01*
X243192576Y-126027011D01*
X243182632Y-125957853D01*
X243183753Y-125951309D01*
X243199999Y-125869628D01*
X243200000Y-125869626D01*
X243200000Y-125845000D01*
X241150000Y-125845000D01*
X241150000Y-125869628D01*
X241164503Y-125942540D01*
X241164505Y-125942544D01*
X241219760Y-126025239D01*
X241312610Y-126087280D01*
X241311866Y-126088393D01*
X241356054Y-126124000D01*
X241378121Y-126190293D01*
X241360844Y-126257993D01*
X241309708Y-126305605D01*
X241302390Y-126308947D01*
X241219399Y-126364399D01*
X241164034Y-126447260D01*
X241163748Y-126447951D01*
X241162721Y-126449225D01*
X241157249Y-126457415D01*
X241156516Y-126456925D01*
X241119908Y-126502355D01*
X241053614Y-126524421D01*
X241049186Y-126524500D01*
X240483676Y-126524500D01*
X240416637Y-126504815D01*
X240395995Y-126488181D01*
X238728185Y-124820371D01*
X241150000Y-124820371D01*
X241150000Y-124845000D01*
X241675000Y-124845000D01*
X242675000Y-124845000D01*
X243200000Y-124845000D01*
X243200000Y-124820373D01*
X243199999Y-124820371D01*
X243191272Y-124776493D01*
X243187670Y-124758389D01*
X244174500Y-124758389D01*
X244174500Y-124881610D01*
X244198535Y-125002444D01*
X244198538Y-125002454D01*
X244245687Y-125116283D01*
X244245692Y-125116292D01*
X244314141Y-125218732D01*
X244314144Y-125218736D01*
X244401263Y-125305855D01*
X244401267Y-125305858D01*
X244503707Y-125374307D01*
X244503713Y-125374310D01*
X244503714Y-125374311D01*
X244617548Y-125421463D01*
X244692966Y-125436464D01*
X244738389Y-125445499D01*
X244738393Y-125445500D01*
X244738394Y-125445500D01*
X244861607Y-125445500D01*
X244861608Y-125445499D01*
X244982452Y-125421463D01*
X245096286Y-125374311D01*
X245198733Y-125305858D01*
X245285858Y-125218733D01*
X245354311Y-125116286D01*
X245401463Y-125002452D01*
X245425500Y-124881606D01*
X245425500Y-124820371D01*
X246400000Y-124820371D01*
X246400000Y-124845000D01*
X246925000Y-124845000D01*
X247925000Y-124845000D01*
X248450000Y-124845000D01*
X248450000Y-124820373D01*
X248449999Y-124820371D01*
X248435496Y-124747459D01*
X248435494Y-124747455D01*
X248380239Y-124664760D01*
X248297544Y-124609505D01*
X248297540Y-124609503D01*
X248224627Y-124595000D01*
X247925000Y-124595000D01*
X247925000Y-124845000D01*
X246925000Y-124845000D01*
X246925000Y-124595000D01*
X246625373Y-124595000D01*
X246552459Y-124609503D01*
X246552455Y-124609505D01*
X246469760Y-124664760D01*
X246414505Y-124747455D01*
X246414503Y-124747459D01*
X246400000Y-124820371D01*
X245425500Y-124820371D01*
X245425500Y-124758394D01*
X245401463Y-124637548D01*
X245354311Y-124523714D01*
X245354310Y-124523713D01*
X245354307Y-124523707D01*
X245285858Y-124421267D01*
X245285855Y-124421263D01*
X245198736Y-124334144D01*
X245198732Y-124334141D01*
X245096292Y-124265692D01*
X245096283Y-124265687D01*
X244982454Y-124218538D01*
X244982455Y-124218538D01*
X244982452Y-124218537D01*
X244982448Y-124218536D01*
X244982444Y-124218535D01*
X244861610Y-124194500D01*
X244861606Y-124194500D01*
X244738394Y-124194500D01*
X244738389Y-124194500D01*
X244617555Y-124218535D01*
X244617545Y-124218538D01*
X244503716Y-124265687D01*
X244503707Y-124265692D01*
X244401267Y-124334141D01*
X244401263Y-124334144D01*
X244314144Y-124421263D01*
X244314141Y-124421267D01*
X244245692Y-124523707D01*
X244245687Y-124523716D01*
X244198538Y-124637545D01*
X244198535Y-124637555D01*
X244174500Y-124758389D01*
X243187670Y-124758389D01*
X243185496Y-124747459D01*
X243185494Y-124747455D01*
X243130239Y-124664760D01*
X243047544Y-124609505D01*
X243047540Y-124609503D01*
X242974627Y-124595000D01*
X242675000Y-124595000D01*
X242675000Y-124845000D01*
X241675000Y-124845000D01*
X241675000Y-124595000D01*
X241375373Y-124595000D01*
X241302459Y-124609503D01*
X241302455Y-124609505D01*
X241219760Y-124664760D01*
X241164505Y-124747455D01*
X241164503Y-124747459D01*
X241150000Y-124820371D01*
X238728185Y-124820371D01*
X238216819Y-124309005D01*
X238183334Y-124247682D01*
X238180500Y-124221324D01*
X238180500Y-121424500D01*
X238200185Y-121357461D01*
X238252989Y-121311706D01*
X238304500Y-121300500D01*
X238454676Y-121300500D01*
X238454677Y-121300499D01*
X238527740Y-121285966D01*
X238610601Y-121230601D01*
X238665966Y-121147740D01*
X238680500Y-121074674D01*
X238680500Y-120252065D01*
X240949500Y-120252065D01*
X240949500Y-120497934D01*
X240966737Y-120628854D01*
X240981591Y-120741677D01*
X241031992Y-120929777D01*
X241045222Y-120979152D01*
X241045225Y-120979162D01*
X241139301Y-121206281D01*
X241139307Y-121206294D01*
X241146612Y-121218947D01*
X241262233Y-121419208D01*
X241262235Y-121419211D01*
X241262236Y-121419212D01*
X241411897Y-121614254D01*
X241411903Y-121614261D01*
X241585738Y-121788096D01*
X241585744Y-121788101D01*
X241780792Y-121937767D01*
X241993708Y-122060694D01*
X242220847Y-122154778D01*
X242458323Y-122218409D01*
X242702073Y-122250500D01*
X242702080Y-122250500D01*
X242947920Y-122250500D01*
X242947927Y-122250500D01*
X243191677Y-122218409D01*
X243429153Y-122154778D01*
X243656292Y-122060694D01*
X243869208Y-121937767D01*
X244064256Y-121788101D01*
X244238101Y-121614256D01*
X244387767Y-121419208D01*
X244510694Y-121206292D01*
X244513435Y-121199676D01*
X244513455Y-121199628D01*
X246795000Y-121199628D01*
X246809503Y-121272540D01*
X246809505Y-121272544D01*
X246864760Y-121355239D01*
X246947455Y-121410494D01*
X246947459Y-121410496D01*
X247020371Y-121424999D01*
X247020374Y-121425000D01*
X247045000Y-121425000D01*
X247045000Y-120900000D01*
X246795000Y-120900000D01*
X246795000Y-121199628D01*
X244513455Y-121199628D01*
X244604774Y-120979162D01*
X244604778Y-120979153D01*
X244668409Y-120741677D01*
X244700500Y-120497927D01*
X244700500Y-120252073D01*
X244668409Y-120008323D01*
X244604778Y-119770847D01*
X244534165Y-119600371D01*
X246795000Y-119600371D01*
X246795000Y-119900000D01*
X247045000Y-119900000D01*
X247045000Y-119375000D01*
X247020373Y-119375000D01*
X246947459Y-119389503D01*
X246947455Y-119389505D01*
X246864760Y-119444760D01*
X246809505Y-119527455D01*
X246809503Y-119527459D01*
X246795000Y-119600371D01*
X244534165Y-119600371D01*
X244510694Y-119543708D01*
X244387767Y-119330792D01*
X244238101Y-119135744D01*
X244238096Y-119135738D01*
X244064261Y-118961903D01*
X244064254Y-118961897D01*
X243869212Y-118812236D01*
X243869211Y-118812235D01*
X243869208Y-118812233D01*
X243656292Y-118689306D01*
X243656285Y-118689303D01*
X243429162Y-118595225D01*
X243429155Y-118595223D01*
X243429153Y-118595222D01*
X243191677Y-118531591D01*
X243144440Y-118525372D01*
X242947934Y-118499500D01*
X242947927Y-118499500D01*
X242702073Y-118499500D01*
X242702065Y-118499500D01*
X242470059Y-118530045D01*
X242458323Y-118531591D01*
X242220847Y-118595222D01*
X242220837Y-118595225D01*
X241993714Y-118689303D01*
X241993705Y-118689307D01*
X241780787Y-118812236D01*
X241585745Y-118961897D01*
X241585738Y-118961903D01*
X241411903Y-119135738D01*
X241411897Y-119135745D01*
X241262236Y-119330787D01*
X241139307Y-119543705D01*
X241139303Y-119543714D01*
X241045225Y-119770837D01*
X241045222Y-119770847D01*
X240981591Y-120008323D01*
X240980045Y-120020059D01*
X240949500Y-120252065D01*
X238680500Y-120252065D01*
X238680500Y-118525326D01*
X238680500Y-118525323D01*
X238680499Y-118525321D01*
X238665967Y-118452264D01*
X238665966Y-118452260D01*
X238610601Y-118369399D01*
X238527740Y-118314034D01*
X238527739Y-118314033D01*
X238527735Y-118314032D01*
X238454677Y-118299500D01*
X238454674Y-118299500D01*
X236905326Y-118299500D01*
X236905323Y-118299500D01*
X236832264Y-118314032D01*
X236832260Y-118314033D01*
X236749399Y-118369399D01*
X236694033Y-118452260D01*
X236694032Y-118452264D01*
X236679500Y-118525321D01*
X233599990Y-118525321D01*
X233585496Y-118452459D01*
X233585494Y-118452455D01*
X233530239Y-118369760D01*
X233447544Y-118314505D01*
X233447540Y-118314503D01*
X233374627Y-118300000D01*
X233100000Y-118300000D01*
X233100000Y-119300000D01*
X232100000Y-119300000D01*
X232100000Y-118300000D01*
X231825373Y-118300000D01*
X231752459Y-118314503D01*
X231752455Y-118314505D01*
X231669760Y-118369760D01*
X231614505Y-118452455D01*
X231614503Y-118452459D01*
X231600000Y-118525371D01*
X228520500Y-118525371D01*
X228520500Y-118525326D01*
X228520500Y-118525323D01*
X228520499Y-118525321D01*
X228505967Y-118452264D01*
X228505966Y-118452260D01*
X228450601Y-118369399D01*
X228367740Y-118314034D01*
X228367739Y-118314033D01*
X228367735Y-118314032D01*
X228294677Y-118299500D01*
X228294674Y-118299500D01*
X226745326Y-118299500D01*
X226745323Y-118299500D01*
X226672264Y-118314032D01*
X226672260Y-118314033D01*
X226589399Y-118369399D01*
X226534033Y-118452260D01*
X226534032Y-118452264D01*
X226519500Y-118525321D01*
X223440499Y-118525321D01*
X223425967Y-118452264D01*
X223425966Y-118452260D01*
X223370601Y-118369399D01*
X223287740Y-118314034D01*
X223287739Y-118314033D01*
X223287735Y-118314032D01*
X223214677Y-118299500D01*
X223214674Y-118299500D01*
X221665326Y-118299500D01*
X221665323Y-118299500D01*
X221592264Y-118314032D01*
X221592260Y-118314033D01*
X221509399Y-118369399D01*
X221454033Y-118452260D01*
X221454032Y-118452264D01*
X221439500Y-118525321D01*
X218360499Y-118525321D01*
X218345967Y-118452264D01*
X218345966Y-118452260D01*
X218290601Y-118369399D01*
X218207740Y-118314034D01*
X218207739Y-118314033D01*
X218207735Y-118314032D01*
X218134677Y-118299500D01*
X218134674Y-118299500D01*
X216585326Y-118299500D01*
X216585323Y-118299500D01*
X216512264Y-118314032D01*
X216512260Y-118314033D01*
X216429399Y-118369399D01*
X216374033Y-118452260D01*
X216374032Y-118452264D01*
X216359500Y-118525321D01*
X216359500Y-121074678D01*
X216374032Y-121147735D01*
X216374033Y-121147739D01*
X216374034Y-121147740D01*
X216429399Y-121230601D01*
X216492277Y-121272614D01*
X216512260Y-121285966D01*
X216512264Y-121285967D01*
X216585321Y-121300499D01*
X216585324Y-121300500D01*
X216585326Y-121300500D01*
X216735500Y-121300500D01*
X216802539Y-121320185D01*
X216848294Y-121372989D01*
X216859500Y-121424500D01*
X216859500Y-123081324D01*
X216839815Y-123148363D01*
X216823181Y-123169005D01*
X213529005Y-126463181D01*
X213467682Y-126496666D01*
X213441324Y-126499500D01*
X213062128Y-126499500D01*
X212995089Y-126479815D01*
X212978459Y-126467018D01*
X212967373Y-126456883D01*
X212915601Y-126379399D01*
X212832740Y-126324034D01*
X212819091Y-126321319D01*
X212797130Y-126301241D01*
X212789861Y-126289240D01*
X212778938Y-126280436D01*
X212772120Y-126259948D01*
X212760934Y-126241478D01*
X212761307Y-126227451D01*
X212756878Y-126214140D01*
X212762219Y-126193219D01*
X212762794Y-126171633D01*
X212770691Y-126160035D01*
X212774162Y-126146442D01*
X212789965Y-126131730D01*
X212802120Y-126113881D01*
X212815032Y-126108394D01*
X212825302Y-126098835D01*
X212832385Y-126095600D01*
X212915239Y-126040239D01*
X212970494Y-125957544D01*
X212970496Y-125957540D01*
X212984999Y-125884628D01*
X212985000Y-125884626D01*
X212985000Y-125860000D01*
X210935000Y-125860000D01*
X210935000Y-125884626D01*
X210934999Y-125884626D01*
X210948264Y-125951308D01*
X210942037Y-126020900D01*
X210899174Y-126076077D01*
X210833284Y-126099322D01*
X210826647Y-126099500D01*
X207843353Y-126099500D01*
X207776314Y-126079815D01*
X207730559Y-126027011D01*
X207720615Y-125957853D01*
X207721736Y-125951308D01*
X207735000Y-125884626D01*
X207735000Y-125860000D01*
X205685000Y-125860000D01*
X205685000Y-125884628D01*
X205699503Y-125957540D01*
X205699505Y-125957544D01*
X205754760Y-126040239D01*
X205847610Y-126102280D01*
X205846866Y-126103393D01*
X205891054Y-126139000D01*
X205913121Y-126205293D01*
X205895844Y-126272993D01*
X205844708Y-126320605D01*
X205837390Y-126323947D01*
X205754399Y-126379399D01*
X205699033Y-126462260D01*
X205699032Y-126462264D01*
X205684500Y-126535321D01*
X199972493Y-126535321D01*
X201672443Y-124835371D01*
X205685000Y-124835371D01*
X205685000Y-124860000D01*
X206210000Y-124860000D01*
X207210000Y-124860000D01*
X207735000Y-124860000D01*
X207735000Y-124835373D01*
X207734999Y-124835371D01*
X207726272Y-124791493D01*
X207722670Y-124773389D01*
X208709500Y-124773389D01*
X208709500Y-124896610D01*
X208733535Y-125017444D01*
X208733538Y-125017454D01*
X208780687Y-125131283D01*
X208780692Y-125131292D01*
X208849141Y-125233732D01*
X208849144Y-125233736D01*
X208936263Y-125320855D01*
X208936267Y-125320858D01*
X209038707Y-125389307D01*
X209038713Y-125389310D01*
X209038714Y-125389311D01*
X209152548Y-125436463D01*
X209273389Y-125460499D01*
X209273393Y-125460500D01*
X209273394Y-125460500D01*
X209396607Y-125460500D01*
X209396608Y-125460499D01*
X209517452Y-125436463D01*
X209631286Y-125389311D01*
X209733733Y-125320858D01*
X209820858Y-125233733D01*
X209889311Y-125131286D01*
X209936463Y-125017452D01*
X209960500Y-124896606D01*
X209960500Y-124835371D01*
X210935000Y-124835371D01*
X210935000Y-124860000D01*
X211460000Y-124860000D01*
X212460000Y-124860000D01*
X212985000Y-124860000D01*
X212985000Y-124835373D01*
X212984999Y-124835371D01*
X212970496Y-124762459D01*
X212970494Y-124762455D01*
X212915239Y-124679760D01*
X212832544Y-124624505D01*
X212832540Y-124624503D01*
X212759627Y-124610000D01*
X212460000Y-124610000D01*
X212460000Y-124860000D01*
X211460000Y-124860000D01*
X211460000Y-124610000D01*
X211160373Y-124610000D01*
X211087459Y-124624503D01*
X211087455Y-124624505D01*
X211004760Y-124679760D01*
X210949505Y-124762455D01*
X210949503Y-124762459D01*
X210935000Y-124835371D01*
X209960500Y-124835371D01*
X209960500Y-124773394D01*
X209936463Y-124652548D01*
X209889311Y-124538714D01*
X209889310Y-124538713D01*
X209889307Y-124538707D01*
X209820858Y-124436267D01*
X209820855Y-124436263D01*
X209733736Y-124349144D01*
X209733732Y-124349141D01*
X209631292Y-124280692D01*
X209631283Y-124280687D01*
X209517454Y-124233538D01*
X209517455Y-124233538D01*
X209517452Y-124233537D01*
X209517448Y-124233536D01*
X209517444Y-124233535D01*
X209396610Y-124209500D01*
X209396606Y-124209500D01*
X209273394Y-124209500D01*
X209273389Y-124209500D01*
X209152555Y-124233535D01*
X209152545Y-124233538D01*
X209038716Y-124280687D01*
X209038707Y-124280692D01*
X208936267Y-124349141D01*
X208936263Y-124349144D01*
X208849144Y-124436263D01*
X208849141Y-124436267D01*
X208780692Y-124538707D01*
X208780687Y-124538716D01*
X208733538Y-124652545D01*
X208733535Y-124652555D01*
X208709500Y-124773389D01*
X207722670Y-124773389D01*
X207720496Y-124762459D01*
X207720494Y-124762455D01*
X207665239Y-124679760D01*
X207582544Y-124624505D01*
X207582540Y-124624503D01*
X207509627Y-124610000D01*
X207210000Y-124610000D01*
X207210000Y-124860000D01*
X206210000Y-124860000D01*
X206210000Y-124610000D01*
X205910373Y-124610000D01*
X205837459Y-124624503D01*
X205837455Y-124624505D01*
X205754760Y-124679760D01*
X205699505Y-124762455D01*
X205699503Y-124762459D01*
X205685000Y-124835371D01*
X201672443Y-124835371D01*
X202520500Y-123987314D01*
X202586392Y-123873186D01*
X202620500Y-123745892D01*
X202620500Y-123614108D01*
X202620500Y-121424500D01*
X202640185Y-121357461D01*
X202692989Y-121311706D01*
X202744500Y-121300500D01*
X202894676Y-121300500D01*
X202894677Y-121300499D01*
X202967740Y-121285966D01*
X203050601Y-121230601D01*
X203105966Y-121147740D01*
X203120500Y-121074674D01*
X203120500Y-121074628D01*
X206200000Y-121074628D01*
X206214503Y-121147540D01*
X206214505Y-121147544D01*
X206269760Y-121230239D01*
X206352455Y-121285494D01*
X206352459Y-121285496D01*
X206425371Y-121299999D01*
X206425374Y-121300000D01*
X206700000Y-121300000D01*
X207700000Y-121300000D01*
X207974626Y-121300000D01*
X207974628Y-121299999D01*
X208047540Y-121285496D01*
X208047544Y-121285494D01*
X208130239Y-121230239D01*
X208185494Y-121147544D01*
X208185496Y-121147540D01*
X208199999Y-121074628D01*
X208200000Y-121074626D01*
X208200000Y-120300000D01*
X207700000Y-120300000D01*
X207700000Y-121300000D01*
X206700000Y-121300000D01*
X206700000Y-120300000D01*
X206200000Y-120300000D01*
X206200000Y-121074628D01*
X203120500Y-121074628D01*
X203120500Y-118525371D01*
X206200000Y-118525371D01*
X206200000Y-119300000D01*
X206700000Y-119300000D01*
X207700000Y-119300000D01*
X208200000Y-119300000D01*
X208200000Y-118525372D01*
X208199990Y-118525321D01*
X211279500Y-118525321D01*
X211279500Y-121074678D01*
X211294032Y-121147735D01*
X211294033Y-121147739D01*
X211294034Y-121147740D01*
X211349399Y-121230601D01*
X211412277Y-121272614D01*
X211432260Y-121285966D01*
X211432264Y-121285967D01*
X211505321Y-121300499D01*
X211505324Y-121300500D01*
X211505326Y-121300500D01*
X213054676Y-121300500D01*
X213054677Y-121300499D01*
X213127740Y-121285966D01*
X213210601Y-121230601D01*
X213265966Y-121147740D01*
X213280500Y-121074674D01*
X213280500Y-118525326D01*
X213280500Y-118525323D01*
X213280499Y-118525321D01*
X213265967Y-118452264D01*
X213265966Y-118452260D01*
X213210601Y-118369399D01*
X213127740Y-118314034D01*
X213127739Y-118314033D01*
X213127735Y-118314032D01*
X213054677Y-118299500D01*
X213054674Y-118299500D01*
X211505326Y-118299500D01*
X211505323Y-118299500D01*
X211432264Y-118314032D01*
X211432260Y-118314033D01*
X211349399Y-118369399D01*
X211294033Y-118452260D01*
X211294032Y-118452264D01*
X211279500Y-118525321D01*
X208199990Y-118525321D01*
X208185496Y-118452459D01*
X208185494Y-118452455D01*
X208130239Y-118369760D01*
X208047544Y-118314505D01*
X208047540Y-118314503D01*
X207974627Y-118300000D01*
X207700000Y-118300000D01*
X207700000Y-119300000D01*
X206700000Y-119300000D01*
X206700000Y-118300000D01*
X206425373Y-118300000D01*
X206352459Y-118314503D01*
X206352455Y-118314505D01*
X206269760Y-118369760D01*
X206214505Y-118452455D01*
X206214503Y-118452459D01*
X206200000Y-118525371D01*
X203120500Y-118525371D01*
X203120500Y-118525326D01*
X203120500Y-118525323D01*
X203120499Y-118525321D01*
X203105967Y-118452264D01*
X203105966Y-118452260D01*
X203050601Y-118369399D01*
X202967740Y-118314034D01*
X202967739Y-118314033D01*
X202967735Y-118314032D01*
X202894677Y-118299500D01*
X202894674Y-118299500D01*
X201345326Y-118299500D01*
X201345323Y-118299500D01*
X201272264Y-118314032D01*
X201272260Y-118314033D01*
X201189399Y-118369399D01*
X201134033Y-118452260D01*
X201134032Y-118452264D01*
X201119500Y-118525321D01*
X201119500Y-121074678D01*
X201134032Y-121147735D01*
X201134033Y-121147739D01*
X201134034Y-121147740D01*
X201189399Y-121230601D01*
X201252277Y-121272614D01*
X201272260Y-121285966D01*
X201272264Y-121285967D01*
X201345321Y-121300499D01*
X201345324Y-121300500D01*
X201345326Y-121300500D01*
X201495500Y-121300500D01*
X201562539Y-121320185D01*
X201608294Y-121372989D01*
X201619500Y-121424500D01*
X201619500Y-123421324D01*
X201599815Y-123488363D01*
X201583181Y-123509005D01*
X198629005Y-126463181D01*
X198567682Y-126496666D01*
X198541324Y-126499500D01*
X196037151Y-126499500D01*
X195970112Y-126479815D01*
X195934048Y-126444390D01*
X195880601Y-126364399D01*
X195797740Y-126309034D01*
X195797739Y-126309033D01*
X195787585Y-126302249D01*
X195788294Y-126301186D01*
X195743938Y-126265436D01*
X195721878Y-126199140D01*
X195739162Y-126131442D01*
X195790302Y-126083835D01*
X195797385Y-126080600D01*
X195880239Y-126025239D01*
X195935494Y-125942544D01*
X195935496Y-125942540D01*
X195949999Y-125869628D01*
X195950000Y-125869626D01*
X195950000Y-125845000D01*
X193900000Y-125845000D01*
X193900000Y-125869628D01*
X193916247Y-125951309D01*
X193910020Y-126020901D01*
X193867156Y-126076078D01*
X193801266Y-126099322D01*
X193794630Y-126099500D01*
X190805370Y-126099500D01*
X190738331Y-126079815D01*
X190692576Y-126027011D01*
X190682632Y-125957853D01*
X190683753Y-125951309D01*
X190699999Y-125869628D01*
X190700000Y-125869626D01*
X190700000Y-125845000D01*
X188650000Y-125845000D01*
X188650000Y-125869628D01*
X188664503Y-125942540D01*
X188664505Y-125942544D01*
X188719760Y-126025239D01*
X188812610Y-126087280D01*
X188811866Y-126088393D01*
X188856054Y-126124000D01*
X188878121Y-126190293D01*
X188860844Y-126257993D01*
X188809708Y-126305605D01*
X188802390Y-126308947D01*
X188719399Y-126364399D01*
X188664033Y-126447260D01*
X188664032Y-126447264D01*
X188649500Y-126520321D01*
X187047781Y-126520321D01*
X187045901Y-126517221D01*
X187040063Y-126506423D01*
X187035396Y-126496666D01*
X186921246Y-126257993D01*
X186887196Y-126186800D01*
X186882450Y-126175465D01*
X186860181Y-126113881D01*
X186761968Y-125842283D01*
X186758369Y-125830540D01*
X186744990Y-125777670D01*
X186671456Y-125487073D01*
X186669035Y-125475025D01*
X186616543Y-125124634D01*
X186615327Y-125112407D01*
X186604621Y-124896610D01*
X186600838Y-124820371D01*
X188650000Y-124820371D01*
X188650000Y-124845000D01*
X189175000Y-124845000D01*
X190175000Y-124845000D01*
X190700000Y-124845000D01*
X190700000Y-124820373D01*
X190699999Y-124820371D01*
X190691272Y-124776493D01*
X190687670Y-124758389D01*
X191674500Y-124758389D01*
X191674500Y-124881610D01*
X191698535Y-125002444D01*
X191698538Y-125002454D01*
X191745687Y-125116283D01*
X191745692Y-125116292D01*
X191814141Y-125218732D01*
X191814144Y-125218736D01*
X191901263Y-125305855D01*
X191901267Y-125305858D01*
X192003707Y-125374307D01*
X192003713Y-125374310D01*
X192003714Y-125374311D01*
X192117548Y-125421463D01*
X192192966Y-125436464D01*
X192238389Y-125445499D01*
X192238393Y-125445500D01*
X192238394Y-125445500D01*
X192361607Y-125445500D01*
X192361608Y-125445499D01*
X192482452Y-125421463D01*
X192596286Y-125374311D01*
X192698733Y-125305858D01*
X192785858Y-125218733D01*
X192854311Y-125116286D01*
X192901463Y-125002452D01*
X192925500Y-124881606D01*
X192925500Y-124820371D01*
X193900000Y-124820371D01*
X193900000Y-124845000D01*
X194425000Y-124845000D01*
X195425000Y-124845000D01*
X195950000Y-124845000D01*
X195950000Y-124820373D01*
X195949999Y-124820371D01*
X195935496Y-124747459D01*
X195935494Y-124747455D01*
X195880239Y-124664760D01*
X195797544Y-124609505D01*
X195797540Y-124609503D01*
X195724627Y-124595000D01*
X195425000Y-124595000D01*
X195425000Y-124845000D01*
X194425000Y-124845000D01*
X194425000Y-124595000D01*
X194125373Y-124595000D01*
X194052459Y-124609503D01*
X194052455Y-124609505D01*
X193969760Y-124664760D01*
X193914505Y-124747455D01*
X193914503Y-124747459D01*
X193900000Y-124820371D01*
X192925500Y-124820371D01*
X192925500Y-124758394D01*
X192901463Y-124637548D01*
X192854311Y-124523714D01*
X192854310Y-124523713D01*
X192854307Y-124523707D01*
X192785858Y-124421267D01*
X192785855Y-124421263D01*
X192698736Y-124334144D01*
X192698732Y-124334141D01*
X192596292Y-124265692D01*
X192596283Y-124265687D01*
X192482454Y-124218538D01*
X192482455Y-124218538D01*
X192482452Y-124218537D01*
X192482448Y-124218536D01*
X192482444Y-124218535D01*
X192361610Y-124194500D01*
X192361606Y-124194500D01*
X192238394Y-124194500D01*
X192238389Y-124194500D01*
X192117555Y-124218535D01*
X192117545Y-124218538D01*
X192003716Y-124265687D01*
X192003707Y-124265692D01*
X191901267Y-124334141D01*
X191901263Y-124334144D01*
X191814144Y-124421263D01*
X191814141Y-124421267D01*
X191745692Y-124523707D01*
X191745687Y-124523716D01*
X191698538Y-124637545D01*
X191698535Y-124637555D01*
X191674500Y-124758389D01*
X190687670Y-124758389D01*
X190685496Y-124747459D01*
X190685494Y-124747455D01*
X190630239Y-124664760D01*
X190547544Y-124609505D01*
X190547540Y-124609503D01*
X190474627Y-124595000D01*
X190175000Y-124595000D01*
X190175000Y-124845000D01*
X189175000Y-124845000D01*
X189175000Y-124595000D01*
X188875373Y-124595000D01*
X188802459Y-124609503D01*
X188802455Y-124609505D01*
X188719760Y-124664760D01*
X188664505Y-124747455D01*
X188664503Y-124747459D01*
X188650000Y-124820371D01*
X186600838Y-124820371D01*
X186597618Y-124755474D01*
X186597467Y-124749330D01*
X186598289Y-118525321D01*
X190959500Y-118525321D01*
X190959500Y-121074678D01*
X190974032Y-121147735D01*
X190974033Y-121147739D01*
X190974034Y-121147740D01*
X191029399Y-121230601D01*
X191092277Y-121272614D01*
X191112260Y-121285966D01*
X191112264Y-121285967D01*
X191185321Y-121300499D01*
X191185324Y-121300500D01*
X191185326Y-121300500D01*
X192734676Y-121300500D01*
X192734677Y-121300499D01*
X192807740Y-121285966D01*
X192890601Y-121230601D01*
X192945966Y-121147740D01*
X192960500Y-121074674D01*
X192960500Y-118525326D01*
X192960500Y-118525323D01*
X192960499Y-118525321D01*
X196039500Y-118525321D01*
X196039500Y-121074678D01*
X196054032Y-121147735D01*
X196054033Y-121147739D01*
X196054034Y-121147740D01*
X196109399Y-121230601D01*
X196172277Y-121272614D01*
X196192260Y-121285966D01*
X196192264Y-121285967D01*
X196265321Y-121300499D01*
X196265324Y-121300500D01*
X196265326Y-121300500D01*
X197814676Y-121300500D01*
X197814677Y-121300499D01*
X197887740Y-121285966D01*
X197970601Y-121230601D01*
X198025966Y-121147740D01*
X198040500Y-121074674D01*
X198040500Y-118525326D01*
X198040500Y-118525323D01*
X198040499Y-118525321D01*
X198025967Y-118452264D01*
X198025966Y-118452260D01*
X197970601Y-118369399D01*
X197887740Y-118314034D01*
X197887739Y-118314033D01*
X197887735Y-118314032D01*
X197814677Y-118299500D01*
X197814674Y-118299500D01*
X196265326Y-118299500D01*
X196265323Y-118299500D01*
X196192264Y-118314032D01*
X196192260Y-118314033D01*
X196109399Y-118369399D01*
X196054033Y-118452260D01*
X196054032Y-118452264D01*
X196039500Y-118525321D01*
X192960499Y-118525321D01*
X192945967Y-118452264D01*
X192945966Y-118452260D01*
X192890601Y-118369399D01*
X192807740Y-118314034D01*
X192807739Y-118314033D01*
X192807735Y-118314032D01*
X192734677Y-118299500D01*
X192734674Y-118299500D01*
X191185326Y-118299500D01*
X191185323Y-118299500D01*
X191112264Y-118314032D01*
X191112260Y-118314033D01*
X191029399Y-118369399D01*
X190974033Y-118452260D01*
X190974032Y-118452264D01*
X190959500Y-118525321D01*
X186598289Y-118525321D01*
X186598725Y-115225321D01*
X188419500Y-115225321D01*
X188419500Y-117774678D01*
X188434032Y-117847735D01*
X188434033Y-117847739D01*
X188434034Y-117847740D01*
X188489399Y-117930601D01*
X188571554Y-117985494D01*
X188572260Y-117985966D01*
X188572264Y-117985967D01*
X188645321Y-118000499D01*
X188645324Y-118000500D01*
X188645326Y-118000500D01*
X190194676Y-118000500D01*
X190194677Y-118000499D01*
X190267740Y-117985966D01*
X190350601Y-117930601D01*
X190405966Y-117847740D01*
X190420500Y-117774674D01*
X190420500Y-117774628D01*
X193500000Y-117774628D01*
X193514503Y-117847540D01*
X193514505Y-117847544D01*
X193569760Y-117930239D01*
X193652455Y-117985494D01*
X193652459Y-117985496D01*
X193725371Y-117999999D01*
X193725374Y-118000000D01*
X194000000Y-118000000D01*
X195000000Y-118000000D01*
X195274626Y-118000000D01*
X195274628Y-117999999D01*
X195347540Y-117985496D01*
X195347544Y-117985494D01*
X195430239Y-117930239D01*
X195485494Y-117847544D01*
X195485496Y-117847540D01*
X195499999Y-117774628D01*
X195500000Y-117774626D01*
X195500000Y-117000000D01*
X195000000Y-117000000D01*
X195000000Y-118000000D01*
X194000000Y-118000000D01*
X194000000Y-117000000D01*
X193500000Y-117000000D01*
X193500000Y-117774628D01*
X190420500Y-117774628D01*
X190420500Y-115225371D01*
X193500000Y-115225371D01*
X193500000Y-116000000D01*
X194000000Y-116000000D01*
X195000000Y-116000000D01*
X195500000Y-116000000D01*
X195500000Y-115225372D01*
X195499990Y-115225321D01*
X198579500Y-115225321D01*
X198579500Y-117774678D01*
X198594032Y-117847735D01*
X198594033Y-117847739D01*
X198594034Y-117847740D01*
X198649399Y-117930601D01*
X198731554Y-117985494D01*
X198732260Y-117985966D01*
X198732264Y-117985967D01*
X198805321Y-118000499D01*
X198805324Y-118000500D01*
X198805326Y-118000500D01*
X200354676Y-118000500D01*
X200354677Y-118000499D01*
X200427740Y-117985966D01*
X200510601Y-117930601D01*
X200565966Y-117847740D01*
X200580500Y-117774674D01*
X200580500Y-115225326D01*
X200580500Y-115225323D01*
X200580499Y-115225321D01*
X203659500Y-115225321D01*
X203659500Y-117774678D01*
X203674032Y-117847735D01*
X203674033Y-117847739D01*
X203674034Y-117847740D01*
X203729399Y-117930601D01*
X203811554Y-117985494D01*
X203812260Y-117985966D01*
X203812264Y-117985967D01*
X203885321Y-118000499D01*
X203885324Y-118000500D01*
X203885326Y-118000500D01*
X205434676Y-118000500D01*
X205434677Y-118000499D01*
X205507740Y-117985966D01*
X205590601Y-117930601D01*
X205645966Y-117847740D01*
X205660500Y-117774674D01*
X205660500Y-115225326D01*
X205660500Y-115225323D01*
X205660499Y-115225321D01*
X208739500Y-115225321D01*
X208739500Y-117774678D01*
X208754032Y-117847735D01*
X208754033Y-117847739D01*
X208754034Y-117847740D01*
X208809399Y-117930601D01*
X208891554Y-117985494D01*
X208892260Y-117985966D01*
X208892264Y-117985967D01*
X208965321Y-118000499D01*
X208965324Y-118000500D01*
X208965326Y-118000500D01*
X210514676Y-118000500D01*
X210514677Y-118000499D01*
X210587740Y-117985966D01*
X210670601Y-117930601D01*
X210725966Y-117847740D01*
X210740500Y-117774674D01*
X210740500Y-115225326D01*
X210740500Y-115225323D01*
X210740499Y-115225321D01*
X213819500Y-115225321D01*
X213819500Y-117774678D01*
X213834032Y-117847735D01*
X213834033Y-117847739D01*
X213834034Y-117847740D01*
X213889399Y-117930601D01*
X213971554Y-117985494D01*
X213972260Y-117985966D01*
X213972264Y-117985967D01*
X214045321Y-118000499D01*
X214045324Y-118000500D01*
X214045326Y-118000500D01*
X215594676Y-118000500D01*
X215594677Y-118000499D01*
X215667740Y-117985966D01*
X215750601Y-117930601D01*
X215805966Y-117847740D01*
X215820500Y-117774674D01*
X215820500Y-117774628D01*
X218900000Y-117774628D01*
X218914503Y-117847540D01*
X218914505Y-117847544D01*
X218969760Y-117930239D01*
X219052455Y-117985494D01*
X219052459Y-117985496D01*
X219125371Y-117999999D01*
X219125374Y-118000000D01*
X219400000Y-118000000D01*
X220400000Y-118000000D01*
X220674626Y-118000000D01*
X220674628Y-117999999D01*
X220747540Y-117985496D01*
X220747544Y-117985494D01*
X220830239Y-117930239D01*
X220885494Y-117847544D01*
X220885496Y-117847540D01*
X220899999Y-117774628D01*
X220900000Y-117774626D01*
X220900000Y-117000000D01*
X220400000Y-117000000D01*
X220400000Y-118000000D01*
X219400000Y-118000000D01*
X219400000Y-117000000D01*
X218900000Y-117000000D01*
X218900000Y-117774628D01*
X215820500Y-117774628D01*
X215820500Y-115225371D01*
X218900000Y-115225371D01*
X218900000Y-116000000D01*
X219400000Y-116000000D01*
X220400000Y-116000000D01*
X220900000Y-116000000D01*
X220900000Y-115225372D01*
X220899990Y-115225321D01*
X223979500Y-115225321D01*
X223979500Y-117774678D01*
X223994032Y-117847735D01*
X223994033Y-117847739D01*
X223994034Y-117847740D01*
X224049399Y-117930601D01*
X224131554Y-117985494D01*
X224132260Y-117985966D01*
X224132264Y-117985967D01*
X224205321Y-118000499D01*
X224205324Y-118000500D01*
X224205326Y-118000500D01*
X225754676Y-118000500D01*
X225754677Y-118000499D01*
X225827740Y-117985966D01*
X225910601Y-117930601D01*
X225965966Y-117847740D01*
X225980500Y-117774674D01*
X225980500Y-115225326D01*
X225980500Y-115225323D01*
X225980499Y-115225321D01*
X229059500Y-115225321D01*
X229059500Y-117774678D01*
X229074032Y-117847735D01*
X229074033Y-117847739D01*
X229074034Y-117847740D01*
X229129399Y-117930601D01*
X229211554Y-117985494D01*
X229212260Y-117985966D01*
X229212264Y-117985967D01*
X229285321Y-118000499D01*
X229285324Y-118000500D01*
X229285326Y-118000500D01*
X230834676Y-118000500D01*
X230834677Y-118000499D01*
X230907740Y-117985966D01*
X230990601Y-117930601D01*
X231045966Y-117847740D01*
X231060500Y-117774674D01*
X231060500Y-115225326D01*
X231060500Y-115225323D01*
X231060499Y-115225321D01*
X234139500Y-115225321D01*
X234139500Y-117774678D01*
X234154032Y-117847735D01*
X234154033Y-117847739D01*
X234154034Y-117847740D01*
X234209399Y-117930601D01*
X234291554Y-117985494D01*
X234292260Y-117985966D01*
X234292264Y-117985967D01*
X234365321Y-118000499D01*
X234365324Y-118000500D01*
X234365326Y-118000500D01*
X235914676Y-118000500D01*
X235914677Y-118000499D01*
X235987740Y-117985966D01*
X236070601Y-117930601D01*
X236125966Y-117847740D01*
X236140500Y-117774674D01*
X236140500Y-117713389D01*
X246394500Y-117713389D01*
X246394500Y-117836610D01*
X246418535Y-117957444D01*
X246418538Y-117957454D01*
X246465687Y-118071283D01*
X246465692Y-118071292D01*
X246534141Y-118173732D01*
X246534144Y-118173736D01*
X246621263Y-118260855D01*
X246621267Y-118260858D01*
X246723707Y-118329307D01*
X246723713Y-118329310D01*
X246723714Y-118329311D01*
X246837548Y-118376463D01*
X246958389Y-118400499D01*
X246958393Y-118400500D01*
X246958394Y-118400500D01*
X247081607Y-118400500D01*
X247081608Y-118400499D01*
X247202452Y-118376463D01*
X247316286Y-118329311D01*
X247418733Y-118260858D01*
X247505858Y-118173733D01*
X247574311Y-118071286D01*
X247621463Y-117957452D01*
X247645500Y-117836606D01*
X247645500Y-117713394D01*
X247621463Y-117592548D01*
X247574311Y-117478714D01*
X247574310Y-117478713D01*
X247574307Y-117478707D01*
X247505858Y-117376267D01*
X247505855Y-117376263D01*
X247418736Y-117289144D01*
X247418732Y-117289141D01*
X247316292Y-117220692D01*
X247316283Y-117220687D01*
X247202454Y-117173538D01*
X247202455Y-117173538D01*
X247202452Y-117173537D01*
X247202448Y-117173536D01*
X247202444Y-117173535D01*
X247081610Y-117149500D01*
X247081606Y-117149500D01*
X246958394Y-117149500D01*
X246958389Y-117149500D01*
X246837555Y-117173535D01*
X246837545Y-117173538D01*
X246723716Y-117220687D01*
X246723707Y-117220692D01*
X246621267Y-117289141D01*
X246621263Y-117289144D01*
X246534144Y-117376263D01*
X246534141Y-117376267D01*
X246465692Y-117478707D01*
X246465687Y-117478716D01*
X246418538Y-117592545D01*
X246418535Y-117592555D01*
X246394500Y-117713389D01*
X236140500Y-117713389D01*
X236140500Y-115949628D01*
X246795000Y-115949628D01*
X246809503Y-116022540D01*
X246809505Y-116022544D01*
X246864760Y-116105239D01*
X246947455Y-116160494D01*
X246947459Y-116160496D01*
X247020371Y-116174999D01*
X247020374Y-116175000D01*
X247045000Y-116175000D01*
X247045000Y-115650000D01*
X246795000Y-115650000D01*
X246795000Y-115949628D01*
X236140500Y-115949628D01*
X236140500Y-115225326D01*
X236140500Y-115225323D01*
X236140499Y-115225321D01*
X236125967Y-115152264D01*
X236125966Y-115152260D01*
X236070601Y-115069399D01*
X235987740Y-115014034D01*
X235987739Y-115014033D01*
X235987735Y-115014032D01*
X235914677Y-114999500D01*
X235914674Y-114999500D01*
X235764500Y-114999500D01*
X235755814Y-114996949D01*
X235746853Y-114998238D01*
X235722812Y-114987259D01*
X235697461Y-114979815D01*
X235691533Y-114972974D01*
X235683297Y-114969213D01*
X235669007Y-114946978D01*
X235651706Y-114927011D01*
X235649418Y-114916496D01*
X235645523Y-114910435D01*
X235640500Y-114875500D01*
X235640500Y-114868676D01*
X235660185Y-114801637D01*
X235676819Y-114780995D01*
X236107443Y-114350371D01*
X246795000Y-114350371D01*
X246795000Y-114650000D01*
X247045000Y-114650000D01*
X247045000Y-114125000D01*
X247020373Y-114125000D01*
X246947459Y-114139503D01*
X246947455Y-114139505D01*
X246864760Y-114194760D01*
X246809505Y-114277455D01*
X246809503Y-114277459D01*
X246795000Y-114350371D01*
X236107443Y-114350371D01*
X237220995Y-113236819D01*
X237282318Y-113203334D01*
X237308676Y-113200500D01*
X248241324Y-113200500D01*
X248308363Y-113220185D01*
X248329005Y-113236819D01*
X248708181Y-113615995D01*
X248741666Y-113677318D01*
X248744500Y-113703676D01*
X248744500Y-114017927D01*
X248724815Y-114084966D01*
X248672011Y-114130721D01*
X248650755Y-114137586D01*
X248647260Y-114139033D01*
X248564399Y-114194399D01*
X248502249Y-114287415D01*
X248501186Y-114286704D01*
X248465433Y-114331063D01*
X248399136Y-114353121D01*
X248331439Y-114335835D01*
X248283833Y-114284693D01*
X248280600Y-114277612D01*
X248225239Y-114194760D01*
X248142544Y-114139505D01*
X248142540Y-114139503D01*
X248069627Y-114125000D01*
X248045000Y-114125000D01*
X248045000Y-116175000D01*
X248069626Y-116175000D01*
X248151308Y-116158752D01*
X248220900Y-116164979D01*
X248276077Y-116207842D01*
X248299322Y-116273731D01*
X248299500Y-116280369D01*
X248299500Y-119269630D01*
X248279815Y-119336669D01*
X248227011Y-119382424D01*
X248157853Y-119392368D01*
X248151309Y-119391247D01*
X248069628Y-119375000D01*
X248045000Y-119375000D01*
X248045000Y-121425000D01*
X248069626Y-121425000D01*
X248069628Y-121424999D01*
X248142540Y-121410496D01*
X248142544Y-121410494D01*
X248225239Y-121355239D01*
X248287280Y-121262390D01*
X248288393Y-121263134D01*
X248323996Y-121218947D01*
X248390289Y-121196878D01*
X248457990Y-121214153D01*
X248505603Y-121265287D01*
X248508950Y-121272614D01*
X248509033Y-121272739D01*
X248509034Y-121272740D01*
X248564399Y-121355601D01*
X248646554Y-121410494D01*
X248647260Y-121410966D01*
X248647264Y-121410967D01*
X248720321Y-121425499D01*
X248720324Y-121425500D01*
X248720326Y-121425500D01*
X249769676Y-121425500D01*
X249769677Y-121425499D01*
X249842740Y-121410966D01*
X249925601Y-121355601D01*
X249980966Y-121272740D01*
X249995500Y-121199674D01*
X249995500Y-119600326D01*
X249995500Y-119600323D01*
X249995499Y-119600321D01*
X249980967Y-119527264D01*
X249980966Y-119527260D01*
X249965899Y-119504711D01*
X249925601Y-119444399D01*
X249842740Y-119389034D01*
X249842739Y-119389033D01*
X249842735Y-119389032D01*
X249769677Y-119374500D01*
X249769674Y-119374500D01*
X249224500Y-119374500D01*
X249157461Y-119354815D01*
X249111706Y-119302011D01*
X249100500Y-119250500D01*
X249100500Y-118289454D01*
X249120185Y-118222415D01*
X249172989Y-118176660D01*
X249242147Y-118166716D01*
X249305703Y-118195741D01*
X249312181Y-118201773D01*
X249371263Y-118260855D01*
X249371267Y-118260858D01*
X249473707Y-118329307D01*
X249473713Y-118329310D01*
X249473714Y-118329311D01*
X249587548Y-118376463D01*
X249708389Y-118400499D01*
X249708393Y-118400500D01*
X249708394Y-118400500D01*
X249831607Y-118400500D01*
X249831608Y-118400499D01*
X249952452Y-118376463D01*
X250066286Y-118329311D01*
X250168733Y-118260858D01*
X250255858Y-118173733D01*
X250324311Y-118071286D01*
X250371463Y-117957452D01*
X250395500Y-117836606D01*
X250395500Y-117713394D01*
X250371463Y-117592548D01*
X250324311Y-117478714D01*
X250324310Y-117478713D01*
X250324307Y-117478707D01*
X250255858Y-117376267D01*
X250255855Y-117376263D01*
X250168736Y-117289144D01*
X250168732Y-117289141D01*
X250066292Y-117220692D01*
X250066283Y-117220687D01*
X249952454Y-117173538D01*
X249952455Y-117173538D01*
X249952452Y-117173537D01*
X249952448Y-117173536D01*
X249952444Y-117173535D01*
X249831610Y-117149500D01*
X249831606Y-117149500D01*
X249708394Y-117149500D01*
X249708389Y-117149500D01*
X249587555Y-117173535D01*
X249587545Y-117173538D01*
X249473716Y-117220687D01*
X249473707Y-117220692D01*
X249371267Y-117289141D01*
X249371263Y-117289144D01*
X249312181Y-117348227D01*
X249250858Y-117381712D01*
X249181166Y-117376728D01*
X249125233Y-117334856D01*
X249100816Y-117269392D01*
X249100500Y-117260546D01*
X249100500Y-116299500D01*
X249120185Y-116232461D01*
X249172989Y-116186706D01*
X249224500Y-116175500D01*
X249769676Y-116175500D01*
X249769677Y-116175499D01*
X249842740Y-116160966D01*
X249925601Y-116105601D01*
X249980966Y-116022740D01*
X249995500Y-115949674D01*
X249995500Y-114350326D01*
X249995500Y-114350323D01*
X249995499Y-114350321D01*
X249980967Y-114277264D01*
X249980966Y-114277260D01*
X249925601Y-114194399D01*
X249842740Y-114139034D01*
X249842739Y-114139033D01*
X249831456Y-114134360D01*
X249832157Y-114132665D01*
X249783396Y-114107157D01*
X249748823Y-114046441D01*
X249745500Y-114017927D01*
X249745500Y-113379110D01*
X249745500Y-113379108D01*
X249711392Y-113251814D01*
X249645500Y-113137686D01*
X249552314Y-113044500D01*
X248807314Y-112299500D01*
X248750250Y-112266554D01*
X248693187Y-112233608D01*
X248629539Y-112216554D01*
X248565892Y-112199500D01*
X237115893Y-112199500D01*
X236984108Y-112199500D01*
X236856812Y-112233608D01*
X236742686Y-112299500D01*
X236742683Y-112299502D01*
X234739502Y-114302683D01*
X234739500Y-114302686D01*
X234673608Y-114416812D01*
X234639500Y-114544108D01*
X234639500Y-114875500D01*
X234619815Y-114942539D01*
X234567011Y-114988294D01*
X234515500Y-114999500D01*
X234365323Y-114999500D01*
X234292264Y-115014032D01*
X234292260Y-115014033D01*
X234209399Y-115069399D01*
X234154033Y-115152260D01*
X234154032Y-115152264D01*
X234139500Y-115225321D01*
X231060499Y-115225321D01*
X231045967Y-115152264D01*
X231045966Y-115152260D01*
X230990601Y-115069399D01*
X230907740Y-115014034D01*
X230907739Y-115014033D01*
X230907735Y-115014032D01*
X230834677Y-114999500D01*
X230834674Y-114999500D01*
X229285326Y-114999500D01*
X229285323Y-114999500D01*
X229212264Y-115014032D01*
X229212260Y-115014033D01*
X229129399Y-115069399D01*
X229074033Y-115152260D01*
X229074032Y-115152264D01*
X229059500Y-115225321D01*
X225980499Y-115225321D01*
X225965967Y-115152264D01*
X225965966Y-115152260D01*
X225910601Y-115069399D01*
X225827740Y-115014034D01*
X225827739Y-115014033D01*
X225827735Y-115014032D01*
X225754677Y-114999500D01*
X225754674Y-114999500D01*
X224205326Y-114999500D01*
X224205323Y-114999500D01*
X224132264Y-115014032D01*
X224132260Y-115014033D01*
X224049399Y-115069399D01*
X223994033Y-115152260D01*
X223994032Y-115152264D01*
X223979500Y-115225321D01*
X220899990Y-115225321D01*
X220885496Y-115152459D01*
X220885494Y-115152455D01*
X220830239Y-115069760D01*
X220747544Y-115014505D01*
X220747540Y-115014503D01*
X220674627Y-115000000D01*
X220400000Y-115000000D01*
X220400000Y-116000000D01*
X219400000Y-116000000D01*
X219400000Y-115000000D01*
X219125373Y-115000000D01*
X219052459Y-115014503D01*
X219052455Y-115014505D01*
X218969760Y-115069760D01*
X218914505Y-115152455D01*
X218914503Y-115152459D01*
X218900000Y-115225371D01*
X215820500Y-115225371D01*
X215820500Y-115225326D01*
X215820500Y-115225323D01*
X215820499Y-115225321D01*
X215805967Y-115152264D01*
X215805966Y-115152260D01*
X215750601Y-115069399D01*
X215667740Y-115014034D01*
X215667739Y-115014033D01*
X215667735Y-115014032D01*
X215594677Y-114999500D01*
X215594674Y-114999500D01*
X214045326Y-114999500D01*
X214045323Y-114999500D01*
X213972264Y-115014032D01*
X213972260Y-115014033D01*
X213889399Y-115069399D01*
X213834033Y-115152260D01*
X213834032Y-115152264D01*
X213819500Y-115225321D01*
X210740499Y-115225321D01*
X210725967Y-115152264D01*
X210725966Y-115152260D01*
X210670601Y-115069399D01*
X210587740Y-115014034D01*
X210587739Y-115014033D01*
X210587735Y-115014032D01*
X210514677Y-114999500D01*
X210514674Y-114999500D01*
X208965326Y-114999500D01*
X208965323Y-114999500D01*
X208892264Y-115014032D01*
X208892260Y-115014033D01*
X208809399Y-115069399D01*
X208754033Y-115152260D01*
X208754032Y-115152264D01*
X208739500Y-115225321D01*
X205660499Y-115225321D01*
X205645967Y-115152264D01*
X205645966Y-115152260D01*
X205590601Y-115069399D01*
X205507740Y-115014034D01*
X205507739Y-115014033D01*
X205507735Y-115014032D01*
X205434677Y-114999500D01*
X205434674Y-114999500D01*
X203885326Y-114999500D01*
X203885323Y-114999500D01*
X203812264Y-115014032D01*
X203812260Y-115014033D01*
X203729399Y-115069399D01*
X203674033Y-115152260D01*
X203674032Y-115152264D01*
X203659500Y-115225321D01*
X200580499Y-115225321D01*
X200565967Y-115152264D01*
X200565966Y-115152260D01*
X200510601Y-115069399D01*
X200427740Y-115014034D01*
X200427739Y-115014033D01*
X200427735Y-115014032D01*
X200354677Y-114999500D01*
X200354674Y-114999500D01*
X198805326Y-114999500D01*
X198805323Y-114999500D01*
X198732264Y-115014032D01*
X198732260Y-115014033D01*
X198649399Y-115069399D01*
X198594033Y-115152260D01*
X198594032Y-115152264D01*
X198579500Y-115225321D01*
X195499990Y-115225321D01*
X195485496Y-115152459D01*
X195485494Y-115152455D01*
X195430239Y-115069760D01*
X195347544Y-115014505D01*
X195347540Y-115014503D01*
X195274627Y-115000000D01*
X195000000Y-115000000D01*
X195000000Y-116000000D01*
X194000000Y-116000000D01*
X194000000Y-115000000D01*
X193725373Y-115000000D01*
X193652459Y-115014503D01*
X193652455Y-115014505D01*
X193569760Y-115069760D01*
X193514505Y-115152455D01*
X193514503Y-115152459D01*
X193500000Y-115225371D01*
X190420500Y-115225371D01*
X190420500Y-115225326D01*
X190420500Y-115225323D01*
X190420499Y-115225321D01*
X190405967Y-115152264D01*
X190405966Y-115152260D01*
X190350601Y-115069399D01*
X190267740Y-115014034D01*
X190267739Y-115014033D01*
X190267735Y-115014032D01*
X190194677Y-114999500D01*
X190194674Y-114999500D01*
X188645326Y-114999500D01*
X188645323Y-114999500D01*
X188572264Y-115014032D01*
X188572260Y-115014033D01*
X188489399Y-115069399D01*
X188434033Y-115152260D01*
X188434032Y-115152264D01*
X188419500Y-115225321D01*
X186598725Y-115225321D01*
X186599802Y-107068995D01*
X248259499Y-107068995D01*
X248286418Y-107204322D01*
X248286421Y-107204332D01*
X248339221Y-107331804D01*
X248339228Y-107331817D01*
X248415885Y-107446541D01*
X248415888Y-107446545D01*
X248513454Y-107544111D01*
X248513458Y-107544114D01*
X248628182Y-107620771D01*
X248628195Y-107620778D01*
X248755667Y-107673578D01*
X248755672Y-107673580D01*
X248755676Y-107673580D01*
X248755677Y-107673581D01*
X248891004Y-107700500D01*
X248891007Y-107700500D01*
X249028995Y-107700500D01*
X249120041Y-107682389D01*
X249164328Y-107673580D01*
X249291811Y-107620775D01*
X249406542Y-107544114D01*
X249504114Y-107446542D01*
X249580775Y-107331811D01*
X249633580Y-107204328D01*
X249660500Y-107068993D01*
X249660500Y-106931007D01*
X249660500Y-106931004D01*
X249633581Y-106795677D01*
X249633580Y-106795676D01*
X249633580Y-106795672D01*
X249601132Y-106717335D01*
X249580778Y-106668195D01*
X249580771Y-106668182D01*
X249504114Y-106553458D01*
X249504111Y-106553454D01*
X249406545Y-106455888D01*
X249406541Y-106455885D01*
X249291817Y-106379228D01*
X249291804Y-106379221D01*
X249164332Y-106326421D01*
X249164322Y-106326418D01*
X249028995Y-106299500D01*
X249028993Y-106299500D01*
X248891007Y-106299500D01*
X248891005Y-106299500D01*
X248755677Y-106326418D01*
X248755667Y-106326421D01*
X248628195Y-106379221D01*
X248628182Y-106379228D01*
X248513458Y-106455885D01*
X248513454Y-106455888D01*
X248415888Y-106553454D01*
X248415885Y-106553458D01*
X248339228Y-106668182D01*
X248339221Y-106668195D01*
X248286421Y-106795667D01*
X248286418Y-106795677D01*
X248259500Y-106931004D01*
X248259500Y-106931007D01*
X248259500Y-107068993D01*
X248259500Y-107068995D01*
X248259499Y-107068995D01*
X186599802Y-107068995D01*
X186600829Y-99295321D01*
X190929500Y-99295321D01*
X190929500Y-101844678D01*
X190944032Y-101917735D01*
X190944033Y-101917739D01*
X190944740Y-101918797D01*
X190999399Y-102000601D01*
X191081554Y-102055494D01*
X191082260Y-102055966D01*
X191082264Y-102055967D01*
X191155321Y-102070499D01*
X191155324Y-102070500D01*
X191155326Y-102070500D01*
X192704676Y-102070500D01*
X192704677Y-102070499D01*
X192777740Y-102055966D01*
X192860601Y-102000601D01*
X192915966Y-101917740D01*
X192930500Y-101844674D01*
X192930500Y-99295326D01*
X192930500Y-99295323D01*
X192930499Y-99295321D01*
X196009500Y-99295321D01*
X196009500Y-101844678D01*
X196024032Y-101917735D01*
X196024033Y-101917739D01*
X196024740Y-101918797D01*
X196079399Y-102000601D01*
X196161554Y-102055494D01*
X196162260Y-102055966D01*
X196162264Y-102055967D01*
X196235321Y-102070499D01*
X196235324Y-102070500D01*
X196235326Y-102070500D01*
X196385500Y-102070500D01*
X196452539Y-102090185D01*
X196498294Y-102142989D01*
X196509500Y-102194500D01*
X196509500Y-102580462D01*
X196505275Y-102612554D01*
X196499500Y-102634106D01*
X196499500Y-102765891D01*
X196533608Y-102893187D01*
X196566554Y-102950250D01*
X196599500Y-103007314D01*
X200092686Y-106500500D01*
X200206814Y-106566392D01*
X200334107Y-106600500D01*
X200334108Y-106600500D01*
X244636533Y-106600500D01*
X244703572Y-106620185D01*
X244749327Y-106672989D01*
X244752715Y-106681166D01*
X244766203Y-106717330D01*
X244766206Y-106717335D01*
X244852452Y-106832544D01*
X244852455Y-106832547D01*
X244967664Y-106918793D01*
X244967671Y-106918797D01*
X245102517Y-106969091D01*
X245102516Y-106969091D01*
X245109444Y-106969835D01*
X245162127Y-106975500D01*
X247257872Y-106975499D01*
X247317483Y-106969091D01*
X247452331Y-106918796D01*
X247567546Y-106832546D01*
X247653796Y-106717331D01*
X247704091Y-106582483D01*
X247710500Y-106522873D01*
X247710499Y-105677128D01*
X247704091Y-105617517D01*
X247697253Y-105599184D01*
X247653797Y-105482671D01*
X247653793Y-105482664D01*
X247567547Y-105367455D01*
X247567544Y-105367452D01*
X247452335Y-105281206D01*
X247452328Y-105281202D01*
X247317482Y-105230908D01*
X247317483Y-105230908D01*
X247257883Y-105224501D01*
X247257881Y-105224500D01*
X247257873Y-105224500D01*
X247257864Y-105224500D01*
X245162129Y-105224500D01*
X245162123Y-105224501D01*
X245102516Y-105230908D01*
X244967671Y-105281202D01*
X244967664Y-105281206D01*
X244852455Y-105367452D01*
X244852452Y-105367455D01*
X244766206Y-105482664D01*
X244766203Y-105482669D01*
X244752715Y-105518834D01*
X244710843Y-105574767D01*
X244645379Y-105599184D01*
X244636533Y-105599500D01*
X200658676Y-105599500D01*
X200591637Y-105579815D01*
X200570995Y-105563181D01*
X199107814Y-104100000D01*
X244722976Y-104100000D01*
X244766649Y-104217093D01*
X244852809Y-104332187D01*
X244852812Y-104332190D01*
X244967906Y-104418350D01*
X244967913Y-104418354D01*
X245102620Y-104468596D01*
X245102627Y-104468598D01*
X245162155Y-104474999D01*
X245162172Y-104475000D01*
X245710000Y-104475000D01*
X246710000Y-104475000D01*
X247257828Y-104475000D01*
X247257844Y-104474999D01*
X247317372Y-104468598D01*
X247317379Y-104468596D01*
X247452086Y-104418354D01*
X247452093Y-104418350D01*
X247567187Y-104332190D01*
X247567190Y-104332187D01*
X247653350Y-104217093D01*
X247697024Y-104100000D01*
X246710000Y-104100000D01*
X246710000Y-104475000D01*
X245710000Y-104475000D01*
X245710000Y-104100000D01*
X244722976Y-104100000D01*
X199107814Y-104100000D01*
X198107814Y-103100000D01*
X244722976Y-103100000D01*
X245710000Y-103100000D01*
X246710000Y-103100000D01*
X247697024Y-103100000D01*
X247653350Y-102982906D01*
X247567190Y-102867812D01*
X247567187Y-102867809D01*
X247452093Y-102781649D01*
X247452086Y-102781645D01*
X247317379Y-102731403D01*
X247317372Y-102731401D01*
X247257844Y-102725000D01*
X246710000Y-102725000D01*
X246710000Y-103100000D01*
X245710000Y-103100000D01*
X245710000Y-102725000D01*
X245162155Y-102725000D01*
X245102627Y-102731401D01*
X245102620Y-102731403D01*
X244967913Y-102781645D01*
X244967906Y-102781649D01*
X244852812Y-102867809D01*
X244852809Y-102867812D01*
X244766649Y-102982906D01*
X244722976Y-103100000D01*
X198107814Y-103100000D01*
X197546819Y-102539005D01*
X197513334Y-102477682D01*
X197510500Y-102451324D01*
X197510500Y-102194500D01*
X197530185Y-102127461D01*
X197582989Y-102081706D01*
X197634500Y-102070500D01*
X197784676Y-102070500D01*
X197784677Y-102070499D01*
X197857740Y-102055966D01*
X197940601Y-102000601D01*
X197995966Y-101917740D01*
X198010500Y-101844674D01*
X198010500Y-99295326D01*
X198010500Y-99295323D01*
X198010499Y-99295321D01*
X201089500Y-99295321D01*
X201089500Y-101844678D01*
X201104032Y-101917735D01*
X201104033Y-101917739D01*
X201104740Y-101918797D01*
X201159399Y-102000601D01*
X201241554Y-102055494D01*
X201242260Y-102055966D01*
X201242264Y-102055967D01*
X201315321Y-102070499D01*
X201315324Y-102070500D01*
X201315326Y-102070500D01*
X202864676Y-102070500D01*
X202864677Y-102070499D01*
X202937740Y-102055966D01*
X203020601Y-102000601D01*
X203075966Y-101917740D01*
X203090500Y-101844674D01*
X203090500Y-99295326D01*
X203090500Y-99295323D01*
X203090499Y-99295321D01*
X206169500Y-99295321D01*
X206169500Y-101844678D01*
X206184032Y-101917735D01*
X206184033Y-101917739D01*
X206184740Y-101918797D01*
X206239399Y-102000601D01*
X206321554Y-102055494D01*
X206322260Y-102055966D01*
X206322264Y-102055967D01*
X206395321Y-102070499D01*
X206395324Y-102070500D01*
X206395326Y-102070500D01*
X207944676Y-102070500D01*
X207944677Y-102070499D01*
X208017740Y-102055966D01*
X208100601Y-102000601D01*
X208155966Y-101917740D01*
X208170500Y-101844674D01*
X208170500Y-99295326D01*
X208170500Y-99295323D01*
X208170499Y-99295321D01*
X211249500Y-99295321D01*
X211249500Y-101844678D01*
X211264032Y-101917735D01*
X211264033Y-101917739D01*
X211264740Y-101918797D01*
X211319399Y-102000601D01*
X211401554Y-102055494D01*
X211402260Y-102055966D01*
X211402264Y-102055967D01*
X211475321Y-102070499D01*
X211475324Y-102070500D01*
X211475326Y-102070500D01*
X213024676Y-102070500D01*
X213024677Y-102070499D01*
X213097740Y-102055966D01*
X213180601Y-102000601D01*
X213235966Y-101917740D01*
X213250500Y-101844674D01*
X213250500Y-99295326D01*
X213250500Y-99295323D01*
X213250499Y-99295321D01*
X216329500Y-99295321D01*
X216329500Y-101844678D01*
X216344032Y-101917735D01*
X216344033Y-101917739D01*
X216344740Y-101918797D01*
X216399399Y-102000601D01*
X216481554Y-102055494D01*
X216482260Y-102055966D01*
X216482264Y-102055967D01*
X216555321Y-102070499D01*
X216555324Y-102070500D01*
X216555326Y-102070500D01*
X218104676Y-102070500D01*
X218104677Y-102070499D01*
X218177740Y-102055966D01*
X218260601Y-102000601D01*
X218315966Y-101917740D01*
X218330500Y-101844674D01*
X218330500Y-99295326D01*
X218330500Y-99295323D01*
X218330499Y-99295321D01*
X221409500Y-99295321D01*
X221409500Y-101844678D01*
X221424032Y-101917735D01*
X221424033Y-101917739D01*
X221424740Y-101918797D01*
X221479399Y-102000601D01*
X221561554Y-102055494D01*
X221562260Y-102055966D01*
X221562264Y-102055967D01*
X221635321Y-102070499D01*
X221635324Y-102070500D01*
X221635326Y-102070500D01*
X223184676Y-102070500D01*
X223184677Y-102070499D01*
X223257740Y-102055966D01*
X223340601Y-102000601D01*
X223395966Y-101917740D01*
X223410500Y-101844674D01*
X223410500Y-99295326D01*
X223410500Y-99295323D01*
X223410499Y-99295321D01*
X226489500Y-99295321D01*
X226489500Y-101844678D01*
X226504032Y-101917735D01*
X226504033Y-101917739D01*
X226504740Y-101918797D01*
X226559399Y-102000601D01*
X226641554Y-102055494D01*
X226642260Y-102055966D01*
X226642264Y-102055967D01*
X226715321Y-102070499D01*
X226715324Y-102070500D01*
X226715326Y-102070500D01*
X228264676Y-102070500D01*
X228264677Y-102070499D01*
X228337740Y-102055966D01*
X228420601Y-102000601D01*
X228475966Y-101917740D01*
X228490500Y-101844674D01*
X228490500Y-101844628D01*
X231570000Y-101844628D01*
X231584503Y-101917540D01*
X231584505Y-101917544D01*
X231639760Y-102000239D01*
X231722455Y-102055494D01*
X231722459Y-102055496D01*
X231795371Y-102069999D01*
X231795374Y-102070000D01*
X232070000Y-102070000D01*
X233070000Y-102070000D01*
X233344626Y-102070000D01*
X233344628Y-102069999D01*
X233417540Y-102055496D01*
X233417544Y-102055494D01*
X233500239Y-102000239D01*
X233555494Y-101917544D01*
X233555496Y-101917540D01*
X233569999Y-101844628D01*
X233570000Y-101844626D01*
X233570000Y-101070000D01*
X233070000Y-101070000D01*
X233070000Y-102070000D01*
X232070000Y-102070000D01*
X232070000Y-101070000D01*
X231570000Y-101070000D01*
X231570000Y-101844628D01*
X228490500Y-101844628D01*
X228490500Y-99295371D01*
X231570000Y-99295371D01*
X231570000Y-100070000D01*
X232070000Y-100070000D01*
X233070000Y-100070000D01*
X233570000Y-100070000D01*
X233570000Y-99295372D01*
X233569990Y-99295321D01*
X236649500Y-99295321D01*
X236649500Y-101844678D01*
X236664032Y-101917735D01*
X236664033Y-101917739D01*
X236664740Y-101918797D01*
X236719399Y-102000601D01*
X236801554Y-102055494D01*
X236802260Y-102055966D01*
X236802264Y-102055967D01*
X236875321Y-102070499D01*
X236875324Y-102070500D01*
X236875326Y-102070500D01*
X238424676Y-102070500D01*
X238424677Y-102070499D01*
X238497740Y-102055966D01*
X238580601Y-102000601D01*
X238635966Y-101917740D01*
X238650500Y-101844674D01*
X238650500Y-100677135D01*
X244709500Y-100677135D01*
X244709500Y-101522870D01*
X244709501Y-101522876D01*
X244715908Y-101582483D01*
X244766202Y-101717328D01*
X244766206Y-101717335D01*
X244852452Y-101832544D01*
X244852455Y-101832547D01*
X244967664Y-101918793D01*
X244967671Y-101918797D01*
X245102517Y-101969091D01*
X245102516Y-101969091D01*
X245109444Y-101969835D01*
X245162127Y-101975500D01*
X247257872Y-101975499D01*
X247317483Y-101969091D01*
X247452331Y-101918796D01*
X247567546Y-101832546D01*
X247653796Y-101717331D01*
X247704091Y-101582483D01*
X247710500Y-101522873D01*
X247710499Y-100677128D01*
X247704091Y-100617517D01*
X247653796Y-100482669D01*
X247653795Y-100482668D01*
X247653793Y-100482664D01*
X247567547Y-100367455D01*
X247567544Y-100367452D01*
X247452335Y-100281206D01*
X247452328Y-100281202D01*
X247419599Y-100268995D01*
X248259499Y-100268995D01*
X248286418Y-100404322D01*
X248286421Y-100404332D01*
X248339221Y-100531804D01*
X248339228Y-100531817D01*
X248415885Y-100646541D01*
X248415888Y-100646545D01*
X248513454Y-100744111D01*
X248513458Y-100744114D01*
X248628182Y-100820771D01*
X248628195Y-100820778D01*
X248755667Y-100873578D01*
X248755672Y-100873580D01*
X248755676Y-100873580D01*
X248755677Y-100873581D01*
X248891004Y-100900500D01*
X248891007Y-100900500D01*
X249028995Y-100900500D01*
X249120041Y-100882389D01*
X249164328Y-100873580D01*
X249291811Y-100820775D01*
X249406542Y-100744114D01*
X249504114Y-100646542D01*
X249580775Y-100531811D01*
X249633580Y-100404328D01*
X249658071Y-100281204D01*
X249660500Y-100268995D01*
X249660500Y-100131004D01*
X249633581Y-99995677D01*
X249633580Y-99995676D01*
X249633580Y-99995672D01*
X249633578Y-99995667D01*
X249580778Y-99868195D01*
X249580771Y-99868182D01*
X249504114Y-99753458D01*
X249504111Y-99753454D01*
X249406545Y-99655888D01*
X249406541Y-99655885D01*
X249291817Y-99579228D01*
X249291804Y-99579221D01*
X249164332Y-99526421D01*
X249164322Y-99526418D01*
X249028995Y-99499500D01*
X249028993Y-99499500D01*
X248891007Y-99499500D01*
X248891005Y-99499500D01*
X248755677Y-99526418D01*
X248755667Y-99526421D01*
X248628195Y-99579221D01*
X248628182Y-99579228D01*
X248513458Y-99655885D01*
X248513454Y-99655888D01*
X248415888Y-99753454D01*
X248415885Y-99753458D01*
X248339228Y-99868182D01*
X248339221Y-99868195D01*
X248286421Y-99995667D01*
X248286418Y-99995677D01*
X248259500Y-100131004D01*
X248259500Y-100131007D01*
X248259500Y-100268993D01*
X248259500Y-100268995D01*
X248259499Y-100268995D01*
X247419599Y-100268995D01*
X247344799Y-100241097D01*
X247317482Y-100230908D01*
X247317483Y-100230908D01*
X247257883Y-100224501D01*
X247257881Y-100224500D01*
X247257873Y-100224500D01*
X247257864Y-100224500D01*
X245162129Y-100224500D01*
X245162123Y-100224501D01*
X245102516Y-100230908D01*
X244967671Y-100281202D01*
X244967664Y-100281206D01*
X244852455Y-100367452D01*
X244852452Y-100367455D01*
X244766206Y-100482664D01*
X244766202Y-100482671D01*
X244715908Y-100617517D01*
X244709501Y-100677116D01*
X244709501Y-100677123D01*
X244709500Y-100677135D01*
X238650500Y-100677135D01*
X238650500Y-99295326D01*
X238650500Y-99295323D01*
X238650499Y-99295321D01*
X238635967Y-99222264D01*
X238635966Y-99222260D01*
X238580601Y-99139399D01*
X238497740Y-99084034D01*
X238497739Y-99084033D01*
X238497735Y-99084032D01*
X238424677Y-99069500D01*
X238424674Y-99069500D01*
X236875326Y-99069500D01*
X236875323Y-99069500D01*
X236802264Y-99084032D01*
X236802260Y-99084033D01*
X236719399Y-99139399D01*
X236664033Y-99222260D01*
X236664032Y-99222264D01*
X236649500Y-99295321D01*
X233569990Y-99295321D01*
X233555496Y-99222459D01*
X233555494Y-99222455D01*
X233500239Y-99139760D01*
X233417544Y-99084505D01*
X233417540Y-99084503D01*
X233344627Y-99070000D01*
X233070000Y-99070000D01*
X233070000Y-100070000D01*
X232070000Y-100070000D01*
X232070000Y-99070000D01*
X231795373Y-99070000D01*
X231722459Y-99084503D01*
X231722455Y-99084505D01*
X231639760Y-99139760D01*
X231584505Y-99222455D01*
X231584503Y-99222459D01*
X231570000Y-99295371D01*
X228490500Y-99295371D01*
X228490500Y-99295326D01*
X228490500Y-99295323D01*
X228490499Y-99295321D01*
X228475967Y-99222264D01*
X228475966Y-99222260D01*
X228420601Y-99139399D01*
X228337740Y-99084034D01*
X228337739Y-99084033D01*
X228337735Y-99084032D01*
X228264677Y-99069500D01*
X228264674Y-99069500D01*
X226715326Y-99069500D01*
X226715323Y-99069500D01*
X226642264Y-99084032D01*
X226642260Y-99084033D01*
X226559399Y-99139399D01*
X226504033Y-99222260D01*
X226504032Y-99222264D01*
X226489500Y-99295321D01*
X223410499Y-99295321D01*
X223395967Y-99222264D01*
X223395966Y-99222260D01*
X223340601Y-99139399D01*
X223257740Y-99084034D01*
X223257739Y-99084033D01*
X223257735Y-99084032D01*
X223184677Y-99069500D01*
X223184674Y-99069500D01*
X221635326Y-99069500D01*
X221635323Y-99069500D01*
X221562264Y-99084032D01*
X221562260Y-99084033D01*
X221479399Y-99139399D01*
X221424033Y-99222260D01*
X221424032Y-99222264D01*
X221409500Y-99295321D01*
X218330499Y-99295321D01*
X218315967Y-99222264D01*
X218315966Y-99222260D01*
X218260601Y-99139399D01*
X218177740Y-99084034D01*
X218177739Y-99084033D01*
X218177735Y-99084032D01*
X218104677Y-99069500D01*
X218104674Y-99069500D01*
X216555326Y-99069500D01*
X216555323Y-99069500D01*
X216482264Y-99084032D01*
X216482260Y-99084033D01*
X216399399Y-99139399D01*
X216344033Y-99222260D01*
X216344032Y-99222264D01*
X216329500Y-99295321D01*
X213250499Y-99295321D01*
X213235967Y-99222264D01*
X213235966Y-99222260D01*
X213180601Y-99139399D01*
X213097740Y-99084034D01*
X213097739Y-99084033D01*
X213097735Y-99084032D01*
X213024677Y-99069500D01*
X213024674Y-99069500D01*
X211475326Y-99069500D01*
X211475323Y-99069500D01*
X211402264Y-99084032D01*
X211402260Y-99084033D01*
X211319399Y-99139399D01*
X211264033Y-99222260D01*
X211264032Y-99222264D01*
X211249500Y-99295321D01*
X208170499Y-99295321D01*
X208155967Y-99222264D01*
X208155966Y-99222260D01*
X208100601Y-99139399D01*
X208017740Y-99084034D01*
X208017739Y-99084033D01*
X208017735Y-99084032D01*
X207944677Y-99069500D01*
X207944674Y-99069500D01*
X206395326Y-99069500D01*
X206395323Y-99069500D01*
X206322264Y-99084032D01*
X206322260Y-99084033D01*
X206239399Y-99139399D01*
X206184033Y-99222260D01*
X206184032Y-99222264D01*
X206169500Y-99295321D01*
X203090499Y-99295321D01*
X203075967Y-99222264D01*
X203075966Y-99222260D01*
X203020601Y-99139399D01*
X202937740Y-99084034D01*
X202937739Y-99084033D01*
X202937735Y-99084032D01*
X202864677Y-99069500D01*
X202864674Y-99069500D01*
X201315326Y-99069500D01*
X201315323Y-99069500D01*
X201242264Y-99084032D01*
X201242260Y-99084033D01*
X201159399Y-99139399D01*
X201104033Y-99222260D01*
X201104032Y-99222264D01*
X201089500Y-99295321D01*
X198010499Y-99295321D01*
X197995967Y-99222264D01*
X197995966Y-99222260D01*
X197940601Y-99139399D01*
X197857740Y-99084034D01*
X197857739Y-99084033D01*
X197857735Y-99084032D01*
X197784677Y-99069500D01*
X197784674Y-99069500D01*
X196235326Y-99069500D01*
X196235323Y-99069500D01*
X196162264Y-99084032D01*
X196162260Y-99084033D01*
X196079399Y-99139399D01*
X196024033Y-99222260D01*
X196024032Y-99222264D01*
X196009500Y-99295321D01*
X192930499Y-99295321D01*
X192915967Y-99222264D01*
X192915966Y-99222260D01*
X192860601Y-99139399D01*
X192777740Y-99084034D01*
X192777739Y-99084033D01*
X192777735Y-99084032D01*
X192704677Y-99069500D01*
X192704674Y-99069500D01*
X191155326Y-99069500D01*
X191155323Y-99069500D01*
X191082264Y-99084032D01*
X191082260Y-99084033D01*
X190999399Y-99139399D01*
X190944033Y-99222260D01*
X190944032Y-99222264D01*
X190929500Y-99295321D01*
X186600829Y-99295321D01*
X186600989Y-98080064D01*
X186601952Y-98076236D01*
X186600997Y-98014238D01*
X186600997Y-98010645D01*
X186601068Y-98006504D01*
X186613155Y-97651273D01*
X186614175Y-97639076D01*
X186660949Y-97289015D01*
X186663164Y-97276993D01*
X186744243Y-96933251D01*
X186747631Y-96921516D01*
X186862228Y-96587448D01*
X186866767Y-96576081D01*
X187013759Y-96254949D01*
X187019383Y-96244112D01*
X187164515Y-95995321D01*
X188389500Y-95995321D01*
X188389500Y-98544678D01*
X188404032Y-98617735D01*
X188404033Y-98617739D01*
X188404034Y-98617740D01*
X188459399Y-98700601D01*
X188541554Y-98755494D01*
X188542260Y-98755966D01*
X188542264Y-98755967D01*
X188615321Y-98770499D01*
X188615324Y-98770500D01*
X188615326Y-98770500D01*
X190164676Y-98770500D01*
X190164677Y-98770499D01*
X190237740Y-98755966D01*
X190320601Y-98700601D01*
X190375966Y-98617740D01*
X190390500Y-98544674D01*
X190390500Y-98544628D01*
X193470000Y-98544628D01*
X193484503Y-98617540D01*
X193484505Y-98617544D01*
X193539760Y-98700239D01*
X193622455Y-98755494D01*
X193622459Y-98755496D01*
X193695371Y-98769999D01*
X193695374Y-98770000D01*
X193970000Y-98770000D01*
X194970000Y-98770000D01*
X195244626Y-98770000D01*
X195244628Y-98769999D01*
X195317540Y-98755496D01*
X195317544Y-98755494D01*
X195400239Y-98700239D01*
X195455494Y-98617544D01*
X195455496Y-98617540D01*
X195469999Y-98544628D01*
X195470000Y-98544626D01*
X195470000Y-97770000D01*
X194970000Y-97770000D01*
X194970000Y-98770000D01*
X193970000Y-98770000D01*
X193970000Y-97770000D01*
X193470000Y-97770000D01*
X193470000Y-98544628D01*
X190390500Y-98544628D01*
X190390500Y-95995371D01*
X193470000Y-95995371D01*
X193470000Y-96770000D01*
X193970000Y-96770000D01*
X194970000Y-96770000D01*
X195470000Y-96770000D01*
X195470000Y-95995372D01*
X195469990Y-95995321D01*
X198549500Y-95995321D01*
X198549500Y-98544678D01*
X198564032Y-98617735D01*
X198564033Y-98617739D01*
X198564034Y-98617740D01*
X198619399Y-98700601D01*
X198701554Y-98755494D01*
X198702260Y-98755966D01*
X198702264Y-98755967D01*
X198775321Y-98770499D01*
X198775324Y-98770500D01*
X198775326Y-98770500D01*
X200324676Y-98770500D01*
X200324677Y-98770499D01*
X200397740Y-98755966D01*
X200480601Y-98700601D01*
X200535966Y-98617740D01*
X200550500Y-98544674D01*
X200550500Y-95995326D01*
X200550500Y-95995323D01*
X200550499Y-95995321D01*
X203629500Y-95995321D01*
X203629500Y-98544678D01*
X203644032Y-98617735D01*
X203644033Y-98617739D01*
X203644034Y-98617740D01*
X203699399Y-98700601D01*
X203781554Y-98755494D01*
X203782260Y-98755966D01*
X203782264Y-98755967D01*
X203855321Y-98770499D01*
X203855324Y-98770500D01*
X203855326Y-98770500D01*
X205404676Y-98770500D01*
X205404677Y-98770499D01*
X205477740Y-98755966D01*
X205560601Y-98700601D01*
X205615966Y-98617740D01*
X205630500Y-98544674D01*
X205630500Y-95995326D01*
X205630500Y-95995323D01*
X205630499Y-95995321D01*
X208709500Y-95995321D01*
X208709500Y-98544678D01*
X208724032Y-98617735D01*
X208724033Y-98617739D01*
X208724034Y-98617740D01*
X208779399Y-98700601D01*
X208861554Y-98755494D01*
X208862260Y-98755966D01*
X208862264Y-98755967D01*
X208935321Y-98770499D01*
X208935324Y-98770500D01*
X208935326Y-98770500D01*
X210484676Y-98770500D01*
X210484677Y-98770499D01*
X210557740Y-98755966D01*
X210640601Y-98700601D01*
X210695966Y-98617740D01*
X210710500Y-98544674D01*
X210710500Y-95995326D01*
X210710500Y-95995323D01*
X210710499Y-95995321D01*
X213789500Y-95995321D01*
X213789500Y-98544678D01*
X213804032Y-98617735D01*
X213804033Y-98617739D01*
X213804034Y-98617740D01*
X213859399Y-98700601D01*
X213941554Y-98755494D01*
X213942260Y-98755966D01*
X213942264Y-98755967D01*
X214015321Y-98770499D01*
X214015324Y-98770500D01*
X214015326Y-98770500D01*
X215564676Y-98770500D01*
X215564677Y-98770499D01*
X215637740Y-98755966D01*
X215720601Y-98700601D01*
X215775966Y-98617740D01*
X215790500Y-98544674D01*
X215790500Y-98544628D01*
X218870000Y-98544628D01*
X218884503Y-98617540D01*
X218884505Y-98617544D01*
X218939760Y-98700239D01*
X219022455Y-98755494D01*
X219022459Y-98755496D01*
X219095371Y-98769999D01*
X219095374Y-98770000D01*
X219370000Y-98770000D01*
X220370000Y-98770000D01*
X220644626Y-98770000D01*
X220644628Y-98769999D01*
X220717540Y-98755496D01*
X220717544Y-98755494D01*
X220800239Y-98700239D01*
X220855494Y-98617544D01*
X220855496Y-98617540D01*
X220869999Y-98544628D01*
X220870000Y-98544626D01*
X220870000Y-97770000D01*
X220370000Y-97770000D01*
X220370000Y-98770000D01*
X219370000Y-98770000D01*
X219370000Y-97770000D01*
X218870000Y-97770000D01*
X218870000Y-98544628D01*
X215790500Y-98544628D01*
X215790500Y-95995371D01*
X218870000Y-95995371D01*
X218870000Y-96770000D01*
X219370000Y-96770000D01*
X220370000Y-96770000D01*
X220870000Y-96770000D01*
X220870000Y-95995372D01*
X220869990Y-95995321D01*
X223949500Y-95995321D01*
X223949500Y-98544678D01*
X223964032Y-98617735D01*
X223964033Y-98617739D01*
X223964034Y-98617740D01*
X224019399Y-98700601D01*
X224101554Y-98755494D01*
X224102260Y-98755966D01*
X224102264Y-98755967D01*
X224175321Y-98770499D01*
X224175324Y-98770500D01*
X224175326Y-98770500D01*
X225724676Y-98770500D01*
X225724677Y-98770499D01*
X225797740Y-98755966D01*
X225880601Y-98700601D01*
X225935966Y-98617740D01*
X225950500Y-98544674D01*
X225950500Y-95995326D01*
X225950500Y-95995323D01*
X225950499Y-95995321D01*
X229029500Y-95995321D01*
X229029500Y-98544678D01*
X229044032Y-98617735D01*
X229044033Y-98617739D01*
X229044034Y-98617740D01*
X229099399Y-98700601D01*
X229181554Y-98755494D01*
X229182260Y-98755966D01*
X229182264Y-98755967D01*
X229255321Y-98770499D01*
X229255324Y-98770500D01*
X229255326Y-98770500D01*
X230804676Y-98770500D01*
X230804677Y-98770499D01*
X230877740Y-98755966D01*
X230960601Y-98700601D01*
X231015966Y-98617740D01*
X231030500Y-98544674D01*
X231030500Y-95995326D01*
X231030500Y-95995323D01*
X231030499Y-95995321D01*
X234109500Y-95995321D01*
X234109500Y-98544678D01*
X234124032Y-98617735D01*
X234124033Y-98617739D01*
X234124034Y-98617740D01*
X234179399Y-98700601D01*
X234261554Y-98755494D01*
X234262260Y-98755966D01*
X234262264Y-98755967D01*
X234335321Y-98770499D01*
X234335324Y-98770500D01*
X234335326Y-98770500D01*
X235884676Y-98770500D01*
X235884677Y-98770499D01*
X235957740Y-98755966D01*
X236040601Y-98700601D01*
X236095966Y-98617740D01*
X236110500Y-98544674D01*
X236110500Y-97077065D01*
X242049500Y-97077065D01*
X242049500Y-97322934D01*
X242066737Y-97453854D01*
X242081591Y-97566677D01*
X242127712Y-97738804D01*
X242145222Y-97804152D01*
X242145225Y-97804162D01*
X242235365Y-98021778D01*
X242239306Y-98031292D01*
X242362233Y-98244208D01*
X242362235Y-98244211D01*
X242362236Y-98244212D01*
X242511897Y-98439254D01*
X242511903Y-98439261D01*
X242685738Y-98613096D01*
X242685745Y-98613102D01*
X242799304Y-98700239D01*
X242880792Y-98762767D01*
X243093708Y-98885694D01*
X243320847Y-98979778D01*
X243558323Y-99043409D01*
X243802073Y-99075500D01*
X243802080Y-99075500D01*
X244047920Y-99075500D01*
X244047927Y-99075500D01*
X244291677Y-99043409D01*
X244529153Y-98979778D01*
X244756292Y-98885694D01*
X244969208Y-98762767D01*
X245164256Y-98613101D01*
X245338101Y-98439256D01*
X245487767Y-98244208D01*
X245610694Y-98031292D01*
X245704778Y-97804153D01*
X245768409Y-97566677D01*
X245800500Y-97322927D01*
X245800500Y-97077073D01*
X245768409Y-96833323D01*
X245704778Y-96595847D01*
X245698899Y-96581655D01*
X245610696Y-96368714D01*
X245610694Y-96368708D01*
X245487767Y-96155792D01*
X245364637Y-95995326D01*
X245338102Y-95960745D01*
X245338096Y-95960738D01*
X245164261Y-95786903D01*
X245164254Y-95786897D01*
X244969212Y-95637236D01*
X244969211Y-95637235D01*
X244969208Y-95637233D01*
X244756292Y-95514306D01*
X244756285Y-95514303D01*
X244529162Y-95420225D01*
X244529155Y-95420223D01*
X244529153Y-95420222D01*
X244291677Y-95356591D01*
X244250939Y-95351227D01*
X244047934Y-95324500D01*
X244047927Y-95324500D01*
X243802073Y-95324500D01*
X243802065Y-95324500D01*
X243570059Y-95355045D01*
X243558323Y-95356591D01*
X243411305Y-95395984D01*
X243320847Y-95420222D01*
X243320837Y-95420225D01*
X243093714Y-95514303D01*
X243093705Y-95514307D01*
X242880787Y-95637236D01*
X242685745Y-95786897D01*
X242685738Y-95786903D01*
X242511903Y-95960738D01*
X242511897Y-95960745D01*
X242362236Y-96155787D01*
X242239307Y-96368705D01*
X242239303Y-96368714D01*
X242145225Y-96595837D01*
X242145222Y-96595847D01*
X242093799Y-96787764D01*
X242081592Y-96833320D01*
X242081590Y-96833331D01*
X242049500Y-97077065D01*
X236110500Y-97077065D01*
X236110500Y-95995326D01*
X236110500Y-95995323D01*
X236110499Y-95995321D01*
X236095967Y-95922264D01*
X236095966Y-95922260D01*
X236059771Y-95868090D01*
X236040601Y-95839399D01*
X235957740Y-95784034D01*
X235957739Y-95784033D01*
X235957735Y-95784032D01*
X235884677Y-95769500D01*
X235884674Y-95769500D01*
X234335326Y-95769500D01*
X234335323Y-95769500D01*
X234262264Y-95784032D01*
X234262260Y-95784033D01*
X234179399Y-95839399D01*
X234124033Y-95922260D01*
X234124032Y-95922264D01*
X234109500Y-95995321D01*
X231030499Y-95995321D01*
X231015967Y-95922264D01*
X231015966Y-95922260D01*
X230979771Y-95868090D01*
X230960601Y-95839399D01*
X230877740Y-95784034D01*
X230877739Y-95784033D01*
X230877735Y-95784032D01*
X230804677Y-95769500D01*
X230804674Y-95769500D01*
X229255326Y-95769500D01*
X229255323Y-95769500D01*
X229182264Y-95784032D01*
X229182260Y-95784033D01*
X229099399Y-95839399D01*
X229044033Y-95922260D01*
X229044032Y-95922264D01*
X229029500Y-95995321D01*
X225950499Y-95995321D01*
X225935967Y-95922264D01*
X225935966Y-95922260D01*
X225899771Y-95868090D01*
X225880601Y-95839399D01*
X225797740Y-95784034D01*
X225797739Y-95784033D01*
X225797735Y-95784032D01*
X225724677Y-95769500D01*
X225724674Y-95769500D01*
X224175326Y-95769500D01*
X224175323Y-95769500D01*
X224102264Y-95784032D01*
X224102260Y-95784033D01*
X224019399Y-95839399D01*
X223964033Y-95922260D01*
X223964032Y-95922264D01*
X223949500Y-95995321D01*
X220869990Y-95995321D01*
X220855496Y-95922459D01*
X220855494Y-95922455D01*
X220800239Y-95839760D01*
X220717544Y-95784505D01*
X220717540Y-95784503D01*
X220644627Y-95770000D01*
X220370000Y-95770000D01*
X220370000Y-96770000D01*
X219370000Y-96770000D01*
X219370000Y-95770000D01*
X219095373Y-95770000D01*
X219022459Y-95784503D01*
X219022455Y-95784505D01*
X218939760Y-95839760D01*
X218884505Y-95922455D01*
X218884503Y-95922459D01*
X218870000Y-95995371D01*
X215790500Y-95995371D01*
X215790500Y-95995326D01*
X215790500Y-95995323D01*
X215790499Y-95995321D01*
X215775967Y-95922264D01*
X215775966Y-95922260D01*
X215739771Y-95868090D01*
X215720601Y-95839399D01*
X215637740Y-95784034D01*
X215637739Y-95784033D01*
X215637735Y-95784032D01*
X215564677Y-95769500D01*
X215564674Y-95769500D01*
X214015326Y-95769500D01*
X214015323Y-95769500D01*
X213942264Y-95784032D01*
X213942260Y-95784033D01*
X213859399Y-95839399D01*
X213804033Y-95922260D01*
X213804032Y-95922264D01*
X213789500Y-95995321D01*
X210710499Y-95995321D01*
X210695967Y-95922264D01*
X210695966Y-95922260D01*
X210659771Y-95868090D01*
X210640601Y-95839399D01*
X210557740Y-95784034D01*
X210557739Y-95784033D01*
X210557735Y-95784032D01*
X210484677Y-95769500D01*
X210484674Y-95769500D01*
X208935326Y-95769500D01*
X208935323Y-95769500D01*
X208862264Y-95784032D01*
X208862260Y-95784033D01*
X208779399Y-95839399D01*
X208724033Y-95922260D01*
X208724032Y-95922264D01*
X208709500Y-95995321D01*
X205630499Y-95995321D01*
X205615967Y-95922264D01*
X205615966Y-95922260D01*
X205579771Y-95868090D01*
X205560601Y-95839399D01*
X205477740Y-95784034D01*
X205477739Y-95784033D01*
X205477735Y-95784032D01*
X205404677Y-95769500D01*
X205404674Y-95769500D01*
X203855326Y-95769500D01*
X203855323Y-95769500D01*
X203782264Y-95784032D01*
X203782260Y-95784033D01*
X203699399Y-95839399D01*
X203644033Y-95922260D01*
X203644032Y-95922264D01*
X203629500Y-95995321D01*
X200550499Y-95995321D01*
X200535967Y-95922264D01*
X200535966Y-95922260D01*
X200499771Y-95868090D01*
X200480601Y-95839399D01*
X200397740Y-95784034D01*
X200397739Y-95784033D01*
X200397735Y-95784032D01*
X200324677Y-95769500D01*
X200324674Y-95769500D01*
X198775326Y-95769500D01*
X198775323Y-95769500D01*
X198702264Y-95784032D01*
X198702260Y-95784033D01*
X198619399Y-95839399D01*
X198564033Y-95922260D01*
X198564032Y-95922264D01*
X198549500Y-95995321D01*
X195469990Y-95995321D01*
X195455496Y-95922459D01*
X195455494Y-95922455D01*
X195400239Y-95839760D01*
X195317544Y-95784505D01*
X195317540Y-95784503D01*
X195244627Y-95770000D01*
X194970000Y-95770000D01*
X194970000Y-96770000D01*
X193970000Y-96770000D01*
X193970000Y-95770000D01*
X193695373Y-95770000D01*
X193622459Y-95784503D01*
X193622455Y-95784505D01*
X193539760Y-95839760D01*
X193484505Y-95922455D01*
X193484503Y-95922459D01*
X193470000Y-95995371D01*
X190390500Y-95995371D01*
X190390500Y-95995326D01*
X190390500Y-95995323D01*
X190390499Y-95995321D01*
X190375967Y-95922264D01*
X190375966Y-95922260D01*
X190339771Y-95868090D01*
X190320601Y-95839399D01*
X190237740Y-95784034D01*
X190237739Y-95784033D01*
X190237735Y-95784032D01*
X190164677Y-95769500D01*
X190164674Y-95769500D01*
X188615326Y-95769500D01*
X188615323Y-95769500D01*
X188542264Y-95784032D01*
X188542260Y-95784033D01*
X188459399Y-95839399D01*
X188404033Y-95922260D01*
X188404032Y-95922264D01*
X188389500Y-95995321D01*
X187164515Y-95995321D01*
X187197347Y-95939039D01*
X187204011Y-95928810D01*
X187411201Y-95642785D01*
X187418855Y-95633248D01*
X187653239Y-95369070D01*
X187661796Y-95360335D01*
X187921125Y-95120545D01*
X187930471Y-95112723D01*
X188212191Y-94899688D01*
X188222278Y-94892815D01*
X188523619Y-94708624D01*
X188534369Y-94702762D01*
X188852410Y-94549197D01*
X188863663Y-94544435D01*
X189195303Y-94422997D01*
X189206974Y-94419366D01*
X189548974Y-94331237D01*
X189560947Y-94328775D01*
X189909979Y-94274814D01*
X189922140Y-94273545D01*
X190276879Y-94254168D01*
X190283582Y-94253984D01*
X246826524Y-94247057D01*
X246830291Y-94248005D01*
X246892367Y-94247049D01*
X246895769Y-94247048D01*
X246899964Y-94247119D01*
G37*
%TD.AperFunction*%
%TD*%
M02*
