%TF.GenerationSoftware,KiCad,Pcbnew,9.0.0*%
%TF.CreationDate,2025-07-04T19:45:27-07:00*%
%TF.ProjectId,bubby2,62756262-7932-42e6-9b69-6361645f7063,rev?*%
%TF.SameCoordinates,Original*%
%TF.FileFunction,Legend,Top*%
%TF.FilePolarity,Positive*%
%FSLAX46Y46*%
G04 Gerber Fmt 4.6, Leading zero omitted, Abs format (unit mm)*
G04 Created by KiCad (PCBNEW 9.0.0) date 2025-07-04 19:45:27*
%MOMM*%
%LPD*%
G01*
G04 APERTURE LIST*
%ADD10C,0.150000*%
%ADD11C,0.120000*%
G04 APERTURE END LIST*
D10*
G36*
X200683139Y-112238099D02*
G01*
X200672900Y-112379800D01*
X200648029Y-112466985D01*
X200600432Y-112538207D01*
X200529266Y-112593716D01*
X200445653Y-112629861D01*
X200343641Y-112652274D01*
X199990710Y-112666806D01*
X198906272Y-112666806D01*
X198577460Y-112679201D01*
X198470876Y-112702556D01*
X198399163Y-112743956D01*
X198353114Y-112804242D01*
X198325584Y-112898043D01*
X198311846Y-113179075D01*
X198336270Y-113380606D01*
X198374040Y-113441102D01*
X198437631Y-113487462D01*
X198500523Y-113517382D01*
X198594862Y-113532342D01*
X198748735Y-113539822D01*
X198990230Y-113542173D01*
X200123517Y-113542173D01*
X200399512Y-113544737D01*
X200529266Y-113561620D01*
X200599030Y-113585000D01*
X200658409Y-113627658D01*
X200697291Y-113683274D01*
X200710921Y-113752252D01*
X200684208Y-113850990D01*
X200612919Y-113908689D01*
X200494343Y-113939165D01*
X200263346Y-113952501D01*
X197856943Y-113952501D01*
X197528132Y-113935404D01*
X197413404Y-113908509D01*
X197332432Y-113866588D01*
X197275586Y-113807130D01*
X197237788Y-113721477D01*
X197213364Y-113475708D01*
X197213364Y-112728355D01*
X197230766Y-112499897D01*
X197258386Y-112432212D01*
X197304344Y-112374447D01*
X197390781Y-112316335D01*
X197493327Y-112281055D01*
X197621141Y-112263793D01*
X197843205Y-112256478D01*
X199451849Y-112256478D01*
X199654876Y-112256478D01*
X199889044Y-112239595D01*
X199967859Y-112214819D01*
X200025515Y-112176336D01*
X200063753Y-112123094D01*
X200088407Y-112039987D01*
X200102451Y-111804049D01*
X200102451Y-111536481D01*
X200085049Y-111298191D01*
X200054476Y-111218129D01*
X200004449Y-111164407D01*
X199930767Y-111127801D01*
X199822488Y-111106064D01*
X199501003Y-111093882D01*
X198374738Y-111093882D01*
X198091417Y-111106064D01*
X197990794Y-111124496D01*
X197919836Y-111152012D01*
X197866822Y-111191174D01*
X197832519Y-111241771D01*
X197808095Y-111389447D01*
X197801073Y-111495875D01*
X197777189Y-111651119D01*
X197734517Y-111728608D01*
X197655903Y-111773939D01*
X197514393Y-111791440D01*
X197355325Y-111772110D01*
X197272898Y-111723266D01*
X197232160Y-111637091D01*
X197213364Y-111449714D01*
X197213364Y-111152012D01*
X197237788Y-110908166D01*
X197277299Y-110824047D01*
X197339454Y-110766688D01*
X197428201Y-110727159D01*
X197559578Y-110700651D01*
X197940902Y-110683554D01*
X199934534Y-110683554D01*
X200308836Y-110698300D01*
X200429463Y-110720055D01*
X200515222Y-110751729D01*
X200598875Y-110803020D01*
X200651387Y-110873545D01*
X200676117Y-110983179D01*
X200683139Y-111151371D01*
X200683139Y-112238099D01*
G37*
G36*
X204553472Y-110700865D02*
G01*
X204675119Y-110727741D01*
X204759857Y-110769467D01*
X204819301Y-110829094D01*
X204857859Y-110916287D01*
X204882284Y-111163766D01*
X204882284Y-113511398D01*
X204857859Y-113734514D01*
X204819847Y-113812790D01*
X204759857Y-113869153D01*
X204675946Y-113909058D01*
X204557135Y-113935404D01*
X204217943Y-113952501D01*
X201972435Y-113952501D01*
X201608514Y-113935404D01*
X201481614Y-113907099D01*
X201395106Y-113861886D01*
X201335718Y-113797708D01*
X201297409Y-113707586D01*
X201272985Y-113447712D01*
X201272985Y-111555074D01*
X201860389Y-111555074D01*
X201860389Y-113056404D01*
X201874433Y-113321408D01*
X201898438Y-113412308D01*
X201933967Y-113468655D01*
X201990929Y-113507743D01*
X202077460Y-113529991D01*
X202343074Y-113542173D01*
X203077634Y-113542173D01*
X203472697Y-113532342D01*
X203603944Y-113513510D01*
X203682746Y-113483402D01*
X203735378Y-113435963D01*
X203766704Y-113363081D01*
X203784107Y-113139752D01*
X203784107Y-112472541D01*
X203791129Y-112305846D01*
X203798151Y-112156033D01*
X203832955Y-112062855D01*
X203913555Y-112001519D01*
X204057048Y-111952579D01*
X204191576Y-111902156D01*
X204252748Y-111856836D01*
X204281879Y-111794073D01*
X204294880Y-111667914D01*
X204301902Y-111466811D01*
X204280836Y-111280453D01*
X204248888Y-111212948D01*
X204200236Y-111165048D01*
X204131653Y-111131108D01*
X204032624Y-111108628D01*
X203756324Y-111093882D01*
X202469164Y-111093882D01*
X202129972Y-111106278D01*
X202019424Y-111128328D01*
X201948011Y-111165048D01*
X201901708Y-111219307D01*
X201874433Y-111302466D01*
X201860389Y-111555074D01*
X201272985Y-111555074D01*
X201272985Y-111163766D01*
X201297409Y-110906670D01*
X201334278Y-110832223D01*
X201391748Y-110776733D01*
X201477774Y-110731835D01*
X201587448Y-110703216D01*
X201723977Y-110689440D01*
X201965413Y-110683554D01*
X204203899Y-110683554D01*
X204553472Y-110700865D01*
G37*
G36*
X208962971Y-112238099D02*
G01*
X208952733Y-112379800D01*
X208927861Y-112466985D01*
X208880264Y-112538207D01*
X208809098Y-112593716D01*
X208725486Y-112629861D01*
X208623473Y-112652274D01*
X208270543Y-112666806D01*
X207186104Y-112666806D01*
X206857292Y-112679201D01*
X206750708Y-112702556D01*
X206678995Y-112743956D01*
X206632946Y-112804242D01*
X206605417Y-112898043D01*
X206591678Y-113179075D01*
X206616103Y-113380606D01*
X206653873Y-113441102D01*
X206717463Y-113487462D01*
X206780356Y-113517382D01*
X206874695Y-113532342D01*
X207028568Y-113539822D01*
X207270063Y-113542173D01*
X208403350Y-113542173D01*
X208679344Y-113544737D01*
X208809098Y-113561620D01*
X208878863Y-113585000D01*
X208938241Y-113627658D01*
X208977124Y-113683274D01*
X208990754Y-113752252D01*
X208964040Y-113850990D01*
X208892751Y-113908689D01*
X208774175Y-113939165D01*
X208543179Y-113952501D01*
X206136776Y-113952501D01*
X205807964Y-113935404D01*
X205693237Y-113908509D01*
X205612264Y-113866588D01*
X205555418Y-113807130D01*
X205517620Y-113721477D01*
X205493196Y-113475708D01*
X205493196Y-112728355D01*
X205510598Y-112499897D01*
X205538219Y-112432212D01*
X205584177Y-112374447D01*
X205670614Y-112316335D01*
X205773159Y-112281055D01*
X205900973Y-112263793D01*
X206123037Y-112256478D01*
X207731682Y-112256478D01*
X207934709Y-112256478D01*
X208168876Y-112239595D01*
X208247691Y-112214819D01*
X208305347Y-112176336D01*
X208343585Y-112123094D01*
X208368240Y-112039987D01*
X208382284Y-111804049D01*
X208382284Y-111536481D01*
X208364881Y-111298191D01*
X208334309Y-111218129D01*
X208284281Y-111164407D01*
X208210599Y-111127801D01*
X208102320Y-111106064D01*
X207780836Y-111093882D01*
X206654571Y-111093882D01*
X206371249Y-111106064D01*
X206270627Y-111124496D01*
X206199669Y-111152012D01*
X206146655Y-111191174D01*
X206112352Y-111241771D01*
X206087927Y-111389447D01*
X206080905Y-111495875D01*
X206057021Y-111651119D01*
X206014349Y-111728608D01*
X205935736Y-111773939D01*
X205794225Y-111791440D01*
X205635158Y-111772110D01*
X205552730Y-111723266D01*
X205511992Y-111637091D01*
X205493196Y-111449714D01*
X205493196Y-111152012D01*
X205517620Y-110908166D01*
X205557131Y-110824047D01*
X205619286Y-110766688D01*
X205708034Y-110727159D01*
X205839410Y-110700651D01*
X206220734Y-110683554D01*
X208214367Y-110683554D01*
X208588669Y-110698300D01*
X208709295Y-110720055D01*
X208795054Y-110751729D01*
X208878707Y-110803020D01*
X208931219Y-110873545D01*
X208955949Y-110983179D01*
X208962971Y-111151371D01*
X208962971Y-112238099D01*
G37*
G36*
X212973439Y-113429760D02*
G01*
X212948709Y-113703312D01*
X212910008Y-113797471D01*
X212850707Y-113862100D01*
X212765399Y-113907504D01*
X212644627Y-113935404D01*
X212287727Y-113952501D01*
X210224180Y-113952501D01*
X209849878Y-113935404D01*
X209718794Y-113908408D01*
X209629754Y-113867229D01*
X209567431Y-113807759D01*
X209528088Y-113723187D01*
X209503664Y-113474212D01*
X209503664Y-113195958D01*
X209514044Y-113005754D01*
X209566861Y-112917918D01*
X209665171Y-112863380D01*
X209797671Y-112844615D01*
X209940405Y-112862074D01*
X210024817Y-112908088D01*
X210071519Y-112984653D01*
X210091373Y-113127570D01*
X210108775Y-113344702D01*
X210136726Y-113418803D01*
X210178690Y-113469083D01*
X210240613Y-113504856D01*
X210329204Y-113527640D01*
X210588102Y-113542173D01*
X211280530Y-113542173D01*
X211595298Y-113529991D01*
X211704217Y-113509320D01*
X211777259Y-113476349D01*
X211827397Y-113427622D01*
X211857554Y-113356670D01*
X211875262Y-113151292D01*
X211875262Y-112799735D01*
X211857554Y-112570208D01*
X211825635Y-112494857D01*
X211770237Y-112443049D01*
X211688298Y-112409076D01*
X211560188Y-112389407D01*
X211182528Y-112379577D01*
X210196397Y-112379577D01*
X209839498Y-112362480D01*
X209717183Y-112336093D01*
X209629754Y-112296015D01*
X209567431Y-112238566D01*
X209528088Y-112156033D01*
X209503664Y-111917530D01*
X209503664Y-111081701D01*
X209531752Y-110887650D01*
X209571954Y-110817794D01*
X209633112Y-110764765D01*
X209716523Y-110726432D01*
X209832476Y-110700865D01*
X210147244Y-110683554D01*
X212259944Y-110683554D01*
X212522477Y-110697745D01*
X212651649Y-110729502D01*
X212728271Y-110789553D01*
X212756673Y-110891069D01*
X212731727Y-110989579D01*
X212665693Y-111048148D01*
X212555038Y-111080122D01*
X212343903Y-111093882D01*
X210658016Y-111093882D01*
X210343248Y-111108842D01*
X210241808Y-111130420D01*
X210182353Y-111158637D01*
X210142678Y-111207044D01*
X210108775Y-111295413D01*
X210084351Y-111561485D01*
X210105417Y-111775411D01*
X210139213Y-111847590D01*
X210192734Y-111897227D01*
X210268817Y-111931442D01*
X210378053Y-111954289D01*
X210699843Y-111969249D01*
X212252922Y-111969249D01*
X212623561Y-111986346D01*
X212752255Y-112013171D01*
X212843685Y-112054734D01*
X212908976Y-112114112D01*
X212948709Y-112196425D01*
X212973439Y-112438134D01*
X212973439Y-113429760D01*
G37*
G36*
X216819348Y-110700865D02*
G01*
X216940995Y-110727741D01*
X217025733Y-110769467D01*
X217085177Y-110829094D01*
X217123735Y-110916287D01*
X217148159Y-111163766D01*
X217148159Y-113511398D01*
X217123735Y-113734514D01*
X217085723Y-113812790D01*
X217025733Y-113869153D01*
X216941822Y-113909058D01*
X216823011Y-113935404D01*
X216483819Y-113952501D01*
X214238311Y-113952501D01*
X213874389Y-113935404D01*
X213747490Y-113907099D01*
X213660982Y-113861886D01*
X213601594Y-113797708D01*
X213563285Y-113707586D01*
X213538861Y-113447712D01*
X213538861Y-111555074D01*
X214126265Y-111555074D01*
X214126265Y-113056404D01*
X214140309Y-113321408D01*
X214164314Y-113412308D01*
X214199843Y-113468655D01*
X214256805Y-113507743D01*
X214343336Y-113529991D01*
X214608950Y-113542173D01*
X215343510Y-113542173D01*
X215738573Y-113532342D01*
X215869820Y-113513510D01*
X215948622Y-113483402D01*
X216001253Y-113435963D01*
X216032580Y-113363081D01*
X216049983Y-113139752D01*
X216049983Y-112472541D01*
X216057005Y-112305846D01*
X216064027Y-112156033D01*
X216098831Y-112062855D01*
X216179431Y-112001519D01*
X216322924Y-111952579D01*
X216457452Y-111902156D01*
X216518624Y-111856836D01*
X216547754Y-111794073D01*
X216560755Y-111667914D01*
X216567777Y-111466811D01*
X216546711Y-111280453D01*
X216514764Y-111212948D01*
X216466111Y-111165048D01*
X216397528Y-111131108D01*
X216298500Y-111108628D01*
X216022200Y-111093882D01*
X214735040Y-111093882D01*
X214395848Y-111106278D01*
X214285300Y-111128328D01*
X214213887Y-111165048D01*
X214167584Y-111219307D01*
X214140309Y-111302466D01*
X214126265Y-111555074D01*
X213538861Y-111555074D01*
X213538861Y-111163766D01*
X213563285Y-110906670D01*
X213600154Y-110832223D01*
X213657624Y-110776733D01*
X213743650Y-110731835D01*
X213853323Y-110703216D01*
X213989853Y-110689440D01*
X214231289Y-110683554D01*
X216469775Y-110683554D01*
X216819348Y-110700865D01*
G37*
G36*
X220480242Y-113496652D02*
G01*
X220455818Y-113717203D01*
X220420947Y-113799019D01*
X220371860Y-113856971D01*
X220302472Y-113900420D01*
X220207301Y-113930488D01*
X220095302Y-113946419D01*
X219941687Y-113952501D01*
X219665387Y-113932839D01*
X219566115Y-113904721D01*
X219490448Y-113861886D01*
X219436266Y-113803206D01*
X219399468Y-113719768D01*
X219375044Y-113491523D01*
X219375044Y-112427662D01*
X219385424Y-112221643D01*
X219420534Y-112091706D01*
X219493807Y-112010923D01*
X219626919Y-111956853D01*
X219763390Y-111902998D01*
X219843685Y-111836747D01*
X219882153Y-111733737D01*
X219892838Y-111574308D01*
X219878794Y-111312083D01*
X219850604Y-111224653D01*
X219801858Y-111167613D01*
X219727777Y-111128679D01*
X219619897Y-111106278D01*
X219291085Y-111093882D01*
X218032013Y-111093882D01*
X217826647Y-111080141D01*
X217713582Y-111047507D01*
X217644386Y-110989486D01*
X217619243Y-110898549D01*
X217646324Y-110798669D01*
X217720604Y-110734845D01*
X217840354Y-110698445D01*
X218046057Y-110683554D01*
X219843685Y-110683554D01*
X220162116Y-110703216D01*
X220274004Y-110731642D01*
X220354457Y-110774168D01*
X220411983Y-110833380D01*
X220452155Y-110918852D01*
X220480242Y-111154149D01*
X220480242Y-113496652D01*
G37*
G36*
X224420185Y-110700865D02*
G01*
X224541833Y-110727741D01*
X224626570Y-110769467D01*
X224686015Y-110829094D01*
X224724573Y-110916287D01*
X224748997Y-111163766D01*
X224748997Y-113511398D01*
X224724573Y-113734514D01*
X224686560Y-113812790D01*
X224626570Y-113869153D01*
X224542660Y-113909058D01*
X224423849Y-113935404D01*
X224084656Y-113952501D01*
X221839149Y-113952501D01*
X221475227Y-113935404D01*
X221348327Y-113907099D01*
X221261820Y-113861886D01*
X221202431Y-113797708D01*
X221164122Y-113707586D01*
X221139698Y-113447712D01*
X221139698Y-111555074D01*
X221727102Y-111555074D01*
X221727102Y-113056404D01*
X221741146Y-113321408D01*
X221765152Y-113412308D01*
X221800680Y-113468655D01*
X221857642Y-113507743D01*
X221944173Y-113529991D01*
X222209787Y-113542173D01*
X222944348Y-113542173D01*
X223339410Y-113532342D01*
X223470657Y-113513510D01*
X223549459Y-113483402D01*
X223602091Y-113435963D01*
X223633418Y-113363081D01*
X223650820Y-113139752D01*
X223650820Y-112472541D01*
X223657842Y-112305846D01*
X223664864Y-112156033D01*
X223699669Y-112062855D01*
X223780269Y-112001519D01*
X223923761Y-111952579D01*
X224058289Y-111902156D01*
X224119461Y-111856836D01*
X224148592Y-111794073D01*
X224161593Y-111667914D01*
X224168615Y-111466811D01*
X224147549Y-111280453D01*
X224115602Y-111212948D01*
X224066949Y-111165048D01*
X223998366Y-111131108D01*
X223899337Y-111108628D01*
X223623037Y-111093882D01*
X222335878Y-111093882D01*
X221996685Y-111106278D01*
X221886137Y-111128328D01*
X221814724Y-111165048D01*
X221768421Y-111219307D01*
X221741146Y-111302466D01*
X221727102Y-111555074D01*
X221139698Y-111555074D01*
X221139698Y-111163766D01*
X221164122Y-110906670D01*
X221200991Y-110832223D01*
X221258461Y-110776733D01*
X221344487Y-110731835D01*
X221454161Y-110703216D01*
X221590690Y-110689440D01*
X221832127Y-110683554D01*
X224070612Y-110683554D01*
X224420185Y-110700865D01*
G37*
G36*
X228829684Y-113429760D02*
G01*
X228804955Y-113703312D01*
X228766253Y-113797471D01*
X228706952Y-113862100D01*
X228621645Y-113907504D01*
X228500872Y-113935404D01*
X228143972Y-113952501D01*
X226080426Y-113952501D01*
X225706124Y-113935404D01*
X225575039Y-113908408D01*
X225486000Y-113867229D01*
X225423677Y-113807759D01*
X225384334Y-113723187D01*
X225359909Y-113474212D01*
X225359909Y-113195958D01*
X225370290Y-113005754D01*
X225423107Y-112917918D01*
X225521416Y-112863380D01*
X225653917Y-112844615D01*
X225796651Y-112862074D01*
X225881062Y-112908088D01*
X225927765Y-112984653D01*
X225947619Y-113127570D01*
X225965021Y-113344702D01*
X225992972Y-113418803D01*
X226034935Y-113469083D01*
X226096859Y-113504856D01*
X226185450Y-113527640D01*
X226444348Y-113542173D01*
X227136776Y-113542173D01*
X227451544Y-113529991D01*
X227560462Y-113509320D01*
X227633505Y-113476349D01*
X227683643Y-113427622D01*
X227713800Y-113356670D01*
X227731507Y-113151292D01*
X227731507Y-112799735D01*
X227713800Y-112570208D01*
X227681880Y-112494857D01*
X227626483Y-112443049D01*
X227544544Y-112409076D01*
X227416434Y-112389407D01*
X227038774Y-112379577D01*
X226052643Y-112379577D01*
X225695743Y-112362480D01*
X225573429Y-112336093D01*
X225486000Y-112296015D01*
X225423676Y-112238566D01*
X225384334Y-112156033D01*
X225359909Y-111917530D01*
X225359909Y-111081701D01*
X225387997Y-110887650D01*
X225428200Y-110817794D01*
X225489358Y-110764765D01*
X225572769Y-110726432D01*
X225688721Y-110700865D01*
X226003489Y-110683554D01*
X228116190Y-110683554D01*
X228378723Y-110697745D01*
X228507894Y-110729502D01*
X228584517Y-110789553D01*
X228612919Y-110891069D01*
X228587973Y-110989579D01*
X228521938Y-111048148D01*
X228411283Y-111080122D01*
X228200148Y-111093882D01*
X226514262Y-111093882D01*
X226199494Y-111108842D01*
X226098053Y-111130420D01*
X226038599Y-111158637D01*
X225998924Y-111207044D01*
X225965021Y-111295413D01*
X225940597Y-111561485D01*
X225961663Y-111775411D01*
X225995459Y-111847590D01*
X226048979Y-111897227D01*
X226125063Y-111931442D01*
X226234299Y-111954289D01*
X226556089Y-111969249D01*
X228109168Y-111969249D01*
X228479806Y-111986346D01*
X228608501Y-112013171D01*
X228699930Y-112054734D01*
X228765222Y-112114112D01*
X228804955Y-112196425D01*
X228829684Y-112438134D01*
X228829684Y-113429760D01*
G37*
G36*
X199659151Y-103001729D02*
G01*
X199802002Y-103050348D01*
X199919025Y-103124400D01*
X200011818Y-103242515D01*
X200075463Y-103380855D01*
X200110295Y-103545737D01*
X200124617Y-103813409D01*
X200124617Y-104797769D01*
X200134447Y-105113209D01*
X200178472Y-105309824D01*
X200286183Y-105432923D01*
X200477242Y-105526101D01*
X200672575Y-105620135D01*
X200775585Y-105752637D01*
X200819610Y-105989003D01*
X200829440Y-106402323D01*
X200829440Y-108616811D01*
X200790117Y-109079713D01*
X200734137Y-109241769D01*
X200653341Y-109355402D01*
X200541135Y-109436870D01*
X200384064Y-109493033D01*
X199948090Y-109532356D01*
X196716330Y-109532356D01*
X196246162Y-109498162D01*
X196099624Y-109449007D01*
X195982014Y-109375063D01*
X195875632Y-109246452D01*
X195815318Y-109104076D01*
X195788157Y-108927537D01*
X195776422Y-108606981D01*
X195776422Y-107682460D01*
X197304039Y-107682460D01*
X197323701Y-108226572D01*
X197358264Y-108413459D01*
X197411750Y-108535173D01*
X197496253Y-108623705D01*
X197617342Y-108677506D01*
X197989629Y-108711700D01*
X199223605Y-108711700D01*
X199664280Y-108687337D01*
X199803284Y-108638259D01*
X199899364Y-108545004D01*
X199958158Y-108408795D01*
X199992115Y-108182548D01*
X200007075Y-107496103D01*
X199992115Y-106869071D01*
X199959714Y-106660125D01*
X199904065Y-106530977D01*
X199813703Y-106439970D01*
X199683514Y-106388645D01*
X199272331Y-106359153D01*
X198038783Y-106359153D01*
X197671197Y-106383943D01*
X197540626Y-106421393D01*
X197451073Y-106477122D01*
X197386905Y-106558098D01*
X197343362Y-106678012D01*
X197313870Y-107016105D01*
X197304039Y-107682460D01*
X195776422Y-107682460D01*
X195776422Y-104722970D01*
X196598788Y-104722970D01*
X196623151Y-105155524D01*
X196663785Y-105305666D01*
X196726161Y-105404285D01*
X196818841Y-105471910D01*
X196956543Y-105513706D01*
X197372855Y-105538497D01*
X198635895Y-105538497D01*
X198973561Y-105503875D01*
X199093522Y-105453914D01*
X199179580Y-105379495D01*
X199239333Y-105276525D01*
X199282162Y-105120902D01*
X199311654Y-104683219D01*
X199287291Y-104225447D01*
X199247949Y-104060159D01*
X199189411Y-103951895D01*
X199102900Y-103873499D01*
X198983392Y-103822813D01*
X198635895Y-103787764D01*
X197392089Y-103787764D01*
X196961244Y-103812555D01*
X196820024Y-103857648D01*
X196721459Y-103936935D01*
X196656454Y-104051151D01*
X196618449Y-104220745D01*
X196598788Y-104722970D01*
X195776422Y-104722970D01*
X195776422Y-103862991D01*
X195815318Y-103400517D01*
X195875034Y-103240333D01*
X195967054Y-103129529D01*
X196095245Y-103053534D01*
X196280784Y-103001729D01*
X196814637Y-102967108D01*
X199164620Y-102967108D01*
X199659151Y-103001729D01*
G37*
G36*
X206464184Y-108646731D02*
G01*
X206424861Y-109114334D01*
X206362691Y-109268438D01*
X206258592Y-109379765D01*
X206114426Y-109454197D01*
X205900838Y-109502863D01*
X205279362Y-109532356D01*
X202723360Y-109532356D01*
X202155313Y-109498162D01*
X201955931Y-109444763D01*
X201817219Y-109365233D01*
X201717733Y-109248030D01*
X201655653Y-109079713D01*
X201616757Y-108597577D01*
X201616757Y-103471042D01*
X201648226Y-103217746D01*
X201728371Y-103061650D01*
X201850415Y-102971949D01*
X202027940Y-102939753D01*
X202228132Y-102973882D01*
X202345944Y-103063279D01*
X202411804Y-103210497D01*
X202439123Y-103472752D01*
X202439123Y-104518233D01*
X202439123Y-104834100D01*
X202453767Y-105110341D01*
X202488277Y-105268364D01*
X202559438Y-105384298D01*
X202674207Y-105455576D01*
X202840902Y-105534650D01*
X203002469Y-105633385D01*
X203100349Y-105776572D01*
X203144374Y-106042858D01*
X203154205Y-106491654D01*
X203154205Y-107616637D01*
X203154205Y-107971827D01*
X203183697Y-108366340D01*
X203230896Y-108499246D01*
X203305941Y-108588601D01*
X203412220Y-108647802D01*
X203570517Y-108687337D01*
X204035555Y-108711700D01*
X204926736Y-108711700D01*
X205289193Y-108682207D01*
X205414877Y-108638462D01*
X205504615Y-108573641D01*
X205568767Y-108482480D01*
X205612326Y-108351808D01*
X205641818Y-107981658D01*
X205641818Y-107636298D01*
X205641818Y-103472752D01*
X205670386Y-103210980D01*
X205739699Y-103063279D01*
X205860430Y-102973286D01*
X206053001Y-102939753D01*
X206245615Y-102973187D01*
X206366304Y-103062851D01*
X206435649Y-103210405D01*
X206464184Y-103471042D01*
X206464184Y-108646731D01*
G37*
G36*
X211257755Y-103001729D02*
G01*
X211400606Y-103050348D01*
X211517629Y-103124400D01*
X211610422Y-103242515D01*
X211674067Y-103380855D01*
X211708899Y-103545737D01*
X211723221Y-103813409D01*
X211723221Y-104797769D01*
X211733052Y-105113209D01*
X211777076Y-105309824D01*
X211884788Y-105432923D01*
X212075846Y-105526101D01*
X212271180Y-105620135D01*
X212374189Y-105752637D01*
X212418214Y-105989003D01*
X212428045Y-106402323D01*
X212428045Y-108616811D01*
X212388722Y-109079713D01*
X212332741Y-109241769D01*
X212251946Y-109355402D01*
X212139739Y-109436870D01*
X211982668Y-109493033D01*
X211546694Y-109532356D01*
X208314934Y-109532356D01*
X207844767Y-109498162D01*
X207698228Y-109449007D01*
X207580618Y-109375063D01*
X207474237Y-109246452D01*
X207413922Y-109104076D01*
X207386762Y-108927537D01*
X207375027Y-108606981D01*
X207375027Y-107682460D01*
X208902643Y-107682460D01*
X208922305Y-108226572D01*
X208956869Y-108413459D01*
X209010355Y-108535173D01*
X209094857Y-108623705D01*
X209215946Y-108677506D01*
X209588233Y-108711700D01*
X210822209Y-108711700D01*
X211262884Y-108687337D01*
X211401888Y-108638259D01*
X211497968Y-108545004D01*
X211556763Y-108408795D01*
X211590719Y-108182548D01*
X211605679Y-107496103D01*
X211590719Y-106869071D01*
X211558318Y-106660125D01*
X211502670Y-106530977D01*
X211412307Y-106439970D01*
X211282118Y-106388645D01*
X210870935Y-106359153D01*
X209637387Y-106359153D01*
X209269801Y-106383943D01*
X209139230Y-106421393D01*
X209049678Y-106477122D01*
X208985510Y-106558098D01*
X208941967Y-106678012D01*
X208912474Y-107016105D01*
X208902643Y-107682460D01*
X207375027Y-107682460D01*
X207375027Y-104722970D01*
X208197392Y-104722970D01*
X208221755Y-105155524D01*
X208262390Y-105305666D01*
X208324765Y-105404285D01*
X208417445Y-105471910D01*
X208555147Y-105513706D01*
X208971459Y-105538497D01*
X210234500Y-105538497D01*
X210572165Y-105503875D01*
X210692126Y-105453914D01*
X210778184Y-105379495D01*
X210837937Y-105276525D01*
X210880766Y-105120902D01*
X210910259Y-104683219D01*
X210885895Y-104225447D01*
X210846554Y-104060159D01*
X210788015Y-103951895D01*
X210701505Y-103873499D01*
X210581996Y-103822813D01*
X210234500Y-103787764D01*
X208990693Y-103787764D01*
X208559849Y-103812555D01*
X208418628Y-103857648D01*
X208320063Y-103936935D01*
X208255058Y-104051151D01*
X208217054Y-104220745D01*
X208197392Y-104722970D01*
X207375027Y-104722970D01*
X207375027Y-103862991D01*
X207413922Y-103400517D01*
X207473639Y-103240333D01*
X207565658Y-103129529D01*
X207693849Y-103053534D01*
X207879388Y-103001729D01*
X208413242Y-102967108D01*
X210763224Y-102967108D01*
X211257755Y-103001729D01*
G37*
G36*
X217098090Y-103001729D02*
G01*
X217240941Y-103050348D01*
X217357964Y-103124400D01*
X217450757Y-103242515D01*
X217514402Y-103380855D01*
X217549234Y-103545737D01*
X217563556Y-103813409D01*
X217563556Y-104797769D01*
X217573387Y-105113209D01*
X217617411Y-105309824D01*
X217725122Y-105432923D01*
X217916181Y-105526101D01*
X218111515Y-105620135D01*
X218214524Y-105752637D01*
X218258549Y-105989003D01*
X218268380Y-106402323D01*
X218268380Y-108616811D01*
X218229057Y-109079713D01*
X218173076Y-109241769D01*
X218092281Y-109355402D01*
X217980074Y-109436870D01*
X217823003Y-109493033D01*
X217387029Y-109532356D01*
X214155269Y-109532356D01*
X213685102Y-109498162D01*
X213538563Y-109449007D01*
X213420953Y-109375063D01*
X213314572Y-109246452D01*
X213254257Y-109104076D01*
X213227097Y-108927537D01*
X213215361Y-108606981D01*
X213215361Y-107682460D01*
X214742978Y-107682460D01*
X214762640Y-108226572D01*
X214797204Y-108413459D01*
X214850689Y-108535173D01*
X214935192Y-108623705D01*
X215056281Y-108677506D01*
X215428568Y-108711700D01*
X216662544Y-108711700D01*
X217103219Y-108687337D01*
X217242223Y-108638259D01*
X217338303Y-108545004D01*
X217397098Y-108408795D01*
X217431054Y-108182548D01*
X217446014Y-107496103D01*
X217431054Y-106869071D01*
X217398653Y-106660125D01*
X217343005Y-106530977D01*
X217252642Y-106439970D01*
X217122453Y-106388645D01*
X216711270Y-106359153D01*
X215477722Y-106359153D01*
X215110136Y-106383943D01*
X214979565Y-106421393D01*
X214890013Y-106477122D01*
X214825845Y-106558098D01*
X214782301Y-106678012D01*
X214752809Y-107016105D01*
X214742978Y-107682460D01*
X213215361Y-107682460D01*
X213215361Y-104722970D01*
X214037727Y-104722970D01*
X214062090Y-105155524D01*
X214102725Y-105305666D01*
X214165100Y-105404285D01*
X214257780Y-105471910D01*
X214395482Y-105513706D01*
X214811794Y-105538497D01*
X216074835Y-105538497D01*
X216412500Y-105503875D01*
X216532461Y-105453914D01*
X216618519Y-105379495D01*
X216678272Y-105276525D01*
X216721101Y-105120902D01*
X216750594Y-104683219D01*
X216726230Y-104225447D01*
X216686889Y-104060159D01*
X216628350Y-103951895D01*
X216541840Y-103873499D01*
X216422331Y-103822813D01*
X216074835Y-103787764D01*
X214831028Y-103787764D01*
X214400184Y-103812555D01*
X214258963Y-103857648D01*
X214160398Y-103936935D01*
X214095393Y-104051151D01*
X214057389Y-104220745D01*
X214037727Y-104722970D01*
X213215361Y-104722970D01*
X213215361Y-103862991D01*
X213254257Y-103400517D01*
X213313974Y-103240333D01*
X213405993Y-103129529D01*
X213534184Y-103053534D01*
X213719723Y-103001729D01*
X214253577Y-102967108D01*
X216603559Y-102967108D01*
X217098090Y-103001729D01*
G37*
G36*
X221934831Y-108550133D02*
G01*
X221915170Y-108967727D01*
X221856612Y-109208368D01*
X221757681Y-109353810D01*
X221621101Y-109453710D01*
X221447928Y-109510295D01*
X221190684Y-109532356D01*
X220965678Y-109520254D01*
X220798736Y-109488331D01*
X220656949Y-109426490D01*
X220553821Y-109335740D01*
X220481695Y-109213380D01*
X220431577Y-109039962D01*
X220397383Y-108557399D01*
X220397383Y-107129372D01*
X220372593Y-106730585D01*
X220336156Y-106589288D01*
X220284543Y-106494219D01*
X220208430Y-106424255D01*
X220098613Y-106376250D01*
X219790013Y-106341628D01*
X219613913Y-106331797D01*
X219398800Y-106319643D01*
X219241626Y-106287773D01*
X219109172Y-106226290D01*
X219011672Y-106135182D01*
X218942725Y-106014904D01*
X218894130Y-105850089D01*
X218859936Y-105388043D01*
X218859936Y-103509938D01*
X218888611Y-103230499D01*
X218957816Y-103072682D01*
X219080793Y-102975842D01*
X219280949Y-102939753D01*
X219480596Y-102975062D01*
X219598954Y-103068408D01*
X219664315Y-103223437D01*
X219692132Y-103512930D01*
X219692132Y-104787511D01*
X219716495Y-105182879D01*
X219758856Y-105317376D01*
X219829336Y-105410269D01*
X219931122Y-105473040D01*
X220083654Y-105513706D01*
X220534587Y-105538497D01*
X221817289Y-105538497D01*
X222257964Y-105513706D01*
X222410869Y-105473021D01*
X222512710Y-105410269D01*
X222583092Y-105317370D01*
X222625122Y-105182879D01*
X222649913Y-104787511D01*
X222649913Y-103503099D01*
X222678785Y-103222783D01*
X222747793Y-103068408D01*
X222870331Y-102974868D01*
X223070927Y-102939753D01*
X223270123Y-102976035D01*
X223388931Y-103072682D01*
X223454479Y-103231627D01*
X223482110Y-103521051D01*
X223482110Y-105403430D01*
X223447916Y-105861630D01*
X223398870Y-106030185D01*
X223330374Y-106147150D01*
X223234122Y-106235939D01*
X223105121Y-106300168D01*
X222952208Y-106337874D01*
X222737963Y-106359153D01*
X222561436Y-106359153D01*
X222243005Y-106403605D01*
X222132300Y-106451394D01*
X222052373Y-106521574D01*
X221996881Y-106616083D01*
X221959194Y-106752384D01*
X221934831Y-107135356D01*
X221934831Y-108550133D01*
G37*
G36*
X231018467Y-106076197D02*
G01*
X231004134Y-106359600D01*
X230969313Y-106533969D01*
X230902677Y-106676413D01*
X230803045Y-106787432D01*
X230685987Y-106859722D01*
X230543170Y-106904547D01*
X230049067Y-106933612D01*
X228530853Y-106933612D01*
X228070517Y-106958402D01*
X227921299Y-107005111D01*
X227820901Y-107087912D01*
X227756432Y-107208484D01*
X227717891Y-107396086D01*
X227698657Y-107958149D01*
X227732851Y-108361211D01*
X227785729Y-108482204D01*
X227874756Y-108574924D01*
X227962806Y-108634763D01*
X228094880Y-108664683D01*
X228310302Y-108679643D01*
X228648395Y-108684345D01*
X230234997Y-108684345D01*
X230621389Y-108689474D01*
X230803045Y-108723240D01*
X230900715Y-108769999D01*
X230983845Y-108855315D01*
X231038281Y-108966548D01*
X231057363Y-109104503D01*
X231019964Y-109301980D01*
X230920159Y-109417378D01*
X230754153Y-109478329D01*
X230430758Y-109505001D01*
X227061794Y-109505001D01*
X226601457Y-109470807D01*
X226440839Y-109417018D01*
X226327478Y-109333176D01*
X226247893Y-109214260D01*
X226194976Y-109042954D01*
X226160782Y-108551415D01*
X226160782Y-107056710D01*
X226185145Y-106599793D01*
X226223814Y-106464423D01*
X226288155Y-106348894D01*
X226409167Y-106232670D01*
X226552731Y-106162110D01*
X226731670Y-106127586D01*
X227042560Y-106112956D01*
X229294662Y-106112956D01*
X229578900Y-106112956D01*
X229906734Y-106079189D01*
X230017076Y-106029637D01*
X230097793Y-105952671D01*
X230151327Y-105846187D01*
X230185843Y-105679974D01*
X230205505Y-105208097D01*
X230205505Y-104672961D01*
X230181141Y-104196382D01*
X230138340Y-104036258D01*
X230068301Y-103928814D01*
X229965147Y-103855601D01*
X229813556Y-103812127D01*
X229363477Y-103787764D01*
X227786707Y-103787764D01*
X227390056Y-103812127D01*
X227249185Y-103848992D01*
X227149843Y-103904024D01*
X227075624Y-103982347D01*
X227027600Y-104083542D01*
X226993406Y-104378893D01*
X226983575Y-104591750D01*
X226950137Y-104902238D01*
X226890396Y-105057216D01*
X226780337Y-105147878D01*
X226582223Y-105182879D01*
X226359528Y-105144220D01*
X226244130Y-105046531D01*
X226187097Y-104874181D01*
X226160782Y-104499427D01*
X226160782Y-103904024D01*
X226194976Y-103416332D01*
X226250291Y-103248094D01*
X226337308Y-103133376D01*
X226461555Y-103054317D01*
X226645482Y-103001302D01*
X227179336Y-102967108D01*
X229970421Y-102967108D01*
X230494444Y-102996600D01*
X230663321Y-103040109D01*
X230783383Y-103103457D01*
X230900498Y-103206039D01*
X230974015Y-103347089D01*
X231008636Y-103566358D01*
X231018467Y-103902741D01*
X231018467Y-106076197D01*
G37*
X230026667Y-123707200D02*
X230169524Y-123754819D01*
X230169524Y-123754819D02*
X230407619Y-123754819D01*
X230407619Y-123754819D02*
X230502857Y-123707200D01*
X230502857Y-123707200D02*
X230550476Y-123659580D01*
X230550476Y-123659580D02*
X230598095Y-123564342D01*
X230598095Y-123564342D02*
X230598095Y-123469104D01*
X230598095Y-123469104D02*
X230550476Y-123373866D01*
X230550476Y-123373866D02*
X230502857Y-123326247D01*
X230502857Y-123326247D02*
X230407619Y-123278628D01*
X230407619Y-123278628D02*
X230217143Y-123231009D01*
X230217143Y-123231009D02*
X230121905Y-123183390D01*
X230121905Y-123183390D02*
X230074286Y-123135771D01*
X230074286Y-123135771D02*
X230026667Y-123040533D01*
X230026667Y-123040533D02*
X230026667Y-122945295D01*
X230026667Y-122945295D02*
X230074286Y-122850057D01*
X230074286Y-122850057D02*
X230121905Y-122802438D01*
X230121905Y-122802438D02*
X230217143Y-122754819D01*
X230217143Y-122754819D02*
X230455238Y-122754819D01*
X230455238Y-122754819D02*
X230598095Y-122802438D01*
X230931429Y-122754819D02*
X231169524Y-123754819D01*
X231169524Y-123754819D02*
X231360000Y-123040533D01*
X231360000Y-123040533D02*
X231550476Y-123754819D01*
X231550476Y-123754819D02*
X231788572Y-122754819D01*
X232693333Y-123754819D02*
X232121905Y-123754819D01*
X232407619Y-123754819D02*
X232407619Y-122754819D01*
X232407619Y-122754819D02*
X232312381Y-122897676D01*
X232312381Y-122897676D02*
X232217143Y-122992914D01*
X232217143Y-122992914D02*
X232121905Y-123040533D01*
X243466667Y-123707200D02*
X243609524Y-123754819D01*
X243609524Y-123754819D02*
X243847619Y-123754819D01*
X243847619Y-123754819D02*
X243942857Y-123707200D01*
X243942857Y-123707200D02*
X243990476Y-123659580D01*
X243990476Y-123659580D02*
X244038095Y-123564342D01*
X244038095Y-123564342D02*
X244038095Y-123469104D01*
X244038095Y-123469104D02*
X243990476Y-123373866D01*
X243990476Y-123373866D02*
X243942857Y-123326247D01*
X243942857Y-123326247D02*
X243847619Y-123278628D01*
X243847619Y-123278628D02*
X243657143Y-123231009D01*
X243657143Y-123231009D02*
X243561905Y-123183390D01*
X243561905Y-123183390D02*
X243514286Y-123135771D01*
X243514286Y-123135771D02*
X243466667Y-123040533D01*
X243466667Y-123040533D02*
X243466667Y-122945295D01*
X243466667Y-122945295D02*
X243514286Y-122850057D01*
X243514286Y-122850057D02*
X243561905Y-122802438D01*
X243561905Y-122802438D02*
X243657143Y-122754819D01*
X243657143Y-122754819D02*
X243895238Y-122754819D01*
X243895238Y-122754819D02*
X244038095Y-122802438D01*
X244371429Y-122754819D02*
X244609524Y-123754819D01*
X244609524Y-123754819D02*
X244800000Y-123040533D01*
X244800000Y-123040533D02*
X244990476Y-123754819D01*
X244990476Y-123754819D02*
X245228572Y-122754819D01*
X245800000Y-122754819D02*
X245895238Y-122754819D01*
X245895238Y-122754819D02*
X245990476Y-122802438D01*
X245990476Y-122802438D02*
X246038095Y-122850057D01*
X246038095Y-122850057D02*
X246085714Y-122945295D01*
X246085714Y-122945295D02*
X246133333Y-123135771D01*
X246133333Y-123135771D02*
X246133333Y-123373866D01*
X246133333Y-123373866D02*
X246085714Y-123564342D01*
X246085714Y-123564342D02*
X246038095Y-123659580D01*
X246038095Y-123659580D02*
X245990476Y-123707200D01*
X245990476Y-123707200D02*
X245895238Y-123754819D01*
X245895238Y-123754819D02*
X245800000Y-123754819D01*
X245800000Y-123754819D02*
X245704762Y-123707200D01*
X245704762Y-123707200D02*
X245657143Y-123659580D01*
X245657143Y-123659580D02*
X245609524Y-123564342D01*
X245609524Y-123564342D02*
X245561905Y-123373866D01*
X245561905Y-123373866D02*
X245561905Y-123135771D01*
X245561905Y-123135771D02*
X245609524Y-122945295D01*
X245609524Y-122945295D02*
X245657143Y-122850057D01*
X245657143Y-122850057D02*
X245704762Y-122802438D01*
X245704762Y-122802438D02*
X245800000Y-122754819D01*
X208001667Y-123707200D02*
X208144524Y-123754819D01*
X208144524Y-123754819D02*
X208382619Y-123754819D01*
X208382619Y-123754819D02*
X208477857Y-123707200D01*
X208477857Y-123707200D02*
X208525476Y-123659580D01*
X208525476Y-123659580D02*
X208573095Y-123564342D01*
X208573095Y-123564342D02*
X208573095Y-123469104D01*
X208573095Y-123469104D02*
X208525476Y-123373866D01*
X208525476Y-123373866D02*
X208477857Y-123326247D01*
X208477857Y-123326247D02*
X208382619Y-123278628D01*
X208382619Y-123278628D02*
X208192143Y-123231009D01*
X208192143Y-123231009D02*
X208096905Y-123183390D01*
X208096905Y-123183390D02*
X208049286Y-123135771D01*
X208049286Y-123135771D02*
X208001667Y-123040533D01*
X208001667Y-123040533D02*
X208001667Y-122945295D01*
X208001667Y-122945295D02*
X208049286Y-122850057D01*
X208049286Y-122850057D02*
X208096905Y-122802438D01*
X208096905Y-122802438D02*
X208192143Y-122754819D01*
X208192143Y-122754819D02*
X208430238Y-122754819D01*
X208430238Y-122754819D02*
X208573095Y-122802438D01*
X208906429Y-122754819D02*
X209144524Y-123754819D01*
X209144524Y-123754819D02*
X209335000Y-123040533D01*
X209335000Y-123040533D02*
X209525476Y-123754819D01*
X209525476Y-123754819D02*
X209763572Y-122754819D01*
X210096905Y-122850057D02*
X210144524Y-122802438D01*
X210144524Y-122802438D02*
X210239762Y-122754819D01*
X210239762Y-122754819D02*
X210477857Y-122754819D01*
X210477857Y-122754819D02*
X210573095Y-122802438D01*
X210573095Y-122802438D02*
X210620714Y-122850057D01*
X210620714Y-122850057D02*
X210668333Y-122945295D01*
X210668333Y-122945295D02*
X210668333Y-123040533D01*
X210668333Y-123040533D02*
X210620714Y-123183390D01*
X210620714Y-123183390D02*
X210049286Y-123754819D01*
X210049286Y-123754819D02*
X210668333Y-123754819D01*
X244567200Y-104933332D02*
X244614819Y-104790475D01*
X244614819Y-104790475D02*
X244614819Y-104552380D01*
X244614819Y-104552380D02*
X244567200Y-104457142D01*
X244567200Y-104457142D02*
X244519580Y-104409523D01*
X244519580Y-104409523D02*
X244424342Y-104361904D01*
X244424342Y-104361904D02*
X244329104Y-104361904D01*
X244329104Y-104361904D02*
X244233866Y-104409523D01*
X244233866Y-104409523D02*
X244186247Y-104457142D01*
X244186247Y-104457142D02*
X244138628Y-104552380D01*
X244138628Y-104552380D02*
X244091009Y-104742856D01*
X244091009Y-104742856D02*
X244043390Y-104838094D01*
X244043390Y-104838094D02*
X243995771Y-104885713D01*
X243995771Y-104885713D02*
X243900533Y-104933332D01*
X243900533Y-104933332D02*
X243805295Y-104933332D01*
X243805295Y-104933332D02*
X243710057Y-104885713D01*
X243710057Y-104885713D02*
X243662438Y-104838094D01*
X243662438Y-104838094D02*
X243614819Y-104742856D01*
X243614819Y-104742856D02*
X243614819Y-104504761D01*
X243614819Y-104504761D02*
X243662438Y-104361904D01*
X243614819Y-104028570D02*
X244614819Y-103790475D01*
X244614819Y-103790475D02*
X243900533Y-103599999D01*
X243900533Y-103599999D02*
X244614819Y-103409523D01*
X244614819Y-103409523D02*
X243614819Y-103171428D01*
X243614819Y-102314285D02*
X243614819Y-102790475D01*
X243614819Y-102790475D02*
X244091009Y-102838094D01*
X244091009Y-102838094D02*
X244043390Y-102790475D01*
X244043390Y-102790475D02*
X243995771Y-102695237D01*
X243995771Y-102695237D02*
X243995771Y-102457142D01*
X243995771Y-102457142D02*
X244043390Y-102361904D01*
X244043390Y-102361904D02*
X244091009Y-102314285D01*
X244091009Y-102314285D02*
X244186247Y-102266666D01*
X244186247Y-102266666D02*
X244424342Y-102266666D01*
X244424342Y-102266666D02*
X244519580Y-102314285D01*
X244519580Y-102314285D02*
X244567200Y-102361904D01*
X244567200Y-102361904D02*
X244614819Y-102457142D01*
X244614819Y-102457142D02*
X244614819Y-102695237D01*
X244614819Y-102695237D02*
X244567200Y-102790475D01*
X244567200Y-102790475D02*
X244519580Y-102838094D01*
X190966667Y-123707200D02*
X191109524Y-123754819D01*
X191109524Y-123754819D02*
X191347619Y-123754819D01*
X191347619Y-123754819D02*
X191442857Y-123707200D01*
X191442857Y-123707200D02*
X191490476Y-123659580D01*
X191490476Y-123659580D02*
X191538095Y-123564342D01*
X191538095Y-123564342D02*
X191538095Y-123469104D01*
X191538095Y-123469104D02*
X191490476Y-123373866D01*
X191490476Y-123373866D02*
X191442857Y-123326247D01*
X191442857Y-123326247D02*
X191347619Y-123278628D01*
X191347619Y-123278628D02*
X191157143Y-123231009D01*
X191157143Y-123231009D02*
X191061905Y-123183390D01*
X191061905Y-123183390D02*
X191014286Y-123135771D01*
X191014286Y-123135771D02*
X190966667Y-123040533D01*
X190966667Y-123040533D02*
X190966667Y-122945295D01*
X190966667Y-122945295D02*
X191014286Y-122850057D01*
X191014286Y-122850057D02*
X191061905Y-122802438D01*
X191061905Y-122802438D02*
X191157143Y-122754819D01*
X191157143Y-122754819D02*
X191395238Y-122754819D01*
X191395238Y-122754819D02*
X191538095Y-122802438D01*
X191871429Y-122754819D02*
X192109524Y-123754819D01*
X192109524Y-123754819D02*
X192300000Y-123040533D01*
X192300000Y-123040533D02*
X192490476Y-123754819D01*
X192490476Y-123754819D02*
X192728572Y-122754819D01*
X193014286Y-122754819D02*
X193633333Y-122754819D01*
X193633333Y-122754819D02*
X193300000Y-123135771D01*
X193300000Y-123135771D02*
X193442857Y-123135771D01*
X193442857Y-123135771D02*
X193538095Y-123183390D01*
X193538095Y-123183390D02*
X193585714Y-123231009D01*
X193585714Y-123231009D02*
X193633333Y-123326247D01*
X193633333Y-123326247D02*
X193633333Y-123564342D01*
X193633333Y-123564342D02*
X193585714Y-123659580D01*
X193585714Y-123659580D02*
X193538095Y-123707200D01*
X193538095Y-123707200D02*
X193442857Y-123754819D01*
X193442857Y-123754819D02*
X193157143Y-123754819D01*
X193157143Y-123754819D02*
X193061905Y-123707200D01*
X193061905Y-123707200D02*
X193014286Y-123659580D01*
X245907200Y-119108332D02*
X245954819Y-118965475D01*
X245954819Y-118965475D02*
X245954819Y-118727380D01*
X245954819Y-118727380D02*
X245907200Y-118632142D01*
X245907200Y-118632142D02*
X245859580Y-118584523D01*
X245859580Y-118584523D02*
X245764342Y-118536904D01*
X245764342Y-118536904D02*
X245669104Y-118536904D01*
X245669104Y-118536904D02*
X245573866Y-118584523D01*
X245573866Y-118584523D02*
X245526247Y-118632142D01*
X245526247Y-118632142D02*
X245478628Y-118727380D01*
X245478628Y-118727380D02*
X245431009Y-118917856D01*
X245431009Y-118917856D02*
X245383390Y-119013094D01*
X245383390Y-119013094D02*
X245335771Y-119060713D01*
X245335771Y-119060713D02*
X245240533Y-119108332D01*
X245240533Y-119108332D02*
X245145295Y-119108332D01*
X245145295Y-119108332D02*
X245050057Y-119060713D01*
X245050057Y-119060713D02*
X245002438Y-119013094D01*
X245002438Y-119013094D02*
X244954819Y-118917856D01*
X244954819Y-118917856D02*
X244954819Y-118679761D01*
X244954819Y-118679761D02*
X245002438Y-118536904D01*
X244954819Y-118203570D02*
X245954819Y-117965475D01*
X245954819Y-117965475D02*
X245240533Y-117774999D01*
X245240533Y-117774999D02*
X245954819Y-117584523D01*
X245954819Y-117584523D02*
X244954819Y-117346428D01*
X245288152Y-116536904D02*
X245954819Y-116536904D01*
X244907200Y-116774999D02*
X245621485Y-117013094D01*
X245621485Y-117013094D02*
X245621485Y-116394047D01*
X238454104Y-96483339D02*
X238454104Y-96007149D01*
X238739819Y-96578577D02*
X237739819Y-96245244D01*
X237739819Y-96245244D02*
X238739819Y-95911911D01*
X238739819Y-95054768D02*
X238739819Y-95626196D01*
X238739819Y-95340482D02*
X237739819Y-95340482D01*
X237739819Y-95340482D02*
X237882676Y-95435720D01*
X237882676Y-95435720D02*
X237977914Y-95530958D01*
X237977914Y-95530958D02*
X238025533Y-95626196D01*
D11*
%TO.C,SW1*%
X228910000Y-125920000D02*
X228910000Y-126470000D01*
X229010000Y-124345000D02*
X233710000Y-124345000D01*
X229010000Y-128045000D02*
X229935000Y-128045000D01*
X232785000Y-128045000D02*
X233710000Y-128045000D01*
X233810000Y-125920000D02*
X233810000Y-126470000D01*
%TO.C,SW0*%
X242350000Y-125920000D02*
X242350000Y-126470000D01*
X242450000Y-124345000D02*
X247150000Y-124345000D01*
X242450000Y-128045000D02*
X243375000Y-128045000D01*
X246225000Y-128045000D02*
X247150000Y-128045000D01*
X247250000Y-125920000D02*
X247250000Y-126470000D01*
%TO.C,SW2*%
X206885000Y-125935000D02*
X206885000Y-126485000D01*
X206985000Y-124360000D02*
X211685000Y-124360000D01*
X206985000Y-128060000D02*
X207910000Y-128060000D01*
X210760000Y-128060000D02*
X211685000Y-128060000D01*
X211785000Y-125935000D02*
X211785000Y-126485000D01*
%TO.C,SW5*%
X247060000Y-99000000D02*
X249360000Y-99000000D01*
X247060000Y-100200000D02*
X247060000Y-99000000D01*
X247060000Y-102000000D02*
X247060000Y-102700000D01*
X247060000Y-104500000D02*
X247060000Y-105200000D01*
X247060000Y-108200000D02*
X247060000Y-107000000D01*
X249360000Y-108200000D02*
X247060000Y-108200000D01*
%TO.C,SW3*%
X189850000Y-125920000D02*
X189850000Y-126470000D01*
X189950000Y-124345000D02*
X194650000Y-124345000D01*
X189950000Y-128045000D02*
X190875000Y-128045000D01*
X193725000Y-128045000D02*
X194650000Y-128045000D01*
X194750000Y-125920000D02*
X194750000Y-126470000D01*
%TO.C,SW4*%
X246545000Y-120125000D02*
X246545000Y-115425000D01*
X248120000Y-115325000D02*
X248670000Y-115325000D01*
X248120000Y-120225000D02*
X248670000Y-120225000D01*
X250245000Y-116350000D02*
X250245000Y-115425000D01*
X250245000Y-120125000D02*
X250245000Y-119200000D01*
%TO.C,A1*%
X187910000Y-98520000D02*
X187910000Y-101010000D01*
X187910000Y-118520000D02*
X187910000Y-116030000D01*
X187960000Y-97590000D02*
X188630000Y-97590000D01*
X187960000Y-100250000D02*
X187960000Y-97590000D01*
X187960000Y-100250000D02*
X191170000Y-100250000D01*
X187990000Y-116820000D02*
X188660000Y-116820000D01*
X187990000Y-119480000D02*
X187990000Y-116820000D01*
X187990000Y-119480000D02*
X191200000Y-119480000D01*
X188330000Y-119099676D02*
X188330000Y-119610000D01*
X188630000Y-97590000D02*
X188630000Y-96380000D01*
X188660000Y-116820000D02*
X188660000Y-115610000D01*
X190150000Y-97590000D02*
X193710000Y-97590000D01*
X190180000Y-116820000D02*
X193740000Y-116820000D01*
X190450000Y-97910000D02*
X190870000Y-97910000D01*
X190450000Y-119130000D02*
X190450000Y-119610000D01*
X190450000Y-119130000D02*
X190870000Y-119130000D01*
X192690000Y-100250000D02*
X196250000Y-100250000D01*
X192720000Y-119480000D02*
X196280000Y-119480000D01*
X192990000Y-97910000D02*
X193410000Y-97910000D01*
X192990000Y-119130000D02*
X193410000Y-119130000D01*
X195230000Y-97590000D02*
X198790000Y-97590000D01*
X195260000Y-116820000D02*
X198820000Y-116820000D01*
X195530000Y-97910000D02*
X195950000Y-97910000D01*
X195530000Y-119130000D02*
X195950000Y-119130000D01*
X197770000Y-100250000D02*
X201330000Y-100250000D01*
X197800000Y-119480000D02*
X201360000Y-119480000D01*
X198070000Y-97910000D02*
X198490000Y-97910000D01*
X198070000Y-119130000D02*
X198490000Y-119130000D01*
X200310000Y-97590000D02*
X203870000Y-97590000D01*
X200340000Y-116820000D02*
X203900000Y-116820000D01*
X200610000Y-97910000D02*
X201030000Y-97910000D01*
X200610000Y-119130000D02*
X201030000Y-119130000D01*
X202850000Y-100250000D02*
X206410000Y-100250000D01*
X202880000Y-119480000D02*
X206440000Y-119480000D01*
X203150000Y-97910000D02*
X203570000Y-97910000D01*
X203150000Y-119130000D02*
X203570000Y-119130000D01*
X205390000Y-97590000D02*
X208950000Y-97590000D01*
X205420000Y-116820000D02*
X208980000Y-116820000D01*
X205690000Y-97910000D02*
X206110000Y-97910000D01*
X205690000Y-119130000D02*
X206110000Y-119130000D01*
X207930000Y-100250000D02*
X211490000Y-100250000D01*
X207960000Y-119480000D02*
X211520000Y-119480000D01*
X208230000Y-97910000D02*
X208650000Y-97910000D01*
X208230000Y-119130000D02*
X208650000Y-119130000D01*
X210470000Y-97590000D02*
X214030000Y-97590000D01*
X210500000Y-116820000D02*
X214060000Y-116820000D01*
X210770000Y-97910000D02*
X211190000Y-97910000D01*
X210770000Y-119130000D02*
X211190000Y-119130000D01*
X213010000Y-100250000D02*
X216570000Y-100250000D01*
X213040000Y-119480000D02*
X216600000Y-119480000D01*
X213310000Y-97910000D02*
X213730000Y-97910000D01*
X213310000Y-119130000D02*
X213730000Y-119130000D01*
X215550000Y-97590000D02*
X219110000Y-97590000D01*
X215580000Y-116820000D02*
X219140000Y-116820000D01*
X215850000Y-97910000D02*
X216270000Y-97910000D01*
X215850000Y-119130000D02*
X216270000Y-119130000D01*
X218090000Y-100250000D02*
X221650000Y-100250000D01*
X218120000Y-119480000D02*
X221680000Y-119480000D01*
X218390000Y-97910000D02*
X218810000Y-97910000D01*
X218390000Y-119130000D02*
X218810000Y-119130000D01*
X220630000Y-97590000D02*
X224190000Y-97590000D01*
X220660000Y-116820000D02*
X224220000Y-116820000D01*
X220930000Y-97910000D02*
X221350000Y-97910000D01*
X220930000Y-119130000D02*
X221350000Y-119130000D01*
X223170000Y-100250000D02*
X226730000Y-100250000D01*
X223200000Y-119480000D02*
X226760000Y-119480000D01*
X223470000Y-97910000D02*
X223890000Y-97910000D01*
X223470000Y-119130000D02*
X223890000Y-119130000D01*
X225710000Y-97590000D02*
X229270000Y-97590000D01*
X225740000Y-116820000D02*
X229300000Y-116820000D01*
X226010000Y-97910000D02*
X226430000Y-97910000D01*
X226010000Y-119130000D02*
X226430000Y-119130000D01*
X228250000Y-100250000D02*
X231810000Y-100250000D01*
X228280000Y-119480000D02*
X231840000Y-119480000D01*
X228550000Y-97910000D02*
X228970000Y-97910000D01*
X228550000Y-119130000D02*
X228970000Y-119130000D01*
X230790000Y-97590000D02*
X234350000Y-97590000D01*
X230820000Y-116820000D02*
X234380000Y-116820000D01*
X231090000Y-97910000D02*
X231510000Y-97910000D01*
X231090000Y-119130000D02*
X231510000Y-119130000D01*
X233330000Y-100250000D02*
X236890000Y-100250000D01*
X233360000Y-119480000D02*
X236920000Y-119480000D01*
X233630000Y-97910000D02*
X234050000Y-97910000D01*
X233630000Y-119130000D02*
X234050000Y-119130000D01*
X235870000Y-97590000D02*
X239080000Y-97590000D01*
X235900000Y-116820000D02*
X239110000Y-116820000D01*
X236170000Y-97910000D02*
X236590000Y-97910000D01*
X236170000Y-119130000D02*
X236590000Y-119130000D01*
X238410000Y-100250000D02*
X239080000Y-100250000D01*
X238440000Y-119480000D02*
X239110000Y-119480000D01*
X239080000Y-100250000D02*
X239080000Y-97590000D01*
X239110000Y-119480000D02*
X239110000Y-116820000D01*
X187910000Y-98520000D02*
G75*
G02*
X188330063Y-97940324I610000J0D01*
G01*
X188330000Y-119099676D02*
G75*
G02*
X187910000Y-118520000I190051J579692D01*
G01*
%TD*%
M02*
