  0
SECTION
  2
HEADER
  9
$ANGBASE
  50
0.0
  9
$ANGDIR
  70
1
  9
$MEASUREMENT
  70
1
  0
ENDSEC
  0
SECTION
  2
TABLES
  0
TABLE
  2
LTYPE
  70
4
  0
LTYPE
  5
40F
  2
CONTINUOUS
  70
0
  3
Solid line
  72
65
  73
0
  40
0.0
  0
LTYPE
  5
410
  2
DASHDOT
 70
0
  3
Dash Dot ____ _ ____ _
 72
65
 73
4
 40
2.0
 49
1.25
 49
-0.25
 49
0.25
 49
-0.25
  0
LTYPE
  5
411
  2
DASHED
 70
0
  3
Dashed __ __ __ __ __
 72
65
 73
2
 40
0.75
 49
0.5
 49
-0.25
  0
LTYPE
  5
43B
  2
DOTTED
 70
0
  3
Dotted .  .  .  .
 72
65
 73
2
 40
0.2
 49
0.0
 49
-0.2
  0
ENDTAB
  0
TABLE
  2
STYLE
  70
4
  0
STYLE
  2
KICAD
  70
0
  40
0
  41
1
  42
1
  50
0
  71
0
  3
isocp.shx
  0
STYLE
  2
KICADB
  70
0
  40
0
  41
1
  42
1
  50
0
  71
0
  3
isocp.shx
  0
STYLE
  2
KICADI
  70
0
  40
0
  41
1
  42
1
  50
15
  71
0
  3
isocp.shx
  0
STYLE
  2
KICADBI
  70
0
  40
0
  41
1
  42
1
  50
15
  71
0
  3
isocp.shx
  0
ENDTAB
  0
TABLE
  2
LAYER
  70
1
  0
LAYER
  2
BLACK
  70
0
  62
7
  6
CONTINUOUS
  0
ENDTAB
  0
ENDSEC
  0
SECTION
  2
ENTITIES
0
LINE
8
BLACK
6
CONTINUOUS
10
220.4518239999999878
20
-123.7386819999999972
11
220.6607569999999896
21
-123.8065689999999961
0
LINE
8
BLACK
6
CONTINUOUS
10
220.6607569999999896
20
-123.8065689999999961
11
220.8564979999999878
21
-123.9063039999999916
0
LINE
8
BLACK
6
CONTINUOUS
10
220.8564979999999878
20
-123.9063039999999916
11
221.0342269999999871
21
-124.0354320000000001
0
LINE
8
BLACK
6
CONTINUOUS
10
221.0342269999999871
20
-124.0354320000000001
11
221.18956799999998
21
-124.190772999999993
0
LINE
8
BLACK
6
CONTINUOUS
10
221.18956799999998
20
-124.190772999999993
11
221.3186959999999885
21
-124.3685019999999923
0
LINE
8
BLACK
6
CONTINUOUS
10
221.3186959999999885
20
-124.3685019999999923
11
221.4184309999999982
21
-124.5642429999999905
0
LINE
8
BLACK
6
CONTINUOUS
10
221.4184309999999982
20
-124.5642429999999905
11
221.4863179999999829
21
-124.7731759999999923
0
LINE
8
BLACK
6
CONTINUOUS
10
221.4863179999999829
20
-124.7731759999999923
11
221.5206839999999886
21
-124.9901569999999964
0
LINE
8
BLACK
6
CONTINUOUS
10
221.5206839999999886
20
-124.9901569999999964
11
221.5206839999999886
21
-125.2098429999999922
0
LINE
8
BLACK
6
CONTINUOUS
10
221.5206839999999886
20
-125.2098429999999922
11
221.4863179999999829
21
-125.4268239999999963
0
LINE
8
BLACK
6
CONTINUOUS
10
221.4863179999999829
20
-125.4268239999999963
11
221.4184309999999982
21
-125.6357569999999981
0
LINE
8
BLACK
6
CONTINUOUS
10
221.4184309999999982
20
-125.6357569999999981
11
221.3186959999999885
21
-125.8314979999999963
0
LINE
8
BLACK
6
CONTINUOUS
10
221.3186959999999885
20
-125.8314979999999963
11
221.18956799999998
21
-126.0092269999999957
0
LINE
8
BLACK
6
CONTINUOUS
10
221.18956799999998
20
-126.0092269999999957
11
221.0342269999999871
21
-126.1645679999999885
0
LINE
8
BLACK
6
CONTINUOUS
10
221.0342269999999871
20
-126.1645679999999885
11
220.8564979999999878
21
-126.2936959999999971
0
LINE
8
BLACK
6
CONTINUOUS
10
220.8564979999999878
20
-126.2936959999999971
11
220.6607569999999896
21
-126.3934309999999925
0
LINE
8
BLACK
6
CONTINUOUS
10
220.6607569999999896
20
-126.3934309999999925
11
220.4518239999999878
21
-126.4613179999999915
0
LINE
8
BLACK
6
CONTINUOUS
10
220.4518239999999878
20
-126.4613179999999915
11
220.2348429999999837
21
-126.4956839999999971
0
LINE
8
BLACK
6
CONTINUOUS
10
220.2348429999999837
20
-126.4956839999999971
11
220.0151569999999879
21
-126.4956839999999971
0
LINE
8
BLACK
6
CONTINUOUS
10
220.0151569999999879
20
-126.4956839999999971
11
219.7981759999999838
21
-126.4613179999999915
0
LINE
8
BLACK
6
CONTINUOUS
10
219.7981759999999838
20
-126.4613179999999915
11
219.589242999999982
21
-126.3934309999999925
0
LINE
8
BLACK
6
CONTINUOUS
10
219.589242999999982
20
-126.3934309999999925
11
219.3935019999999838
21
-126.2936959999999971
0
LINE
8
BLACK
6
CONTINUOUS
10
219.3935019999999838
20
-126.2936959999999971
11
219.2157729999999844
21
-126.1645679999999885
0
LINE
8
BLACK
6
CONTINUOUS
10
219.2157729999999844
20
-126.1645679999999885
11
219.0604319999999916
21
-126.0092269999999957
0
LINE
8
BLACK
6
CONTINUOUS
10
219.0604319999999916
20
-126.0092269999999957
11
218.931303999999983
21
-125.8314979999999963
0
LINE
8
BLACK
6
CONTINUOUS
10
218.931303999999983
20
-125.8314979999999963
11
218.8315690000000018
21
-125.6357569999999981
0
LINE
8
BLACK
6
CONTINUOUS
10
218.8315690000000018
20
-125.6357569999999981
11
218.7636819999999886
21
-125.4268239999999963
0
LINE
8
BLACK
6
CONTINUOUS
10
218.7636819999999886
20
-125.4268239999999963
11
218.729315999999983
21
-125.2098429999999922
0
LINE
8
BLACK
6
CONTINUOUS
10
218.729315999999983
20
-125.2098429999999922
11
218.729315999999983
21
-124.9937529999999981
0
LINE
8
BLACK
6
CONTINUOUS
10
218.729315999999983
20
-124.9937529999999981
11
218.729315999999983
21
-124.9901569999999964
0
LINE
8
BLACK
6
CONTINUOUS
10
218.729315999999983
20
-124.9901569999999964
11
218.7636819999999886
21
-124.7731759999999923
0
LINE
8
BLACK
6
CONTINUOUS
10
218.7636819999999886
20
-124.7731759999999923
11
218.8315690000000018
21
-124.5642429999999905
0
LINE
8
BLACK
6
CONTINUOUS
10
218.8315690000000018
20
-124.5642429999999905
11
218.931303999999983
21
-124.3685019999999923
0
LINE
8
BLACK
6
CONTINUOUS
10
218.931303999999983
20
-124.3685019999999923
11
219.0604319999999916
21
-124.190772999999993
0
LINE
8
BLACK
6
CONTINUOUS
10
219.0604319999999916
20
-124.190772999999993
11
219.2157729999999844
21
-124.0354320000000001
0
LINE
8
BLACK
6
CONTINUOUS
10
219.2157729999999844
20
-124.0354320000000001
11
219.3935019999999838
21
-123.9063039999999916
0
LINE
8
BLACK
6
CONTINUOUS
10
219.3935019999999838
20
-123.9063039999999916
11
219.589242999999982
21
-123.8065689999999961
0
LINE
8
BLACK
6
CONTINUOUS
10
219.589242999999982
20
-123.8065689999999961
11
219.7981759999999838
21
-123.7386819999999972
0
LINE
8
BLACK
6
CONTINUOUS
10
219.7981759999999838
20
-123.7386819999999972
11
220.0151569999999879
21
-123.7043159999999915
0
LINE
8
BLACK
6
CONTINUOUS
10
220.0151569999999879
20
-123.7043159999999915
11
220.2348429999999837
21
-123.7043159999999915
0
LINE
8
BLACK
6
CONTINUOUS
10
220.2348429999999837
20
-123.7043159999999915
11
220.4518239999999878
21
-123.7386819999999972
0
LINE
8
BLACK
6
CONTINUOUS
10
218.7749999999999773
20
-125.2062469999999905
11
218.8082419999999786
21
-125.4161259999999913
0
LINE
8
BLACK
6
CONTINUOUS
10
218.8082419999999786
20
-125.4161259999999913
11
218.8739059999999768
21
-125.6182199999999938
0
LINE
8
BLACK
6
CONTINUOUS
10
218.8739059999999768
20
-125.6182199999999938
11
218.9703769999999849
21
-125.8075539999999961
0
LINE
8
BLACK
6
CONTINUOUS
10
218.9703769999999849
20
-125.8075539999999961
11
219.0952779999999791
21
-125.979465999999988
0
LINE
8
BLACK
6
CONTINUOUS
10
219.0952779999999791
20
-125.979465999999988
11
219.2455339999999921
21
-126.129722000000001
0
LINE
8
BLACK
6
CONTINUOUS
10
219.2455339999999921
20
-126.129722000000001
11
219.417445999999984
21
-126.2546229999999952
0
LINE
8
BLACK
6
CONTINUOUS
10
219.417445999999984
20
-126.2546229999999952
11
219.6067799999999863
21
-126.3510939999999891
0
LINE
8
BLACK
6
CONTINUOUS
10
219.6067799999999863
20
-126.3510939999999891
11
219.808874000000003
21
-126.4167579999999873
0
LINE
8
BLACK
6
CONTINUOUS
10
219.808874000000003
20
-126.4167579999999873
11
220.0187530000000038
21
-126.4499999999999886
0
LINE
8
BLACK
6
CONTINUOUS
10
220.0187530000000038
20
-126.4499999999999886
11
220.2312469999999962
21
-126.4499999999999886
0
LINE
8
BLACK
6
CONTINUOUS
10
220.2312469999999962
20
-126.4499999999999886
11
220.441125999999997
21
-126.4167579999999873
0
LINE
8
BLACK
6
CONTINUOUS
10
220.441125999999997
20
-126.4167579999999873
11
220.6432199999999852
21
-126.3510939999999891
0
LINE
8
BLACK
6
CONTINUOUS
10
220.6432199999999852
20
-126.3510939999999891
11
220.8325539999999876
21
-126.2546229999999952
0
LINE
8
BLACK
6
CONTINUOUS
10
220.8325539999999876
20
-126.2546229999999952
11
221.0044659999999794
21
-126.129722000000001
0
LINE
8
BLACK
6
CONTINUOUS
10
221.0044659999999794
20
-126.129722000000001
11
221.1547219999999925
21
-125.979465999999988
0
LINE
8
BLACK
6
CONTINUOUS
10
221.1547219999999925
20
-125.979465999999988
11
221.2796229999999866
21
-125.8075539999999961
0
LINE
8
BLACK
6
CONTINUOUS
10
221.2796229999999866
20
-125.8075539999999961
11
221.3760939999999948
21
-125.6182199999999938
0
LINE
8
BLACK
6
CONTINUOUS
10
221.3760939999999948
20
-125.6182199999999938
11
221.441757999999993
21
-125.4161259999999913
0
LINE
8
BLACK
6
CONTINUOUS
10
221.441757999999993
20
-125.4161259999999913
11
221.4749999999999943
21
-125.2062469999999905
0
LINE
8
BLACK
6
CONTINUOUS
10
221.4749999999999943
20
-125.2062469999999905
11
221.4749999999999943
21
-124.9937529999999981
0
LINE
8
BLACK
6
CONTINUOUS
10
221.4749999999999943
20
-124.9937529999999981
11
221.441757999999993
21
-124.7838739999999973
0
LINE
8
BLACK
6
CONTINUOUS
10
221.441757999999993
20
-124.7838739999999973
11
221.3760939999999948
21
-124.5817799999999949
0
LINE
8
BLACK
6
CONTINUOUS
10
221.3760939999999948
20
-124.5817799999999949
11
221.2796229999999866
21
-124.3924459999999925
0
LINE
8
BLACK
6
CONTINUOUS
10
221.2796229999999866
20
-124.3924459999999925
11
221.1547219999999925
21
-124.2205340000000007
0
LINE
8
BLACK
6
CONTINUOUS
10
221.1547219999999925
20
-124.2205340000000007
11
221.0044659999999794
21
-124.0702779999999876
0
LINE
8
BLACK
6
CONTINUOUS
10
221.0044659999999794
20
-124.0702779999999876
11
220.8325539999999876
21
-123.9453769999999935
0
LINE
8
BLACK
6
CONTINUOUS
10
220.8325539999999876
20
-123.9453769999999935
11
220.6432199999999852
21
-123.8489059999999995
0
LINE
8
BLACK
6
CONTINUOUS
10
220.6432199999999852
20
-123.8489059999999995
11
220.441125999999997
21
-123.7832420000000013
0
LINE
8
BLACK
6
CONTINUOUS
10
220.441125999999997
20
-123.7832420000000013
11
220.2312469999999962
21
-123.75
0
LINE
8
BLACK
6
CONTINUOUS
10
220.2312469999999962
20
-123.75
11
220.0187530000000038
21
-123.75
0
LINE
8
BLACK
6
CONTINUOUS
10
220.0187530000000038
20
-123.75
11
219.808874000000003
21
-123.7832420000000013
0
LINE
8
BLACK
6
CONTINUOUS
10
219.808874000000003
20
-123.7832420000000013
11
219.6067799999999863
21
-123.8489059999999995
0
LINE
8
BLACK
6
CONTINUOUS
10
219.6067799999999863
20
-123.8489059999999995
11
219.417445999999984
21
-123.9453769999999935
0
LINE
8
BLACK
6
CONTINUOUS
10
219.417445999999984
20
-123.9453769999999935
11
219.2455339999999921
21
-124.0702779999999876
0
LINE
8
BLACK
6
CONTINUOUS
10
219.2455339999999921
20
-124.0702779999999876
11
219.0952779999999791
21
-124.2205340000000007
0
LINE
8
BLACK
6
CONTINUOUS
10
219.0952779999999791
20
-124.2205340000000007
11
218.9703769999999849
21
-124.3924459999999925
0
LINE
8
BLACK
6
CONTINUOUS
10
218.9703769999999849
20
-124.3924459999999925
11
218.8739059999999768
21
-124.5817799999999949
0
LINE
8
BLACK
6
CONTINUOUS
10
218.8739059999999768
20
-124.5817799999999949
11
218.8082419999999786
21
-124.7838739999999973
0
LINE
8
BLACK
6
CONTINUOUS
10
218.8082419999999786
20
-124.7838739999999973
11
218.7749999999999773
21
-124.9937529999999981
0
LINE
8
BLACK
6
CONTINUOUS
10
218.7749999999999773
20
-124.9937529999999981
11
218.7749999999999773
21
-125.2062469999999905
0
LINE
8
BLACK
6
CONTINUOUS
10
243.1518239999999764
20
-119.0136819999999886
11
243.3607569999999782
21
-119.0815689999999876
0
LINE
8
BLACK
6
CONTINUOUS
10
243.3607569999999782
20
-119.0815689999999876
11
243.5564979999999764
21
-119.1813039999999972
0
LINE
8
BLACK
6
CONTINUOUS
10
243.5564979999999764
20
-119.1813039999999972
11
243.7342269999999758
21
-119.3104319999999916
0
LINE
8
BLACK
6
CONTINUOUS
10
243.7342269999999758
20
-119.3104319999999916
11
243.889567999999997
21
-119.4657729999999987
0
LINE
8
BLACK
6
CONTINUOUS
10
243.889567999999997
20
-119.4657729999999987
11
244.0186959999999772
21
-119.643501999999998
0
LINE
8
BLACK
6
CONTINUOUS
10
244.0186959999999772
20
-119.643501999999998
11
244.1184309999999869
21
-119.8392429999999962
0
LINE
8
BLACK
6
CONTINUOUS
10
244.1184309999999869
20
-119.8392429999999962
11
244.186318
21
-120.048175999999998
0
LINE
8
BLACK
6
CONTINUOUS
10
244.186318
20
-120.048175999999998
11
244.2206839999999772
21
-120.2651569999999879
0
LINE
8
BLACK
6
CONTINUOUS
10
244.2206839999999772
20
-120.2651569999999879
11
244.2206839999999772
21
-120.4848429999999979
0
LINE
8
BLACK
6
CONTINUOUS
10
244.2206839999999772
20
-120.4848429999999979
11
244.186318
21
-120.7018239999999878
0
LINE
8
BLACK
6
CONTINUOUS
10
244.186318
20
-120.7018239999999878
11
244.1184309999999869
21
-120.9107569999999896
0
LINE
8
BLACK
6
CONTINUOUS
10
244.1184309999999869
20
-120.9107569999999896
11
244.0186959999999772
21
-121.1064979999999878
0
LINE
8
BLACK
6
CONTINUOUS
10
244.0186959999999772
20
-121.1064979999999878
11
243.889567999999997
21
-121.2842270000000013
0
LINE
8
BLACK
6
CONTINUOUS
10
243.889567999999997
20
-121.2842270000000013
11
243.7342269999999758
21
-121.4395679999999942
0
LINE
8
BLACK
6
CONTINUOUS
10
243.7342269999999758
20
-121.4395679999999942
11
243.5564979999999764
21
-121.5686959999999885
0
LINE
8
BLACK
6
CONTINUOUS
10
243.5564979999999764
20
-121.5686959999999885
11
243.3607569999999782
21
-121.6684309999999982
0
LINE
8
BLACK
6
CONTINUOUS
10
243.3607569999999782
20
-121.6684309999999982
11
243.1518239999999764
21
-121.7363179999999971
0
LINE
8
BLACK
6
CONTINUOUS
10
243.1518239999999764
20
-121.7363179999999971
11
242.9348430000000008
21
-121.7706839999999886
0
LINE
8
BLACK
6
CONTINUOUS
10
242.9348430000000008
20
-121.7706839999999886
11
242.7151569999999765
21
-121.7706839999999886
0
LINE
8
BLACK
6
CONTINUOUS
10
242.7151569999999765
20
-121.7706839999999886
11
242.4981760000000008
21
-121.7363179999999971
0
LINE
8
BLACK
6
CONTINUOUS
10
242.4981760000000008
20
-121.7363179999999971
11
242.289242999999999
21
-121.6684309999999982
0
LINE
8
BLACK
6
CONTINUOUS
10
242.289242999999999
20
-121.6684309999999982
11
242.0935020000000009
21
-121.5686959999999885
0
LINE
8
BLACK
6
CONTINUOUS
10
242.0935020000000009
20
-121.5686959999999885
11
241.9157730000000015
21
-121.4395679999999942
0
LINE
8
BLACK
6
CONTINUOUS
10
241.9157730000000015
20
-121.4395679999999942
11
241.7604319999999802
21
-121.2842270000000013
0
LINE
8
BLACK
6
CONTINUOUS
10
241.7604319999999802
20
-121.2842270000000013
11
241.6313040000000001
21
-121.1064979999999878
0
LINE
8
BLACK
6
CONTINUOUS
10
241.6313040000000001
20
-121.1064979999999878
11
241.5315689999999904
21
-120.9107569999999896
0
LINE
8
BLACK
6
CONTINUOUS
10
241.5315689999999904
20
-120.9107569999999896
11
241.4636819999999773
21
-120.7018239999999878
0
LINE
8
BLACK
6
CONTINUOUS
10
241.4636819999999773
20
-120.7018239999999878
11
241.429316
21
-120.4848429999999979
0
LINE
8
BLACK
6
CONTINUOUS
10
241.429316
20
-120.4848429999999979
11
241.429316
21
-120.2687529999999896
0
LINE
8
BLACK
6
CONTINUOUS
10
241.429316
20
-120.2687529999999896
11
241.429316
21
-120.2651569999999879
0
LINE
8
BLACK
6
CONTINUOUS
10
241.429316
20
-120.2651569999999879
11
241.4636819999999773
21
-120.048175999999998
0
LINE
8
BLACK
6
CONTINUOUS
10
241.4636819999999773
20
-120.048175999999998
11
241.5315689999999904
21
-119.8392429999999962
0
LINE
8
BLACK
6
CONTINUOUS
10
241.5315689999999904
20
-119.8392429999999962
11
241.6313040000000001
21
-119.643501999999998
0
LINE
8
BLACK
6
CONTINUOUS
10
241.6313040000000001
20
-119.643501999999998
11
241.7604319999999802
21
-119.4657729999999987
0
LINE
8
BLACK
6
CONTINUOUS
10
241.7604319999999802
20
-119.4657729999999987
11
241.9157730000000015
21
-119.3104319999999916
0
LINE
8
BLACK
6
CONTINUOUS
10
241.9157730000000015
20
-119.3104319999999916
11
242.0935020000000009
21
-119.1813039999999972
0
LINE
8
BLACK
6
CONTINUOUS
10
242.0935020000000009
20
-119.1813039999999972
11
242.289242999999999
21
-119.0815689999999876
0
LINE
8
BLACK
6
CONTINUOUS
10
242.289242999999999
20
-119.0815689999999876
11
242.4981760000000008
21
-119.0136819999999886
0
LINE
8
BLACK
6
CONTINUOUS
10
242.4981760000000008
20
-119.0136819999999886
11
242.7151569999999765
21
-118.9793159999999972
0
LINE
8
BLACK
6
CONTINUOUS
10
242.7151569999999765
20
-118.9793159999999972
11
242.9348430000000008
21
-118.9793159999999972
0
LINE
8
BLACK
6
CONTINUOUS
10
242.9348430000000008
20
-118.9793159999999972
11
243.1518239999999764
21
-119.0136819999999886
0
LINE
8
BLACK
6
CONTINUOUS
10
241.4749999999999943
20
-120.4812469999999962
11
241.5082419999999956
21
-120.691125999999997
0
LINE
8
BLACK
6
CONTINUOUS
10
241.5082419999999956
20
-120.691125999999997
11
241.5739059999999938
21
-120.8932199999999995
0
LINE
8
BLACK
6
CONTINUOUS
10
241.5739059999999938
20
-120.8932199999999995
11
241.670377000000002
21
-121.0825539999999876
0
LINE
8
BLACK
6
CONTINUOUS
10
241.670377000000002
20
-121.0825539999999876
11
241.7952779999999962
21
-121.2544659999999936
0
LINE
8
BLACK
6
CONTINUOUS
10
241.7952779999999962
20
-121.2544659999999936
11
241.9455339999999808
21
-121.4047219999999925
0
LINE
8
BLACK
6
CONTINUOUS
10
241.9455339999999808
20
-121.4047219999999925
11
242.117446000000001
21
-121.5296230000000008
0
LINE
8
BLACK
6
CONTINUOUS
10
242.117446000000001
20
-121.5296230000000008
11
242.306779999999975
21
-121.6260939999999948
0
LINE
8
BLACK
6
CONTINUOUS
10
242.306779999999975
20
-121.6260939999999948
11
242.5088739999999916
21
-121.691757999999993
0
LINE
8
BLACK
6
CONTINUOUS
10
242.5088739999999916
20
-121.691757999999993
11
242.7187529999999924
21
-121.7249999999999943
0
LINE
8
BLACK
6
CONTINUOUS
10
242.7187529999999924
20
-121.7249999999999943
11
242.9312469999999848
21
-121.7249999999999943
0
LINE
8
BLACK
6
CONTINUOUS
10
242.9312469999999848
20
-121.7249999999999943
11
243.1411259999999857
21
-121.691757999999993
0
LINE
8
BLACK
6
CONTINUOUS
10
243.1411259999999857
20
-121.691757999999993
11
243.3432200000000023
21
-121.6260939999999948
0
LINE
8
BLACK
6
CONTINUOUS
10
243.3432200000000023
20
-121.6260939999999948
11
243.5325539999999762
21
-121.5296230000000008
0
LINE
8
BLACK
6
CONTINUOUS
10
243.5325539999999762
20
-121.5296230000000008
11
243.7044659999999965
21
-121.4047219999999925
0
LINE
8
BLACK
6
CONTINUOUS
10
243.7044659999999965
20
-121.4047219999999925
11
243.8547219999999811
21
-121.2544659999999936
0
LINE
8
BLACK
6
CONTINUOUS
10
243.8547219999999811
20
-121.2544659999999936
11
243.9796229999999753
21
-121.0825539999999876
0
LINE
8
BLACK
6
CONTINUOUS
10
243.9796229999999753
20
-121.0825539999999876
11
244.0760939999999835
21
-120.8932199999999995
0
LINE
8
BLACK
6
CONTINUOUS
10
244.0760939999999835
20
-120.8932199999999995
11
244.1417579999999816
21
-120.691125999999997
0
LINE
8
BLACK
6
CONTINUOUS
10
244.1417579999999816
20
-120.691125999999997
11
244.1749999999999829
21
-120.4812469999999962
0
LINE
8
BLACK
6
CONTINUOUS
10
244.1749999999999829
20
-120.4812469999999962
11
244.1749999999999829
21
-120.2687529999999896
0
LINE
8
BLACK
6
CONTINUOUS
10
244.1749999999999829
20
-120.2687529999999896
11
244.1417579999999816
21
-120.0588739999999888
0
LINE
8
BLACK
6
CONTINUOUS
10
244.1417579999999816
20
-120.0588739999999888
11
244.0760939999999835
21
-119.8567800000000005
0
LINE
8
BLACK
6
CONTINUOUS
10
244.0760939999999835
20
-119.8567800000000005
11
243.9796229999999753
21
-119.6674459999999982
0
LINE
8
BLACK
6
CONTINUOUS
10
243.9796229999999753
20
-119.6674459999999982
11
243.8547219999999811
21
-119.4955339999999921
0
LINE
8
BLACK
6
CONTINUOUS
10
243.8547219999999811
20
-119.4955339999999921
11
243.7044659999999965
21
-119.3452779999999933
0
LINE
8
BLACK
6
CONTINUOUS
10
243.7044659999999965
20
-119.3452779999999933
11
243.5325539999999762
21
-119.2203769999999992
0
LINE
8
BLACK
6
CONTINUOUS
10
243.5325539999999762
20
-119.2203769999999992
11
243.3432200000000023
21
-119.123905999999991
0
LINE
8
BLACK
6
CONTINUOUS
10
243.3432200000000023
20
-119.123905999999991
11
243.1411259999999857
21
-119.0582419999999928
0
LINE
8
BLACK
6
CONTINUOUS
10
243.1411259999999857
20
-119.0582419999999928
11
242.9312469999999848
21
-119.0249999999999915
0
LINE
8
BLACK
6
CONTINUOUS
10
242.9312469999999848
20
-119.0249999999999915
11
242.7187529999999924
21
-119.0249999999999915
0
LINE
8
BLACK
6
CONTINUOUS
10
242.7187529999999924
20
-119.0249999999999915
11
242.5088739999999916
21
-119.0582419999999928
0
LINE
8
BLACK
6
CONTINUOUS
10
242.5088739999999916
20
-119.0582419999999928
11
242.306779999999975
21
-119.123905999999991
0
LINE
8
BLACK
6
CONTINUOUS
10
242.306779999999975
20
-119.123905999999991
11
242.117446000000001
21
-119.2203769999999992
0
LINE
8
BLACK
6
CONTINUOUS
10
242.117446000000001
20
-119.2203769999999992
11
241.9455339999999808
21
-119.3452779999999933
0
LINE
8
BLACK
6
CONTINUOUS
10
241.9455339999999808
20
-119.3452779999999933
11
241.7952779999999962
21
-119.4955339999999921
0
LINE
8
BLACK
6
CONTINUOUS
10
241.7952779999999962
20
-119.4955339999999921
11
241.670377000000002
21
-119.6674459999999982
0
LINE
8
BLACK
6
CONTINUOUS
10
241.670377000000002
20
-119.6674459999999982
11
241.5739059999999938
21
-119.8567800000000005
0
LINE
8
BLACK
6
CONTINUOUS
10
241.5739059999999938
20
-119.8567800000000005
11
241.5082419999999956
21
-120.0588739999999888
0
LINE
8
BLACK
6
CONTINUOUS
10
241.5082419999999956
20
-120.0588739999999888
11
241.4749999999999943
21
-120.2687529999999896
0
LINE
8
BLACK
6
CONTINUOUS
10
241.4749999999999943
20
-120.2687529999999896
11
241.4749999999999943
21
-120.4812469999999962
0
LINE
8
BLACK
6
CONTINUOUS
10
244.2518239999999992
20
-95.8386819999999915
11
244.460757000000001
21
-95.9065689999999904
0
LINE
8
BLACK
6
CONTINUOUS
10
244.460757000000001
20
-95.9065689999999904
11
244.6564979999999991
21
-96.0063040000000001
0
LINE
8
BLACK
6
CONTINUOUS
10
244.6564979999999991
20
-96.0063040000000001
11
244.8342269999999985
21
-96.1354319999999944
0
LINE
8
BLACK
6
CONTINUOUS
10
244.8342269999999985
20
-96.1354319999999944
11
244.9895679999999913
21
-96.2907730000000015
0
LINE
8
BLACK
6
CONTINUOUS
10
244.9895679999999913
20
-96.2907730000000015
11
245.1186959999999999
21
-96.4685020000000009
0
LINE
8
BLACK
6
CONTINUOUS
10
245.1186959999999999
20
-96.4685020000000009
11
245.2184309999999812
21
-96.664242999999999
0
LINE
8
BLACK
6
CONTINUOUS
10
245.2184309999999812
20
-96.664242999999999
11
245.2863179999999943
21
-96.8731760000000008
0
LINE
8
BLACK
6
CONTINUOUS
10
245.2863179999999943
20
-96.8731760000000008
11
245.320684
21
-97.0901569999999907
0
LINE
8
BLACK
6
CONTINUOUS
10
245.320684
20
-97.0901569999999907
11
245.320684
21
-97.3098430000000008
0
LINE
8
BLACK
6
CONTINUOUS
10
245.320684
20
-97.3098430000000008
11
245.2863179999999943
21
-97.5268239999999906
0
LINE
8
BLACK
6
CONTINUOUS
10
245.2863179999999943
20
-97.5268239999999906
11
245.2184309999999812
21
-97.7357569999999924
0
LINE
8
BLACK
6
CONTINUOUS
10
245.2184309999999812
20
-97.7357569999999924
11
245.1186959999999999
21
-97.9314979999999906
0
LINE
8
BLACK
6
CONTINUOUS
10
245.1186959999999999
20
-97.9314979999999906
11
244.9895679999999913
21
-98.10922699999999
0
LINE
8
BLACK
6
CONTINUOUS
10
244.9895679999999913
20
-98.10922699999999
11
244.8342269999999985
21
-98.264567999999997
0
LINE
8
BLACK
6
CONTINUOUS
10
244.8342269999999985
20
-98.264567999999997
11
244.6564979999999991
21
-98.3936959999999914
0
LINE
8
BLACK
6
CONTINUOUS
10
244.6564979999999991
20
-98.3936959999999914
11
244.460757000000001
21
-98.4934310000000011
0
LINE
8
BLACK
6
CONTINUOUS
10
244.460757000000001
20
-98.4934310000000011
11
244.2518239999999992
21
-98.561318
0
LINE
8
BLACK
6
CONTINUOUS
10
244.2518239999999992
20
-98.561318
11
244.0348429999999951
21
-98.5956839999999914
0
LINE
8
BLACK
6
CONTINUOUS
10
244.0348429999999951
20
-98.5956839999999914
11
243.8151569999999992
21
-98.5956839999999914
0
LINE
8
BLACK
6
CONTINUOUS
10
243.8151569999999992
20
-98.5956839999999914
11
243.5981759999999952
21
-98.561318
0
LINE
8
BLACK
6
CONTINUOUS
10
243.5981759999999952
20
-98.561318
11
243.3892429999999933
21
-98.4934310000000011
0
LINE
8
BLACK
6
CONTINUOUS
10
243.3892429999999933
20
-98.4934310000000011
11
243.1935019999999952
21
-98.3936959999999914
0
LINE
8
BLACK
6
CONTINUOUS
10
243.1935019999999952
20
-98.3936959999999914
11
243.0157729999999958
21
-98.264567999999997
0
LINE
8
BLACK
6
CONTINUOUS
10
243.0157729999999958
20
-98.264567999999997
11
242.860432000000003
21
-98.10922699999999
0
LINE
8
BLACK
6
CONTINUOUS
10
242.860432000000003
20
-98.10922699999999
11
242.7313039999999944
21
-97.9314979999999906
0
LINE
8
BLACK
6
CONTINUOUS
10
242.7313039999999944
20
-97.9314979999999906
11
242.6315689999999847
21
-97.7357569999999924
0
LINE
8
BLACK
6
CONTINUOUS
10
242.6315689999999847
20
-97.7357569999999924
11
242.563682
21
-97.5268239999999906
0
LINE
8
BLACK
6
CONTINUOUS
10
242.563682
20
-97.5268239999999906
11
242.5293159999999943
21
-97.3098430000000008
0
LINE
8
BLACK
6
CONTINUOUS
10
242.5293159999999943
20
-97.3098430000000008
11
242.5293159999999943
21
-97.0937529999999924
0
LINE
8
BLACK
6
CONTINUOUS
10
242.5293159999999943
20
-97.0937529999999924
11
242.5293159999999943
21
-97.0901569999999907
0
LINE
8
BLACK
6
CONTINUOUS
10
242.5293159999999943
20
-97.0901569999999907
11
242.563682
21
-96.8731760000000008
0
LINE
8
BLACK
6
CONTINUOUS
10
242.563682
20
-96.8731760000000008
11
242.6315689999999847
21
-96.664242999999999
0
LINE
8
BLACK
6
CONTINUOUS
10
242.6315689999999847
20
-96.664242999999999
11
242.7313039999999944
21
-96.4685020000000009
0
LINE
8
BLACK
6
CONTINUOUS
10
242.7313039999999944
20
-96.4685020000000009
11
242.860432000000003
21
-96.2907730000000015
0
LINE
8
BLACK
6
CONTINUOUS
10
242.860432000000003
20
-96.2907730000000015
11
243.0157729999999958
21
-96.1354319999999944
0
LINE
8
BLACK
6
CONTINUOUS
10
243.0157729999999958
20
-96.1354319999999944
11
243.1935019999999952
21
-96.0063040000000001
0
LINE
8
BLACK
6
CONTINUOUS
10
243.1935019999999952
20
-96.0063040000000001
11
243.3892429999999933
21
-95.9065689999999904
0
LINE
8
BLACK
6
CONTINUOUS
10
243.3892429999999933
20
-95.9065689999999904
11
243.5981759999999952
21
-95.8386819999999915
0
LINE
8
BLACK
6
CONTINUOUS
10
243.5981759999999952
20
-95.8386819999999915
11
243.8151569999999992
21
-95.804316
0
LINE
8
BLACK
6
CONTINUOUS
10
243.8151569999999992
20
-95.804316
11
244.0348429999999951
21
-95.804316
0
LINE
8
BLACK
6
CONTINUOUS
10
244.0348429999999951
20
-95.804316
11
244.2518239999999992
21
-95.8386819999999915
0
LINE
8
BLACK
6
CONTINUOUS
10
242.5749999999999886
20
-97.306246999999999
11
242.60824199999999
21
-97.5161259999999999
0
LINE
8
BLACK
6
CONTINUOUS
10
242.60824199999999
20
-97.5161259999999999
11
242.6739059999999881
21
-97.7182200000000023
0
LINE
8
BLACK
6
CONTINUOUS
10
242.6739059999999881
20
-97.7182200000000023
11
242.7703769999999963
21
-97.9075539999999904
0
LINE
8
BLACK
6
CONTINUOUS
10
242.7703769999999963
20
-97.9075539999999904
11
242.8952779999999905
21
-98.0794659999999965
0
LINE
8
BLACK
6
CONTINUOUS
10
242.8952779999999905
20
-98.0794659999999965
11
243.0455339999999751
21
-98.2297219999999953
0
LINE
8
BLACK
6
CONTINUOUS
10
243.0455339999999751
20
-98.2297219999999953
11
243.2174459999999954
21
-98.3546229999999895
0
LINE
8
BLACK
6
CONTINUOUS
10
243.2174459999999954
20
-98.3546229999999895
11
243.4067799999999977
21
-98.4510939999999977
0
LINE
8
BLACK
6
CONTINUOUS
10
243.4067799999999977
20
-98.4510939999999977
11
243.6088739999999859
21
-98.5167579999999958
0
LINE
8
BLACK
6
CONTINUOUS
10
243.6088739999999859
20
-98.5167579999999958
11
243.8187529999999867
21
-98.5499999999999972
0
LINE
8
BLACK
6
CONTINUOUS
10
243.8187529999999867
20
-98.5499999999999972
11
244.0312469999999792
21
-98.5499999999999972
0
LINE
8
BLACK
6
CONTINUOUS
10
244.0312469999999792
20
-98.5499999999999972
11
244.24112599999998
21
-98.5167579999999958
0
LINE
8
BLACK
6
CONTINUOUS
10
244.24112599999998
20
-98.5167579999999958
11
244.4432199999999966
21
-98.4510939999999977
0
LINE
8
BLACK
6
CONTINUOUS
10
244.4432199999999966
20
-98.4510939999999977
11
244.632553999999999
21
-98.3546229999999895
0
LINE
8
BLACK
6
CONTINUOUS
10
244.632553999999999
20
-98.3546229999999895
11
244.8044659999999908
21
-98.2297219999999953
0
LINE
8
BLACK
6
CONTINUOUS
10
244.8044659999999908
20
-98.2297219999999953
11
244.9547219999999754
21
-98.0794659999999965
0
LINE
8
BLACK
6
CONTINUOUS
10
244.9547219999999754
20
-98.0794659999999965
11
245.079622999999998
21
-97.9075539999999904
0
LINE
8
BLACK
6
CONTINUOUS
10
245.079622999999998
20
-97.9075539999999904
11
245.1760939999999778
21
-97.7182200000000023
0
LINE
8
BLACK
6
CONTINUOUS
10
245.1760939999999778
20
-97.7182200000000023
11
245.2417579999999759
21
-97.5161259999999999
0
LINE
8
BLACK
6
CONTINUOUS
10
245.2417579999999759
20
-97.5161259999999999
11
245.2749999999999773
21
-97.306246999999999
0
LINE
8
BLACK
6
CONTINUOUS
10
245.2749999999999773
20
-97.306246999999999
11
245.2749999999999773
21
-97.0937529999999924
0
LINE
8
BLACK
6
CONTINUOUS
10
245.2749999999999773
20
-97.0937529999999924
11
245.2417579999999759
21
-96.8838739999999916
0
LINE
8
BLACK
6
CONTINUOUS
10
245.2417579999999759
20
-96.8838739999999916
11
245.1760939999999778
21
-96.6817799999999892
0
LINE
8
BLACK
6
CONTINUOUS
10
245.1760939999999778
20
-96.6817799999999892
11
245.079622999999998
21
-96.492446000000001
0
LINE
8
BLACK
6
CONTINUOUS
10
245.079622999999998
20
-96.492446000000001
11
244.9547219999999754
21
-96.320533999999995
0
LINE
8
BLACK
6
CONTINUOUS
10
244.9547219999999754
20
-96.320533999999995
11
244.8044659999999908
21
-96.1702779999999962
0
LINE
8
BLACK
6
CONTINUOUS
10
244.8044659999999908
20
-96.1702779999999962
11
244.632553999999999
21
-96.045377000000002
0
LINE
8
BLACK
6
CONTINUOUS
10
244.632553999999999
20
-96.045377000000002
11
244.4432199999999966
21
-95.9489059999999938
0
LINE
8
BLACK
6
CONTINUOUS
10
244.4432199999999966
20
-95.9489059999999938
11
244.24112599999998
21
-95.8832419999999956
0
LINE
8
BLACK
6
CONTINUOUS
10
244.24112599999998
20
-95.8832419999999956
11
244.0312469999999792
21
-95.8499999999999943
0
LINE
8
BLACK
6
CONTINUOUS
10
244.0312469999999792
20
-95.8499999999999943
11
243.8187529999999867
21
-95.8499999999999943
0
LINE
8
BLACK
6
CONTINUOUS
10
243.8187529999999867
20
-95.8499999999999943
11
243.6088739999999859
21
-95.8832419999999956
0
LINE
8
BLACK
6
CONTINUOUS
10
243.6088739999999859
20
-95.8832419999999956
11
243.4067799999999977
21
-95.9489059999999938
0
LINE
8
BLACK
6
CONTINUOUS
10
243.4067799999999977
20
-95.9489059999999938
11
243.2174459999999954
21
-96.045377000000002
0
LINE
8
BLACK
6
CONTINUOUS
10
243.2174459999999954
20
-96.045377000000002
11
243.0455339999999751
21
-96.1702779999999962
0
LINE
8
BLACK
6
CONTINUOUS
10
243.0455339999999751
20
-96.1702779999999962
11
242.8952779999999905
21
-96.320533999999995
0
LINE
8
BLACK
6
CONTINUOUS
10
242.8952779999999905
20
-96.320533999999995
11
242.7703769999999963
21
-96.492446000000001
0
LINE
8
BLACK
6
CONTINUOUS
10
242.7703769999999963
20
-96.492446000000001
11
242.6739059999999881
21
-96.6817799999999892
0
LINE
8
BLACK
6
CONTINUOUS
10
242.6739059999999881
20
-96.6817799999999892
11
242.60824199999999
21
-96.8838739999999916
0
LINE
8
BLACK
6
CONTINUOUS
10
242.60824199999999
20
-96.8838739999999916
11
242.5749999999999886
21
-97.0937529999999924
0
LINE
8
BLACK
6
CONTINUOUS
10
242.5749999999999886
20
-97.0937529999999924
11
242.5749999999999886
21
-97.306246999999999
0
LINE
8
BLACK
6
CONTINUOUS
10
246.888559999999984
20
-93.7215669999999932
11
247.2819689999999753
21
-93.733871999999991
0
LINE
8
BLACK
6
CONTINUOUS
10
247.2819689999999753
20
-93.733871999999991
11
247.6729869999999778
21
-93.782833999999994
0
LINE
8
BLACK
6
CONTINUOUS
10
247.6729869999999778
20
-93.782833999999994
11
248.0577429999999879
21
-93.8680140000000023
0
LINE
8
BLACK
6
CONTINUOUS
10
248.0577429999999879
20
-93.8680140000000023
11
248.4328889999999888
21
-93.9886709999999965
0
LINE
8
BLACK
6
CONTINUOUS
10
248.4328889999999888
20
-93.9886709999999965
11
248.7951619999999764
21
-94.1437549999999987
0
LINE
8
BLACK
6
CONTINUOUS
10
248.7951619999999764
20
-94.1437549999999987
11
249.1414099999999792
21
-94.33191699999999
0
LINE
8
BLACK
6
CONTINUOUS
10
249.1414099999999792
20
-94.33191699999999
11
249.4686209999999846
21
-94.5515199999999965
0
LINE
8
BLACK
6
CONTINUOUS
10
249.4686209999999846
20
-94.5515199999999965
11
249.7739489999999876
21
-94.8006539999999944
0
LINE
8
BLACK
6
CONTINUOUS
10
249.7739489999999876
20
-94.8006539999999944
11
250.0547369999999887
21
-95.0771510000000006
0
LINE
8
BLACK
6
CONTINUOUS
10
250.0547369999999887
20
-95.0771510000000006
11
250.308542999999986
21
-95.3786059999999907
0
LINE
8
BLACK
6
CONTINUOUS
10
250.308542999999986
20
-95.3786059999999907
11
250.5331589999999835
21
-95.7023969999999906
0
LINE
8
BLACK
6
CONTINUOUS
10
250.5331589999999835
20
-95.7023969999999906
11
250.7266300000000001
21
-96.0457069999999931
0
LINE
8
BLACK
6
CONTINUOUS
10
250.7266300000000001
20
-96.0457069999999931
11
250.8872739999999908
21
-96.4055489999999935
0
LINE
8
BLACK
6
CONTINUOUS
10
250.8872739999999908
20
-96.4055489999999935
11
251.0136929999999893
21
-96.7787929999999932
0
LINE
8
BLACK
6
CONTINUOUS
10
251.0136929999999893
20
-96.7787929999999932
11
251.104787999999985
21
-97.1621919999999903
0
LINE
8
BLACK
6
CONTINUOUS
10
251.104787999999985
20
-97.1621919999999903
11
251.1597649999999931
21
-97.5524099999999947
0
LINE
8
BLACK
6
CONTINUOUS
10
251.1597649999999931
20
-97.5524099999999947
11
251.1781469999999956
21
-97.946052999999992
0
LINE
8
BLACK
6
CONTINUOUS
10
251.1781469999999956
20
-97.946052999999992
11
251.1780819999999892
21
-97.946052999999992
0
LINE
8
BLACK
6
CONTINUOUS
10
251.1780819999999892
20
-97.946052999999992
11
251.1819059999999979
21
-124.6834799999999888
0
LINE
8
BLACK
6
CONTINUOUS
10
251.1819059999999979
20
-124.6834799999999888
11
251.1818789999999808
21
-124.6836099999999874
0
LINE
8
BLACK
6
CONTINUOUS
10
251.1818789999999808
20
-124.6836099999999874
11
251.1695769999999754
21
-125.0769759999999877
0
LINE
8
BLACK
6
CONTINUOUS
10
251.1695769999999754
20
-125.0769759999999877
11
251.1206129999999916
21
-125.4679919999999953
0
LINE
8
BLACK
6
CONTINUOUS
10
251.1206129999999916
20
-125.4679919999999953
11
251.0354319999999859
21
-125.8527459999999962
0
LINE
8
BLACK
6
CONTINUOUS
10
251.0354319999999859
20
-125.8527459999999962
11
250.9147749999999917
21
-126.2278889999999905
0
LINE
8
BLACK
6
CONTINUOUS
10
250.9147749999999917
20
-126.2278889999999905
11
250.7596899999999778
21
-126.5901589999999999
0
LINE
8
BLACK
6
CONTINUOUS
10
250.7596899999999778
20
-126.5901589999999999
11
250.5715269999999748
21
-126.936403999999996
0
LINE
8
BLACK
6
CONTINUOUS
10
250.5715269999999748
20
-126.936403999999996
11
250.3519229999999993
21
-127.2636119999999949
0
LINE
8
BLACK
6
CONTINUOUS
10
250.3519229999999993
20
-127.2636119999999949
11
250.1027890000000014
21
-127.5689369999999911
0
LINE
8
BLACK
6
CONTINUOUS
10
250.1027890000000014
20
-127.5689369999999911
11
249.8262909999999977
21
-127.8497209999999882
0
LINE
8
BLACK
6
CONTINUOUS
10
249.8262909999999977
20
-127.8497209999999882
11
249.5248359999999934
21
-128.1035229999999956
0
LINE
8
BLACK
6
CONTINUOUS
10
249.5248359999999934
20
-128.1035229999999956
11
249.2010449999999935
21
-128.3281350000000032
0
LINE
8
BLACK
6
CONTINUOUS
10
249.2010449999999935
20
-128.3281350000000032
11
248.857734999999991
21
-128.5216020000000015
0
LINE
8
BLACK
6
CONTINUOUS
10
248.857734999999991
20
-128.5216020000000015
11
248.4978940000000023
21
-128.6822420000000022
0
LINE
8
BLACK
6
CONTINUOUS
10
248.4978940000000023
20
-128.6822420000000022
11
248.1246510000000001
21
-128.8086559999999849
0
LINE
8
BLACK
6
CONTINUOUS
10
248.1246510000000001
20
-128.8086559999999849
11
247.7412530000000004
21
-128.8997459999999933
0
LINE
8
BLACK
6
CONTINUOUS
10
247.7412530000000004
20
-128.8997459999999933
11
247.3510369999999909
21
-128.954718999999983
0
LINE
8
BLACK
6
CONTINUOUS
10
247.3510369999999909
20
-128.954718999999983
11
246.9573959999999886
21
-128.9730959999999982
0
LINE
8
BLACK
6
CONTINUOUS
10
246.9573959999999886
20
-128.9730959999999982
11
246.9573959999999886
21
-128.9730920000000083
0
LINE
8
BLACK
6
CONTINUOUS
10
246.9573959999999886
20
-128.9730920000000083
11
190.3615279999999927
21
-128.9769079999999803
0
LINE
8
BLACK
6
CONTINUOUS
10
190.3615279999999927
20
-128.9769079999999803
11
190.3610089999999957
21
-128.9768039999999871
0
LINE
8
BLACK
6
CONTINUOUS
10
190.3610089999999957
20
-128.9768039999999871
11
189.9680379999999786
21
-128.9645150000000058
0
LINE
8
BLACK
6
CONTINUOUS
10
189.9680379999999786
20
-128.9645150000000058
11
189.5770279999999843
21
-128.9155529999999885
0
LINE
8
BLACK
6
CONTINUOUS
10
189.5770279999999843
20
-128.9155529999999885
11
189.1922799999999825
21
-128.8303740000000062
0
LINE
8
BLACK
6
CONTINUOUS
10
189.1922799999999825
20
-128.8303740000000062
11
188.8171419999999898
21
-128.7097190000000069
0
LINE
8
BLACK
6
CONTINUOUS
10
188.8171419999999898
20
-128.7097190000000069
11
188.454876999999982
21
-128.5546379999999829
0
LINE
8
BLACK
6
CONTINUOUS
10
188.454876999999982
20
-128.5546379999999829
11
188.1086369999999874
21
-128.3664780000000007
0
LINE
8
BLACK
6
CONTINUOUS
10
188.1086369999999874
20
-128.3664780000000007
11
187.7814329999999927
21
-128.1468789999999842
0
LINE
8
BLACK
6
CONTINUOUS
10
187.7814329999999927
20
-128.1468789999999842
11
187.476112999999998
21
-127.8977489999999904
0
LINE
8
BLACK
6
CONTINUOUS
10
187.476112999999998
20
-127.8977489999999904
11
187.1953319999999792
21
-127.6212559999999883
0
LINE
8
BLACK
6
CONTINUOUS
10
187.1953319999999792
20
-127.6212559999999883
11
186.9415329999999926
21
-127.3198049999999881
0
LINE
8
BLACK
6
CONTINUOUS
10
186.9415329999999926
20
-127.3198049999999881
11
186.7169239999999775
21
-126.9960199999999872
0
LINE
8
BLACK
6
CONTINUOUS
10
186.7169239999999775
20
-126.9960199999999872
11
186.5234590000000026
21
-126.6527159999999981
0
LINE
8
BLACK
6
CONTINUOUS
10
186.5234590000000026
20
-126.6527159999999981
11
186.3628209999999967
21
-126.2928799999999967
0
LINE
8
BLACK
6
CONTINUOUS
10
186.3628209999999967
20
-126.2928799999999967
11
186.2364069999999856
21
-125.9196429999999935
0
LINE
8
BLACK
6
CONTINUOUS
10
186.2364069999999856
20
-125.9196429999999935
11
186.1453180000000032
21
-125.5362519999999904
0
LINE
8
BLACK
6
CONTINUOUS
10
186.1453180000000032
20
-125.5362519999999904
11
186.090344999999985
21
-125.1460409999999968
0
LINE
8
BLACK
6
CONTINUOUS
10
186.090344999999985
20
-125.1460409999999968
11
186.0719670000000008
21
-124.7524059999999935
0
LINE
8
BLACK
6
CONTINUOUS
10
186.0719670000000008
20
-124.7524059999999935
11
186.0719679999999983
21
-124.7524019999999894
0
LINE
8
BLACK
6
CONTINUOUS
10
186.0719679999999983
20
-124.7524019999999894
11
186.0754969999999844
21
-98.0180539999999922
0
LINE
8
BLACK
6
CONTINUOUS
10
186.0754969999999844
20
-98.0180539999999922
11
186.0755159999999933
21
-98.017957999999993
0
LINE
8
BLACK
6
CONTINUOUS
10
186.0755159999999933
20
-98.017957999999993
11
186.0877169999999978
21
-97.6258419999999916
0
LINE
8
BLACK
6
CONTINUOUS
10
186.0877169999999978
20
-97.6258419999999916
11
186.1363399999999899
21
-97.236071999999993
0
LINE
8
BLACK
6
CONTINUOUS
10
186.1363399999999899
20
-97.236071999999993
11
186.2209499999999878
21
-96.8525029999999987
0
LINE
8
BLACK
6
CONTINUOUS
10
186.2209499999999878
20
-96.8525029999999987
11
186.3408149999999921
21
-96.4784489999999977
0
LINE
8
BLACK
6
CONTINUOUS
10
186.3408149999999921
20
-96.4784489999999977
11
186.4949000000000012
21
-96.1171429999999987
0
LINE
8
BLACK
6
CONTINUOUS
10
186.4949000000000012
20
-96.1171429999999987
11
186.681872999999996
21
-95.7717079999999896
0
LINE
8
BLACK
6
CONTINUOUS
10
186.681872999999996
20
-95.7717079999999896
11
186.9001169999999945
21
-95.4451289999999943
0
LINE
8
BLACK
6
CONTINUOUS
10
186.9001169999999945
20
-95.4451289999999943
11
187.1477469999999812
21
-95.1402300000000025
0
LINE
8
BLACK
6
CONTINUOUS
10
187.1477469999999812
20
-95.1402300000000025
11
187.4226219999999898
21
-94.8596450000000004
0
LINE
8
BLACK
6
CONTINUOUS
10
187.4226219999999898
20
-94.8596450000000004
11
187.7223659999999938
21
-94.6057989999999904
0
LINE
8
BLACK
6
CONTINUOUS
10
187.7223659999999938
20
-94.6057989999999904
11
188.0443889999999953
21
-94.3808879999999988
0
LINE
8
BLACK
6
CONTINUOUS
10
188.0443889999999953
20
-94.3808879999999988
11
188.3859080000000006
21
-94.1868529999999993
0
LINE
8
BLACK
6
CONTINUOUS
10
188.3859080000000006
20
-94.1868529999999993
11
188.7439699999999903
21
-94.0253730000000019
0
LINE
8
BLACK
6
CONTINUOUS
10
188.7439699999999903
20
-94.0253730000000019
11
189.1154809999999884
21
-93.8978429999999946
0
LINE
8
BLACK
6
CONTINUOUS
10
189.1154809999999884
20
-93.8978429999999946
11
189.4972300000000018
21
-93.8053659999999923
0
LINE
8
BLACK
6
CONTINUOUS
10
189.4972300000000018
20
-93.8053659999999923
11
189.8859169999999779
21
-93.7487409999999954
0
LINE
8
BLACK
6
CONTINUOUS
10
189.8859169999999779
20
-93.7487409999999954
11
190.2713589999999897
21
-93.7288080000000008
0
LINE
8
BLACK
6
CONTINUOUS
10
190.2713589999999897
20
-93.7288080000000008
11
190.2729819999999847
21
-93.7284859999999895
0
LINE
8
BLACK
6
CONTINUOUS
10
190.2729819999999847
20
-93.7284859999999895
11
190.2776130000000023
21
-93.7284849999999921
0
LINE
8
BLACK
6
CONTINUOUS
10
190.2776130000000023
20
-93.7284849999999921
11
190.2781829999999843
21
-93.7284559999999942
0
LINE
8
BLACK
6
CONTINUOUS
10
190.2781829999999843
20
-93.7284559999999942
11
190.2781829999999843
21
-93.7284549999999967
0
LINE
8
BLACK
6
CONTINUOUS
10
190.2781829999999843
20
-93.7284549999999967
11
190.2782780000000002
21
-93.7284849999999921
0
LINE
8
BLACK
6
CONTINUOUS
10
190.2782780000000002
20
-93.7284849999999921
11
246.8884709999999814
21
-93.7215499999999935
0
LINE
8
BLACK
6
CONTINUOUS
10
246.8884709999999814
20
-93.7215499999999935
11
246.888559999999984
21
-93.7215669999999932
0
LINE
8
BLACK
6
CONTINUOUS
10
246.8888589999999965
20
-93.7715469999999982
11
246.8887139999999931
21
-93.7715019999999981
0
LINE
8
BLACK
6
CONTINUOUS
10
246.8887139999999931
20
-93.7715019999999981
11
246.8884769999999946
21
-93.7715499999999906
0
LINE
8
BLACK
6
CONTINUOUS
10
246.8884769999999946
20
-93.7715499999999906
11
190.272987999999998
21
-93.7784860000000009
0
LINE
8
BLACK
6
CONTINUOUS
10
190.272987999999998
20
-93.7784860000000009
11
190.2729860000000031
21
-93.7784849999999892
0
LINE
8
BLACK
6
CONTINUOUS
10
190.2729860000000031
20
-93.7784849999999892
11
190.084165999999982
21
-93.7795169999999985
0
LINE
8
BLACK
6
CONTINUOUS
10
190.084165999999982
20
-93.7795169999999985
11
189.6974799999999846
21
-93.8175979999999896
0
LINE
8
BLACK
6
CONTINUOUS
10
189.6974799999999846
20
-93.8175979999999896
11
189.3160019999999975
21
-93.8914259999999956
0
LINE
8
BLACK
6
CONTINUOUS
10
189.3160019999999975
20
-93.8914259999999956
11
188.9430279999999982
21
-94.0003609999999981
0
LINE
8
BLACK
6
CONTINUOUS
10
188.9430279999999982
20
-94.0003609999999981
11
188.5817830000000015
21
-94.143462999999997
0
LINE
8
BLACK
6
CONTINUOUS
10
188.5817830000000015
20
-94.143462999999997
11
188.2353889999999978
21
-94.3194949999999892
0
LINE
8
BLACK
6
CONTINUOUS
10
188.2353889999999978
20
-94.3194949999999892
11
187.9068389999999908
21
-94.5269339999999971
0
LINE
8
BLACK
6
CONTINUOUS
10
187.9068389999999908
20
-94.5269339999999971
11
187.5989730000000009
21
-94.7639889999999951
0
LINE
8
BLACK
6
CONTINUOUS
10
187.5989730000000009
20
-94.7639889999999951
11
187.3144529999999861
21
-95.0286100000000005
0
LINE
8
BLACK
6
CONTINUOUS
10
187.3144529999999861
20
-95.0286100000000005
11
187.0557369999999935
21
-95.3185110000000009
0
LINE
8
BLACK
6
CONTINUOUS
10
187.0557369999999935
20
-95.3185110000000009
11
186.8250610000000052
21
-95.6311839999999904
0
LINE
8
BLACK
6
CONTINUOUS
10
186.8250610000000052
20
-95.6311839999999904
11
186.6244199999999864
21
-95.9639289999999932
0
LINE
8
BLACK
6
CONTINUOUS
10
186.6244199999999864
20
-95.9639289999999932
11
186.4555459999999982
21
-96.3138689999999968
0
LINE
8
BLACK
6
CONTINUOUS
10
186.4555459999999982
20
-96.3138689999999968
11
186.3199009999999873
21
-96.6779799999999909
0
LINE
8
BLACK
6
CONTINUOUS
10
186.3199009999999873
20
-96.6779799999999909
11
186.2186559999999815
21
-97.0531139999999937
0
LINE
8
BLACK
6
CONTINUOUS
10
186.2186559999999815
20
-97.0531139999999937
11
186.1526859999999886
21
-97.4360289999999907
0
LINE
8
BLACK
6
CONTINUOUS
10
186.1526859999999886
20
-97.4360289999999907
11
186.1225619999999878
21
-97.8234159999999946
0
LINE
8
BLACK
6
CONTINUOUS
10
186.1225619999999878
20
-97.8234159999999946
11
186.1254950000000008
21
-98.0176719999999904
0
LINE
8
BLACK
6
CONTINUOUS
10
186.1254950000000008
20
-98.0176719999999904
11
186.1254940000000033
21
-98.0176719999999904
0
LINE
8
BLACK
6
CONTINUOUS
10
186.1254940000000033
20
-98.0176719999999904
11
186.1254480000000058
21
-98.0178179999999912
0
LINE
8
BLACK
6
CONTINUOUS
10
186.1254480000000058
20
-98.0178179999999912
11
186.1254969999999958
21
-98.0180609999999888
0
LINE
8
BLACK
6
CONTINUOUS
10
186.1254969999999958
20
-98.0180609999999888
11
186.1219679999999812
21
-124.7524090000000001
0
LINE
8
BLACK
6
CONTINUOUS
10
186.1219679999999812
20
-124.7524090000000001
11
186.1219659999999863
21
-124.7524139999999875
0
LINE
8
BLACK
6
CONTINUOUS
10
186.1219659999999863
20
-124.7524139999999875
11
186.1219209999999862
21
-124.9473199999999906
0
LINE
8
BLACK
6
CONTINUOUS
10
186.1219209999999862
20
-124.9473199999999906
11
186.1582410000000039
21
-125.3354530000000011
0
LINE
8
BLACK
6
CONTINUOUS
10
186.1582410000000039
20
-125.3354530000000011
11
186.2305659999999818
21
-125.718513999999999
0
LINE
8
BLACK
6
CONTINUOUS
10
186.2305659999999818
20
-125.718513999999999
11
186.3382660000000044
21
-126.0931700000000006
0
LINE
8
BLACK
6
CONTINUOUS
10
186.3382660000000044
20
-126.0931700000000006
11
186.4804039999999929
21
-126.456161999999992
0
LINE
8
BLACK
6
CONTINUOUS
10
186.4804039999999929
20
-126.456161999999992
11
186.6557439999999986
21
-126.8043329999999997
0
LINE
8
BLACK
6
CONTINUOUS
10
186.6557439999999986
20
-126.8043329999999997
11
186.8627589999999827
21
-127.1346519999999884
0
LINE
8
BLACK
6
CONTINUOUS
10
186.8627589999999827
20
-127.1346519999999884
11
187.0996499999999969
21
-127.4442469999999901
0
LINE
8
BLACK
6
CONTINUOUS
10
187.0996499999999969
20
-127.4442469999999901
11
187.3643559999999866
21
-127.7304249999999968
0
LINE
8
BLACK
6
CONTINUOUS
10
187.3643559999999866
20
-127.7304249999999968
11
187.6545729999999992
21
-127.9906949999999881
0
LINE
8
BLACK
6
CONTINUOUS
10
187.6545729999999992
20
-127.9906949999999881
11
187.9677769999999839
21
-128.2227929999999958
0
LINE
8
BLACK
6
CONTINUOUS
10
187.9677769999999839
20
-128.2227929999999958
11
188.3012429999999995
21
-128.4247009999999989
0
LINE
8
BLACK
6
CONTINUOUS
10
188.3012429999999995
20
-128.4247009999999989
11
188.6520699999999806
21
-128.5946619999999996
0
LINE
8
BLACK
6
CONTINUOUS
10
188.6520699999999806
20
-128.5946619999999996
11
189.0172059999999874
21
-128.7311980000000062
0
LINE
8
BLACK
6
CONTINUOUS
10
189.0172059999999874
20
-128.7311980000000062
11
189.3934749999999951
21
-128.8331189999999822
0
LINE
8
BLACK
6
CONTINUOUS
10
189.3934749999999951
20
-128.8331189999999822
11
189.7776039999999966
21
-128.8995409999999993
0
LINE
8
BLACK
6
CONTINUOUS
10
189.7776039999999966
20
-128.8995409999999993
11
190.1662499999999909
21
-128.9298839999999871
0
LINE
8
BLACK
6
CONTINUOUS
10
190.1662499999999909
20
-128.9298839999999871
11
190.3611399999999776
21
-128.9268390000000011
0
LINE
8
BLACK
6
CONTINUOUS
10
190.3611399999999776
20
-128.9268390000000011
11
190.3614259999999945
21
-128.9269270000000063
0
LINE
8
BLACK
6
CONTINUOUS
10
190.3614259999999945
20
-128.9269270000000063
11
190.3615240000000028
21
-128.9269079999999974
0
LINE
8
BLACK
6
CONTINUOUS
10
190.3615240000000028
20
-128.9269079999999974
11
246.9573939999999936
21
-128.9230919999999969
0
LINE
8
BLACK
6
CONTINUOUS
10
246.9573939999999936
20
-128.9230919999999969
11
246.9573949999999911
21
-128.9230919999999969
0
LINE
8
BLACK
6
CONTINUOUS
10
246.9573949999999911
20
-128.9230919999999969
11
246.9573959999999886
21
-128.9230919999999969
0
LINE
8
BLACK
6
CONTINUOUS
10
246.9573959999999886
20
-128.9230919999999969
11
246.957414
21
-128.9230959999999868
0
LINE
8
BLACK
6
CONTINUOUS
10
246.957414
20
-128.9230959999999868
11
247.1523129999999924
21
-128.9231429999999818
0
LINE
8
BLACK
6
CONTINUOUS
10
247.1523129999999924
20
-128.9231429999999818
11
247.5404519999999877
21
-128.8868219999999951
0
LINE
8
BLACK
6
CONTINUOUS
10
247.5404519999999877
20
-128.8868219999999951
11
247.9235189999999989
21
-128.8144969999999887
0
LINE
8
BLACK
6
CONTINUOUS
10
247.9235189999999989
20
-128.8144969999999887
11
248.2981809999999996
21
-128.7067969999999946
0
LINE
8
BLACK
6
CONTINUOUS
10
248.2981809999999996
20
-128.7067969999999946
11
248.6611789999999758
21
-128.5646569999999826
0
LINE
8
BLACK
6
CONTINUOUS
10
248.6611789999999758
20
-128.5646569999999826
11
249.0093549999999993
21
-128.389316000000008
0
LINE
8
BLACK
6
CONTINUOUS
10
249.0093549999999993
20
-128.389316000000008
11
249.3396799999999871
21
-128.182298000000003
0
LINE
8
BLACK
6
CONTINUOUS
10
249.3396799999999871
20
-128.182298000000003
11
249.6492799999999761
21
-127.9454039999999964
0
LINE
8
BLACK
6
CONTINUOUS
10
249.6492799999999761
20
-127.9454039999999964
11
249.9354620000000011
21
-127.6806959999999975
0
LINE
8
BLACK
6
CONTINUOUS
10
249.9354620000000011
20
-127.6806959999999975
11
250.1957369999999798
21
-127.390474999999995
0
LINE
8
BLACK
6
CONTINUOUS
10
250.1957369999999798
20
-127.390474999999995
11
250.4278399999999749
21
-127.077266999999992
0
LINE
8
BLACK
6
CONTINUOUS
10
250.4278399999999749
20
-127.077266999999992
11
250.6297519999999963
21
-126.743795999999989
0
LINE
8
BLACK
6
CONTINUOUS
10
250.6297519999999963
20
-126.743795999999989
11
250.7997159999999894
21
-126.3929639999999921
0
LINE
8
BLACK
6
CONTINUOUS
10
250.7997159999999894
20
-126.3929639999999921
11
250.936253999999991
21
-126.0278220000000005
0
LINE
8
BLACK
6
CONTINUOUS
10
250.936253999999991
20
-126.0278220000000005
11
251.0381789999999853
21
-125.6515479999999911
0
LINE
8
BLACK
6
CONTINUOUS
10
251.0381789999999853
20
-125.6515479999999911
11
251.1046019999999999
21
-125.2674139999999881
0
LINE
8
BLACK
6
CONTINUOUS
10
251.1046019999999999
20
-125.2674139999999881
11
251.1349469999999826
21
-124.8787619999999947
0
LINE
8
BLACK
6
CONTINUOUS
10
251.1349469999999826
20
-124.8787619999999947
11
251.1319019999999966
21
-124.6838690000000014
0
LINE
8
BLACK
6
CONTINUOUS
10
251.1319019999999966
20
-124.6838690000000014
11
251.1319499999999891
21
-124.6837109999999882
0
LINE
8
BLACK
6
CONTINUOUS
10
251.1319499999999891
20
-124.6837109999999882
11
251.1319059999999865
21
-124.6834869999999995
0
LINE
8
BLACK
6
CONTINUOUS
10
251.1319059999999865
20
-124.6834869999999995
11
251.1280819999999778
21
-97.9460569999999962
0
LINE
8
BLACK
6
CONTINUOUS
10
251.1280819999999778
20
-97.9460569999999962
11
251.1280819999999778
21
-97.9460539999999895
0
LINE
8
BLACK
6
CONTINUOUS
10
251.1280819999999778
20
-97.9460539999999895
11
251.1280819999999778
21
-97.946052999999992
0
LINE
8
BLACK
6
CONTINUOUS
10
251.1280819999999778
20
-97.946052999999992
11
251.1280829999999753
21
-97.946052999999992
0
LINE
8
BLACK
6
CONTINUOUS
10
251.1280829999999753
20
-97.946052999999992
11
251.1281469999999842
21
-97.945729
0
LINE
8
BLACK
6
CONTINUOUS
10
251.1281469999999842
20
-97.945729
11
251.1281909999999868
21
-97.7511349999999908
0
LINE
8
BLACK
6
CONTINUOUS
10
251.1281909999999868
20
-97.7511349999999908
11
251.0918659999999818
21
-97.3629940000000005
0
LINE
8
BLACK
6
CONTINUOUS
10
251.0918659999999818
20
-97.3629940000000005
11
251.0195369999999855
21
-96.9799259999999919
0
LINE
8
BLACK
6
CONTINUOUS
10
251.0195369999999855
20
-96.9799259999999919
11
250.9118309999999781
21
-96.6052629999999937
0
LINE
8
BLACK
6
CONTINUOUS
10
250.9118309999999781
20
-96.6052629999999937
11
250.7696880000000021
21
-96.2422639999999916
0
LINE
8
BLACK
6
CONTINUOUS
10
250.7696880000000021
20
-96.2422639999999916
11
250.5943419999999833
21
-95.8940879999999964
0
LINE
8
BLACK
6
CONTINUOUS
10
250.5943419999999833
20
-95.8940879999999964
11
250.3873199999999883
21
-95.5637629999999945
0
LINE
8
BLACK
6
CONTINUOUS
10
250.3873199999999883
20
-95.5637629999999945
11
250.1504219999999918
21
-95.2541619999999938
0
LINE
8
BLACK
6
CONTINUOUS
10
250.1504219999999918
20
-95.2541619999999938
11
249.8857099999999889
21
-94.9679799999999972
0
LINE
8
BLACK
6
CONTINUOUS
10
249.8857099999999889
20
-94.9679799999999972
11
249.595485999999994
21
-94.7077060000000017
0
LINE
8
BLACK
6
CONTINUOUS
10
249.595485999999994
20
-94.7077060000000017
11
249.282274000000001
21
-94.4756039999999899
0
LINE
8
BLACK
6
CONTINUOUS
10
249.282274000000001
20
-94.4756039999999899
11
248.9488009999999747
21
-94.2736919999999969
0
LINE
8
BLACK
6
CONTINUOUS
10
248.9488009999999747
20
-94.2736919999999969
11
248.5979659999999853
21
-94.1037290000000013
0
LINE
8
BLACK
6
CONTINUOUS
10
248.5979659999999853
20
-94.1037290000000013
11
248.2328210000000013
21
-93.9671919999999972
0
LINE
8
BLACK
6
CONTINUOUS
10
248.2328210000000013
20
-93.9671919999999972
11
247.8565439999999853
21
-93.8652680000000004
0
LINE
8
BLACK
6
CONTINUOUS
10
247.8565439999999853
20
-93.8652680000000004
11
247.4724080000000015
21
-93.7988459999999975
0
LINE
8
BLACK
6
CONTINUOUS
10
247.4724080000000015
20
-93.7988459999999975
11
247.0837530000000015
21
-93.768501999999998
0
LINE
8
BLACK
6
CONTINUOUS
10
247.0837530000000015
20
-93.768501999999998
11
246.8888589999999965
21
-93.7715469999999982
  0
ENDSEC
  0
EOF
