  0
SECTION
  2
HEADER
  9
$ANGBASE
  50
0.0
  9
$ANGDIR
  70
1
  9
$MEASUREMENT
  70
1
  0
ENDSEC
  0
SECTION
  2
TABLES
  0
TABLE
  2
LTYPE
  70
4
  0
LTYPE
  5
40F
  2
CONTINUOUS
  70
0
  3
Solid line
  72
65
  73
0
  40
0.0
  0
LTYPE
  5
410
  2
DASHDOT
 70
0
  3
Dash Dot ____ _ ____ _
 72
65
 73
4
 40
2.0
 49
1.25
 49
-0.25
 49
0.25
 49
-0.25
  0
LTYPE
  5
411
  2
DASHED
 70
0
  3
Dashed __ __ __ __ __
 72
65
 73
2
 40
0.75
 49
0.5
 49
-0.25
  0
LTYPE
  5
43B
  2
DOTTED
 70
0
  3
Dotted .  .  .  .
 72
65
 73
2
 40
0.2
 49
0.0
 49
-0.2
  0
ENDTAB
  0
TABLE
  2
STYLE
  70
4
  0
STYLE
  2
KICAD
  70
0
  40
0
  41
1
  42
1
  50
0
  71
0
  3
isocp.shx
  0
STYLE
  2
KICADB
  70
0
  40
0
  41
1
  42
1
  50
0
  71
0
  3
isocp.shx
  0
STYLE
  2
KICADI
  70
0
  40
0
  41
1
  42
1
  50
15
  71
0
  3
isocp.shx
  0
STYLE
  2
KICADBI
  70
0
  40
0
  41
1
  42
1
  50
15
  71
0
  3
isocp.shx
  0
ENDTAB
  0
TABLE
  2
LAYER
  70
1
  0
LAYER
  2
BLACK
  70
0
  62
7
  6
CONTINUOUS
  0
ENDTAB
  0
ENDSEC
  0
SECTION
  2
ENTITIES
0
LINE
8
BLACK
6
CONTINUOUS
10
209.4785059999999817
20
-127.2385449999999878
11
209.5632859999999766
21
-127.2874920000000003
0
LINE
8
BLACK
6
CONTINUOUS
10
209.5632859999999766
20
-127.2874920000000003
11
209.6325080000000014
21
-127.3567139999999966
0
LINE
8
BLACK
6
CONTINUOUS
10
209.6325080000000014
20
-127.3567139999999966
11
209.6814549999999997
21
-127.4414939999999916
0
LINE
8
BLACK
6
CONTINUOUS
10
209.6814549999999997
20
-127.4414939999999916
11
209.7067919999999788
21
-127.5360529999999954
0
LINE
8
BLACK
6
CONTINUOUS
10
209.7067919999999788
20
-127.5360529999999954
11
209.7067919999999788
21
-127.633946999999992
0
LINE
8
BLACK
6
CONTINUOUS
10
209.7067919999999788
20
-127.633946999999992
11
209.6814549999999997
21
-127.7285059999999959
0
LINE
8
BLACK
6
CONTINUOUS
10
209.6814549999999997
20
-127.7285059999999959
11
209.6325080000000014
21
-127.8132859999999908
0
LINE
8
BLACK
6
CONTINUOUS
10
209.6325080000000014
20
-127.8132859999999908
11
209.5632859999999766
21
-127.8825079999999872
0
LINE
8
BLACK
6
CONTINUOUS
10
209.5632859999999766
20
-127.8825079999999872
11
209.4785059999999817
21
-127.9314549999999997
0
LINE
8
BLACK
6
CONTINUOUS
10
209.4785059999999817
20
-127.9314549999999997
11
209.3839469999999778
21
-127.956791999999993
0
LINE
8
BLACK
6
CONTINUOUS
10
209.3839469999999778
20
-127.956791999999993
11
209.2860529999999812
21
-127.956791999999993
0
LINE
8
BLACK
6
CONTINUOUS
10
209.2860529999999812
20
-127.956791999999993
11
209.1914939999999774
21
-127.9314549999999997
0
LINE
8
BLACK
6
CONTINUOUS
10
209.1914939999999774
20
-127.9314549999999997
11
209.1067139999999824
21
-127.8825079999999872
0
LINE
8
BLACK
6
CONTINUOUS
10
209.1067139999999824
20
-127.8825079999999872
11
209.0374919999999861
21
-127.8132859999999908
0
LINE
8
BLACK
6
CONTINUOUS
10
209.0374919999999861
20
-127.8132859999999908
11
208.9885449999999878
21
-127.7285059999999959
0
LINE
8
BLACK
6
CONTINUOUS
10
208.9885449999999878
20
-127.7285059999999959
11
208.9632079999999803
21
-127.633946999999992
0
LINE
8
BLACK
6
CONTINUOUS
10
208.9632079999999803
20
-127.633946999999992
11
208.9632079999999803
21
-127.5360529999999954
0
LINE
8
BLACK
6
CONTINUOUS
10
208.9632079999999803
20
-127.5360529999999954
11
208.9885449999999878
21
-127.4414939999999916
0
LINE
8
BLACK
6
CONTINUOUS
10
208.9885449999999878
20
-127.4414939999999916
11
209.0374919999999861
21
-127.3567139999999966
0
LINE
8
BLACK
6
CONTINUOUS
10
209.0374919999999861
20
-127.3567139999999966
11
209.1067139999999824
21
-127.2874920000000003
0
LINE
8
BLACK
6
CONTINUOUS
10
209.1067139999999824
20
-127.2874920000000003
11
209.1914939999999774
21
-127.2385449999999878
0
LINE
8
BLACK
6
CONTINUOUS
10
209.1914939999999774
20
-127.2385449999999878
11
209.2860529999999812
21
-127.2132079999999945
0
LINE
8
BLACK
6
CONTINUOUS
10
209.2860529999999812
20
-127.2132079999999945
11
209.3839469999999778
21
-127.2132079999999945
0
LINE
8
BLACK
6
CONTINUOUS
10
209.3839469999999778
20
-127.2132079999999945
11
209.4785059999999817
21
-127.2385449999999878
0
LINE
8
BLACK
6
CONTINUOUS
10
192.4435059999999851
20
-127.2235449999999872
11
192.52828599999998
21
-127.2724919999999997
0
LINE
8
BLACK
6
CONTINUOUS
10
192.52828599999998
20
-127.2724919999999997
11
192.5975080000000048
21
-127.3417139999999961
0
LINE
8
BLACK
6
CONTINUOUS
10
192.5975080000000048
20
-127.3417139999999961
11
192.6464550000000031
21
-127.426493999999991
0
LINE
8
BLACK
6
CONTINUOUS
10
192.6464550000000031
20
-127.426493999999991
11
192.6717919999999822
21
-127.5210529999999949
0
LINE
8
BLACK
6
CONTINUOUS
10
192.6717919999999822
20
-127.5210529999999949
11
192.6717919999999822
21
-127.6189469999999915
0
LINE
8
BLACK
6
CONTINUOUS
10
192.6717919999999822
20
-127.6189469999999915
11
192.6464550000000031
21
-127.7135059999999953
0
LINE
8
BLACK
6
CONTINUOUS
10
192.6464550000000031
20
-127.7135059999999953
11
192.5975080000000048
21
-127.7982859999999903
0
LINE
8
BLACK
6
CONTINUOUS
10
192.5975080000000048
20
-127.7982859999999903
11
192.52828599999998
21
-127.8675080000000008
0
LINE
8
BLACK
6
CONTINUOUS
10
192.52828599999998
20
-127.8675080000000008
11
192.4435059999999851
21
-127.9164549999999991
0
LINE
8
BLACK
6
CONTINUOUS
10
192.4435059999999851
20
-127.9164549999999991
11
192.3489469999999812
21
-127.9417919999999924
0
LINE
8
BLACK
6
CONTINUOUS
10
192.3489469999999812
20
-127.9417919999999924
11
192.2510529999999846
21
-127.9417919999999924
0
LINE
8
BLACK
6
CONTINUOUS
10
192.2510529999999846
20
-127.9417919999999924
11
192.1564939999999808
21
-127.9164549999999991
0
LINE
8
BLACK
6
CONTINUOUS
10
192.1564939999999808
20
-127.9164549999999991
11
192.0717139999999858
21
-127.8675080000000008
0
LINE
8
BLACK
6
CONTINUOUS
10
192.0717139999999858
20
-127.8675080000000008
11
192.0024919999999895
21
-127.7982859999999903
0
LINE
8
BLACK
6
CONTINUOUS
10
192.0024919999999895
20
-127.7982859999999903
11
191.9535449999999912
21
-127.7135059999999953
0
LINE
8
BLACK
6
CONTINUOUS
10
191.9535449999999912
20
-127.7135059999999953
11
191.9282079999999837
21
-127.6189469999999915
0
LINE
8
BLACK
6
CONTINUOUS
10
191.9282079999999837
20
-127.6189469999999915
11
191.9282079999999837
21
-127.5210529999999949
0
LINE
8
BLACK
6
CONTINUOUS
10
191.9282079999999837
20
-127.5210529999999949
11
191.9535449999999912
21
-127.426493999999991
0
LINE
8
BLACK
6
CONTINUOUS
10
191.9535449999999912
20
-127.426493999999991
11
192.0024919999999895
21
-127.3417139999999961
0
LINE
8
BLACK
6
CONTINUOUS
10
192.0024919999999895
20
-127.3417139999999961
11
192.0717139999999858
21
-127.2724919999999997
0
LINE
8
BLACK
6
CONTINUOUS
10
192.0717139999999858
20
-127.2724919999999997
11
192.1564939999999808
21
-127.2235449999999872
0
LINE
8
BLACK
6
CONTINUOUS
10
192.1564939999999808
20
-127.2235449999999872
11
192.2510529999999846
21
-127.1982079999999939
0
LINE
8
BLACK
6
CONTINUOUS
10
192.2510529999999846
20
-127.1982079999999939
11
192.3489469999999812
21
-127.1982079999999939
0
LINE
8
BLACK
6
CONTINUOUS
10
192.3489469999999812
20
-127.1982079999999939
11
192.4435059999999851
21
-127.2235449999999872
0
LINE
8
BLACK
6
CONTINUOUS
10
231.5035059999999874
20
-127.2235449999999872
11
231.5882859999999823
21
-127.2724919999999997
0
LINE
8
BLACK
6
CONTINUOUS
10
231.5882859999999823
20
-127.2724919999999997
11
231.6575079999999787
21
-127.3417139999999961
0
LINE
8
BLACK
6
CONTINUOUS
10
231.6575079999999787
20
-127.3417139999999961
11
231.706454999999977
21
-127.426493999999991
0
LINE
8
BLACK
6
CONTINUOUS
10
231.706454999999977
20
-127.426493999999991
11
231.7317919999999845
21
-127.5210529999999949
0
LINE
8
BLACK
6
CONTINUOUS
10
231.7317919999999845
20
-127.5210529999999949
11
231.7317919999999845
21
-127.6189469999999915
0
LINE
8
BLACK
6
CONTINUOUS
10
231.7317919999999845
20
-127.6189469999999915
11
231.706454999999977
21
-127.7135059999999953
0
LINE
8
BLACK
6
CONTINUOUS
10
231.706454999999977
20
-127.7135059999999953
11
231.6575079999999787
21
-127.7982859999999903
0
LINE
8
BLACK
6
CONTINUOUS
10
231.6575079999999787
20
-127.7982859999999903
11
231.5882859999999823
21
-127.8675080000000008
0
LINE
8
BLACK
6
CONTINUOUS
10
231.5882859999999823
20
-127.8675080000000008
11
231.5035059999999874
21
-127.9164549999999991
0
LINE
8
BLACK
6
CONTINUOUS
10
231.5035059999999874
20
-127.9164549999999991
11
231.4089469999999835
21
-127.9417919999999924
0
LINE
8
BLACK
6
CONTINUOUS
10
231.4089469999999835
20
-127.9417919999999924
11
231.3110529999999869
21
-127.9417919999999924
0
LINE
8
BLACK
6
CONTINUOUS
10
231.3110529999999869
20
-127.9417919999999924
11
231.2164939999999831
21
-127.9164549999999991
0
LINE
8
BLACK
6
CONTINUOUS
10
231.2164939999999831
20
-127.9164549999999991
11
231.1317139999999881
21
-127.8675080000000008
0
LINE
8
BLACK
6
CONTINUOUS
10
231.1317139999999881
20
-127.8675080000000008
11
231.0624919999999918
21
-127.7982859999999903
0
LINE
8
BLACK
6
CONTINUOUS
10
231.0624919999999918
20
-127.7982859999999903
11
231.0135449999999935
21
-127.7135059999999953
0
LINE
8
BLACK
6
CONTINUOUS
10
231.0135449999999935
20
-127.7135059999999953
11
230.988207999999986
21
-127.6189469999999915
0
LINE
8
BLACK
6
CONTINUOUS
10
230.988207999999986
20
-127.6189469999999915
11
230.988207999999986
21
-127.5210529999999949
0
LINE
8
BLACK
6
CONTINUOUS
10
230.988207999999986
20
-127.5210529999999949
11
231.0135449999999935
21
-127.426493999999991
0
LINE
8
BLACK
6
CONTINUOUS
10
231.0135449999999935
20
-127.426493999999991
11
231.0624919999999918
21
-127.3417139999999961
0
LINE
8
BLACK
6
CONTINUOUS
10
231.0624919999999918
20
-127.3417139999999961
11
231.1317139999999881
21
-127.2724919999999997
0
LINE
8
BLACK
6
CONTINUOUS
10
231.1317139999999881
20
-127.2724919999999997
11
231.2164939999999831
21
-127.2235449999999872
0
LINE
8
BLACK
6
CONTINUOUS
10
231.2164939999999831
20
-127.2235449999999872
11
231.3110529999999869
21
-127.1982079999999939
0
LINE
8
BLACK
6
CONTINUOUS
10
231.3110529999999869
20
-127.1982079999999939
11
231.4089469999999835
21
-127.1982079999999939
0
LINE
8
BLACK
6
CONTINUOUS
10
231.4089469999999835
20
-127.1982079999999939
11
231.5035059999999874
21
-127.2235449999999872
0
LINE
8
BLACK
6
CONTINUOUS
10
244.9435059999999851
20
-127.2235449999999872
11
245.02828599999998
21
-127.2724919999999997
0
LINE
8
BLACK
6
CONTINUOUS
10
245.02828599999998
20
-127.2724919999999997
11
245.0975079999999764
21
-127.3417139999999961
0
LINE
8
BLACK
6
CONTINUOUS
10
245.0975079999999764
20
-127.3417139999999961
11
245.1464550000000031
21
-127.426493999999991
0
LINE
8
BLACK
6
CONTINUOUS
10
245.1464550000000031
20
-127.426493999999991
11
245.1717919999999822
21
-127.5210529999999949
0
LINE
8
BLACK
6
CONTINUOUS
10
245.1717919999999822
20
-127.5210529999999949
11
245.1717919999999822
21
-127.6189469999999915
0
LINE
8
BLACK
6
CONTINUOUS
10
245.1717919999999822
20
-127.6189469999999915
11
245.1464550000000031
21
-127.7135059999999953
0
LINE
8
BLACK
6
CONTINUOUS
10
245.1464550000000031
20
-127.7135059999999953
11
245.0975079999999764
21
-127.7982859999999903
0
LINE
8
BLACK
6
CONTINUOUS
10
245.0975079999999764
20
-127.7982859999999903
11
245.02828599999998
21
-127.8675080000000008
0
LINE
8
BLACK
6
CONTINUOUS
10
245.02828599999998
20
-127.8675080000000008
11
244.9435059999999851
21
-127.9164549999999991
0
LINE
8
BLACK
6
CONTINUOUS
10
244.9435059999999851
20
-127.9164549999999991
11
244.8489469999999812
21
-127.9417919999999924
0
LINE
8
BLACK
6
CONTINUOUS
10
244.8489469999999812
20
-127.9417919999999924
11
244.7510529999999846
21
-127.9417919999999924
0
LINE
8
BLACK
6
CONTINUOUS
10
244.7510529999999846
20
-127.9417919999999924
11
244.6564939999999808
21
-127.9164549999999991
0
LINE
8
BLACK
6
CONTINUOUS
10
244.6564939999999808
20
-127.9164549999999991
11
244.5717139999999858
21
-127.8675080000000008
0
LINE
8
BLACK
6
CONTINUOUS
10
244.5717139999999858
20
-127.8675080000000008
11
244.5024919999999895
21
-127.7982859999999903
0
LINE
8
BLACK
6
CONTINUOUS
10
244.5024919999999895
20
-127.7982859999999903
11
244.4535449999999912
21
-127.7135059999999953
0
LINE
8
BLACK
6
CONTINUOUS
10
244.4535449999999912
20
-127.7135059999999953
11
244.4282079999999837
21
-127.6189469999999915
0
LINE
8
BLACK
6
CONTINUOUS
10
244.4282079999999837
20
-127.6189469999999915
11
244.4282079999999837
21
-127.5210529999999949
0
LINE
8
BLACK
6
CONTINUOUS
10
244.4282079999999837
20
-127.5210529999999949
11
244.4535449999999912
21
-127.426493999999991
0
LINE
8
BLACK
6
CONTINUOUS
10
244.4535449999999912
20
-127.426493999999991
11
244.5024919999999895
21
-127.3417139999999961
0
LINE
8
BLACK
6
CONTINUOUS
10
244.5024919999999895
20
-127.3417139999999961
11
244.5717139999999858
21
-127.2724919999999997
0
LINE
8
BLACK
6
CONTINUOUS
10
244.5717139999999858
20
-127.2724919999999997
11
244.6564939999999808
21
-127.2235449999999872
0
LINE
8
BLACK
6
CONTINUOUS
10
244.6564939999999808
20
-127.2235449999999872
11
244.7510529999999846
21
-127.1982079999999939
0
LINE
8
BLACK
6
CONTINUOUS
10
244.7510529999999846
20
-127.1982079999999939
11
244.8489469999999812
21
-127.1982079999999939
0
LINE
8
BLACK
6
CONTINUOUS
10
244.8489469999999812
20
-127.1982079999999939
11
244.9435059999999851
21
-127.2235449999999872
0
LINE
8
BLACK
6
CONTINUOUS
10
207.4849999999999852
20
-127.5599999999999881
11
205.9350000000000023
21
-127.5599999999999881
0
LINE
8
BLACK
6
CONTINUOUS
10
205.9350000000000023
20
-127.5599999999999881
11
205.9350000000000023
21
-126.5599999999999881
0
LINE
8
BLACK
6
CONTINUOUS
10
205.9350000000000023
20
-126.5599999999999881
11
207.4849999999999852
21
-126.5599999999999881
0
LINE
8
BLACK
6
CONTINUOUS
10
207.4849999999999852
20
-126.5599999999999881
11
207.4849999999999852
21
-127.5599999999999881
0
LINE
8
BLACK
6
CONTINUOUS
10
212.7349999999999852
20
-127.5599999999999881
11
211.1850000000000023
21
-127.5599999999999881
0
LINE
8
BLACK
6
CONTINUOUS
10
211.1850000000000023
20
-127.5599999999999881
11
211.1850000000000023
21
-126.5599999999999881
0
LINE
8
BLACK
6
CONTINUOUS
10
211.1850000000000023
20
-126.5599999999999881
11
212.7349999999999852
21
-126.5599999999999881
0
LINE
8
BLACK
6
CONTINUOUS
10
212.7349999999999852
20
-126.5599999999999881
11
212.7349999999999852
21
-127.5599999999999881
0
LINE
8
BLACK
6
CONTINUOUS
10
190.4499999999999886
20
-127.5449999999999875
11
188.8999999999999773
21
-127.5449999999999875
0
LINE
8
BLACK
6
CONTINUOUS
10
188.8999999999999773
20
-127.5449999999999875
11
188.8999999999999773
21
-126.5449999999999875
0
LINE
8
BLACK
6
CONTINUOUS
10
188.8999999999999773
20
-126.5449999999999875
11
190.4499999999999886
21
-126.5449999999999875
0
LINE
8
BLACK
6
CONTINUOUS
10
190.4499999999999886
20
-126.5449999999999875
11
190.4499999999999886
21
-127.5449999999999875
0
LINE
8
BLACK
6
CONTINUOUS
10
195.6999999999999886
20
-127.5449999999999875
11
194.1499999999999773
21
-127.5449999999999875
0
LINE
8
BLACK
6
CONTINUOUS
10
194.1499999999999773
20
-127.5449999999999875
11
194.1499999999999773
21
-126.5449999999999875
0
LINE
8
BLACK
6
CONTINUOUS
10
194.1499999999999773
20
-126.5449999999999875
11
195.6999999999999886
21
-126.5449999999999875
0
LINE
8
BLACK
6
CONTINUOUS
10
195.6999999999999886
20
-126.5449999999999875
11
195.6999999999999886
21
-127.5449999999999875
0
LINE
8
BLACK
6
CONTINUOUS
10
229.5099999999999909
20
-127.5449999999999875
11
227.9599999999999795
21
-127.5449999999999875
0
LINE
8
BLACK
6
CONTINUOUS
10
227.9599999999999795
20
-127.5449999999999875
11
227.9599999999999795
21
-126.5449999999999875
0
LINE
8
BLACK
6
CONTINUOUS
10
227.9599999999999795
20
-126.5449999999999875
11
229.5099999999999909
21
-126.5449999999999875
0
LINE
8
BLACK
6
CONTINUOUS
10
229.5099999999999909
20
-126.5449999999999875
11
229.5099999999999909
21
-127.5449999999999875
0
LINE
8
BLACK
6
CONTINUOUS
10
234.7599999999999909
20
-127.5449999999999875
11
233.2099999999999795
21
-127.5449999999999875
0
LINE
8
BLACK
6
CONTINUOUS
10
233.2099999999999795
20
-127.5449999999999875
11
233.2099999999999795
21
-126.5449999999999875
0
LINE
8
BLACK
6
CONTINUOUS
10
233.2099999999999795
20
-126.5449999999999875
11
234.7599999999999909
21
-126.5449999999999875
0
LINE
8
BLACK
6
CONTINUOUS
10
234.7599999999999909
20
-126.5449999999999875
11
234.7599999999999909
21
-127.5449999999999875
0
LINE
8
BLACK
6
CONTINUOUS
10
242.9499999999999886
20
-127.5449999999999875
11
241.3999999999999773
21
-127.5449999999999875
0
LINE
8
BLACK
6
CONTINUOUS
10
241.3999999999999773
20
-127.5449999999999875
11
241.3999999999999773
21
-126.5449999999999875
0
LINE
8
BLACK
6
CONTINUOUS
10
241.3999999999999773
20
-126.5449999999999875
11
242.9499999999999886
21
-126.5449999999999875
0
LINE
8
BLACK
6
CONTINUOUS
10
242.9499999999999886
20
-126.5449999999999875
11
242.9499999999999886
21
-127.5449999999999875
0
LINE
8
BLACK
6
CONTINUOUS
10
248.1999999999999886
20
-127.5449999999999875
11
246.6499999999999773
21
-127.5449999999999875
0
LINE
8
BLACK
6
CONTINUOUS
10
246.6499999999999773
20
-127.5449999999999875
11
246.6499999999999773
21
-126.5449999999999875
0
LINE
8
BLACK
6
CONTINUOUS
10
246.6499999999999773
20
-126.5449999999999875
11
248.1999999999999886
21
-126.5449999999999875
0
LINE
8
BLACK
6
CONTINUOUS
10
248.1999999999999886
20
-126.5449999999999875
11
248.1999999999999886
21
-127.5449999999999875
0
LINE
8
BLACK
6
CONTINUOUS
10
207.4849999999999852
20
-125.8599999999999994
11
205.9350000000000023
21
-125.8599999999999994
0
LINE
8
BLACK
6
CONTINUOUS
10
205.9350000000000023
20
-125.8599999999999994
11
205.9350000000000023
21
-124.8599999999999994
0
LINE
8
BLACK
6
CONTINUOUS
10
205.9350000000000023
20
-124.8599999999999994
11
207.4849999999999852
21
-124.8599999999999994
0
LINE
8
BLACK
6
CONTINUOUS
10
207.4849999999999852
20
-124.8599999999999994
11
207.4849999999999852
21
-125.8599999999999994
0
LINE
8
BLACK
6
CONTINUOUS
10
212.7349999999999852
20
-125.8599999999999994
11
211.1850000000000023
21
-125.8599999999999994
0
LINE
8
BLACK
6
CONTINUOUS
10
211.1850000000000023
20
-125.8599999999999994
11
211.1850000000000023
21
-124.8599999999999994
0
LINE
8
BLACK
6
CONTINUOUS
10
211.1850000000000023
20
-124.8599999999999994
11
212.7349999999999852
21
-124.8599999999999994
0
LINE
8
BLACK
6
CONTINUOUS
10
212.7349999999999852
20
-124.8599999999999994
11
212.7349999999999852
21
-125.8599999999999994
0
LINE
8
BLACK
6
CONTINUOUS
10
190.4499999999999886
20
-125.8449999999999989
11
188.8999999999999773
21
-125.8449999999999989
0
LINE
8
BLACK
6
CONTINUOUS
10
188.8999999999999773
20
-125.8449999999999989
11
188.8999999999999773
21
-124.8449999999999989
0
LINE
8
BLACK
6
CONTINUOUS
10
188.8999999999999773
20
-124.8449999999999989
11
190.4499999999999886
21
-124.8449999999999989
0
LINE
8
BLACK
6
CONTINUOUS
10
190.4499999999999886
20
-124.8449999999999989
11
190.4499999999999886
21
-125.8449999999999989
0
LINE
8
BLACK
6
CONTINUOUS
10
195.6999999999999886
20
-125.8449999999999989
11
194.1499999999999773
21
-125.8449999999999989
0
LINE
8
BLACK
6
CONTINUOUS
10
194.1499999999999773
20
-125.8449999999999989
11
194.1499999999999773
21
-124.8449999999999989
0
LINE
8
BLACK
6
CONTINUOUS
10
194.1499999999999773
20
-124.8449999999999989
11
195.6999999999999886
21
-124.8449999999999989
0
LINE
8
BLACK
6
CONTINUOUS
10
195.6999999999999886
20
-124.8449999999999989
11
195.6999999999999886
21
-125.8449999999999989
0
LINE
8
BLACK
6
CONTINUOUS
10
229.5099999999999909
20
-125.8449999999999989
11
227.9599999999999795
21
-125.8449999999999989
0
LINE
8
BLACK
6
CONTINUOUS
10
227.9599999999999795
20
-125.8449999999999989
11
227.9599999999999795
21
-124.8449999999999989
0
LINE
8
BLACK
6
CONTINUOUS
10
227.9599999999999795
20
-124.8449999999999989
11
229.5099999999999909
21
-124.8449999999999989
0
LINE
8
BLACK
6
CONTINUOUS
10
229.5099999999999909
20
-124.8449999999999989
11
229.5099999999999909
21
-125.8449999999999989
0
LINE
8
BLACK
6
CONTINUOUS
10
234.7599999999999909
20
-125.8449999999999989
11
233.2099999999999795
21
-125.8449999999999989
0
LINE
8
BLACK
6
CONTINUOUS
10
233.2099999999999795
20
-125.8449999999999989
11
233.2099999999999795
21
-124.8449999999999989
0
LINE
8
BLACK
6
CONTINUOUS
10
233.2099999999999795
20
-124.8449999999999989
11
234.7599999999999909
21
-124.8449999999999989
0
LINE
8
BLACK
6
CONTINUOUS
10
234.7599999999999909
20
-124.8449999999999989
11
234.7599999999999909
21
-125.8449999999999989
0
LINE
8
BLACK
6
CONTINUOUS
10
242.9499999999999886
20
-125.8449999999999989
11
241.3999999999999773
21
-125.8449999999999989
0
LINE
8
BLACK
6
CONTINUOUS
10
241.3999999999999773
20
-125.8449999999999989
11
241.3999999999999773
21
-124.8449999999999989
0
LINE
8
BLACK
6
CONTINUOUS
10
241.3999999999999773
20
-124.8449999999999989
11
242.9499999999999886
21
-124.8449999999999989
0
LINE
8
BLACK
6
CONTINUOUS
10
242.9499999999999886
20
-124.8449999999999989
11
242.9499999999999886
21
-125.8449999999999989
0
LINE
8
BLACK
6
CONTINUOUS
10
248.1999999999999886
20
-125.8449999999999989
11
246.6499999999999773
21
-125.8449999999999989
0
LINE
8
BLACK
6
CONTINUOUS
10
246.6499999999999773
20
-125.8449999999999989
11
246.6499999999999773
21
-124.8449999999999989
0
LINE
8
BLACK
6
CONTINUOUS
10
246.6499999999999773
20
-124.8449999999999989
11
248.1999999999999886
21
-124.8449999999999989
0
LINE
8
BLACK
6
CONTINUOUS
10
248.1999999999999886
20
-124.8449999999999989
11
248.1999999999999886
21
-125.8449999999999989
0
LINE
8
BLACK
6
CONTINUOUS
10
209.4785059999999817
20
-124.4885449999999878
11
209.5632859999999766
21
-124.5374920000000003
0
LINE
8
BLACK
6
CONTINUOUS
10
209.5632859999999766
20
-124.5374920000000003
11
209.6325080000000014
21
-124.6067139999999966
0
LINE
8
BLACK
6
CONTINUOUS
10
209.6325080000000014
20
-124.6067139999999966
11
209.6814549999999997
21
-124.6914939999999916
0
LINE
8
BLACK
6
CONTINUOUS
10
209.6814549999999997
20
-124.6914939999999916
11
209.7067919999999788
21
-124.7860529999999954
0
LINE
8
BLACK
6
CONTINUOUS
10
209.7067919999999788
20
-124.7860529999999954
11
209.7067919999999788
21
-124.883946999999992
0
LINE
8
BLACK
6
CONTINUOUS
10
209.7067919999999788
20
-124.883946999999992
11
209.6814549999999997
21
-124.9785059999999959
0
LINE
8
BLACK
6
CONTINUOUS
10
209.6814549999999997
20
-124.9785059999999959
11
209.6325080000000014
21
-125.0632859999999908
0
LINE
8
BLACK
6
CONTINUOUS
10
209.6325080000000014
20
-125.0632859999999908
11
209.5632859999999766
21
-125.1325080000000014
0
LINE
8
BLACK
6
CONTINUOUS
10
209.5632859999999766
20
-125.1325080000000014
11
209.4785059999999817
21
-125.1814549999999997
0
LINE
8
BLACK
6
CONTINUOUS
10
209.4785059999999817
20
-125.1814549999999997
11
209.3839469999999778
21
-125.206791999999993
0
LINE
8
BLACK
6
CONTINUOUS
10
209.3839469999999778
20
-125.206791999999993
11
209.2860529999999812
21
-125.206791999999993
0
LINE
8
BLACK
6
CONTINUOUS
10
209.2860529999999812
20
-125.206791999999993
11
209.1914939999999774
21
-125.1814549999999997
0
LINE
8
BLACK
6
CONTINUOUS
10
209.1914939999999774
20
-125.1814549999999997
11
209.1067139999999824
21
-125.1325080000000014
0
LINE
8
BLACK
6
CONTINUOUS
10
209.1067139999999824
20
-125.1325080000000014
11
209.0374919999999861
21
-125.0632859999999908
0
LINE
8
BLACK
6
CONTINUOUS
10
209.0374919999999861
20
-125.0632859999999908
11
208.9885449999999878
21
-124.9785059999999959
0
LINE
8
BLACK
6
CONTINUOUS
10
208.9885449999999878
20
-124.9785059999999959
11
208.9632079999999803
21
-124.883946999999992
0
LINE
8
BLACK
6
CONTINUOUS
10
208.9632079999999803
20
-124.883946999999992
11
208.9632079999999803
21
-124.7860529999999954
0
LINE
8
BLACK
6
CONTINUOUS
10
208.9632079999999803
20
-124.7860529999999954
11
208.9885449999999878
21
-124.6914939999999916
0
LINE
8
BLACK
6
CONTINUOUS
10
208.9885449999999878
20
-124.6914939999999916
11
209.0374919999999861
21
-124.6067139999999966
0
LINE
8
BLACK
6
CONTINUOUS
10
209.0374919999999861
20
-124.6067139999999966
11
209.1067139999999824
21
-124.5374920000000003
0
LINE
8
BLACK
6
CONTINUOUS
10
209.1067139999999824
20
-124.5374920000000003
11
209.1914939999999774
21
-124.4885449999999878
0
LINE
8
BLACK
6
CONTINUOUS
10
209.1914939999999774
20
-124.4885449999999878
11
209.2860529999999812
21
-124.4632079999999945
0
LINE
8
BLACK
6
CONTINUOUS
10
209.2860529999999812
20
-124.4632079999999945
11
209.3839469999999778
21
-124.4632079999999945
0
LINE
8
BLACK
6
CONTINUOUS
10
209.3839469999999778
20
-124.4632079999999945
11
209.4785059999999817
21
-124.4885449999999878
0
LINE
8
BLACK
6
CONTINUOUS
10
192.4435059999999851
20
-124.4735450000000014
11
192.52828599999998
21
-124.5224919999999997
0
LINE
8
BLACK
6
CONTINUOUS
10
192.52828599999998
20
-124.5224919999999997
11
192.5975080000000048
21
-124.5917139999999961
0
LINE
8
BLACK
6
CONTINUOUS
10
192.5975080000000048
20
-124.5917139999999961
11
192.6464550000000031
21
-124.676493999999991
0
LINE
8
BLACK
6
CONTINUOUS
10
192.6464550000000031
20
-124.676493999999991
11
192.6717919999999822
21
-124.7710529999999949
0
LINE
8
BLACK
6
CONTINUOUS
10
192.6717919999999822
20
-124.7710529999999949
11
192.6717919999999822
21
-124.8689469999999915
0
LINE
8
BLACK
6
CONTINUOUS
10
192.6717919999999822
20
-124.8689469999999915
11
192.6464550000000031
21
-124.9635059999999953
0
LINE
8
BLACK
6
CONTINUOUS
10
192.6464550000000031
20
-124.9635059999999953
11
192.5975080000000048
21
-125.0482859999999903
0
LINE
8
BLACK
6
CONTINUOUS
10
192.5975080000000048
20
-125.0482859999999903
11
192.52828599999998
21
-125.1175080000000008
0
LINE
8
BLACK
6
CONTINUOUS
10
192.52828599999998
20
-125.1175080000000008
11
192.4435059999999851
21
-125.1664549999999991
0
LINE
8
BLACK
6
CONTINUOUS
10
192.4435059999999851
20
-125.1664549999999991
11
192.3489469999999812
21
-125.1917919999999924
0
LINE
8
BLACK
6
CONTINUOUS
10
192.3489469999999812
20
-125.1917919999999924
11
192.2510529999999846
21
-125.1917919999999924
0
LINE
8
BLACK
6
CONTINUOUS
10
192.2510529999999846
20
-125.1917919999999924
11
192.1564939999999808
21
-125.1664549999999991
0
LINE
8
BLACK
6
CONTINUOUS
10
192.1564939999999808
20
-125.1664549999999991
11
192.0717139999999858
21
-125.1175080000000008
0
LINE
8
BLACK
6
CONTINUOUS
10
192.0717139999999858
20
-125.1175080000000008
11
192.0024919999999895
21
-125.0482859999999903
0
LINE
8
BLACK
6
CONTINUOUS
10
192.0024919999999895
20
-125.0482859999999903
11
191.9535449999999912
21
-124.9635059999999953
0
LINE
8
BLACK
6
CONTINUOUS
10
191.9535449999999912
20
-124.9635059999999953
11
191.9282079999999837
21
-124.8689469999999915
0
LINE
8
BLACK
6
CONTINUOUS
10
191.9282079999999837
20
-124.8689469999999915
11
191.9282079999999837
21
-124.7710529999999949
0
LINE
8
BLACK
6
CONTINUOUS
10
191.9282079999999837
20
-124.7710529999999949
11
191.9535449999999912
21
-124.676493999999991
0
LINE
8
BLACK
6
CONTINUOUS
10
191.9535449999999912
20
-124.676493999999991
11
192.0024919999999895
21
-124.5917139999999961
0
LINE
8
BLACK
6
CONTINUOUS
10
192.0024919999999895
20
-124.5917139999999961
11
192.0717139999999858
21
-124.5224919999999997
0
LINE
8
BLACK
6
CONTINUOUS
10
192.0717139999999858
20
-124.5224919999999997
11
192.1564939999999808
21
-124.4735450000000014
0
LINE
8
BLACK
6
CONTINUOUS
10
192.1564939999999808
20
-124.4735450000000014
11
192.2510529999999846
21
-124.4482079999999939
0
LINE
8
BLACK
6
CONTINUOUS
10
192.2510529999999846
20
-124.4482079999999939
11
192.3489469999999812
21
-124.4482079999999939
0
LINE
8
BLACK
6
CONTINUOUS
10
192.3489469999999812
20
-124.4482079999999939
11
192.4435059999999851
21
-124.4735450000000014
0
LINE
8
BLACK
6
CONTINUOUS
10
231.5035059999999874
20
-124.4735450000000014
11
231.5882859999999823
21
-124.5224919999999997
0
LINE
8
BLACK
6
CONTINUOUS
10
231.5882859999999823
20
-124.5224919999999997
11
231.6575079999999787
21
-124.5917139999999961
0
LINE
8
BLACK
6
CONTINUOUS
10
231.6575079999999787
20
-124.5917139999999961
11
231.706454999999977
21
-124.676493999999991
0
LINE
8
BLACK
6
CONTINUOUS
10
231.706454999999977
20
-124.676493999999991
11
231.7317919999999845
21
-124.7710529999999949
0
LINE
8
BLACK
6
CONTINUOUS
10
231.7317919999999845
20
-124.7710529999999949
11
231.7317919999999845
21
-124.8689469999999915
0
LINE
8
BLACK
6
CONTINUOUS
10
231.7317919999999845
20
-124.8689469999999915
11
231.706454999999977
21
-124.9635059999999953
0
LINE
8
BLACK
6
CONTINUOUS
10
231.706454999999977
20
-124.9635059999999953
11
231.6575079999999787
21
-125.0482859999999903
0
LINE
8
BLACK
6
CONTINUOUS
10
231.6575079999999787
20
-125.0482859999999903
11
231.5882859999999823
21
-125.1175080000000008
0
LINE
8
BLACK
6
CONTINUOUS
10
231.5882859999999823
20
-125.1175080000000008
11
231.5035059999999874
21
-125.1664549999999991
0
LINE
8
BLACK
6
CONTINUOUS
10
231.5035059999999874
20
-125.1664549999999991
11
231.4089469999999835
21
-125.1917919999999924
0
LINE
8
BLACK
6
CONTINUOUS
10
231.4089469999999835
20
-125.1917919999999924
11
231.3110529999999869
21
-125.1917919999999924
0
LINE
8
BLACK
6
CONTINUOUS
10
231.3110529999999869
20
-125.1917919999999924
11
231.2164939999999831
21
-125.1664549999999991
0
LINE
8
BLACK
6
CONTINUOUS
10
231.2164939999999831
20
-125.1664549999999991
11
231.1317139999999881
21
-125.1175080000000008
0
LINE
8
BLACK
6
CONTINUOUS
10
231.1317139999999881
20
-125.1175080000000008
11
231.0624919999999918
21
-125.0482859999999903
0
LINE
8
BLACK
6
CONTINUOUS
10
231.0624919999999918
20
-125.0482859999999903
11
231.0135449999999935
21
-124.9635059999999953
0
LINE
8
BLACK
6
CONTINUOUS
10
231.0135449999999935
20
-124.9635059999999953
11
230.988207999999986
21
-124.8689469999999915
0
LINE
8
BLACK
6
CONTINUOUS
10
230.988207999999986
20
-124.8689469999999915
11
230.988207999999986
21
-124.7710529999999949
0
LINE
8
BLACK
6
CONTINUOUS
10
230.988207999999986
20
-124.7710529999999949
11
231.0135449999999935
21
-124.676493999999991
0
LINE
8
BLACK
6
CONTINUOUS
10
231.0135449999999935
20
-124.676493999999991
11
231.0624919999999918
21
-124.5917139999999961
0
LINE
8
BLACK
6
CONTINUOUS
10
231.0624919999999918
20
-124.5917139999999961
11
231.1317139999999881
21
-124.5224919999999997
0
LINE
8
BLACK
6
CONTINUOUS
10
231.1317139999999881
20
-124.5224919999999997
11
231.2164939999999831
21
-124.4735450000000014
0
LINE
8
BLACK
6
CONTINUOUS
10
231.2164939999999831
20
-124.4735450000000014
11
231.3110529999999869
21
-124.4482079999999939
0
LINE
8
BLACK
6
CONTINUOUS
10
231.3110529999999869
20
-124.4482079999999939
11
231.4089469999999835
21
-124.4482079999999939
0
LINE
8
BLACK
6
CONTINUOUS
10
231.4089469999999835
20
-124.4482079999999939
11
231.5035059999999874
21
-124.4735450000000014
0
LINE
8
BLACK
6
CONTINUOUS
10
244.9435059999999851
20
-124.4735450000000014
11
245.02828599999998
21
-124.5224919999999997
0
LINE
8
BLACK
6
CONTINUOUS
10
245.02828599999998
20
-124.5224919999999997
11
245.0975079999999764
21
-124.5917139999999961
0
LINE
8
BLACK
6
CONTINUOUS
10
245.0975079999999764
20
-124.5917139999999961
11
245.1464550000000031
21
-124.676493999999991
0
LINE
8
BLACK
6
CONTINUOUS
10
245.1464550000000031
20
-124.676493999999991
11
245.1717919999999822
21
-124.7710529999999949
0
LINE
8
BLACK
6
CONTINUOUS
10
245.1717919999999822
20
-124.7710529999999949
11
245.1717919999999822
21
-124.8689469999999915
0
LINE
8
BLACK
6
CONTINUOUS
10
245.1717919999999822
20
-124.8689469999999915
11
245.1464550000000031
21
-124.9635059999999953
0
LINE
8
BLACK
6
CONTINUOUS
10
245.1464550000000031
20
-124.9635059999999953
11
245.0975079999999764
21
-125.0482859999999903
0
LINE
8
BLACK
6
CONTINUOUS
10
245.0975079999999764
20
-125.0482859999999903
11
245.02828599999998
21
-125.1175080000000008
0
LINE
8
BLACK
6
CONTINUOUS
10
245.02828599999998
20
-125.1175080000000008
11
244.9435059999999851
21
-125.1664549999999991
0
LINE
8
BLACK
6
CONTINUOUS
10
244.9435059999999851
20
-125.1664549999999991
11
244.8489469999999812
21
-125.1917919999999924
0
LINE
8
BLACK
6
CONTINUOUS
10
244.8489469999999812
20
-125.1917919999999924
11
244.7510529999999846
21
-125.1917919999999924
0
LINE
8
BLACK
6
CONTINUOUS
10
244.7510529999999846
20
-125.1917919999999924
11
244.6564939999999808
21
-125.1664549999999991
0
LINE
8
BLACK
6
CONTINUOUS
10
244.6564939999999808
20
-125.1664549999999991
11
244.5717139999999858
21
-125.1175080000000008
0
LINE
8
BLACK
6
CONTINUOUS
10
244.5717139999999858
20
-125.1175080000000008
11
244.5024919999999895
21
-125.0482859999999903
0
LINE
8
BLACK
6
CONTINUOUS
10
244.5024919999999895
20
-125.0482859999999903
11
244.4535449999999912
21
-124.9635059999999953
0
LINE
8
BLACK
6
CONTINUOUS
10
244.4535449999999912
20
-124.9635059999999953
11
244.4282079999999837
21
-124.8689469999999915
0
LINE
8
BLACK
6
CONTINUOUS
10
244.4282079999999837
20
-124.8689469999999915
11
244.4282079999999837
21
-124.7710529999999949
0
LINE
8
BLACK
6
CONTINUOUS
10
244.4282079999999837
20
-124.7710529999999949
11
244.4535449999999912
21
-124.676493999999991
0
LINE
8
BLACK
6
CONTINUOUS
10
244.4535449999999912
20
-124.676493999999991
11
244.5024919999999895
21
-124.5917139999999961
0
LINE
8
BLACK
6
CONTINUOUS
10
244.5024919999999895
20
-124.5917139999999961
11
244.5717139999999858
21
-124.5224919999999997
0
LINE
8
BLACK
6
CONTINUOUS
10
244.5717139999999858
20
-124.5224919999999997
11
244.6564939999999808
21
-124.4735450000000014
0
LINE
8
BLACK
6
CONTINUOUS
10
244.6564939999999808
20
-124.4735450000000014
11
244.7510529999999846
21
-124.4482079999999939
0
LINE
8
BLACK
6
CONTINUOUS
10
244.7510529999999846
20
-124.4482079999999939
11
244.8489469999999812
21
-124.4482079999999939
0
LINE
8
BLACK
6
CONTINUOUS
10
244.8489469999999812
20
-124.4482079999999939
11
244.9435059999999851
21
-124.4735450000000014
0
LINE
8
BLACK
6
CONTINUOUS
10
248.0449999999999875
20
-121.1749999999999972
11
247.0449999999999875
21
-121.1749999999999972
0
LINE
8
BLACK
6
CONTINUOUS
10
247.0449999999999875
20
-121.1749999999999972
11
247.0449999999999875
21
-119.625
0
LINE
8
BLACK
6
CONTINUOUS
10
247.0449999999999875
20
-119.625
11
248.0449999999999875
21
-119.625
0
LINE
8
BLACK
6
CONTINUOUS
10
248.0449999999999875
20
-119.625
11
248.0449999999999875
21
-121.1749999999999972
0
LINE
8
BLACK
6
CONTINUOUS
10
249.7449999999999761
20
-121.1749999999999972
11
248.7449999999999761
21
-121.1749999999999972
0
LINE
8
BLACK
6
CONTINUOUS
10
248.7449999999999761
20
-121.1749999999999972
11
248.7449999999999761
21
-119.625
0
LINE
8
BLACK
6
CONTINUOUS
10
248.7449999999999761
20
-119.625
11
249.7449999999999761
21
-119.625
0
LINE
8
BLACK
6
CONTINUOUS
10
249.7449999999999761
20
-119.625
11
249.7449999999999761
21
-121.1749999999999972
0
LINE
8
BLACK
6
CONTINUOUS
10
192.7099999999999795
20
-121.0499999999999972
11
191.2099999999999795
21
-121.0499999999999972
0
LINE
8
BLACK
6
CONTINUOUS
10
191.2099999999999795
20
-121.0499999999999972
11
191.2099999999999795
21
-118.5499999999999972
0
LINE
8
BLACK
6
CONTINUOUS
10
191.2099999999999795
20
-118.5499999999999972
11
192.7099999999999795
21
-118.5499999999999972
0
LINE
8
BLACK
6
CONTINUOUS
10
192.7099999999999795
20
-118.5499999999999972
11
192.7099999999999795
21
-121.0499999999999972
0
LINE
8
BLACK
6
CONTINUOUS
10
197.789999999999992
20
-121.0499999999999972
11
196.289999999999992
21
-121.0499999999999972
0
LINE
8
BLACK
6
CONTINUOUS
10
196.289999999999992
20
-121.0499999999999972
11
196.289999999999992
21
-118.5499999999999972
0
LINE
8
BLACK
6
CONTINUOUS
10
196.289999999999992
20
-118.5499999999999972
11
197.789999999999992
21
-118.5499999999999972
0
LINE
8
BLACK
6
CONTINUOUS
10
197.789999999999992
20
-118.5499999999999972
11
197.789999999999992
21
-121.0499999999999972
0
LINE
8
BLACK
6
CONTINUOUS
10
202.8700000000000045
20
-121.0499999999999972
11
201.3700000000000045
21
-121.0499999999999972
0
LINE
8
BLACK
6
CONTINUOUS
10
201.3700000000000045
20
-121.0499999999999972
11
201.3700000000000045
21
-118.5499999999999972
0
LINE
8
BLACK
6
CONTINUOUS
10
201.3700000000000045
20
-118.5499999999999972
11
202.8700000000000045
21
-118.5499999999999972
0
LINE
8
BLACK
6
CONTINUOUS
10
202.8700000000000045
20
-118.5499999999999972
11
202.8700000000000045
21
-121.0499999999999972
0
LINE
8
BLACK
6
CONTINUOUS
10
207.9499999999999886
20
-121.0499999999999972
11
206.4499999999999886
21
-121.0499999999999972
0
LINE
8
BLACK
6
CONTINUOUS
10
206.4499999999999886
20
-121.0499999999999972
11
206.4499999999999886
21
-118.5499999999999972
0
LINE
8
BLACK
6
CONTINUOUS
10
206.4499999999999886
20
-118.5499999999999972
11
207.9499999999999886
21
-118.5499999999999972
0
LINE
8
BLACK
6
CONTINUOUS
10
207.9499999999999886
20
-118.5499999999999972
11
207.9499999999999886
21
-121.0499999999999972
0
LINE
8
BLACK
6
CONTINUOUS
10
213.0300000000000011
20
-121.0499999999999972
11
211.5300000000000011
21
-121.0499999999999972
0
LINE
8
BLACK
6
CONTINUOUS
10
211.5300000000000011
20
-121.0499999999999972
11
211.5300000000000011
21
-118.5499999999999972
0
LINE
8
BLACK
6
CONTINUOUS
10
211.5300000000000011
20
-118.5499999999999972
11
213.0300000000000011
21
-118.5499999999999972
0
LINE
8
BLACK
6
CONTINUOUS
10
213.0300000000000011
20
-118.5499999999999972
11
213.0300000000000011
21
-121.0499999999999972
0
LINE
8
BLACK
6
CONTINUOUS
10
218.1099999999999852
20
-121.0499999999999972
11
216.6099999999999852
21
-121.0499999999999972
0
LINE
8
BLACK
6
CONTINUOUS
10
216.6099999999999852
20
-121.0499999999999972
11
216.6099999999999852
21
-118.5499999999999972
0
LINE
8
BLACK
6
CONTINUOUS
10
216.6099999999999852
20
-118.5499999999999972
11
218.1099999999999852
21
-118.5499999999999972
0
LINE
8
BLACK
6
CONTINUOUS
10
218.1099999999999852
20
-118.5499999999999972
11
218.1099999999999852
21
-121.0499999999999972
0
LINE
8
BLACK
6
CONTINUOUS
10
223.1899999999999977
20
-121.0499999999999972
11
221.6899999999999977
21
-121.0499999999999972
0
LINE
8
BLACK
6
CONTINUOUS
10
221.6899999999999977
20
-121.0499999999999972
11
221.6899999999999977
21
-118.5499999999999972
0
LINE
8
BLACK
6
CONTINUOUS
10
221.6899999999999977
20
-118.5499999999999972
11
223.1899999999999977
21
-118.5499999999999972
0
LINE
8
BLACK
6
CONTINUOUS
10
223.1899999999999977
20
-118.5499999999999972
11
223.1899999999999977
21
-121.0499999999999972
0
LINE
8
BLACK
6
CONTINUOUS
10
228.2699999999999818
20
-121.0499999999999972
11
226.7699999999999818
21
-121.0499999999999972
0
LINE
8
BLACK
6
CONTINUOUS
10
226.7699999999999818
20
-121.0499999999999972
11
226.7699999999999818
21
-118.5499999999999972
0
LINE
8
BLACK
6
CONTINUOUS
10
226.7699999999999818
20
-118.5499999999999972
11
228.2699999999999818
21
-118.5499999999999972
0
LINE
8
BLACK
6
CONTINUOUS
10
228.2699999999999818
20
-118.5499999999999972
11
228.2699999999999818
21
-121.0499999999999972
0
LINE
8
BLACK
6
CONTINUOUS
10
233.3499999999999943
20
-121.0499999999999972
11
231.8499999999999943
21
-121.0499999999999972
0
LINE
8
BLACK
6
CONTINUOUS
10
231.8499999999999943
20
-121.0499999999999972
11
231.8499999999999943
21
-118.5499999999999972
0
LINE
8
BLACK
6
CONTINUOUS
10
231.8499999999999943
20
-118.5499999999999972
11
233.3499999999999943
21
-118.5499999999999972
0
LINE
8
BLACK
6
CONTINUOUS
10
233.3499999999999943
20
-118.5499999999999972
11
233.3499999999999943
21
-121.0499999999999972
0
LINE
8
BLACK
6
CONTINUOUS
10
238.4299999999999784
20
-121.0499999999999972
11
236.9299999999999784
21
-121.0499999999999972
0
LINE
8
BLACK
6
CONTINUOUS
10
236.9299999999999784
20
-121.0499999999999972
11
236.9299999999999784
21
-118.5499999999999972
0
LINE
8
BLACK
6
CONTINUOUS
10
236.9299999999999784
20
-118.5499999999999972
11
238.4299999999999784
21
-118.5499999999999972
0
LINE
8
BLACK
6
CONTINUOUS
10
238.4299999999999784
20
-118.5499999999999972
11
238.4299999999999784
21
-121.0499999999999972
0
LINE
8
BLACK
6
CONTINUOUS
10
247.1635059999999839
20
-117.4285449999999997
11
247.2482859999999789
21
-117.477491999999998
0
LINE
8
BLACK
6
CONTINUOUS
10
247.2482859999999789
20
-117.477491999999998
11
247.3175079999999753
21
-117.5467139999999944
0
LINE
8
BLACK
6
CONTINUOUS
10
247.3175079999999753
20
-117.5467139999999944
11
247.366455000000002
21
-117.6314939999999893
0
LINE
8
BLACK
6
CONTINUOUS
10
247.366455000000002
20
-117.6314939999999893
11
247.391791999999981
21
-117.7260529999999932
0
LINE
8
BLACK
6
CONTINUOUS
10
247.391791999999981
20
-117.7260529999999932
11
247.391791999999981
21
-117.8239469999999898
0
LINE
8
BLACK
6
CONTINUOUS
10
247.391791999999981
20
-117.8239469999999898
11
247.366455000000002
21
-117.9185059999999936
0
LINE
8
BLACK
6
CONTINUOUS
10
247.366455000000002
20
-117.9185059999999936
11
247.3175079999999753
21
-118.0032859999999886
0
LINE
8
BLACK
6
CONTINUOUS
10
247.3175079999999753
20
-118.0032859999999886
11
247.2482859999999789
21
-118.0725079999999991
0
LINE
8
BLACK
6
CONTINUOUS
10
247.2482859999999789
20
-118.0725079999999991
11
247.1635059999999839
21
-118.1214549999999974
0
LINE
8
BLACK
6
CONTINUOUS
10
247.1635059999999839
20
-118.1214549999999974
11
247.0689469999999801
21
-118.1467919999999907
0
LINE
8
BLACK
6
CONTINUOUS
10
247.0689469999999801
20
-118.1467919999999907
11
246.9710529999999835
21
-118.1467919999999907
0
LINE
8
BLACK
6
CONTINUOUS
10
246.9710529999999835
20
-118.1467919999999907
11
246.8764939999999797
21
-118.1214549999999974
0
LINE
8
BLACK
6
CONTINUOUS
10
246.8764939999999797
20
-118.1214549999999974
11
246.7917139999999847
21
-118.0725079999999991
0
LINE
8
BLACK
6
CONTINUOUS
10
246.7917139999999847
20
-118.0725079999999991
11
246.7224919999999884
21
-118.0032859999999886
0
LINE
8
BLACK
6
CONTINUOUS
10
246.7224919999999884
20
-118.0032859999999886
11
246.6735449999999901
21
-117.9185059999999936
0
LINE
8
BLACK
6
CONTINUOUS
10
246.6735449999999901
20
-117.9185059999999936
11
246.6482079999999826
21
-117.8239469999999898
0
LINE
8
BLACK
6
CONTINUOUS
10
246.6482079999999826
20
-117.8239469999999898
11
246.6482079999999826
21
-117.7260529999999932
0
LINE
8
BLACK
6
CONTINUOUS
10
246.6482079999999826
20
-117.7260529999999932
11
246.6735449999999901
21
-117.6314939999999893
0
LINE
8
BLACK
6
CONTINUOUS
10
246.6735449999999901
20
-117.6314939999999893
11
246.7224919999999884
21
-117.5467139999999944
0
LINE
8
BLACK
6
CONTINUOUS
10
246.7224919999999884
20
-117.5467139999999944
11
246.7917139999999847
21
-117.477491999999998
0
LINE
8
BLACK
6
CONTINUOUS
10
246.7917139999999847
20
-117.477491999999998
11
246.8764939999999797
21
-117.4285449999999997
0
LINE
8
BLACK
6
CONTINUOUS
10
246.8764939999999797
20
-117.4285449999999997
11
246.9710529999999835
21
-117.4032079999999922
0
LINE
8
BLACK
6
CONTINUOUS
10
246.9710529999999835
20
-117.4032079999999922
11
247.0689469999999801
21
-117.4032079999999922
0
LINE
8
BLACK
6
CONTINUOUS
10
247.0689469999999801
20
-117.4032079999999922
11
247.1635059999999839
21
-117.4285449999999997
0
LINE
8
BLACK
6
CONTINUOUS
10
249.9135059999999839
20
-117.4285449999999997
11
249.9982859999999789
21
-117.477491999999998
0
LINE
8
BLACK
6
CONTINUOUS
10
249.9982859999999789
20
-117.477491999999998
11
250.0675079999999753
21
-117.5467139999999944
0
LINE
8
BLACK
6
CONTINUOUS
10
250.0675079999999753
20
-117.5467139999999944
11
250.116455000000002
21
-117.6314939999999893
0
LINE
8
BLACK
6
CONTINUOUS
10
250.116455000000002
20
-117.6314939999999893
11
250.141791999999981
21
-117.7260529999999932
0
LINE
8
BLACK
6
CONTINUOUS
10
250.141791999999981
20
-117.7260529999999932
11
250.141791999999981
21
-117.8239469999999898
0
LINE
8
BLACK
6
CONTINUOUS
10
250.141791999999981
20
-117.8239469999999898
11
250.116455000000002
21
-117.9185059999999936
0
LINE
8
BLACK
6
CONTINUOUS
10
250.116455000000002
20
-117.9185059999999936
11
250.0675079999999753
21
-118.0032859999999886
0
LINE
8
BLACK
6
CONTINUOUS
10
250.0675079999999753
20
-118.0032859999999886
11
249.9982859999999789
21
-118.0725079999999991
0
LINE
8
BLACK
6
CONTINUOUS
10
249.9982859999999789
20
-118.0725079999999991
11
249.9135059999999839
21
-118.1214549999999974
0
LINE
8
BLACK
6
CONTINUOUS
10
249.9135059999999839
20
-118.1214549999999974
11
249.8189469999999801
21
-118.1467919999999907
0
LINE
8
BLACK
6
CONTINUOUS
10
249.8189469999999801
20
-118.1467919999999907
11
249.7210529999999835
21
-118.1467919999999907
0
LINE
8
BLACK
6
CONTINUOUS
10
249.7210529999999835
20
-118.1467919999999907
11
249.6264939999999797
21
-118.1214549999999974
0
LINE
8
BLACK
6
CONTINUOUS
10
249.6264939999999797
20
-118.1214549999999974
11
249.5417139999999847
21
-118.0725079999999991
0
LINE
8
BLACK
6
CONTINUOUS
10
249.5417139999999847
20
-118.0725079999999991
11
249.4724919999999884
21
-118.0032859999999886
0
LINE
8
BLACK
6
CONTINUOUS
10
249.4724919999999884
20
-118.0032859999999886
11
249.4235449999999901
21
-117.9185059999999936
0
LINE
8
BLACK
6
CONTINUOUS
10
249.4235449999999901
20
-117.9185059999999936
11
249.3982079999999826
21
-117.8239469999999898
0
LINE
8
BLACK
6
CONTINUOUS
10
249.3982079999999826
20
-117.8239469999999898
11
249.3982079999999826
21
-117.7260529999999932
0
LINE
8
BLACK
6
CONTINUOUS
10
249.3982079999999826
20
-117.7260529999999932
11
249.4235449999999901
21
-117.6314939999999893
0
LINE
8
BLACK
6
CONTINUOUS
10
249.4235449999999901
20
-117.6314939999999893
11
249.4724919999999884
21
-117.5467139999999944
0
LINE
8
BLACK
6
CONTINUOUS
10
249.4724919999999884
20
-117.5467139999999944
11
249.5417139999999847
21
-117.477491999999998
0
LINE
8
BLACK
6
CONTINUOUS
10
249.5417139999999847
20
-117.477491999999998
11
249.6264939999999797
21
-117.4285449999999997
0
LINE
8
BLACK
6
CONTINUOUS
10
249.6264939999999797
20
-117.4285449999999997
11
249.7210529999999835
21
-117.4032079999999922
0
LINE
8
BLACK
6
CONTINUOUS
10
249.7210529999999835
20
-117.4032079999999922
11
249.8189469999999801
21
-117.4032079999999922
0
LINE
8
BLACK
6
CONTINUOUS
10
249.8189469999999801
20
-117.4032079999999922
11
249.9135059999999839
21
-117.4285449999999997
0
LINE
8
BLACK
6
CONTINUOUS
10
190.1699999999999875
20
-117.75
11
188.6699999999999875
21
-117.75
0
LINE
8
BLACK
6
CONTINUOUS
10
188.6699999999999875
20
-117.75
11
188.6699999999999875
21
-115.25
0
LINE
8
BLACK
6
CONTINUOUS
10
188.6699999999999875
20
-115.25
11
190.1699999999999875
21
-115.25
0
LINE
8
BLACK
6
CONTINUOUS
10
190.1699999999999875
20
-115.25
11
190.1699999999999875
21
-117.75
0
LINE
8
BLACK
6
CONTINUOUS
10
195.25
20
-117.75
11
193.75
21
-117.75
0
LINE
8
BLACK
6
CONTINUOUS
10
193.75
20
-117.75
11
193.75
21
-115.25
0
LINE
8
BLACK
6
CONTINUOUS
10
193.75
20
-115.25
11
195.25
21
-115.25
0
LINE
8
BLACK
6
CONTINUOUS
10
195.25
20
-115.25
11
195.25
21
-117.75
0
LINE
8
BLACK
6
CONTINUOUS
10
200.3299999999999841
20
-117.75
11
198.8299999999999841
21
-117.75
0
LINE
8
BLACK
6
CONTINUOUS
10
198.8299999999999841
20
-117.75
11
198.8299999999999841
21
-115.25
0
LINE
8
BLACK
6
CONTINUOUS
10
198.8299999999999841
20
-115.25
11
200.3299999999999841
21
-115.25
0
LINE
8
BLACK
6
CONTINUOUS
10
200.3299999999999841
20
-115.25
11
200.3299999999999841
21
-117.75
0
LINE
8
BLACK
6
CONTINUOUS
10
205.4099999999999966
20
-117.75
11
203.9099999999999966
21
-117.75
0
LINE
8
BLACK
6
CONTINUOUS
10
203.9099999999999966
20
-117.75
11
203.9099999999999966
21
-115.25
0
LINE
8
BLACK
6
CONTINUOUS
10
203.9099999999999966
20
-115.25
11
205.4099999999999966
21
-115.25
0
LINE
8
BLACK
6
CONTINUOUS
10
205.4099999999999966
20
-115.25
11
205.4099999999999966
21
-117.75
0
LINE
8
BLACK
6
CONTINUOUS
10
210.4899999999999807
20
-117.75
11
208.9899999999999807
21
-117.75
0
LINE
8
BLACK
6
CONTINUOUS
10
208.9899999999999807
20
-117.75
11
208.9899999999999807
21
-115.25
0
LINE
8
BLACK
6
CONTINUOUS
10
208.9899999999999807
20
-115.25
11
210.4899999999999807
21
-115.25
0
LINE
8
BLACK
6
CONTINUOUS
10
210.4899999999999807
20
-115.25
11
210.4899999999999807
21
-117.75
0
LINE
8
BLACK
6
CONTINUOUS
10
215.5699999999999932
20
-117.75
11
214.0699999999999932
21
-117.75
0
LINE
8
BLACK
6
CONTINUOUS
10
214.0699999999999932
20
-117.75
11
214.0699999999999932
21
-115.25
0
LINE
8
BLACK
6
CONTINUOUS
10
214.0699999999999932
20
-115.25
11
215.5699999999999932
21
-115.25
0
LINE
8
BLACK
6
CONTINUOUS
10
215.5699999999999932
20
-115.25
11
215.5699999999999932
21
-117.75
0
LINE
8
BLACK
6
CONTINUOUS
10
220.6499999999999773
20
-117.75
11
219.1499999999999773
21
-117.75
0
LINE
8
BLACK
6
CONTINUOUS
10
219.1499999999999773
20
-117.75
11
219.1499999999999773
21
-115.25
0
LINE
8
BLACK
6
CONTINUOUS
10
219.1499999999999773
20
-115.25
11
220.6499999999999773
21
-115.25
0
LINE
8
BLACK
6
CONTINUOUS
10
220.6499999999999773
20
-115.25
11
220.6499999999999773
21
-117.75
0
LINE
8
BLACK
6
CONTINUOUS
10
225.7299999999999898
20
-117.75
11
224.2299999999999898
21
-117.75
0
LINE
8
BLACK
6
CONTINUOUS
10
224.2299999999999898
20
-117.75
11
224.2299999999999898
21
-115.25
0
LINE
8
BLACK
6
CONTINUOUS
10
224.2299999999999898
20
-115.25
11
225.7299999999999898
21
-115.25
0
LINE
8
BLACK
6
CONTINUOUS
10
225.7299999999999898
20
-115.25
11
225.7299999999999898
21
-117.75
0
LINE
8
BLACK
6
CONTINUOUS
10
230.8100000000000023
20
-117.75
11
229.3100000000000023
21
-117.75
0
LINE
8
BLACK
6
CONTINUOUS
10
229.3100000000000023
20
-117.75
11
229.3100000000000023
21
-115.25
0
LINE
8
BLACK
6
CONTINUOUS
10
229.3100000000000023
20
-115.25
11
230.8100000000000023
21
-115.25
0
LINE
8
BLACK
6
CONTINUOUS
10
230.8100000000000023
20
-115.25
11
230.8100000000000023
21
-117.75
0
LINE
8
BLACK
6
CONTINUOUS
10
235.8899999999999864
20
-117.75
11
234.3899999999999864
21
-117.75
0
LINE
8
BLACK
6
CONTINUOUS
10
234.3899999999999864
20
-117.75
11
234.3899999999999864
21
-115.25
0
LINE
8
BLACK
6
CONTINUOUS
10
234.3899999999999864
20
-115.25
11
235.8899999999999864
21
-115.25
0
LINE
8
BLACK
6
CONTINUOUS
10
235.8899999999999864
20
-115.25
11
235.8899999999999864
21
-117.75
0
LINE
8
BLACK
6
CONTINUOUS
10
248.0449999999999875
20
-115.9249999999999972
11
247.0449999999999875
21
-115.9249999999999972
0
LINE
8
BLACK
6
CONTINUOUS
10
247.0449999999999875
20
-115.9249999999999972
11
247.0449999999999875
21
-114.375
0
LINE
8
BLACK
6
CONTINUOUS
10
247.0449999999999875
20
-114.375
11
248.0449999999999875
21
-114.375
0
LINE
8
BLACK
6
CONTINUOUS
10
248.0449999999999875
20
-114.375
11
248.0449999999999875
21
-115.9249999999999972
0
LINE
8
BLACK
6
CONTINUOUS
10
249.7449999999999761
20
-115.9249999999999972
11
248.7449999999999761
21
-115.9249999999999972
0
LINE
8
BLACK
6
CONTINUOUS
10
248.7449999999999761
20
-115.9249999999999972
11
248.7449999999999761
21
-114.375
0
LINE
8
BLACK
6
CONTINUOUS
10
248.7449999999999761
20
-114.375
11
249.7449999999999761
21
-114.375
0
LINE
8
BLACK
6
CONTINUOUS
10
249.7449999999999761
20
-114.375
11
249.7449999999999761
21
-115.9249999999999972
0
LINE
8
BLACK
6
CONTINUOUS
10
249.1322079999999914
20
-106.5842540000000014
11
249.2339429999999822
21
-106.642990999999995
0
LINE
8
BLACK
6
CONTINUOUS
10
249.2339429999999822
20
-106.642990999999995
11
249.3170089999999846
21
-106.7260569999999973
0
LINE
8
BLACK
6
CONTINUOUS
10
249.3170089999999846
20
-106.7260569999999973
11
249.3757459999999924
21
-106.8277919999999881
0
LINE
8
BLACK
6
CONTINUOUS
10
249.3757459999999924
20
-106.8277919999999881
11
249.4061499999999967
21
-106.9412629999999922
0
LINE
8
BLACK
6
CONTINUOUS
10
249.4061499999999967
20
-106.9412629999999922
11
249.4061499999999967
21
-107.0587369999999936
0
LINE
8
BLACK
6
CONTINUOUS
10
249.4061499999999967
20
-107.0587369999999936
11
249.3757459999999924
21
-107.1722079999999977
0
LINE
8
BLACK
6
CONTINUOUS
10
249.3757459999999924
20
-107.1722079999999977
11
249.3170089999999846
21
-107.2739429999999885
0
LINE
8
BLACK
6
CONTINUOUS
10
249.3170089999999846
20
-107.2739429999999885
11
249.2339429999999822
21
-107.3570089999999908
0
LINE
8
BLACK
6
CONTINUOUS
10
249.2339429999999822
20
-107.3570089999999908
11
249.1322079999999914
21
-107.4157459999999986
0
LINE
8
BLACK
6
CONTINUOUS
10
249.1322079999999914
20
-107.4157459999999986
11
249.0187369999999873
21
-107.4461499999999887
0
LINE
8
BLACK
6
CONTINUOUS
10
249.0187369999999873
20
-107.4461499999999887
11
248.9012630000000001
21
-107.4461499999999887
0
LINE
8
BLACK
6
CONTINUOUS
10
248.9012630000000001
20
-107.4461499999999887
11
248.7877919999999961
21
-107.4157459999999986
0
LINE
8
BLACK
6
CONTINUOUS
10
248.7877919999999961
20
-107.4157459999999986
11
248.6860569999999768
21
-107.3570089999999908
0
LINE
8
BLACK
6
CONTINUOUS
10
248.6860569999999768
20
-107.3570089999999908
11
248.6029910000000029
21
-107.2739429999999885
0
LINE
8
BLACK
6
CONTINUOUS
10
248.6029910000000029
20
-107.2739429999999885
11
248.5442539999999951
21
-107.1722079999999977
0
LINE
8
BLACK
6
CONTINUOUS
10
248.5442539999999951
20
-107.1722079999999977
11
248.5138499999999908
21
-107.0587369999999936
0
LINE
8
BLACK
6
CONTINUOUS
10
248.5138499999999908
20
-107.0587369999999936
11
248.5138499999999908
21
-106.9412629999999922
0
LINE
8
BLACK
6
CONTINUOUS
10
248.5138499999999908
20
-106.9412629999999922
11
248.5442539999999951
21
-106.8277919999999881
0
LINE
8
BLACK
6
CONTINUOUS
10
248.5442539999999951
20
-106.8277919999999881
11
248.6029910000000029
21
-106.7260569999999973
0
LINE
8
BLACK
6
CONTINUOUS
10
248.6029910000000029
20
-106.7260569999999973
11
248.6860569999999768
21
-106.642990999999995
0
LINE
8
BLACK
6
CONTINUOUS
10
248.6860569999999768
20
-106.642990999999995
11
248.7877919999999961
21
-106.5842540000000014
0
LINE
8
BLACK
6
CONTINUOUS
10
248.7877919999999961
20
-106.5842540000000014
11
248.9012630000000001
21
-106.5538499999999971
0
LINE
8
BLACK
6
CONTINUOUS
10
248.9012630000000001
20
-106.5538499999999971
11
249.0187369999999873
21
-106.5538499999999971
0
LINE
8
BLACK
6
CONTINUOUS
10
249.0187369999999873
20
-106.5538499999999971
11
249.1322079999999914
21
-106.5842540000000014
0
LINE
8
BLACK
6
CONTINUOUS
10
247.3056709999999896
20
-105.4940299999999951
11
247.386776999999995
21
-105.548222999999993
0
LINE
8
BLACK
6
CONTINUOUS
10
247.386776999999995
20
-105.548222999999993
11
247.440969999999993
21
-105.6293289999999985
0
LINE
8
BLACK
6
CONTINUOUS
10
247.440969999999993
20
-105.6293289999999985
11
247.4599999999999795
21
-105.7249999999999943
0
LINE
8
BLACK
6
CONTINUOUS
10
247.4599999999999795
20
-105.7249999999999943
11
247.4599999999999795
21
-106.4749999999999943
0
LINE
8
BLACK
6
CONTINUOUS
10
247.4599999999999795
20
-106.4749999999999943
11
247.440969999999993
21
-106.5706709999999902
0
LINE
8
BLACK
6
CONTINUOUS
10
247.440969999999993
20
-106.5706709999999902
11
247.386776999999995
21
-106.6517769999999956
0
LINE
8
BLACK
6
CONTINUOUS
10
247.386776999999995
20
-106.6517769999999956
11
247.3056709999999896
21
-106.7059699999999935
0
LINE
8
BLACK
6
CONTINUOUS
10
247.3056709999999896
20
-106.7059699999999935
11
247.2099999999999795
21
-106.7249999999999943
0
LINE
8
BLACK
6
CONTINUOUS
10
247.2099999999999795
20
-106.7249999999999943
11
245.2099999999999795
21
-106.7249999999999943
0
LINE
8
BLACK
6
CONTINUOUS
10
245.2099999999999795
20
-106.7249999999999943
11
245.1143289999999979
21
-106.7059699999999935
0
LINE
8
BLACK
6
CONTINUOUS
10
245.1143289999999979
20
-106.7059699999999935
11
245.0332229999999925
21
-106.6517769999999956
0
LINE
8
BLACK
6
CONTINUOUS
10
245.0332229999999925
20
-106.6517769999999956
11
244.9790299999999945
21
-106.5706709999999902
0
LINE
8
BLACK
6
CONTINUOUS
10
244.9790299999999945
20
-106.5706709999999902
11
244.9599999999999795
21
-106.4749999999999943
0
LINE
8
BLACK
6
CONTINUOUS
10
244.9599999999999795
20
-106.4749999999999943
11
244.9599999999999795
21
-105.7249999999999943
0
LINE
8
BLACK
6
CONTINUOUS
10
244.9599999999999795
20
-105.7249999999999943
11
244.9790299999999945
21
-105.6293289999999985
0
LINE
8
BLACK
6
CONTINUOUS
10
244.9790299999999945
20
-105.6293289999999985
11
245.0332229999999925
21
-105.548222999999993
0
LINE
8
BLACK
6
CONTINUOUS
10
245.0332229999999925
20
-105.548222999999993
11
245.1143289999999979
21
-105.4940299999999951
0
LINE
8
BLACK
6
CONTINUOUS
10
245.1143289999999979
20
-105.4940299999999951
11
245.2099999999999795
21
-105.4749999999999943
0
LINE
8
BLACK
6
CONTINUOUS
10
245.2099999999999795
20
-105.4749999999999943
11
247.2099999999999795
21
-105.4749999999999943
0
LINE
8
BLACK
6
CONTINUOUS
10
247.2099999999999795
20
-105.4749999999999943
11
247.3056709999999896
21
-105.4940299999999951
0
LINE
8
BLACK
6
CONTINUOUS
10
247.3056709999999896
20
-102.9940299999999951
11
247.386776999999995
21
-103.048222999999993
0
LINE
8
BLACK
6
CONTINUOUS
10
247.386776999999995
20
-103.048222999999993
11
247.440969999999993
21
-103.1293289999999985
0
LINE
8
BLACK
6
CONTINUOUS
10
247.440969999999993
20
-103.1293289999999985
11
247.4599999999999795
21
-103.2249999999999943
0
LINE
8
BLACK
6
CONTINUOUS
10
247.4599999999999795
20
-103.2249999999999943
11
247.4599999999999795
21
-103.9749999999999943
0
LINE
8
BLACK
6
CONTINUOUS
10
247.4599999999999795
20
-103.9749999999999943
11
247.440969999999993
21
-104.0706709999999902
0
LINE
8
BLACK
6
CONTINUOUS
10
247.440969999999993
20
-104.0706709999999902
11
247.386776999999995
21
-104.1517769999999956
0
LINE
8
BLACK
6
CONTINUOUS
10
247.386776999999995
20
-104.1517769999999956
11
247.3056709999999896
21
-104.2059699999999935
0
LINE
8
BLACK
6
CONTINUOUS
10
247.3056709999999896
20
-104.2059699999999935
11
247.2099999999999795
21
-104.2249999999999943
0
LINE
8
BLACK
6
CONTINUOUS
10
247.2099999999999795
20
-104.2249999999999943
11
245.2099999999999795
21
-104.2249999999999943
0
LINE
8
BLACK
6
CONTINUOUS
10
245.2099999999999795
20
-104.2249999999999943
11
245.1143289999999979
21
-104.2059699999999935
0
LINE
8
BLACK
6
CONTINUOUS
10
245.1143289999999979
20
-104.2059699999999935
11
245.0332229999999925
21
-104.1517769999999956
0
LINE
8
BLACK
6
CONTINUOUS
10
245.0332229999999925
20
-104.1517769999999956
11
244.9790299999999945
21
-104.0706709999999902
0
LINE
8
BLACK
6
CONTINUOUS
10
244.9790299999999945
20
-104.0706709999999902
11
244.9599999999999795
21
-103.9749999999999943
0
LINE
8
BLACK
6
CONTINUOUS
10
244.9599999999999795
20
-103.9749999999999943
11
244.9599999999999795
21
-103.2249999999999943
0
LINE
8
BLACK
6
CONTINUOUS
10
244.9599999999999795
20
-103.2249999999999943
11
244.9790299999999945
21
-103.1293289999999985
0
LINE
8
BLACK
6
CONTINUOUS
10
244.9790299999999945
20
-103.1293289999999985
11
245.0332229999999925
21
-103.048222999999993
0
LINE
8
BLACK
6
CONTINUOUS
10
245.0332229999999925
20
-103.048222999999993
11
245.1143289999999979
21
-102.9940299999999951
0
LINE
8
BLACK
6
CONTINUOUS
10
245.1143289999999979
20
-102.9940299999999951
11
245.2099999999999795
21
-102.9749999999999943
0
LINE
8
BLACK
6
CONTINUOUS
10
245.2099999999999795
20
-102.9749999999999943
11
247.2099999999999795
21
-102.9749999999999943
0
LINE
8
BLACK
6
CONTINUOUS
10
247.2099999999999795
20
-102.9749999999999943
11
247.3056709999999896
21
-102.9940299999999951
0
LINE
8
BLACK
6
CONTINUOUS
10
192.6799999999999784
20
-101.8199999999999932
11
191.1799999999999784
21
-101.8199999999999932
0
LINE
8
BLACK
6
CONTINUOUS
10
191.1799999999999784
20
-101.8199999999999932
11
191.1799999999999784
21
-99.3199999999999932
0
LINE
8
BLACK
6
CONTINUOUS
10
191.1799999999999784
20
-99.3199999999999932
11
192.6799999999999784
21
-99.3199999999999932
0
LINE
8
BLACK
6
CONTINUOUS
10
192.6799999999999784
20
-99.3199999999999932
11
192.6799999999999784
21
-101.8199999999999932
0
LINE
8
BLACK
6
CONTINUOUS
10
197.7599999999999909
20
-101.8199999999999932
11
196.2599999999999909
21
-101.8199999999999932
0
LINE
8
BLACK
6
CONTINUOUS
10
196.2599999999999909
20
-101.8199999999999932
11
196.2599999999999909
21
-99.3199999999999932
0
LINE
8
BLACK
6
CONTINUOUS
10
196.2599999999999909
20
-99.3199999999999932
11
197.7599999999999909
21
-99.3199999999999932
0
LINE
8
BLACK
6
CONTINUOUS
10
197.7599999999999909
20
-99.3199999999999932
11
197.7599999999999909
21
-101.8199999999999932
0
LINE
8
BLACK
6
CONTINUOUS
10
202.8400000000000034
20
-101.8199999999999932
11
201.3400000000000034
21
-101.8199999999999932
0
LINE
8
BLACK
6
CONTINUOUS
10
201.3400000000000034
20
-101.8199999999999932
11
201.3400000000000034
21
-99.3199999999999932
0
LINE
8
BLACK
6
CONTINUOUS
10
201.3400000000000034
20
-99.3199999999999932
11
202.8400000000000034
21
-99.3199999999999932
0
LINE
8
BLACK
6
CONTINUOUS
10
202.8400000000000034
20
-99.3199999999999932
11
202.8400000000000034
21
-101.8199999999999932
0
LINE
8
BLACK
6
CONTINUOUS
10
207.9199999999999875
20
-101.8199999999999932
11
206.4199999999999875
21
-101.8199999999999932
0
LINE
8
BLACK
6
CONTINUOUS
10
206.4199999999999875
20
-101.8199999999999932
11
206.4199999999999875
21
-99.3199999999999932
0
LINE
8
BLACK
6
CONTINUOUS
10
206.4199999999999875
20
-99.3199999999999932
11
207.9199999999999875
21
-99.3199999999999932
0
LINE
8
BLACK
6
CONTINUOUS
10
207.9199999999999875
20
-99.3199999999999932
11
207.9199999999999875
21
-101.8199999999999932
0
LINE
8
BLACK
6
CONTINUOUS
10
213.
20
-101.8199999999999932
11
211.5
21
-101.8199999999999932
0
LINE
8
BLACK
6
CONTINUOUS
10
211.5
20
-101.8199999999999932
11
211.5
21
-99.3199999999999932
0
LINE
8
BLACK
6
CONTINUOUS
10
211.5
20
-99.3199999999999932
11
213.
21
-99.3199999999999932
0
LINE
8
BLACK
6
CONTINUOUS
10
213.
20
-99.3199999999999932
11
213.
21
-101.8199999999999932
0
LINE
8
BLACK
6
CONTINUOUS
10
218.0799999999999841
20
-101.8199999999999932
11
216.5799999999999841
21
-101.8199999999999932
0
LINE
8
BLACK
6
CONTINUOUS
10
216.5799999999999841
20
-101.8199999999999932
11
216.5799999999999841
21
-99.3199999999999932
0
LINE
8
BLACK
6
CONTINUOUS
10
216.5799999999999841
20
-99.3199999999999932
11
218.0799999999999841
21
-99.3199999999999932
0
LINE
8
BLACK
6
CONTINUOUS
10
218.0799999999999841
20
-99.3199999999999932
11
218.0799999999999841
21
-101.8199999999999932
0
LINE
8
BLACK
6
CONTINUOUS
10
223.1599999999999966
20
-101.8199999999999932
11
221.6599999999999966
21
-101.8199999999999932
0
LINE
8
BLACK
6
CONTINUOUS
10
221.6599999999999966
20
-101.8199999999999932
11
221.6599999999999966
21
-99.3199999999999932
0
LINE
8
BLACK
6
CONTINUOUS
10
221.6599999999999966
20
-99.3199999999999932
11
223.1599999999999966
21
-99.3199999999999932
0
LINE
8
BLACK
6
CONTINUOUS
10
223.1599999999999966
20
-99.3199999999999932
11
223.1599999999999966
21
-101.8199999999999932
0
LINE
8
BLACK
6
CONTINUOUS
10
228.2399999999999807
20
-101.8199999999999932
11
226.7399999999999807
21
-101.8199999999999932
0
LINE
8
BLACK
6
CONTINUOUS
10
226.7399999999999807
20
-101.8199999999999932
11
226.7399999999999807
21
-99.3199999999999932
0
LINE
8
BLACK
6
CONTINUOUS
10
226.7399999999999807
20
-99.3199999999999932
11
228.2399999999999807
21
-99.3199999999999932
0
LINE
8
BLACK
6
CONTINUOUS
10
228.2399999999999807
20
-99.3199999999999932
11
228.2399999999999807
21
-101.8199999999999932
0
LINE
8
BLACK
6
CONTINUOUS
10
233.3199999999999932
20
-101.8199999999999932
11
231.8199999999999932
21
-101.8199999999999932
0
LINE
8
BLACK
6
CONTINUOUS
10
231.8199999999999932
20
-101.8199999999999932
11
231.8199999999999932
21
-99.3199999999999932
0
LINE
8
BLACK
6
CONTINUOUS
10
231.8199999999999932
20
-99.3199999999999932
11
233.3199999999999932
21
-99.3199999999999932
0
LINE
8
BLACK
6
CONTINUOUS
10
233.3199999999999932
20
-99.3199999999999932
11
233.3199999999999932
21
-101.8199999999999932
0
LINE
8
BLACK
6
CONTINUOUS
10
238.3999999999999773
20
-101.8199999999999932
11
236.8999999999999773
21
-101.8199999999999932
0
LINE
8
BLACK
6
CONTINUOUS
10
236.8999999999999773
20
-101.8199999999999932
11
236.8999999999999773
21
-99.3199999999999932
0
LINE
8
BLACK
6
CONTINUOUS
10
236.8999999999999773
20
-99.3199999999999932
11
238.3999999999999773
21
-99.3199999999999932
0
LINE
8
BLACK
6
CONTINUOUS
10
238.3999999999999773
20
-99.3199999999999932
11
238.3999999999999773
21
-101.8199999999999932
0
LINE
8
BLACK
6
CONTINUOUS
10
247.3056709999999896
20
-100.4940299999999951
11
247.386776999999995
21
-100.548222999999993
0
LINE
8
BLACK
6
CONTINUOUS
10
247.386776999999995
20
-100.548222999999993
11
247.440969999999993
21
-100.6293289999999985
0
LINE
8
BLACK
6
CONTINUOUS
10
247.440969999999993
20
-100.6293289999999985
11
247.4599999999999795
21
-100.7249999999999943
0
LINE
8
BLACK
6
CONTINUOUS
10
247.4599999999999795
20
-100.7249999999999943
11
247.4599999999999795
21
-101.4749999999999943
0
LINE
8
BLACK
6
CONTINUOUS
10
247.4599999999999795
20
-101.4749999999999943
11
247.440969999999993
21
-101.5706709999999902
0
LINE
8
BLACK
6
CONTINUOUS
10
247.440969999999993
20
-101.5706709999999902
11
247.386776999999995
21
-101.6517769999999956
0
LINE
8
BLACK
6
CONTINUOUS
10
247.386776999999995
20
-101.6517769999999956
11
247.3056709999999896
21
-101.7059699999999935
0
LINE
8
BLACK
6
CONTINUOUS
10
247.3056709999999896
20
-101.7059699999999935
11
247.2099999999999795
21
-101.7249999999999943
0
LINE
8
BLACK
6
CONTINUOUS
10
247.2099999999999795
20
-101.7249999999999943
11
245.2099999999999795
21
-101.7249999999999943
0
LINE
8
BLACK
6
CONTINUOUS
10
245.2099999999999795
20
-101.7249999999999943
11
245.1143289999999979
21
-101.7059699999999935
0
LINE
8
BLACK
6
CONTINUOUS
10
245.1143289999999979
20
-101.7059699999999935
11
245.0332229999999925
21
-101.6517769999999956
0
LINE
8
BLACK
6
CONTINUOUS
10
245.0332229999999925
20
-101.6517769999999956
11
244.9790299999999945
21
-101.5706709999999902
0
LINE
8
BLACK
6
CONTINUOUS
10
244.9790299999999945
20
-101.5706709999999902
11
244.9599999999999795
21
-101.4749999999999943
0
LINE
8
BLACK
6
CONTINUOUS
10
244.9599999999999795
20
-101.4749999999999943
11
244.9599999999999795
21
-100.7249999999999943
0
LINE
8
BLACK
6
CONTINUOUS
10
244.9599999999999795
20
-100.7249999999999943
11
244.9790299999999945
21
-100.6293289999999985
0
LINE
8
BLACK
6
CONTINUOUS
10
244.9790299999999945
20
-100.6293289999999985
11
245.0332229999999925
21
-100.548222999999993
0
LINE
8
BLACK
6
CONTINUOUS
10
245.0332229999999925
20
-100.548222999999993
11
245.1143289999999979
21
-100.4940299999999951
0
LINE
8
BLACK
6
CONTINUOUS
10
245.1143289999999979
20
-100.4940299999999951
11
245.2099999999999795
21
-100.4749999999999943
0
LINE
8
BLACK
6
CONTINUOUS
10
245.2099999999999795
20
-100.4749999999999943
11
247.2099999999999795
21
-100.4749999999999943
0
LINE
8
BLACK
6
CONTINUOUS
10
247.2099999999999795
20
-100.4749999999999943
11
247.3056709999999896
21
-100.4940299999999951
0
LINE
8
BLACK
6
CONTINUOUS
10
249.1322079999999914
20
-99.78425399999999
11
249.2339429999999822
21
-99.8429909999999978
0
LINE
8
BLACK
6
CONTINUOUS
10
249.2339429999999822
20
-99.8429909999999978
11
249.3170089999999846
21
-99.9260570000000001
0
LINE
8
BLACK
6
CONTINUOUS
10
249.3170089999999846
20
-99.9260570000000001
11
249.3757459999999924
21
-100.0277919999999909
0
LINE
8
BLACK
6
CONTINUOUS
10
249.3757459999999924
20
-100.0277919999999909
11
249.4061499999999967
21
-100.141262999999995
0
LINE
8
BLACK
6
CONTINUOUS
10
249.4061499999999967
20
-100.141262999999995
11
249.4061499999999967
21
-100.2587369999999964
0
LINE
8
BLACK
6
CONTINUOUS
10
249.4061499999999967
20
-100.2587369999999964
11
249.3757459999999924
21
-100.3722080000000005
0
LINE
8
BLACK
6
CONTINUOUS
10
249.3757459999999924
20
-100.3722080000000005
11
249.3170089999999846
21
-100.4739429999999913
0
LINE
8
BLACK
6
CONTINUOUS
10
249.3170089999999846
20
-100.4739429999999913
11
249.2339429999999822
21
-100.5570089999999936
0
LINE
8
BLACK
6
CONTINUOUS
10
249.2339429999999822
20
-100.5570089999999936
11
249.1322079999999914
21
-100.6157460000000015
0
LINE
8
BLACK
6
CONTINUOUS
10
249.1322079999999914
20
-100.6157460000000015
11
249.0187369999999873
21
-100.6461499999999916
0
LINE
8
BLACK
6
CONTINUOUS
10
249.0187369999999873
20
-100.6461499999999916
11
248.9012630000000001
21
-100.6461499999999916
0
LINE
8
BLACK
6
CONTINUOUS
10
248.9012630000000001
20
-100.6461499999999916
11
248.7877919999999961
21
-100.6157460000000015
0
LINE
8
BLACK
6
CONTINUOUS
10
248.7877919999999961
20
-100.6157460000000015
11
248.6860569999999768
21
-100.5570089999999936
0
LINE
8
BLACK
6
CONTINUOUS
10
248.6860569999999768
20
-100.5570089999999936
11
248.6029910000000029
21
-100.4739429999999913
0
LINE
8
BLACK
6
CONTINUOUS
10
248.6029910000000029
20
-100.4739429999999913
11
248.5442539999999951
21
-100.3722080000000005
0
LINE
8
BLACK
6
CONTINUOUS
10
248.5442539999999951
20
-100.3722080000000005
11
248.5138499999999908
21
-100.2587369999999964
0
LINE
8
BLACK
6
CONTINUOUS
10
248.5138499999999908
20
-100.2587369999999964
11
248.5138499999999908
21
-100.141262999999995
0
LINE
8
BLACK
6
CONTINUOUS
10
248.5138499999999908
20
-100.141262999999995
11
248.5442539999999951
21
-100.0277919999999909
0
LINE
8
BLACK
6
CONTINUOUS
10
248.5442539999999951
20
-100.0277919999999909
11
248.6029910000000029
21
-99.9260570000000001
0
LINE
8
BLACK
6
CONTINUOUS
10
248.6029910000000029
20
-99.9260570000000001
11
248.6860569999999768
21
-99.8429909999999978
0
LINE
8
BLACK
6
CONTINUOUS
10
248.6860569999999768
20
-99.8429909999999978
11
248.7877919999999961
21
-99.78425399999999
0
LINE
8
BLACK
6
CONTINUOUS
10
248.7877919999999961
20
-99.78425399999999
11
248.9012630000000001
21
-99.7538499999999999
0
LINE
8
BLACK
6
CONTINUOUS
10
248.9012630000000001
20
-99.7538499999999999
11
249.0187369999999873
21
-99.7538499999999999
0
LINE
8
BLACK
6
CONTINUOUS
10
249.0187369999999873
20
-99.7538499999999999
11
249.1322079999999914
21
-99.78425399999999
0
LINE
8
BLACK
6
CONTINUOUS
10
190.1399999999999864
20
-98.519999999999996
11
188.6399999999999864
21
-98.519999999999996
0
LINE
8
BLACK
6
CONTINUOUS
10
188.6399999999999864
20
-98.519999999999996
11
188.6399999999999864
21
-96.019999999999996
0
LINE
8
BLACK
6
CONTINUOUS
10
188.6399999999999864
20
-96.019999999999996
11
190.1399999999999864
21
-96.019999999999996
0
LINE
8
BLACK
6
CONTINUOUS
10
190.1399999999999864
20
-96.019999999999996
11
190.1399999999999864
21
-98.519999999999996
0
LINE
8
BLACK
6
CONTINUOUS
10
195.2199999999999989
20
-98.519999999999996
11
193.7199999999999989
21
-98.519999999999996
0
LINE
8
BLACK
6
CONTINUOUS
10
193.7199999999999989
20
-98.519999999999996
11
193.7199999999999989
21
-96.019999999999996
0
LINE
8
BLACK
6
CONTINUOUS
10
193.7199999999999989
20
-96.019999999999996
11
195.2199999999999989
21
-96.019999999999996
0
LINE
8
BLACK
6
CONTINUOUS
10
195.2199999999999989
20
-96.019999999999996
11
195.2199999999999989
21
-98.519999999999996
0
LINE
8
BLACK
6
CONTINUOUS
10
200.2999999999999829
20
-98.519999999999996
11
198.7999999999999829
21
-98.519999999999996
0
LINE
8
BLACK
6
CONTINUOUS
10
198.7999999999999829
20
-98.519999999999996
11
198.7999999999999829
21
-96.019999999999996
0
LINE
8
BLACK
6
CONTINUOUS
10
198.7999999999999829
20
-96.019999999999996
11
200.2999999999999829
21
-96.019999999999996
0
LINE
8
BLACK
6
CONTINUOUS
10
200.2999999999999829
20
-96.019999999999996
11
200.2999999999999829
21
-98.519999999999996
0
LINE
8
BLACK
6
CONTINUOUS
10
205.3799999999999955
20
-98.519999999999996
11
203.8799999999999955
21
-98.519999999999996
0
LINE
8
BLACK
6
CONTINUOUS
10
203.8799999999999955
20
-98.519999999999996
11
203.8799999999999955
21
-96.019999999999996
0
LINE
8
BLACK
6
CONTINUOUS
10
203.8799999999999955
20
-96.019999999999996
11
205.3799999999999955
21
-96.019999999999996
0
LINE
8
BLACK
6
CONTINUOUS
10
205.3799999999999955
20
-96.019999999999996
11
205.3799999999999955
21
-98.519999999999996
0
LINE
8
BLACK
6
CONTINUOUS
10
210.4599999999999795
20
-98.519999999999996
11
208.9599999999999795
21
-98.519999999999996
0
LINE
8
BLACK
6
CONTINUOUS
10
208.9599999999999795
20
-98.519999999999996
11
208.9599999999999795
21
-96.019999999999996
0
LINE
8
BLACK
6
CONTINUOUS
10
208.9599999999999795
20
-96.019999999999996
11
210.4599999999999795
21
-96.019999999999996
0
LINE
8
BLACK
6
CONTINUOUS
10
210.4599999999999795
20
-96.019999999999996
11
210.4599999999999795
21
-98.519999999999996
0
LINE
8
BLACK
6
CONTINUOUS
10
215.539999999999992
20
-98.519999999999996
11
214.039999999999992
21
-98.519999999999996
0
LINE
8
BLACK
6
CONTINUOUS
10
214.039999999999992
20
-98.519999999999996
11
214.039999999999992
21
-96.019999999999996
0
LINE
8
BLACK
6
CONTINUOUS
10
214.039999999999992
20
-96.019999999999996
11
215.539999999999992
21
-96.019999999999996
0
LINE
8
BLACK
6
CONTINUOUS
10
215.539999999999992
20
-96.019999999999996
11
215.539999999999992
21
-98.519999999999996
0
LINE
8
BLACK
6
CONTINUOUS
10
220.6199999999999761
20
-98.519999999999996
11
219.1199999999999761
21
-98.519999999999996
0
LINE
8
BLACK
6
CONTINUOUS
10
219.1199999999999761
20
-98.519999999999996
11
219.1199999999999761
21
-96.019999999999996
0
LINE
8
BLACK
6
CONTINUOUS
10
219.1199999999999761
20
-96.019999999999996
11
220.6199999999999761
21
-96.019999999999996
0
LINE
8
BLACK
6
CONTINUOUS
10
220.6199999999999761
20
-96.019999999999996
11
220.6199999999999761
21
-98.519999999999996
0
LINE
8
BLACK
6
CONTINUOUS
10
225.6999999999999886
20
-98.519999999999996
11
224.1999999999999886
21
-98.519999999999996
0
LINE
8
BLACK
6
CONTINUOUS
10
224.1999999999999886
20
-98.519999999999996
11
224.1999999999999886
21
-96.019999999999996
0
LINE
8
BLACK
6
CONTINUOUS
10
224.1999999999999886
20
-96.019999999999996
11
225.6999999999999886
21
-96.019999999999996
0
LINE
8
BLACK
6
CONTINUOUS
10
225.6999999999999886
20
-96.019999999999996
11
225.6999999999999886
21
-98.519999999999996
0
LINE
8
BLACK
6
CONTINUOUS
10
230.7800000000000011
20
-98.519999999999996
11
229.2800000000000011
21
-98.519999999999996
0
LINE
8
BLACK
6
CONTINUOUS
10
229.2800000000000011
20
-98.519999999999996
11
229.2800000000000011
21
-96.019999999999996
0
LINE
8
BLACK
6
CONTINUOUS
10
229.2800000000000011
20
-96.019999999999996
11
230.7800000000000011
21
-96.019999999999996
0
LINE
8
BLACK
6
CONTINUOUS
10
230.7800000000000011
20
-96.019999999999996
11
230.7800000000000011
21
-98.519999999999996
0
LINE
8
BLACK
6
CONTINUOUS
10
235.8599999999999852
20
-98.519999999999996
11
234.3599999999999852
21
-98.519999999999996
0
LINE
8
BLACK
6
CONTINUOUS
10
234.3599999999999852
20
-98.519999999999996
11
234.3599999999999852
21
-96.019999999999996
0
LINE
8
BLACK
6
CONTINUOUS
10
234.3599999999999852
20
-96.019999999999996
11
235.8599999999999852
21
-96.019999999999996
0
LINE
8
BLACK
6
CONTINUOUS
10
235.8599999999999852
20
-96.019999999999996
11
235.8599999999999852
21
-98.519999999999996
  0
ENDSEC
  0
EOF
