%TF.GenerationSoftware,KiCad,Pcbnew,9.0.0*%
%TF.CreationDate,2025-07-04T19:45:28-07:00*%
%TF.ProjectId,bubby2,62756262-7932-42e6-9b69-6361645f7063,rev?*%
%TF.SameCoordinates,Original*%
%TF.FileFunction,Soldermask,Top*%
%TF.FilePolarity,Negative*%
%FSLAX46Y46*%
G04 Gerber Fmt 4.6, Leading zero omitted, Abs format (unit mm)*
G04 Created by KiCad (PCBNEW 9.0.0) date 2025-07-04 19:45:28*
%MOMM*%
%LPD*%
G01*
G04 APERTURE LIST*
G04 Aperture macros list*
%AMRoundRect*
0 Rectangle with rounded corners*
0 $1 Rounding radius*
0 $2 $3 $4 $5 $6 $7 $8 $9 X,Y pos of 4 corners*
0 Add a 4 corners polygon primitive as box body*
4,1,4,$2,$3,$4,$5,$6,$7,$8,$9,$2,$3,0*
0 Add four circle primitives for the rounded corners*
1,1,$1+$1,$2,$3*
1,1,$1+$1,$4,$5*
1,1,$1+$1,$6,$7*
1,1,$1+$1,$8,$9*
0 Add four rect primitives between the rounded corners*
20,1,$1+$1,$2,$3,$4,$5,0*
20,1,$1+$1,$4,$5,$6,$7,0*
20,1,$1+$1,$6,$7,$8,$9,0*
20,1,$1+$1,$8,$9,$2,$3,0*%
G04 Aperture macros list end*
%ADD10C,0.750000*%
%ADD11R,1.550000X1.000000*%
%ADD12C,0.900000*%
%ADD13RoundRect,0.250000X1.000000X-0.375000X1.000000X0.375000X-1.000000X0.375000X-1.000000X-0.375000X0*%
%ADD14R,1.000000X1.550000*%
%ADD15R,1.500000X2.500000*%
G04 APERTURE END LIST*
D10*
%TO.C,SW1*%
X231360000Y-127570000D03*
X231360000Y-124820000D03*
D11*
X233985000Y-127045000D03*
X228735000Y-127045000D03*
X233985000Y-125345000D03*
X228735000Y-125345000D03*
%TD*%
D10*
%TO.C,SW0*%
X244800000Y-127570000D03*
X244800000Y-124820000D03*
D11*
X247425000Y-127045000D03*
X242175000Y-127045000D03*
X247425000Y-125345000D03*
X242175000Y-125345000D03*
%TD*%
D10*
%TO.C,SW2*%
X209335000Y-127585000D03*
X209335000Y-124835000D03*
D11*
X211960000Y-127060000D03*
X206710000Y-127060000D03*
X211960000Y-125360000D03*
X206710000Y-125360000D03*
%TD*%
D12*
%TO.C,SW5*%
X248960000Y-107000000D03*
X248960000Y-100200000D03*
D13*
X246210000Y-106100000D03*
X246210000Y-103600000D03*
X246210000Y-101100000D03*
%TD*%
D10*
%TO.C,SW3*%
X192300000Y-127570000D03*
X192300000Y-124820000D03*
D11*
X194925000Y-127045000D03*
X189675000Y-127045000D03*
X194925000Y-125345000D03*
X189675000Y-125345000D03*
%TD*%
D10*
%TO.C,SW4*%
X249770000Y-117775000D03*
X247020000Y-117775000D03*
D14*
X249245000Y-115150000D03*
X249245000Y-120400000D03*
X247545000Y-115150000D03*
X247545000Y-120400000D03*
%TD*%
D15*
%TO.C,A1*%
X189420000Y-116500000D03*
X191960000Y-119800000D03*
X194500000Y-116500000D03*
X197040000Y-119800000D03*
X199580000Y-116500000D03*
X202120000Y-119800000D03*
X204660000Y-116500000D03*
X207200000Y-119800000D03*
X209740000Y-116500000D03*
X212280000Y-119800000D03*
X214820000Y-116500000D03*
X217360000Y-119800000D03*
X219900000Y-116500000D03*
X222440000Y-119800000D03*
X224980000Y-116500000D03*
X227520000Y-119800000D03*
X230060000Y-116500000D03*
X232600000Y-119800000D03*
X235140000Y-116500000D03*
X237680000Y-119800000D03*
X237650000Y-100570000D03*
X235110000Y-97270000D03*
X232570000Y-100570000D03*
X230030000Y-97270000D03*
X227490000Y-100570000D03*
X224950000Y-97270000D03*
X222410000Y-100570000D03*
X219870000Y-97270000D03*
X217330000Y-100570000D03*
X214790000Y-97270000D03*
X212250000Y-100570000D03*
X209710000Y-97270000D03*
X207170000Y-100570000D03*
X204630000Y-97270000D03*
X202090000Y-100570000D03*
X199550000Y-97270000D03*
X197010000Y-100570000D03*
X194470000Y-97270000D03*
X191930000Y-100570000D03*
X189390000Y-97270000D03*
%TD*%
M02*
